<?xml version="1.0" encoding="utf-8"?>
<!-- Generator: Adobe Illustrator 27.1.1, SVG Export Plug-In . SVG Version: 6.00 Build 0)  -->
<svg version="1.1" id="Layer_1" xmlns="http://www.w3.org/2000/svg" xmlns:xlink="http://www.w3.org/1999/xlink" x="0px" y="0px"
	 viewBox="0 0 400 400" style="enable-background:new 0 0 400 400;" xml:space="preserve">
<style type="text/css">
	.st0{fill:none;stroke:#000000;stroke-width:5;stroke-linecap:round;stroke-linejoin:round;stroke-miterlimit:10;}
	.st1{fill:#F9C6B9;stroke:#000000;stroke-width:5;stroke-linecap:round;stroke-linejoin:round;stroke-miterlimit:10;}
	.st2{fill:#F9C6B9;stroke:#000000;stroke-width:6;stroke-linecap:round;stroke-linejoin:round;stroke-miterlimit:10;}
	.st3{stroke:#FFFFFF;stroke-miterlimit:10;}
	.st4{fill:#F9C6B9;}
	.st5{fill:#FFFFFF;stroke:#000000;stroke-width:5;stroke-linecap:round;stroke-linejoin:round;stroke-miterlimit:10;}
	.st6{fill:none;stroke:#000000;stroke-width:3;stroke-linecap:round;stroke-linejoin:round;stroke-miterlimit:10;}
	.st7{fill:#F9C6B9;stroke:#000000;stroke-width:3;stroke-linecap:round;stroke-linejoin:round;stroke-miterlimit:10;}
	.st8{fill:#FFFFFF;}
	.st9{fill:#F9C6B9;stroke:#000000;stroke-width:3.173;stroke-linecap:round;stroke-linejoin:round;stroke-miterlimit:10;}
	.st10{fill:#FFFFFF;stroke:#000000;stroke-width:3.173;stroke-linecap:round;stroke-linejoin:round;stroke-miterlimit:10;}
	.st11{fill:#FFFFFF;stroke:#FFFFFF;stroke-width:4;stroke-miterlimit:10;}
	.st12{fill:#F9C6B9;stroke:#F9C6B9;stroke-width:3;stroke-miterlimit:10;}
	.st13{fill:#F9C6B9;stroke:#F9C6B9;stroke-width:5;stroke-miterlimit:10;}
	.st14{fill:#F9C6B9;stroke:#F9C6B9;stroke-width:4;stroke-linecap:round;stroke-linejoin:round;stroke-miterlimit:10;}
	.st15{fill:#F9C6B9;stroke:#F9C6B9;stroke-width:5;stroke-linecap:round;stroke-linejoin:round;stroke-miterlimit:10;}
	.st16{fill:#FFFFFF;stroke:#FFFFFF;stroke-width:3;stroke-miterlimit:10;}
	.st17{fill:#F9C6B9;stroke:#F9C6B9;stroke-width:1.5;stroke-miterlimit:10;}
	.st18{fill:#F9C6B9;stroke:#F9C6B9;stroke-width:11;stroke-miterlimit:10;}
	.st19{fill:none;stroke:#000000;stroke-width:6;stroke-linecap:round;stroke-linejoin:round;stroke-miterlimit:10;}
	.st20{fill:#FFFFFF;stroke:#000000;stroke-width:6;stroke-linecap:round;stroke-linejoin:round;stroke-miterlimit:10;}
	.st21{fill:none;stroke:#000000;stroke-width:6;stroke-miterlimit:10;}
	.st22{fill:#F9C6B9;stroke:#000000;stroke-width:5;stroke-miterlimit:10;}
	.st23{fill:#FFFFFF;stroke:#000000;stroke-width:6;stroke-miterlimit:10;}
	.st24{fill:#FFFFFF;stroke:#000000;stroke-width:4;stroke-linecap:round;stroke-linejoin:round;stroke-miterlimit:10;}
	.st25{fill:none;stroke:#000000;stroke-width:2;stroke-linecap:round;stroke-linejoin:round;stroke-miterlimit:10;}
	.st26{fill:#FFFFFF;stroke:#000000;stroke-width:3;stroke-linecap:round;stroke-linejoin:round;stroke-miterlimit:10;}
	.st27{fill:none;stroke:#000000;stroke-width:3.685;stroke-miterlimit:10;}
	.st28{fill:#FFFFFF;stroke:#000000;stroke-width:3.685;stroke-miterlimit:10;}
</style>
<g>
	<path d="M302.8,133.6c-0.4,1.1-1.7,2.5-3.2,3.4c-2.5,1.5-5.4,2.9-9.1,4.3c-3.8,1.4-3.9,4.1-3.6,6.4c0.6,4,1.2,8.3,1.4,12.5
		c0.5,10.8,0.2,22.3-10.1,34l-1.3,1.4l1.4,1.3c0.7,0.6,1.4,1.3,2.1,1.9c1.8,1.7,3.7,3.4,5.5,5.2c1.6,1.6,2.9,4.1,0.3,6.8
		c-2.6,2.6-5.1,1.2-6.8-0.3c-1.3-1.3-2.7-2.7-4.2-4.2c-1.1-1.1-2.1-2.3-3.2-3.4l-2-2.2l-1.4,0.8c-9.7,5.5-19.8,5.4-30.6,5.3
		c-3.1,0-6.3,0-9.5,0.1l-1.9,0.1v91.7c-3-0.7-6.2-1.3-9.5-2c0-2.9,0-5.9,0-8.4c0-3.5,0-6.1,0-6.3v-78.1c0-4.8,1.5-6.2,6.2-6.3
		c3.2,0,6.4,0,9.5,0c5.1,0,10.4,0,15.7-0.1c3-0.1,6-0.7,9.1-1.4c14.7-3.4,22.8-18.5,21.8-30.7c-0.9-11-2.2-22.1-3.5-32.8l-0.7-6.4
		c-0.6-5.6-5-9.4-11-9.4c-5.8-0.1-10.4,3.5-11.4,8.9c-0.3,1.4-0.3,2.8-0.3,4c0,5.3,0,10.5,0,15.8c0,5.3,0,10.5,0,15.8
		c0,4.5-1.4,5.9-5.9,5.9c-7.8,0-15.7,0-23.5,0c-4.5,0-5.9-1.4-5.9-5.9c0-11.3,0-22.6,0-34c0-15.1,0-30.2,0-45.3
		c0-5.3-2.3-10-6.2-12.9c-3.8-2.9-8.9-3.7-13.8-2.3c-6.6,1.9-10.5,7.5-10.5,15c0,12.5,0,25,0,37.5v12.4c0,5.9-1.1,7.1-7.1,7.1h-21
		c-6.2,0-7.3-1.1-7.3-7.1v-9c0-7.4,0-15,0-22.6c0-3.7-1.2-6.7-3.5-8.8c-2.3-2.1-5.4-3.1-9.1-2.9c-5.3,0.4-9.5,4.2-10.1,9.4
		c-0.3,3.1-0.7,6.1-1.1,9.1c-1.2,10-2.4,20.4-3.2,30.6c-0.6,7.8,2.1,15.5,7.7,21.6c5.9,6.4,14.2,10.2,22.8,10.3
		c5.4,0.1,10.8,0.1,16.1,0c3.2,0,6.4,0,9.6,0c4.7,0,6,1.4,6,6.1V284c0,2-0.7,3.3-2.2,4.1c-1.7,0.9-3.3,0.8-4.9-0.2
		c-1.4-0.9-2-2.2-2-4.8V178h-5.2c-2.2,0-4.4,0-6.6,0c-4.1,0-8.3,0-12.4-0.1c-10.8-0.4-20-4.7-28.1-13.2l-1.2-1.2l-2.4,1.6
		c-0.9,0.6-1.8,1.2-2.8,1.8c-0.5,0.3-1,0.6-1.6,1c-1.4,0.9-2.7,1.7-4.1,2.4c-2.5,1.1-4.3,0.6-5.7-1.5c-1.3-2.1-0.9-3.9,1-5.6
		c1.3-1.2,2.8-2.2,4.4-3.2c0.6-0.4,1.1-0.8,1.7-1.1c1-0.7,2.1-1.4,3.2-2.1l1.5-0.9l-0.7-1.6c-4.6-10.2-3.4-20.5-2-31.4
		c0.4-3,0.7-6.2,1-9.3l0.2-2.8l-5.5,1.5c-2.3,0.6-4.4,1.2-6.6,1.7c-3,0.8-5.2-0.3-5.8-2.9c-0.7-2.9,0.4-4.9,3.5-5.8
		c1.8-0.5,3.6-1,5.4-1.5c2.3-0.6,4.8-1.3,7.1-2c1.5-0.5,3.2-2.1,3.3-3.8c1.4-13.8,12.4-19.6,22-19c11.6,0.6,19.1,9.2,19.2,21.9
		c0,4.8,0,9.6,0,14.5c0,3.2,0,6.4,0,9.6c0,0.6,0,1.1,0.1,1.6c0,0.3,0,0.5,0.1,0.8l0.1,1.9h16.9v-5.4c0-4.2,0-8.5,0-12.7
		c0-9.5-0.1-19.4,0.1-29.1c0.2-10.9,4.6-18.5,13.2-22.6c7.8-3.8,16.3-3.4,23.5,0.9c7.3,4.4,11.8,12.3,12.1,21.1c0,0.5,0,1,0,1.6v5.2
		l5.3-3.8c1.1-0.8,2-1.4,3-2.1c3-2.1,5.4-1.9,7.1,0.6c1.7,2.4,1.1,4.8-1.9,6.9c-1.3,1-2.7,1.9-4,2.9c-2.4,1.7-4.8,3.4-7.2,5.2
		c-1.1,0.8-2.3,2.6-2.3,4.2c-0.1,17.6,0,35.4,0,52.7c0,0.4,0.1,0.8,0.2,1c0,0.1,0.1,0.2,0.1,0.4l0.3,1.6h16.4l0.1-1.9
		c0-0.4,0-0.7,0.1-1.1c0-0.6,0.1-1.3,0.1-2c0-2.4,0-4.8,0-7.2c0-5.5,0-11.2,0-16.8c0.1-10.2,5.9-18.3,14.7-20.6
		c6.3-1.7,12.5-0.6,17.6,3c5.3,3.8,8.6,10.1,9.1,17.1c0,0.6,0.1,1.3,0.1,2l0.2,3l2.5-1c1.1-0.4,2.1-0.9,3.2-1.3
		c2.2-0.9,4.3-1.8,6.4-2.4c1.7-0.5,3.3-0.1,4.4,1.1C303,130.6,303.3,132.1,302.8,133.6z"/>
</g>
<g>
	<path class="st18" d="M257.2,194c-2.9,0.6-5.8,1.3-8.7,1.3c-8.4,0.2-16.8,0-25.2,0.1c-5.9,0.1-8.2,2.5-8.2,8.3v78.1
		c0,0.3,0,2.8,0,6.3c-8.2-1.5-17-2.9-26.5-4.2c0,0,0,0,0,0V175c0-5.8-2.3-8.1-8-8.1c-8.6,0-17.1,0.1-25.7,0
		c-16.2-0.2-29.8-14-28.6-29.7c1-13.3,2.7-26.4,4.2-39.7c0.5-4.3,3.9-7.3,8.3-7.6c6.3-0.4,10.4,3.4,10.5,9.7c0.1,10.5,0,21.1,0,31.6
		c0,7.2,2,9.1,9.3,9.1h21c7,0,9.1-2,9.1-9.1c0-16.6,0-33.3,0-49.9c0-6.6,3.4-11.4,9.1-13c9.2-2.7,17.4,3.6,17.5,13.3
		c0,26.4,0,52.9,0,79.3c0,5.6,2.3,7.9,7.9,7.9c7.8,0,15.7,0,23.5,0c5.7,0,7.9-2.3,7.9-7.9c0-10.5,0-21.1,0-31.6c0-1.2,0-2.4,0.3-3.6
		c0.9-4.5,4.6-7.3,9.4-7.3c4.9,0.1,8.5,3,9,7.7c1.5,13,3.1,26.1,4.2,39.1C278.4,176.9,270.7,191,257.2,194z"/>
</g>
<line class="st19" x1="196.9" y1="141.8" x2="207.1" y2="151.9"/>
<line class="st19" x1="254.7" y1="173" x2="250.8" y2="187.8"/>
<line class="st19" x1="204" y1="184.7" x2="200.1" y2="190.2"/>
<line class="st19" x1="200.7" y1="84.7" x2="194" y2="83.9"/>
<line class="st19" x1="268" y1="169.9" x2="264.1" y2="164.4"/>
<line class="st19" x1="203" y1="220.9" x2="199.1" y2="215.4"/>
<line class="st19" x1="136.8" y1="123" x2="132.9" y2="117.5"/>
<line class="st19" x1="148.1" y1="155.5" x2="152.8" y2="150.7"/>
<line class="st19" x1="202.8" y1="118" x2="207.5" y2="113.2"/>
<line class="st19" x1="186" y1="156.2" x2="183.7" y2="149.9"/>
<line class="st19" x1="234.7" y1="185.8" x2="231.9" y2="179.7"/>
<line class="st19" x1="265.9" y1="139.3" x2="266.2" y2="132.5"/>
<g>
	<path class="st8" d="M262.9,255c-2,8.5-5.3,17.4-7.3,25.6c-1.7,7.2-2.2,14.8-4,22s-4.1,14.3-5.9,21.6c-1.5,6.1-4.6,8.6-11,8.7
		c-8.5,0.1-17.1,0.6-25.6,0.6c-6.3,0-12.6-1.6-18.8-1.6c-6.3,0-12.6,0.8-18.8,0.8c-8.1,0-10.7-2.1-12.6-9.8
		c-1.7-7.2-3.4-14.5-5.1-21.8c-1.7-7.2-3.5-14.5-5.3-21.7s-3.7-14.4-5.4-21.7c-0.1-0.6-0.2-1.5-0.3-2.5c7.9,0,15.9,0.4,23.9,0.4
		c7.9,0,15.9-0.3,23.8-0.3c7.9,0,15.9,1.3,23.8,1.3c7.9,0,15.9-1.8,23.8-1.8C246,254.8,254.9,255,262.9,255z"/>
	<path class="st19" d="M262.9,255c-2,8.5-5.3,17.4-7.3,25.6c-1.7,7.2-2.2,14.8-4,22s-4.1,14.3-5.9,21.6c-1.5,6.1-4.6,8.6-11,8.7
		c-8.5,0.1-17.1,0.6-25.6,0.6c-6.3,0-12.6-1.6-18.8-1.6c-6.3,0-12.6,0.8-18.8,0.8c-8.1,0-10.7-2.1-12.6-9.8
		c-1.7-7.2-3.4-14.5-5.1-21.8c-1.7-7.2-3.5-14.5-5.3-21.7s-3.7-14.4-5.4-21.7c-0.1-0.6-0.2-1.5-0.3-2.5c7.9,0,15.9,0.4,23.9,0.4
		c7.9,0,15.9-0.3,23.8-0.3c7.9,0,15.9,1.3,23.8,1.3c7.9,0,15.9-1.8,23.8-1.8C246,254.8,254.9,255,262.9,255z"/>
</g>
<path class="st20" d="M276.5,238.5c0,6.2,0,12.1,0,18.3c-49.4,0-98.7,0-148.1,0c0-6.1,0-12,0-18.3
	C177.6,238.5,228.1,233.4,276.5,238.5z"/>
</svg>
