<?xml version="1.0" encoding="utf-8"?>
<!-- Generator: Adobe Illustrator 27.1.1, SVG Export Plug-In . SVG Version: 6.00 Build 0)  -->
<svg version="1.1" id="Layer_1" xmlns="http://www.w3.org/2000/svg" xmlns:xlink="http://www.w3.org/1999/xlink" x="0px" y="0px"
	 viewBox="0 0 400 400" style="enable-background:new 0 0 400 400;" xml:space="preserve">
<style type="text/css">
	.st0{fill:none;stroke:#000000;stroke-width:5;stroke-linecap:round;stroke-linejoin:round;stroke-miterlimit:10;}
	.st1{fill:#F9C6B9;stroke:#000000;stroke-width:5;stroke-linecap:round;stroke-linejoin:round;stroke-miterlimit:10;}
	.st2{fill:#F9C6B9;stroke:#000000;stroke-width:6;stroke-linecap:round;stroke-linejoin:round;stroke-miterlimit:10;}
	.st3{stroke:#FFFFFF;stroke-miterlimit:10;}
	.st4{fill:#F9C6B9;}
	.st5{fill:#FFFFFF;stroke:#000000;stroke-width:5;stroke-linecap:round;stroke-linejoin:round;stroke-miterlimit:10;}
	.st6{fill:none;stroke:#000000;stroke-width:3;stroke-linecap:round;stroke-linejoin:round;stroke-miterlimit:10;}
	.st7{fill:#F9C6B9;stroke:#000000;stroke-width:3;stroke-linecap:round;stroke-linejoin:round;stroke-miterlimit:10;}
	.st8{fill:#FFFFFF;}
	.st9{fill:#F9C6B9;stroke:#000000;stroke-width:3.173;stroke-linecap:round;stroke-linejoin:round;stroke-miterlimit:10;}
	.st10{fill:#FFFFFF;stroke:#000000;stroke-width:3.173;stroke-linecap:round;stroke-linejoin:round;stroke-miterlimit:10;}
	.st11{fill:#FFFFFF;stroke:#FFFFFF;stroke-width:4;stroke-miterlimit:10;}
	.st12{fill:#F9C6B9;stroke:#F9C6B9;stroke-width:3;stroke-miterlimit:10;}
	.st13{fill:#F9C6B9;stroke:#F9C6B9;stroke-width:5;stroke-miterlimit:10;}
	.st14{fill:#F9C6B9;stroke:#F9C6B9;stroke-width:4;stroke-linecap:round;stroke-linejoin:round;stroke-miterlimit:10;}
	.st15{fill:#F9C6B9;stroke:#F9C6B9;stroke-width:5;stroke-linecap:round;stroke-linejoin:round;stroke-miterlimit:10;}
	.st16{fill:#FFFFFF;stroke:#FFFFFF;stroke-width:3;stroke-miterlimit:10;}
	.st17{fill:#F9C6B9;stroke:#F9C6B9;stroke-width:1.5;stroke-miterlimit:10;}
	.st18{fill:#F9C6B9;stroke:#F9C6B9;stroke-width:11;stroke-miterlimit:10;}
	.st19{fill:none;stroke:#000000;stroke-width:6;stroke-linecap:round;stroke-linejoin:round;stroke-miterlimit:10;}
	.st20{fill:#FFFFFF;stroke:#000000;stroke-width:6;stroke-linecap:round;stroke-linejoin:round;stroke-miterlimit:10;}
	.st21{fill:none;stroke:#000000;stroke-width:6;stroke-miterlimit:10;}
	.st22{fill:#F9C6B9;stroke:#000000;stroke-width:5;stroke-miterlimit:10;}
	.st23{fill:#FFFFFF;stroke:#000000;stroke-width:6;stroke-miterlimit:10;}
	.st24{fill:#FFFFFF;stroke:#000000;stroke-width:4;stroke-linecap:round;stroke-linejoin:round;stroke-miterlimit:10;}
	.st25{fill:none;stroke:#000000;stroke-width:2;stroke-linecap:round;stroke-linejoin:round;stroke-miterlimit:10;}
	.st26{fill:#FFFFFF;stroke:#000000;stroke-width:3;stroke-linecap:round;stroke-linejoin:round;stroke-miterlimit:10;}
	.st27{fill:none;stroke:#000000;stroke-width:3.685;stroke-miterlimit:10;}
	.st28{fill:#FFFFFF;stroke:#000000;stroke-width:3.685;stroke-miterlimit:10;}
</style>
<g>
	<path d="M336.5,135.8c-1,1.8-1.7,3.3-2.6,4.7c-29.2,42.4-58.4,84.7-87.6,127.1c-11.5,16.6-22.9,33.3-34.4,49.9
		c-3.5,5.1-6.3,5.1-9.8,0C161.3,258.3,120.5,199.2,79.7,140c-2.8-4-2.4-6.2,1.7-8.6c29.1-17.3,58.3-34.6,87.5-51.9
		c1.3-0.8,3-1.2,4.5-1.2c20.2-0.1,40.4-0.1,60.7,0c1.6,0,3.4,0.5,4.8,1.2c16.1,8,32.5,15.5,48.2,24.3c15.8,8.8,31,18.7,46.4,28.3
		C334.7,132.8,335.4,134.4,336.5,135.8z M172.1,176.4c11.5,40,23,79.9,34.5,119.7c0.2,0,0.5-0.1,0.7-0.1
		c11.5-39.8,23-79.6,34.5-119.6C218.5,176.4,195.4,176.4,172.1,176.4z M137.9,107.5c0.6,0.4,0.9,0.6,1.2,0.8
		c15.5,6.4,31,12.9,46.5,19.3c1.2,0.5,2.5,0.6,3.8,0.6c11.6,0,23.2,0.1,34.8,0c1.7,0,3.6-0.4,5.2-1c14.4-5.9,28.8-11.9,43.2-17.9
		c0.8-0.3,1.5-0.7,2.7-1.3c-1.3-0.7-2.2-1.3-3.2-1.8c-11.6-5.8-23.2-11.7-34.9-17.4c-1.9-0.9-4.2-1.4-6.3-1.4
		c-13.4-0.1-26.9,0.6-40.2-0.2c-12.1-0.7-22.7,1.8-32.7,8.7C151.8,100.1,144.8,103.5,137.9,107.5z M95.8,146.6
		c-0.1,0.2-0.2,0.4-0.4,0.5c33.4,48.5,66.9,97,100.3,145.5c0.2-1.2,0.1-2.1-0.2-3.1c-10.8-37.3-21.5-74.5-32.2-111.8
		c-0.6-2-1.5-3-3.3-3.8c-16-6.8-32-13.7-48-20.5C106.6,151.2,101.2,148.9,95.8,146.6z M217.7,292.3c0.2,0.1,0.4,0.2,0.6,0.3
		c33.4-48.5,66.8-97,100.6-146c-1.2,0.4-1.9,0.6-2.5,0.8c-21,9-42.1,18-63.1,27.1c-1.1,0.5-2.2,2-2.5,3.2
		c-8.3,28.3-16.4,56.6-24.6,85C223.4,272.5,220.5,282.4,217.7,292.3z M179.7,134.9c-1.2-0.5-2-0.9-2.8-1.3
		c-14.8-6.2-29.7-12.3-44.5-18.6c-3.3-1.4-5.7-1.3-8.7,0.7c-10.3,6.7-20.9,13-31.8,19.7c24.2,10.4,48.1,20.6,72.1,30.9
		C169.3,155.7,174.5,145.4,179.7,134.9z M234.1,134.8c5.3,10.7,10.5,21,15.7,31.4c24.1-10.3,47.8-20.5,72.1-30.9
		c-11.9-7.3-23.2-14.3-34.6-21.2c-0.8-0.5-2.3-0.4-3.2,0c-6.2,2.5-12.4,5.1-18.6,7.6C255.2,126,244.9,130.3,234.1,134.8z
		 M240.4,167.2c-5-10-9.7-19.6-14.6-29c-0.4-0.7-1.8-1.2-2.7-1.2c-10.7-0.1-21.4,0-32.1-0.1c-1.7,0-2.7,0.6-3.4,2.1
		c-3.5,7.2-7.1,14.3-10.7,21.5c-1.1,2.1-2.1,4.2-3.3,6.7C196,167.2,217.9,167.2,240.4,167.2z"/>
	<path class="st12" d="M172.1,176.4c23.3,0,46.3,0,69.7,0c-11.5,40-23,79.8-34.5,119.6c-0.2,0-0.5,0.1-0.7,0.1
		C195.1,256.3,183.7,216.4,172.1,176.4z"/>
	<path class="st16" d="M137.9,107.5c6.9-3.9,14-7.3,20.3-11.8c9.9-7,20.6-9.5,32.7-8.7c13.4,0.8,26.8,0.1,40.2,0.2
		c2.1,0,4.4,0.5,6.3,1.4c11.7,5.7,23.3,11.6,34.9,17.4c0.9,0.5,1.8,1,3.2,1.8c-1.2,0.6-1.9,1-2.7,1.3c-14.4,6-28.8,12-43.2,17.9
		c-1.6,0.7-3.5,1-5.2,1c-11.6,0.1-23.2,0.1-34.8,0c-1.3,0-2.6-0.1-3.8-0.6c-15.5-6.4-31-12.8-46.5-19.3
		C138.8,108.1,138.4,107.8,137.9,107.5z"/>
	<path class="st12" d="M95.8,146.6c5.4,2.3,10.8,4.6,16.2,6.9c16,6.8,32,13.7,48,20.5c1.8,0.8,2.8,1.8,3.3,3.8
		c10.7,37.3,21.5,74.5,32.2,111.8c0.3,0.9,0.4,1.9,0.2,3.1c-33.4-48.5-66.9-97-100.3-145.5C95.6,147,95.7,146.8,95.8,146.6z"/>
	<path class="st12" d="M217.7,292.3c2.8-9.9,5.7-19.7,8.5-29.6c8.2-28.3,16.3-56.7,24.6-85c0.4-1.2,1.4-2.7,2.5-3.2
		c21-9.1,42-18.1,63.1-27.1c0.6-0.3,1.3-0.4,2.5-0.8c-33.8,49-67.2,97.5-100.6,146C218.1,292.4,217.9,292.4,217.7,292.3z"/>
	<path class="st16" d="M179.7,134.9c-5.3,10.6-10.4,20.8-15.7,31.3c-24-10.3-47.8-20.5-72.1-30.9c10.9-6.7,21.4-13,31.8-19.7
		c3-2,5.4-2.1,8.7-0.7c14.8,6.4,29.7,12.4,44.5,18.6C177.8,133.9,178.6,134.3,179.7,134.9z"/>
	<path class="st16" d="M234.1,134.8c10.8-4.5,21.1-8.8,31.4-13.1c6.2-2.6,12.3-5.2,18.6-7.6c1-0.4,2.4-0.5,3.2,0
		c11.4,6.9,22.7,13.9,34.6,21.2c-24.2,10.4-48,20.6-72.1,30.9C244.7,155.8,239.5,145.5,234.1,134.8z"/>
	<path class="st16" d="M240.4,167.2c-22.5,0-44.5,0-66.8,0c1.2-2.4,2.2-4.6,3.3-6.7c3.6-7.2,7.2-14.3,10.7-21.5
		c0.8-1.6,1.7-2.1,3.4-2.1c10.7,0.1,21.4,0,32.1,0.1c0.9,0,2.4,0.5,2.7,1.2C230.7,147.7,235.4,157.2,240.4,167.2z"/>
</g>
</svg>
