<?xml version="1.0" encoding="utf-8"?>
<!-- Generator: Adobe Illustrator 27.1.1, SVG Export Plug-In . SVG Version: 6.00 Build 0)  -->
<svg version="1.1" id="Layer_1" xmlns="http://www.w3.org/2000/svg" xmlns:xlink="http://www.w3.org/1999/xlink" x="0px" y="0px"
	 viewBox="0 0 400 400" style="enable-background:new 0 0 400 400;" xml:space="preserve">
<style type="text/css">
	.st0{fill:none;stroke:#000000;stroke-width:5;stroke-linecap:round;stroke-linejoin:round;stroke-miterlimit:10;}
	.st1{fill:#F9C6B9;stroke:#000000;stroke-width:5;stroke-linecap:round;stroke-linejoin:round;stroke-miterlimit:10;}
	.st2{fill:#F9C6B9;stroke:#000000;stroke-width:6;stroke-linecap:round;stroke-linejoin:round;stroke-miterlimit:10;}
	.st3{stroke:#FFFFFF;stroke-miterlimit:10;}
	.st4{fill:#F9C6B9;}
	.st5{fill:#FFFFFF;stroke:#000000;stroke-width:5;stroke-linecap:round;stroke-linejoin:round;stroke-miterlimit:10;}
	.st6{fill:none;stroke:#000000;stroke-width:3;stroke-linecap:round;stroke-linejoin:round;stroke-miterlimit:10;}
	.st7{fill:#F9C6B9;stroke:#000000;stroke-width:3;stroke-linecap:round;stroke-linejoin:round;stroke-miterlimit:10;}
	.st8{fill:#FFFFFF;}
	.st9{fill:#F9C6B9;stroke:#000000;stroke-width:3.173;stroke-linecap:round;stroke-linejoin:round;stroke-miterlimit:10;}
	.st10{fill:#FFFFFF;stroke:#000000;stroke-width:3.173;stroke-linecap:round;stroke-linejoin:round;stroke-miterlimit:10;}
	.st11{fill:#FFFFFF;stroke:#FFFFFF;stroke-width:4;stroke-miterlimit:10;}
	.st12{fill:#F9C6B9;stroke:#F9C6B9;stroke-width:3;stroke-miterlimit:10;}
	.st13{fill:#F9C6B9;stroke:#F9C6B9;stroke-width:5;stroke-miterlimit:10;}
	.st14{fill:#F9C6B9;stroke:#F9C6B9;stroke-width:4;stroke-linecap:round;stroke-linejoin:round;stroke-miterlimit:10;}
	.st15{fill:#F9C6B9;stroke:#F9C6B9;stroke-width:5;stroke-linecap:round;stroke-linejoin:round;stroke-miterlimit:10;}
	.st16{fill:#FFFFFF;stroke:#FFFFFF;stroke-width:3;stroke-miterlimit:10;}
	.st17{fill:#F9C6B9;stroke:#F9C6B9;stroke-width:1.5;stroke-miterlimit:10;}
	.st18{fill:#F9C6B9;stroke:#F9C6B9;stroke-width:11;stroke-miterlimit:10;}
	.st19{fill:none;stroke:#000000;stroke-width:6;stroke-linecap:round;stroke-linejoin:round;stroke-miterlimit:10;}
	.st20{fill:#FFFFFF;stroke:#000000;stroke-width:6;stroke-linecap:round;stroke-linejoin:round;stroke-miterlimit:10;}
	.st21{fill:none;stroke:#000000;stroke-width:6;stroke-miterlimit:10;}
	.st22{fill:#F9C6B9;stroke:#000000;stroke-width:5;stroke-miterlimit:10;}
	.st23{fill:#FFFFFF;stroke:#000000;stroke-width:6;stroke-miterlimit:10;}
	.st24{fill:#FFFFFF;stroke:#000000;stroke-width:4;stroke-linecap:round;stroke-linejoin:round;stroke-miterlimit:10;}
	.st25{fill:none;stroke:#000000;stroke-width:2;stroke-linecap:round;stroke-linejoin:round;stroke-miterlimit:10;}
	.st26{fill:#FFFFFF;stroke:#000000;stroke-width:3;stroke-linecap:round;stroke-linejoin:round;stroke-miterlimit:10;}
	.st27{fill:none;stroke:#000000;stroke-width:3.685;stroke-miterlimit:10;}
	.st28{fill:#FFFFFF;stroke:#000000;stroke-width:3.685;stroke-miterlimit:10;}
</style>
<g>
	<path d="M277.3,120.1c1.6-1.9,3.3-3.5,4.6-5.4c0.7-1.1,1.1-2.7,0.9-4c-0.7-6.7-1.4-13.4-2.4-20c-0.4-2.8,0.2-4.9,2.2-6.9
		c13.3-13.2,26.5-26.4,39.7-39.7c1.7-1.7,3.6-3.1,6.1-2.1c2.8,1.1,3,3.5,3.1,6.1c0.2,9.5,0.5,19.1,0.8,28.6c0,1.4,0.1,2.9,0.2,4.8
		c7.6,0.5,15,0.9,22.4,1.3c4.4,0.3,8.8,0.3,13.2,0.9c1.8,0.3,4.2,1.6,4.8,3c0.5,1.5-0.3,4.2-1.5,5.5c-13.4,13.7-27,27.3-40.7,40.7
		c-1.2,1.2-3.8,1.8-5.6,1.7c-6.4-0.6-12.9-1.4-19.2-2.7c-3-0.6-4.8,0.2-6.7,2.3c-1.2,1.4-2.8,2.3-4.3,3.5
		c24.3,31.6,33,66.2,25.3,104.4c-6.2,31.1-22.6,56.2-48.1,75.1c-50.9,37.6-121.6,30.7-165.2-15.9c-42.4-45.4-43.9-117.2-3.9-164.6
		C144.9,86.5,222.1,76.1,277.3,120.1z M276.2,157.9c34.2,45.7,21.1,104.7-17.3,135c-37.4,29.5-91.3,27.8-126.2-4.4
		c-35.5-32.8-42.1-86.1-15.4-125.8c13.5-20,31.8-33.7,55.2-40c30.8-8.3,59.2-2.2,84.3,16c4.4-4.4,8.5-8.5,12.6-12.6
		c-42.8-35.1-113-34.3-156.2,12.9c-42.7,46.6-39.4,118.9,7.4,162.5c45.2,42.1,118.1,39.8,160.8-5c44-46.2,39.2-113.7,7.4-150.9
		C284.6,149.7,280.4,153.8,276.2,157.9z M250.3,146c-29.6-23.9-81.9-26.3-116.7,10.9c-33.1,35.4-30.5,92.4,5.8,125
		c37,33.2,93.8,29.4,125.9-8.3c31.6-37,23.7-85.5,3.8-108.4c-4.1,4.1-8.2,8.2-12.4,12.3c21.7,33.6,11.4,73.8-15.4,94.5
		c-27.2,21-65.4,19.4-90.5-3.9c-25.2-23.4-30-61.4-11.1-89.9c9.4-14.2,22.2-23.9,38.6-28.7c21.2-6.2,41-2.7,59.4,9
		C242,154.3,246,150.2,250.3,146z M249.1,183.9c-3.6,3.7-7.1,7.4-10.8,10.9c-1.5,1.4-1.6,2.6-0.8,4.4c3.3,7.5,4.5,15.4,3.1,23.6
		c-2.9,17-12.5,28.9-28.8,34.3c-16.5,5.5-31.6,1.8-43.8-10.6c-12.2-12.4-15.6-27.5-10.1-43.9c7.9-23.6,34.4-35.2,57.3-25.6
		c1.2,0.5,3.2,0.9,3.9,0.3c4.2-3.7,8-7.8,12.1-11.8c-24.8-17.2-60.6-11.3-80.2,12.9c-19.9,24.5-17.3,60.8,5.9,82.4
		c23.5,21.9,59.3,21.9,82.8,0.1C263.6,238.8,263.3,203.9,249.1,183.9z M323.2,58.4c-0.5-0.1-1-0.3-1.6-0.4
		c-10.3,10.3-20.6,20.5-30.7,30.9c-0.7,0.7-0.9,2.2-0.8,3.3c0.7,6.3,1.3,12.6,2.3,18.9c0.6,4.1-0.4,7.1-3.5,10.1
		c-28.4,28.2-56.7,56.6-85.1,84.9c-1.9,1.9-4.7,3.8-2.2,7c1.6,2.1,3.9,1.4,7.3-2c28.8-28.8,57.6-57.5,86.3-86.3
		c2.5-2.5,5-3.4,8.5-2.8c6.1,1.1,12.3,2,18.5,2.6c1.6,0.2,3.9-0.5,5-1.6c9.6-9.3,18.9-18.7,28.3-28.2c0.6-0.6,1.1-1.4,2.1-2.5
		c-9.7-0.5-18.9-1-28-1.5c-5.1-0.3-6.3-1.5-6.4-6.5C323.1,75.6,323.2,67,323.2,58.4z M228.8,204c-3.4,3.5-6.8,6.9-9.9,10.4
		c-1,1.1-1.7,2.6-2,4c-1.6,10.1-9.5,17.1-19.1,16.8c-9.7-0.3-17.6-8-18.1-17.8c-0.6-9.6,6.6-17.9,16.8-19.4c1-0.2,2.3-0.3,3-1
		c3.9-3.5,7.6-7.2,11.5-11c-11.4-6.8-30-1.8-39.1,10c-10.3,13.4-9.1,32.2,2.8,44.2c12,12,31,13.1,44.4,2.6
		C230.7,233.8,235.5,215.3,228.8,204z M191,211.1c-2.9,5.1-2.3,9.4,1.2,12.4c3.4,2.9,7.7,3,11.1,0.2
		C196.3,222.6,192.2,218.6,191,211.1z"/>
	<path class="st13" d="M276.2,157.9c4.2-4.1,8.3-8.2,12.5-12.3c31.8,37.2,36.6,104.7-7.4,150.9c-42.6,44.8-115.5,47.1-160.8,5
		c-46.8-43.6-50.1-115.8-7.4-162.5c43.2-47.2,113.4-48.1,156.2-12.9c-4.1,4.1-8.2,8.2-12.6,12.6c-25.1-18.2-53.4-24.3-84.3-16
		c-23.3,6.3-41.7,20-55.2,40c-26.8,39.8-20.1,93.1,15.4,125.8c34.9,32.2,88.8,33.9,126.2,4.4C297.3,262.6,310.4,203.6,276.2,157.9z"
		/>
	<path class="st8" d="M250.3,146c-4.3,4.2-8.3,8.3-12.6,12.5c-18.4-11.7-38.2-15.2-59.4-9c-16.4,4.8-29.2,14.5-38.6,28.7
		c-18.9,28.5-14.2,66.5,11.1,89.9c25.1,23.3,63.4,24.9,90.5,3.9c26.8-20.7,37.1-60.9,15.4-94.5c4.2-4.1,8.3-8.2,12.4-12.3
		c19.9,22.9,27.7,71.4-3.8,108.4c-32.2,37.7-89,41.4-125.9,8.3c-36.3-32.6-38.9-89.6-5.8-125C168.4,119.7,220.7,122.1,250.3,146z"/>
	<path class="st13" d="M249.1,183.9c14.3,20,14.6,54.9-9.4,77.2c-23.6,21.8-59.3,21.8-82.8-0.1c-23.2-21.6-25.8-57.9-5.9-82.4
		c19.6-24.2,55.4-30.1,80.2-12.9c-4,4-7.9,8-12.1,11.8c-0.7,0.6-2.7,0.2-3.9-0.3c-22.9-9.6-49.4,2-57.3,25.6
		c-5.5,16.5-2.2,31.6,10.1,43.9c12.2,12.3,27.3,16,43.8,10.6c16.3-5.4,25.9-17.3,28.8-34.3c1.4-8.2,0.2-16.1-3.1-23.6
		c-0.8-1.9-0.7-3,0.8-4.4C242,191.3,245.5,187.6,249.1,183.9z"/>
	<path class="st14" d="M323.2,58.4c0,8.6-0.1,17.3,0,25.9c0,5,1.3,6.2,6.4,6.5c9.1,0.5,18.3,1,28,1.5c-0.9,1.1-1.4,1.9-2.1,2.5
		c-9.4,9.4-18.8,18.9-28.3,28.2c-1.2,1.1-3.4,1.8-5,1.6c-6.2-0.6-12.4-1.5-18.5-2.6c-3.5-0.6-6,0.3-8.5,2.8
		c-28.7,28.8-57.5,57.6-86.3,86.3c-3.4,3.4-5.7,4.1-7.3,2c-2.5-3.3,0.3-5.1,2.2-7c28.3-28.3,56.6-56.7,85.1-84.9c3-3,4.1-6,3.5-10.1
		c-1-6.3-1.6-12.6-2.3-18.9c-0.1-1.1,0.1-2.6,0.8-3.3c10.2-10.3,20.5-20.6,30.7-30.9C322.2,58.1,322.7,58.2,323.2,58.4z"/>
	<path class="st8" d="M228.8,204c6.7,11.3,1.9,29.8-9.7,38.9c-13.4,10.6-32.4,9.5-44.4-2.6c-11.9-12-13.1-30.8-2.8-44.2
		c9.1-11.8,27.7-16.8,39.1-10c-3.9,3.7-7.6,7.4-11.5,11c-0.7,0.6-2,0.8-3,1c-10.2,1.5-17.4,9.8-16.8,19.4
		c0.6,9.7,8.4,17.4,18.1,17.8c9.5,0.3,17.5-6.7,19.1-16.8c0.2-1.4,1-3,2-4C222.1,210.9,225.4,207.5,228.8,204z"/>
	<path class="st15" d="M191,211.1c1.1,7.4,5.3,11.4,12.3,12.6c-3.4,2.8-7.7,2.7-11.1-0.2C188.8,220.5,188.2,216.2,191,211.1z"/>
</g>
</svg>
