<?xml version="1.0" encoding="utf-8"?>
<!-- Generator: Adobe Illustrator 27.1.1, SVG Export Plug-In . SVG Version: 6.00 Build 0)  -->
<svg version="1.1" id="Layer_1" xmlns="http://www.w3.org/2000/svg" xmlns:xlink="http://www.w3.org/1999/xlink" x="0px" y="0px"
	 viewBox="0 0 400 400" style="enable-background:new 0 0 400 400;" xml:space="preserve">
<style type="text/css">
	.st0{fill:none;stroke:#000000;stroke-width:5;stroke-linecap:round;stroke-linejoin:round;stroke-miterlimit:10;}
	.st1{fill:#F9C6B9;stroke:#000000;stroke-width:5;stroke-linecap:round;stroke-linejoin:round;stroke-miterlimit:10;}
	.st2{fill:#F9C6B9;stroke:#000000;stroke-width:6;stroke-linecap:round;stroke-linejoin:round;stroke-miterlimit:10;}
	.st3{stroke:#FFFFFF;stroke-miterlimit:10;}
	.st4{fill:#F9C6B9;}
	.st5{fill:#FFFFFF;stroke:#000000;stroke-width:5;stroke-linecap:round;stroke-linejoin:round;stroke-miterlimit:10;}
	.st6{fill:none;stroke:#000000;stroke-width:3;stroke-linecap:round;stroke-linejoin:round;stroke-miterlimit:10;}
	.st7{fill:#F9C6B9;stroke:#000000;stroke-width:3;stroke-linecap:round;stroke-linejoin:round;stroke-miterlimit:10;}
	.st8{fill:#FFFFFF;}
	.st9{fill:#F9C6B9;stroke:#000000;stroke-width:3.173;stroke-linecap:round;stroke-linejoin:round;stroke-miterlimit:10;}
	.st10{fill:#FFFFFF;stroke:#000000;stroke-width:3.173;stroke-linecap:round;stroke-linejoin:round;stroke-miterlimit:10;}
	.st11{fill:#FFFFFF;stroke:#FFFFFF;stroke-width:4;stroke-miterlimit:10;}
	.st12{fill:#F9C6B9;stroke:#F9C6B9;stroke-width:3;stroke-miterlimit:10;}
	.st13{fill:#F9C6B9;stroke:#F9C6B9;stroke-width:5;stroke-miterlimit:10;}
	.st14{fill:#F9C6B9;stroke:#F9C6B9;stroke-width:4;stroke-linecap:round;stroke-linejoin:round;stroke-miterlimit:10;}
	.st15{fill:#F9C6B9;stroke:#F9C6B9;stroke-width:5;stroke-linecap:round;stroke-linejoin:round;stroke-miterlimit:10;}
	.st16{fill:#FFFFFF;stroke:#FFFFFF;stroke-width:3;stroke-miterlimit:10;}
	.st17{fill:#F9C6B9;stroke:#F9C6B9;stroke-width:1.5;stroke-miterlimit:10;}
	.st18{fill:#F9C6B9;stroke:#F9C6B9;stroke-width:11;stroke-miterlimit:10;}
	.st19{fill:none;stroke:#000000;stroke-width:6;stroke-linecap:round;stroke-linejoin:round;stroke-miterlimit:10;}
	.st20{fill:#FFFFFF;stroke:#000000;stroke-width:6;stroke-linecap:round;stroke-linejoin:round;stroke-miterlimit:10;}
	.st21{fill:none;stroke:#000000;stroke-width:6;stroke-miterlimit:10;}
	.st22{fill:#F9C6B9;stroke:#000000;stroke-width:5;stroke-miterlimit:10;}
	.st23{fill:#FFFFFF;stroke:#000000;stroke-width:6;stroke-miterlimit:10;}
	.st24{fill:#FFFFFF;stroke:#000000;stroke-width:4;stroke-linecap:round;stroke-linejoin:round;stroke-miterlimit:10;}
	.st25{fill:none;stroke:#000000;stroke-width:2;stroke-linecap:round;stroke-linejoin:round;stroke-miterlimit:10;}
	.st26{fill:#FFFFFF;stroke:#000000;stroke-width:3;stroke-linecap:round;stroke-linejoin:round;stroke-miterlimit:10;}
	.st27{fill:none;stroke:#000000;stroke-width:3.685;stroke-miterlimit:10;}
	.st28{fill:#FFFFFF;stroke:#000000;stroke-width:3.685;stroke-miterlimit:10;}
</style>
<g>
	<path class="st4" d="M272.1,190.5L272.1,190.5l-0.1,0.4c0,0,0.1,0,0.1,0C272.1,190.8,272.1,190.6,272.1,190.5z M195.3,292.5h-0.7
		c-16.2,0-31-4.9-43.3-13.3c4,5.1,10.1,8.5,15.4,11.1c6.8,3.3,12.4,5.3,17.8,6.4c1.8,0.3,3.6,0.6,5.4,0.8c1.7,0.2,3.3,0.3,5,0.4
		c0-0.1,0.1-0.2,0.1-0.2c1-1.7,2.1-3.4,3.1-5.1C197.3,292.5,196.3,292.5,195.3,292.5z M119.6,230c0.9,5.2,2.3,10.6,4.6,15.6
		C122.2,240.6,120.7,235.4,119.6,230z"/>
	<path class="st4" d="M287.2,214.7c0,3-0.1,6-0.1,8.9c-0.2,0.3-0.4,0.8-0.4,1.2c-0.1,0.5,0.1,1.1,0.4,1.6c0,1,0,2-0.1,2.9
		c-4.2,2.2-8.7,3.7-13.6,4.3c-3.7,18.8-10.3,33.1-19.8,43.3c-12,12.8-28.7,19.3-52.4,20.4c1-1.7,2.1-3.4,3.2-5.2
		c24.9-1.6,47.5-10.1,59.2-42l0,0c0,0,0,0,0,0c0.2-0.2,0.3-0.4,0.5-0.6c0.2-0.2,0.3-0.5,0.5-0.7c0.1-0.2,0.2-0.4,0.3-0.6
		c0.1-0.2,0.2-0.4,0.3-0.6c0.2-0.4,0.4-0.8,0.5-1.2c0.1-0.2,0.1-0.4,0.2-0.7c0-0.2,0.1-0.3,0.1-0.5s0.1-0.3,0.1-0.5
		c0-0.1,0.1-0.3,0.1-0.4c0,0,0-0.1,0-0.1c0-0.1,0-0.1,0-0.2c0-0.1,0-0.2,0-0.3c0-0.1,0-0.2,0-0.2c0-0.1,0-0.2,0-0.3v0
		c0-0.1,0-0.2,0-0.3c0,0,0-0.1,0-0.1c0-0.1,0-0.2,0-0.4c0-0.5,0-0.9,0-1.4c0,0,0,0,0,0v0c3.2-12.1,5.2-26.8,5.5-45v0
		c0.1,0,0.2,0,0.2-0.1c0.3-0.1,0.6-0.2,1-0.2c0,0,0.1,0,0.1,0c0.2,0,0.4,0,0.6,0c0.2,0,0.5,0,0.7,0c0.3,0,0.6,0,0.9,0
		c0.1,0,0.3,0,0.4,0c0.3,0,0.6,0,1,0.1c0.2,0,0.3,0,0.5,0c2.7,0.2,5.1,0.6,6.6,1.9c0.8,0.8,1.5,2,2,3.8
		C287.2,205.8,287.2,210.5,287.2,214.7z"/>
	<path class="st8" d="M116,182.3c3.3-12.2,9.8-22.6,18.3-29.1c4.5-3.5,9.6-6,13.5-7.7c15.2-6.8,29.8-10,43.4-9.5
		c7.4-4,14.5-8.7,21.2-14c1.9-1.5,4.1-3.4,6-5.5c1.8-2,3.4-4.2,5.2-6.9c4.9-7.4,10-16.1,11.4-25.7c-10.7-3.7-22.2-5.6-33.7-5.6
		c-1.8,0-3.7,0-5.5,0.2c-14.1,0.8-28.1,3.2-41.7,7.3c-7.8,2.3-13.5,4.6-18.5,7.4c-6.7,3.8-12.6,8.8-19.4,15.3
		c-9.7,9.1-19.4,19.3-24.6,31.6c-2.9,6.8-4.6,14.9-5.3,24.7c-1.4,20,1.8,38.5,9.4,53.5c2,4,3.8,6.7,5.9,8.9c2.2,2.3,5.1,4.2,7.8,6
		l6.7,4.5c-1.9-7.3-2.6-14.7-2.9-21.4C112.8,207.7,112.6,194.7,116,182.3z"/>
	<path class="st8" d="M303.8,155.9c-2.5-9.9-7.8-18.9-12.9-27.7c-2.6-4.5-5.3-9.1-8.7-13c-3.2-3.7-7.2-6.8-11.1-9.8
		c-7.5-5.9-15.4-12.1-23.9-16.4c-2.4-1.2-4.9-2.4-7.5-3.4c-1.7,10.1-7,19.1-12,26.7c-1.7,2.5-3.5,5.1-5.6,7.5
		c-2.1,2.3-4.5,4.3-6.6,6c-4.9,4-10.1,7.6-15.5,10.9c16.3,1.9,33,4,47.6,12.6c16.4,9.7,27.4,25.2,29.7,41.6c0.2,0,0.5,0,0.7,0.1
		c2.8,0.3,6.7,0.6,9.5,3.2c1.5,1.4,2.6,3.4,3.4,6.1c1.4,4.9,1.3,10,1.3,14.5c0,1.5,0,3-0.1,4.6c5.1-5,9.1-11.8,11.4-19.7
		c2.4-8.4,3.2-17.7,2.4-29.5C305.5,164.4,304.8,159.9,303.8,155.9z"/>
	<path d="M239.8,205c-0.6,1.2-2.1,1.7-3.4,1.1c-1.2-0.6-1.7-2.2-1.1-3.4c0.4-0.7-0.3-2-1.3-2.6c-1.5-0.8-3.5-0.7-5.5-0.6
		c-0.6,0-1.2,0.1-1.6,0.3c-0.8,0.4-1.3,2-1.3,4.7c0,1.4-1.1,2.5-2.5,2.5h0c-1.4,0-2.5-1.1-2.5-2.5c0-2,0-7.2,4.1-9.1
		c1.3-0.6,2.6-0.7,3.5-0.8c2.6-0.2,5.6-0.2,8.2,1.2C239.4,197.4,241.5,201.5,239.8,205z"/>
	<path d="M171,203.8c0,1.4-1.1,2.5-2.5,2.5h0c-1.4,0-2.5-1.1-2.5-2.5c0-1.4-0.1-2.8-0.6-3.5c-0.7-0.8-2.4-1-4.1-1
		c-1.6,0-3,0-3.8,0.5c-1.3,0.9-1.7,3.1-1.9,5.2c-0.2,1.3-1.2,2.2-2.5,2.2c-0.1,0-0.2,0-0.3,0c-1.4-0.2-2.3-1.4-2.2-2.8
		c0.3-2.3,0.8-6.5,4.1-8.7c2.2-1.5,4.9-1.4,6.7-1.4c2,0.1,5.6,0.2,7.9,2.9C170.9,199.3,171,202.1,171,203.8z"/>
	<path d="M266.4,241.1c-0.9,3.2-1.8,6.2-2.9,9.1c0,0,0,0,0,0c0.2-0.2,0.3-0.4,0.5-0.6c0.2-0.2,0.3-0.5,0.5-0.7
		c0.1-0.2,0.2-0.4,0.3-0.6c0.1-0.2,0.2-0.4,0.3-0.6c0.2-0.4,0.4-0.8,0.5-1.2c0.1-0.2,0.1-0.4,0.2-0.7c0-0.2,0.1-0.3,0.1-0.5
		s0.1-0.3,0.1-0.5c0,0,0-0.1,0-0.1c0-0.1,0-0.2,0-0.3c0,0,0-0.1,0-0.1c0-0.1,0-0.1,0-0.2c0-0.1,0-0.2,0-0.3c0-0.1,0-0.2,0-0.2
		c0-0.1,0-0.2,0-0.3v0c0-0.1,0-0.2,0-0.3c0,0,0-0.1,0-0.1c0-0.1,0-0.2,0-0.4C266.5,242,266.5,241.6,266.4,241.1z M310.8,169.7
		c-0.4-5.9-1.1-10.7-2.2-15c-2.7-10.6-8.1-19.9-13.4-29c-2.7-4.7-5.6-9.5-9.3-13.7c-3.5-4-7.7-7.3-11.7-10.5
		c-7.7-6.1-15.8-12.4-24.8-16.9c-3.4-1.7-7-3.3-10.7-4.6c-0.2-0.1-0.4-0.2-0.7-0.2c-13.5-4.8-28.2-7.1-42.7-6.3
		c-14.5,0.8-28.9,3.3-42.9,7.5c-8.1,2.4-14.1,4.9-19.5,7.9c-7.1,4-13.3,9.3-20.4,16c-10.1,9.5-20.2,20.1-25.8,33.3
		c-3.1,7.3-4.9,15.9-5.7,26.3c-1.5,20.9,1.9,40.3,10,56.2c2.2,4.4,4.3,7.6,6.8,10.1c2.6,2.7,5.7,4.7,8.6,6.7l11.5,7.7
		c0.2,0.1,0.4,0.2,0.6,0.3c0.2,0.6,0.5,1.2,0.8,1.8c0.2,0.4,0.4,0.8,0.6,1.2c2,4.1,9.8,14.7,10.3,14.3c0.7-0.6,1.5-1.2,2.3-1.9
		c-3.3-4.7-6.1-9.7-8.4-15.1c0,0,0,0,0,0c-2.3-5-3.8-10.3-4.6-15.6c-0.8-4.8-1.2-9.5-1.4-13.9c-0.4-8.3-0.6-20.8,2.6-32.5
		c3-11.2,8.9-20.6,16.5-26.5c4.1-3.2,8.8-5.5,12.5-7.1c14.6-6.5,28.5-9.6,41.4-9.1c0.2,0.1,0.5,0.1,0.8,0c1.5,0.1,3.1,0.2,4.6,0.4
		l1.2,0.1c17,1.9,33,3.8,47.1,12.1c13.3,7.9,22.7,19.8,26.2,32.7c0.2,0.8,0.4,1.6,0.6,2.4c0.1,0.6,0.3,1.3,0.4,1.9
		c0,0.1,0,0.3,0.1,0.4c0,0-0.1,0-0.1,0c0,1.7,0,3.4,0,5v0.1c0,0,0.1,0,0.2,0c0,0,0.1,0,0.1,0c0.3-0.1,0.6-0.2,1-0.2c0,0,0.1,0,0.1,0
		c0.2,0,0.4,0,0.6,0c0.2,0,0.5,0,0.7,0c0.3,0,0.6,0,0.9,0c0.1,0,0.3,0,0.4,0c0.3,0,0.6,0,1,0.1c0.2,0,0.3,0,0.5,0
		c2.7,0.2,5.1,0.6,6.6,1.9c0.8,0.8,1.5,2,2,3.8c1.2,4.2,1.2,8.9,1.1,13c0,3-0.1,6-0.1,8.9c-0.2,0.3-0.4,0.8-0.4,1.2
		c-0.1,0.5,0.1,1.1,0.4,1.6c0,1,0,2-0.1,2.9c1.8-1,3.5-2,5.1-3.2V226c7.5-5.8,13.2-14.6,16.3-25.1c0.4-1.2,0.7-2.5,1-3.8
		c0,0,0-0.1,0-0.1C311.1,189.1,311.6,180.3,310.8,169.7z M191.2,135.9c-13.6-0.4-28.2,2.8-43.4,9.5c-3.9,1.8-9,4.2-13.5,7.7
		c-8.5,6.6-15,16.9-18.3,29.1c-0.6,2.3-1.1,4.6-1.5,6.8c-0.1,0.8-0.3,1.6-0.4,2.3c0,0.1,0,0.3-0.1,0.4c-0.1,0.5-0.1,1-0.2,1.4
		c-0.1,0.8-0.2,1.5-0.3,2.2c-0.1,0.5-0.1,0.9-0.1,1.4c0,0.1,0,0.1,0,0.2c0,0.4-0.1,0.8-0.1,1.3c0,0.5-0.1,1-0.1,1.5
		c-0.1,1.1-0.1,2.2-0.1,3.2c0,0.5,0,1,0,1.5c0,0.5,0,1,0,1.5c0,0.9,0,1.8,0,2.6c0,0.4,0,0.8,0,1.2c0,0.3,0,0.6,0,0.9
		c0,0.2,0,0.3,0,0.4c0,0.1,0,0.3,0,0.4c0,0.6,0,1.1,0,1.7c0,0.6,0,1.2,0.1,1.8c0,0.4,0,0.8,0.1,1.2c0,0.8,0.1,1.7,0.1,2.5
		c0.1,1.8,0.2,3.6,0.4,5.4c0.1,0.8,0.2,1.6,0.3,2.3c0,0.3,0.1,0.6,0.1,0.8c0.1,0.6,0.2,1.3,0.3,1.9c0,0,0,0.1,0,0.1
		c0.1,0.6,0.2,1.2,0.3,1.9c0.1,0.5,0.2,1.1,0.3,1.6c0.1,0.5,0.2,1.1,0.3,1.6c0.1,0.5,0.2,1.1,0.4,1.6c0.1,0.5,0.3,1.1,0.4,1.6
		l-6.7-4.5c-2.7-1.8-5.5-3.7-7.8-6c-2.1-2.2-3.9-4.9-5.9-8.9c-7.6-15.1-10.9-33.6-9.4-53.5c0.7-9.9,2.5-17.9,5.3-24.7
		c5.2-12.3,14.9-22.4,24.6-31.6c6.8-6.4,12.7-11.5,19.4-15.3c5-2.8,10.7-5.1,18.5-7.4c13.6-4.1,27.6-6.5,41.7-7.3
		c1.8-0.1,3.7-0.1,5.5-0.1c11.5,0,23,1.9,33.7,5.6c-1.3,9.6-6.5,18.3-11.4,25.7c-1.8,2.7-3.3,4.9-5.2,6.9c-1.9,2.1-4.1,3.9-6,5.4
		C205.8,127.2,198.6,131.9,191.2,135.9z M277.9,190.9c-0.2,0-0.5,0-0.7-0.1c-2.3-16.4-13.3-31.9-29.7-41.6
		c-14.6-8.6-31.3-10.8-47.6-12.6c5.4-3.3,10.6-6.9,15.5-10.9c2.1-1.7,4.5-3.7,6.6-6c2.2-2.3,4-5,5.6-7.4c5.1-7.6,10.3-16.6,12-26.7
		c2.6,1,5.1,2.2,7.5,3.4c8.6,4.3,16.4,10.5,23.9,16.4c3.9,3,7.8,6.2,11.1,9.8c3.4,3.9,6.1,8.5,8.7,12.9c5.1,8.8,10.4,17.8,12.9,27.7
		c1,4,1.7,8.5,2.1,14.1c0.8,11.8,0.1,21.1-2.4,29.5c-2.3,7.9-6.3,14.7-11.4,19.7c0-1.5,0-3,0.1-4.6c0-4.5,0.1-9.6-1.3-14.5
		c-0.8-2.7-1.9-4.7-3.4-6.1C284.6,191.5,280.7,191.2,277.9,190.9z M263.6,250.2C263.6,250.2,263.6,250.1,263.6,250.2
		c0.2-0.2,0.3-0.4,0.5-0.7c0.2-0.2,0.3-0.5,0.5-0.7c0.1-0.2,0.2-0.4,0.3-0.6c0.1-0.2,0.2-0.4,0.3-0.6c0.2-0.4,0.4-0.8,0.5-1.2
		c0.1-0.2,0.1-0.4,0.2-0.7c0-0.2,0.1-0.3,0.1-0.5s0.1-0.3,0.1-0.5c0,0,0-0.1,0-0.1c0-0.1,0-0.2,0-0.3c0,0,0-0.1,0-0.1
		c0-0.1,0-0.1,0-0.2c0-0.1,0-0.2,0-0.3c0-0.1,0-0.2,0-0.2c0-0.1,0-0.2,0-0.3v0c0-0.1,0-0.2,0-0.3c0,0,0-0.1,0-0.1c0-0.1,0-0.2,0-0.4
		c0-0.5,0-0.9,0-1.4C265.6,244.3,264.6,247.3,263.6,250.2z M195.2,297.5h0.2c2,0,3.9-0.1,5.8-0.2c1-1.7,2.1-3.4,3.2-5.2
		c-2,0.1-4,0.2-6,0.3C197.2,294.1,196.2,295.8,195.2,297.5z M166.8,290.2c-5.2-2.5-11.4-6-15.4-11.1c-2.6-1.8-5-3.7-7.3-5.8
		c-0.1,0.1-0.2,0.2-0.3,0.4c-0.7,0.9-1.2,1.9-1.6,2.9c1.3,1.5,2.7,3,3.9,4.4c0.1-0.1,0.1-0.1,0.1-0.2c0-0.1,0-0.1,0-0.1
		c0.5,0.8,1.1,1.6,1.8,2.3c12,8.4,26.3,13.6,42,14.4c-1.8-0.2-3.6-0.4-5.4-0.8C179.2,295.5,173.6,293.5,166.8,290.2z M266.4,241.1
		c-0.9,3.2-1.8,6.2-2.9,9.1c0,0,0,0,0,0c0.2-0.2,0.3-0.4,0.5-0.6c0.2-0.2,0.3-0.5,0.5-0.7c0.1-0.2,0.2-0.4,0.3-0.6
		c0.1-0.2,0.2-0.4,0.3-0.6c0.2-0.4,0.4-0.8,0.5-1.2c0.1-0.2,0.1-0.4,0.2-0.7c0-0.2,0.1-0.3,0.1-0.5s0.1-0.3,0.1-0.5c0,0,0-0.1,0-0.1
		c0-0.1,0-0.2,0-0.3c0,0,0-0.1,0-0.1c0-0.1,0-0.1,0-0.2c0-0.1,0-0.2,0-0.3c0-0.1,0-0.2,0-0.2c0-0.1,0-0.2,0-0.3v0c0-0.1,0-0.2,0-0.3
		c0,0,0-0.1,0-0.1c0-0.1,0-0.2,0-0.4C266.5,242,266.5,241.6,266.4,241.1z M266.3,244.1c0-0.1,0-0.2,0-0.3c0-0.1,0-0.2,0-0.2
		C266.3,243.7,266.3,243.9,266.3,244.1z"/>
	<path class="st4" d="M271.7,188.6c-0.2-0.8-0.4-1.6-0.6-2.4c-3.5-12.9-12.9-24.8-26.2-32.7c-14.1-8.4-30.2-10.2-47.1-12.1l-1.2-0.1
		c-1.5-0.2-3-0.3-4.6-0.4c-0.3,0-0.5,0-0.8,0c-12.9-0.5-26.8,2.6-41.4,9.1c-3.7,1.6-8.4,3.9-12.5,7.1c-7.6,5.9-13.5,15.3-16.5,26.5
		c-3.2,11.7-3,24.2-2.6,32.5c0.2,4.4,0.6,9.1,1.4,13.9c1,5.4,2.6,10.6,4.6,15.6c0,0,0,0,0,0c2.2,5.4,5.1,10.5,8.4,15.1
		c3.3,4.7,7.1,8.9,11.4,12.7c2.3,2.1,4.8,4,7.3,5.8c12.2,8.5,27.1,13.3,43.3,13.3h0.7c1,0,2,0,2.9-0.1c2-0.1,4-0.1,6-0.3
		c24.9-1.6,47.5-10.1,59.2-42l0,0c1-2.8,2-5.9,2.9-9.1c0,0,0,0,0,0v0c3.2-12.1,5.2-26.8,5.5-45V196c0-1.7,0-3.3,0-5v-0.4h0.1
		C272,189.9,271.9,189.2,271.7,188.6z M161.2,199.4c-1.6,0-3,0-3.8,0.5c-1.3,0.9-1.7,3.1-1.9,5.2c-0.2,1.3-1.2,2.2-2.5,2.2
		c-0.1,0-0.2,0-0.3,0c-1.4-0.2-2.3-1.4-2.2-2.8c0.3-2.3,0.8-6.5,4.1-8.7c2.2-1.5,4.9-1.4,6.7-1.4c2,0.1,5.6,0.2,7.9,2.9
		c1.7,2.1,1.8,4.8,1.8,6.6c0,1.4-1.1,2.5-2.5,2.5h0c-1.4,0-2.5-1.1-2.5-2.5c0-1.4-0.1-2.8-0.6-3.5
		C164.7,199.6,163,199.4,161.2,199.4z M226.2,235.5c-6.3,10.7-18,17.7-30,18c-0.3,0-0.5,0-0.8,0c-12.1,0-23.9-6.9-29.5-17.5
		c-0.6-1.2-0.2-2.7,1-3.4c1.2-0.7,2.7-0.2,3.4,1c4.9,9.1,15.2,15,25.7,14.8c10.3-0.3,20.4-6.4,25.8-15.6c0.7-1.2,2.2-1.6,3.4-0.9
		C226.5,232.8,226.9,234.3,226.2,235.5z M239.8,205c-0.6,1.2-2.1,1.7-3.4,1.1c-1.2-0.6-1.7-2.2-1.1-3.4c0.4-0.7-0.3-2-1.3-2.6
		c-1.5-0.8-3.5-0.7-5.5-0.6c-0.6,0-1.2,0.1-1.6,0.3c-0.8,0.4-1.3,2-1.3,4.7c0,1.4-1.1,2.5-2.5,2.5h0c-1.4,0-2.5-1.1-2.5-2.5
		c0-2,0-7.2,4.1-9.1c1.3-0.6,2.6-0.7,3.5-0.8c2.6-0.2,5.6-0.2,8.2,1.2C239.4,197.4,241.5,201.5,239.8,205z"/>
	<path d="M226.2,235.5c-6.3,10.7-18,17.7-30,18c-0.3,0-0.5,0-0.8,0c-12.1,0-23.9-6.9-29.5-17.5c-0.6-1.2-0.2-2.7,1-3.4
		c1.2-0.7,2.7-0.2,3.4,1c4.9,9.1,15.2,15,25.7,14.8c10.3-0.3,20.4-6.4,25.8-15.6c0.7-1.2,2.2-1.6,3.4-0.9
		C226.5,232.8,226.9,234.3,226.2,235.5z"/>
</g>
<path d="M277,190.5c0,1.8,0,3.6,0,5.4c-0.2,12.5-1.2,23.7-2.9,33.7c-0.2,1.4-0.5,2.8-0.8,4.1c-3.7,18.8-10.3,33.1-19.8,43.3
	c-12,12.8-28.7,19.3-52.4,20.4c-1.9,0.1-3.8,0.1-5.8,0.2h-0.7c-1.6,0-3.1,0-4.7-0.1c-15.7-0.9-30-6-42-14.4
	c-12.6-8.8-22.6-21.2-28.5-35.9c-2-5-3.6-10.2-4.7-15.7c0-0.2-0.1-0.3-0.1-0.5c-1-5.1-1.5-10.3-1.5-15.7h0l5,0
	c0,5.1,0.5,10.1,1.5,14.8c1,5.4,2.6,10.6,4.6,15.6c0,0,0,0,0,0c2.2,5.4,5.1,10.5,8.4,15.1c3.3,4.7,7.1,8.9,11.4,12.7
	c2.3,2.1,4.8,4,7.3,5.8c12.2,8.5,27.1,13.3,43.3,13.3h0.7c1,0,2,0,2.9-0.1c2-0.1,4-0.1,6-0.3c24.9-1.6,47.5-10.1,59.2-42l0,0
	c1-2.8,2-5.9,2.9-9.1c0,0,0,0,0,0v0c3.2-12.1,5.2-26.8,5.5-45V196c0-1.4,0.3,1.2,0-2c-0.1-1,0-2.6,0-3l-0.3-2.4l0.3,1.9H277z"/>
<path d="M310,188.5c0,2.9-0.2,5.8-0.7,8.6c0,0,0,0.1,0,0.1c-2.1,12-8.4,22.4-17.3,29c-1.6,1.2-3.3,2.3-5.1,3.2
	c-4.2,2.2-8.7,3.7-13.6,4.3c-0.4,0.1-0.8,0.1-1.1,0.1l-0.4-4c0.8-0.1,1.5-0.2,2.3-0.3c4.5-0.7,8.7-2.4,12.5-4.7
	c11.6-7.2,19.4-20.9,19.4-36.3H310z"/>
<g>
	<g>
		<path class="st8" d="M255.2,219.7c-0.1,3.5-0.3,6.9-0.4,10.3c0,0,0.1,0,0.1,0c0.6-3.4,1.2-6.7,1.8-10.1c0.3-1.7,1.1-3.1,2.3-4.3
			c11.3-11.5,19.1-24.9,23.1-40.6c0.1-0.3,0.2-0.5,0.4-1.1c0.8,1.4,1.4,2.5,2,3.7c5.2,10,9,20.5,10.9,31.6
			c2.2,12.8,1.9,25.5-3.3,37.7c-3.5,8.3-8.7,15.7-14.1,22.8c-0.2,0.3-0.5,0.5-0.9,0.6c-6.3,2.1-12.6,4.1-19.2,4.6
			c-1,0.1-2.1,0-3.1,0.2c6.9,0.7,13.6-1.1,20.4-2.3c-0.1,0.2-0.1,0.4-0.3,0.6c-7.9,9.4-16.8,17.6-27.9,23.2
			c-2.7,1.4-5.6,2.7-8.5,3.5c-2.5,0.7-5.2,0.7-7.8,1c-0.3,0-0.6,0.1-1.2,0.1c4.7,1.2,9.2,2.4,13.7,3.5c0,0.2-0.1,0.3-0.1,0.5
			c-8.9,2-17.8,2.8-26.6-1.1c-6.3,8.1-12.6,16.2-19,24.5c-1-0.8,9.9-18.6,16.4-26.7c-0.2-0.2-0.4-0.3-0.7-0.4
			c-4.4-1.9-7.7-4.8-9.6-9.3c-0.9-2.1-2.1-4.2-3.2-6.3c0.1-0.1,0.2-0.2,0.3-0.3c3.6,3.2,7.2,6.3,10.9,9.5c-0.5-0.8-1-1.5-1.4-2.2
			c-3.3-5.4-5.7-11.1-5.4-17.6c0.3-6.5,3.2-11.9,7.1-16.9c4.5-5.8,10-10.6,15.5-15.3c9-7.7,18.1-15.4,27.2-23.1
			C254.8,219.9,255,219.9,255.2,219.7z M223.6,290.7c0.2-0.3,0.4-0.5,0.6-0.8c5.2-7.4,10.3-14.8,15.5-22.1
			c6.1-8.7,11.9-17.7,18.7-25.8c5.9-7,11.6-14.1,17.3-21.1c0.3-0.4,0.6-0.9,0.7-1.1C256.3,241.3,238.9,265.2,223.6,290.7z"/>
	</g>
	<g>
		<path class="st26" d="M255.2,219.7c-0.1,3.5-0.3,6.9-0.4,10.3c0,0,0.1,0,0.1,0c0.6-3.4,1.2-6.7,1.8-10.1c0.3-1.7,1.1-3.1,2.3-4.3
			c11.3-11.5,19.1-24.9,23.1-40.6c0.1-0.3,0.2-0.5,0.4-1.1c0.8,1.4,1.4,2.5,2,3.7c5.2,10,9,20.5,10.9,31.6
			c2.2,12.8,1.9,25.5-3.3,37.7c-3.5,8.3-8.7,15.7-14.1,22.8c-0.2,0.3-0.5,0.5-0.9,0.6c-6.3,2.1-12.6,4.1-19.2,4.6
			c-1,0.1-2.1,0-3.1,0.2c6.9,0.7,13.6-1.1,20.4-2.3c-0.1,0.2-0.1,0.4-0.3,0.6c-7.9,9.4-16.8,17.6-27.9,23.2
			c-2.7,1.4-5.6,2.7-8.5,3.5c-2.5,0.7-5.2,0.7-7.8,1c-0.3,0-0.6,0.1-1.2,0.1c4.7,1.2,9.2,2.4,13.7,3.5c0,0.2-0.1,0.3-0.1,0.5
			c-8.9,2-17.8,2.8-26.6-1.1c-6.3,8.1-12.6,16.2-19,24.5c-1-0.8,9.9-18.6,16.4-26.7c-0.2-0.2-0.4-0.3-0.7-0.4
			c-4.4-1.9-7.7-4.8-9.6-9.3c-0.9-2.1-2.1-4.2-3.2-6.3c0.1-0.1,0.2-0.2,0.3-0.3c3.6,3.2,7.2,6.3,10.9,9.5c-0.5-0.8-1-1.5-1.4-2.2
			c-3.3-5.4-5.7-11.1-5.4-17.6c0.3-6.5,3.2-11.9,7.1-16.9c4.5-5.8,10-10.6,15.5-15.3c9-7.7,18.1-15.4,27.2-23.1
			C254.8,219.9,255,219.9,255.2,219.7z M223.6,290.7c0.2-0.3,0.4-0.5,0.6-0.8c5.2-7.4,10.3-14.8,15.5-22.1
			c6.1-8.7,11.9-17.7,18.7-25.8c5.9-7,11.6-14.1,17.3-21.1c0.3-0.4,0.6-0.9,0.7-1.1C256.3,241.3,238.9,265.2,223.6,290.7z"/>
	</g>
</g>
</svg>
