<?xml version="1.0" encoding="utf-8"?>
<!-- Generator: Adobe Illustrator 27.1.1, SVG Export Plug-In . SVG Version: 6.00 Build 0)  -->
<svg version="1.1" id="Layer_1" xmlns="http://www.w3.org/2000/svg" xmlns:xlink="http://www.w3.org/1999/xlink" x="0px" y="0px"
	 viewBox="0 0 400 400" style="enable-background:new 0 0 400 400;" xml:space="preserve">
<style type="text/css">
	.st0{fill:none;stroke:#000000;stroke-width:5;stroke-linecap:round;stroke-linejoin:round;stroke-miterlimit:10;}
	.st1{fill:#F9C6B9;stroke:#000000;stroke-width:5;stroke-linecap:round;stroke-linejoin:round;stroke-miterlimit:10;}
	.st2{fill:#F9C6B9;stroke:#000000;stroke-width:6;stroke-linecap:round;stroke-linejoin:round;stroke-miterlimit:10;}
	.st3{stroke:#FFFFFF;stroke-miterlimit:10;}
	.st4{fill:#F9C6B9;}
	.st5{fill:#FFFFFF;stroke:#000000;stroke-width:5;stroke-linecap:round;stroke-linejoin:round;stroke-miterlimit:10;}
	.st6{fill:none;stroke:#000000;stroke-width:3;stroke-linecap:round;stroke-linejoin:round;stroke-miterlimit:10;}
	.st7{fill:#F9C6B9;stroke:#000000;stroke-width:3;stroke-linecap:round;stroke-linejoin:round;stroke-miterlimit:10;}
	.st8{fill:#FFFFFF;}
	.st9{fill:#F9C6B9;stroke:#000000;stroke-width:3.173;stroke-linecap:round;stroke-linejoin:round;stroke-miterlimit:10;}
	.st10{fill:#FFFFFF;stroke:#000000;stroke-width:3.173;stroke-linecap:round;stroke-linejoin:round;stroke-miterlimit:10;}
	.st11{fill:#FFFFFF;stroke:#FFFFFF;stroke-width:4;stroke-miterlimit:10;}
	.st12{fill:#F9C6B9;stroke:#F9C6B9;stroke-width:3;stroke-miterlimit:10;}
	.st13{fill:#F9C6B9;stroke:#F9C6B9;stroke-width:5;stroke-miterlimit:10;}
	.st14{fill:#F9C6B9;stroke:#F9C6B9;stroke-width:4;stroke-linecap:round;stroke-linejoin:round;stroke-miterlimit:10;}
	.st15{fill:#F9C6B9;stroke:#F9C6B9;stroke-width:5;stroke-linecap:round;stroke-linejoin:round;stroke-miterlimit:10;}
	.st16{fill:#FFFFFF;stroke:#FFFFFF;stroke-width:3;stroke-miterlimit:10;}
	.st17{fill:#F9C6B9;stroke:#F9C6B9;stroke-width:1.5;stroke-miterlimit:10;}
	.st18{fill:#F9C6B9;stroke:#F9C6B9;stroke-width:11;stroke-miterlimit:10;}
	.st19{fill:none;stroke:#000000;stroke-width:6;stroke-linecap:round;stroke-linejoin:round;stroke-miterlimit:10;}
	.st20{fill:#FFFFFF;stroke:#000000;stroke-width:6;stroke-linecap:round;stroke-linejoin:round;stroke-miterlimit:10;}
	.st21{fill:none;stroke:#000000;stroke-width:6;stroke-miterlimit:10;}
	.st22{fill:#F9C6B9;stroke:#000000;stroke-width:5;stroke-miterlimit:10;}
	.st23{fill:#FFFFFF;stroke:#000000;stroke-width:6;stroke-miterlimit:10;}
	.st24{fill:#FFFFFF;stroke:#000000;stroke-width:4;stroke-linecap:round;stroke-linejoin:round;stroke-miterlimit:10;}
	.st25{fill:none;stroke:#000000;stroke-width:2;stroke-linecap:round;stroke-linejoin:round;stroke-miterlimit:10;}
	.st26{fill:#FFFFFF;stroke:#000000;stroke-width:3;stroke-linecap:round;stroke-linejoin:round;stroke-miterlimit:10;}
	.st27{fill:none;stroke:#000000;stroke-width:3.685;stroke-miterlimit:10;}
	.st28{fill:#FFFFFF;stroke:#000000;stroke-width:3.685;stroke-miterlimit:10;}
</style>
<g>
	<path d="M290.6,118.8c-16.9-8.8-32.9-18.9-51.6-23c-10.1-2.2-20.3-3.7-31-3c0,65.2,0,130.3,0,195.9c3.4,0,7,0,10.5,0
		c4.3,0,8.5,0,12.8,0c10.8,0,15.5,3.6,18.1,14.1c0.2,0.1,0.4,0.3,0.6,0.3c6.7-0.2,6.9,0.7,6.8,7.1c-0.1,4.6-0.1,9.2,0,13.8
		c0.1,3.1-1.2,4.7-4.5,4.7c-32,0-63.9,0-95.9,0c-3.1,0-4.4-1.5-4.3-4.5c0.1-5.3,0-10.6,0-15.9c0-4.5,0.7-5.1,5.2-5.2
		c1,0,2-0.1,3-0.1c3.1-10.6,7.5-14.3,17-14.3c5.9,0,11.7,0,17.6,0c1.8,0,3.7,0,5.7,0c0-65.3,0-130.4,0-195.9
		c-8.4-0.7-16.7,0.1-24.9,1.7c-15.6,2.9-30.1,8.8-43.8,16.8c-3.7,2.2-7.4,4.1-11.3,5.9c-2,0.9-2.7,1.8-2.2,4.1
		c8.8,38.5,17.6,77,26.3,115.5c0.6,2.7,1.3,5.3,1.9,8.2c2.7,0,5.3,0,7.8,0c2.8,0,3.9,1.3,3.8,4.1c-0.2,7.1-6.3,23.9-13.6,24
		c-20.2,0.2-40.5,0.2-60.7,0c-7.3-0.1-13.4-16.5-13.8-23.8c-0.2-2.6,0.8-4.1,3.6-4.3c2.8-0.2,6.3,0.3,8-1.2c1.7-1.5,1.5-5.1,2.1-7.8
		c8.6-37.6,17.1-75.2,25.7-112.8c0.1-0.3,0.1-0.7,0.1-1.1c-11.3,2.5-13.7-5-4.7-7c2.3-0.5,5.4-1.3,9-2c8.8-1.8,16-8.1,23.9-12.2
		c19.3-10,39.8-15.3,61.6-14.9c0.3,0,0.7-0.1,1.5-0.2c0-3.1,0-6.3,0-9.5c0-2.4,0.4-4.5,3.5-4.4c2.8,0.1,3.2,2.2,3.2,4.4
		c0,3.1,0,6.2,0,9.5c4.6,0.2,8.9,0.3,13.2,0.6c19.6,1.4,37.8,7.4,54.8,17.1c10.3,5.9,20.7,11.4,32.5,13.8c6.8,1.4,5.1,8.1-3.4,6.2
		c-1.9-0.4-3.7-0.9-6-1.5c2.5,10.9,4.8,21.4,7.2,31.9c6.6,28.9,13.2,57.7,19.6,86.7c0.8,3.6,2,5.1,5.9,4.8c6.8-0.4,8.1,1.8,5.7,8.3
		c-2.1,5.6-7.4,19.5-13.5,19.6c-19.8,0.1-39.6,0.1-59.3,0c-7.6-0.1-13.7-16.2-14.3-23.7c-0.2-2.5,0.5-4.3,3.5-4.4
		c2.8-0.2,6.5,0.5,8.1-1.1c1.7-1.6,1.6-5.3,2.2-8.1C272.8,196.8,281.7,157.9,290.6,118.8z M140,245c-8.5-37.4-17-74.6-25.4-111.7
		c-0.2,0-0.4,0-0.7,0c-8.5,37.2-16.9,74.4-25.4,111.7C105.7,245,122.7,245,140,245z M294.6,133.4c-0.2,0-0.5,0-0.7,0
		c-8.5,37.2-16.9,74.4-25.4,111.6c17.3,0,34.3,0,51.5,0C311.5,207.6,303,170.5,294.6,133.4z M249.9,310.2c-30.6,0-60.7,0-90.9,0
		c0,4.1,0,8.1,0,12c30.5,0,60.6,0,90.9,0C249.9,318.1,249.9,314.2,249.9,310.2z M242.4,303.6c-0.1-0.9-0.1-1.6-0.3-2.2
		c-1.8-4.4-5.4-5.6-9.7-5.6c-18.2,0-36.3,0-54.5,0c-1.4,0-2.8,0.1-4.1,0.4c-3.6,0.9-5.9,3.9-5.5,7.3
		C192.8,303.6,217.5,303.6,242.4,303.6z M257.5,252.3c1.9,3.7,4.7,15,8.3,15.1c4.6,0.1,9.2,0,13.8,0c14,0,28,0,42,0
		c4,0,7.4-10.9,9.6-15.1C306.6,252.3,282.3,252.3,257.5,252.3z M151.5,252.3c-24.7,0-49,0-73.6,0c1.8,3.7,4.7,15,8.2,15
		c18.9,0,37.9,0,56.8,0C146.5,267.3,149.4,255.9,151.5,252.3z"/>
	<path class="st8" d="M249.9,310.2c0,4.1,0,7.9,0,12c-30.3,0-60.5,0-90.9,0c0-3.9,0-7.9,0-12C189.2,310.2,219.3,310.2,249.9,310.2z"
		/>
	<path class="st4" d="M242.4,303.6c-24.9,0-49.5,0-74.2,0c-0.3-3.4,1.9-6.5,5.5-7.3c1.3-0.3,2.7-0.4,4.1-0.4c18.2,0,36.3,0,54.5,0
		c4.4,0,7.9,1.2,9.7,5.6C242.3,302,242.2,302.7,242.4,303.6z"/>
	<path class="st4" d="M257.5,252.3c24.8,0,49.1,0,73.7,0c-2.2,4.2-5.6,15.1-9.6,15.1c-14,0-28,0-42,0c-4.6,0-9.2,0-13.8,0
		C262.3,267.3,259.4,256,257.5,252.3z"/>
	<g>
		<path class="st4" d="M151.3,252.6c-2.1,3.6-4.8,14.8-8.4,14.8c-9.5,0-18.9-0.2-28.4-0.2c-9.5,0-18.9,0.8-28.4,0.8
			c-3.5,0-6.3-11.9-8.1-15.6c8.2,0,16.3-0.1,24.5-0.1c8.2,0,16.3,0.5,24.5,0.5C135.1,252.8,143.1,252.6,151.3,252.6z"/>
	</g>
</g>
</svg>
