<?xml version="1.0" encoding="utf-8"?>
<!-- Generator: Adobe Illustrator 27.1.1, SVG Export Plug-In . SVG Version: 6.00 Build 0)  -->
<svg version="1.1" id="Layer_1" xmlns="http://www.w3.org/2000/svg" xmlns:xlink="http://www.w3.org/1999/xlink" x="0px" y="0px"
	 viewBox="0 0 400 400" style="enable-background:new 0 0 400 400;" xml:space="preserve">
<style type="text/css">
	.st0{fill:none;stroke:#000000;stroke-width:5;stroke-linecap:round;stroke-linejoin:round;stroke-miterlimit:10;}
	.st1{fill:#F9C6B9;stroke:#000000;stroke-width:5;stroke-linecap:round;stroke-linejoin:round;stroke-miterlimit:10;}
	.st2{fill:#F9C6B9;stroke:#000000;stroke-width:6;stroke-linecap:round;stroke-linejoin:round;stroke-miterlimit:10;}
	.st3{stroke:#FFFFFF;stroke-miterlimit:10;}
	.st4{fill:#F9C6B9;}
	.st5{fill:#FFFFFF;stroke:#000000;stroke-width:5;stroke-linecap:round;stroke-linejoin:round;stroke-miterlimit:10;}
	.st6{fill:none;stroke:#000000;stroke-width:3;stroke-linecap:round;stroke-linejoin:round;stroke-miterlimit:10;}
	.st7{fill:#F9C6B9;stroke:#000000;stroke-width:3;stroke-linecap:round;stroke-linejoin:round;stroke-miterlimit:10;}
	.st8{fill:#FFFFFF;}
	.st9{fill:#F9C6B9;stroke:#000000;stroke-width:3.173;stroke-linecap:round;stroke-linejoin:round;stroke-miterlimit:10;}
	.st10{fill:#FFFFFF;stroke:#000000;stroke-width:3.173;stroke-linecap:round;stroke-linejoin:round;stroke-miterlimit:10;}
	.st11{fill:#FFFFFF;stroke:#FFFFFF;stroke-width:4;stroke-miterlimit:10;}
	.st12{fill:#F9C6B9;stroke:#F9C6B9;stroke-width:3;stroke-miterlimit:10;}
	.st13{fill:#F9C6B9;stroke:#F9C6B9;stroke-width:5;stroke-miterlimit:10;}
	.st14{fill:#F9C6B9;stroke:#F9C6B9;stroke-width:4;stroke-linecap:round;stroke-linejoin:round;stroke-miterlimit:10;}
	.st15{fill:#F9C6B9;stroke:#F9C6B9;stroke-width:5;stroke-linecap:round;stroke-linejoin:round;stroke-miterlimit:10;}
	.st16{fill:#FFFFFF;stroke:#FFFFFF;stroke-width:3;stroke-miterlimit:10;}
	.st17{fill:#F9C6B9;stroke:#F9C6B9;stroke-width:1.5;stroke-miterlimit:10;}
	.st18{fill:#F9C6B9;stroke:#F9C6B9;stroke-width:11;stroke-miterlimit:10;}
	.st19{fill:none;stroke:#000000;stroke-width:6;stroke-linecap:round;stroke-linejoin:round;stroke-miterlimit:10;}
	.st20{fill:#FFFFFF;stroke:#000000;stroke-width:6;stroke-linecap:round;stroke-linejoin:round;stroke-miterlimit:10;}
	.st21{fill:none;stroke:#000000;stroke-width:6;stroke-miterlimit:10;}
	.st22{fill:#F9C6B9;stroke:#000000;stroke-width:5;stroke-miterlimit:10;}
	.st23{fill:#FFFFFF;stroke:#000000;stroke-width:6;stroke-miterlimit:10;}
	.st24{fill:#FFFFFF;stroke:#000000;stroke-width:4;stroke-linecap:round;stroke-linejoin:round;stroke-miterlimit:10;}
	.st25{fill:none;stroke:#000000;stroke-width:2;stroke-linecap:round;stroke-linejoin:round;stroke-miterlimit:10;}
	.st26{fill:#FFFFFF;stroke:#000000;stroke-width:3;stroke-linecap:round;stroke-linejoin:round;stroke-miterlimit:10;}
	.st27{fill:none;stroke:#000000;stroke-width:3.685;stroke-miterlimit:10;}
	.st28{fill:#FFFFFF;stroke:#000000;stroke-width:3.685;stroke-miterlimit:10;}
</style>
<g>
	<path class="st1" d="M296.4,195.9c-3.6-2.7-6.8-5.6-10.4-7.8c-3.5-2.1-7.3-2.6-9.8,2c-1.6,3-4.2,4.1-7.1,2.3
		c-3-1.9-2.4-4.8-0.9-7.5c4.8-8.8,16.4-10.6,25.7-3.8c6.9,5,13.5,10.4,20.3,15.5c1.4,1.1,3.1,2,4.8,2.4c5.2,1.3,7.4,5.6,3.5,8.9
		c-7,6-6.8,14.1-8.4,21.8c-0.6,2.9-1,5.9-1.7,8.8c-4.1,16.8-15.1,25.5-32.4,25.1c-6.3-0.2-12.6-1.3-18.8-2.4
		c-15.8-2.8-24.9-13.1-30.2-27.5c-1.2-3.4-2.1-7-3.5-10.4c-2.5-6.2-7.2-9.6-13.9-9.7c-6.6,0-11.4,3.3-14,9.4c-1,2.4-1.9,5-2.6,7.5
		c-5.6,20.2-19.3,30.5-39.6,32.4c-5.4,0.5-11,0.7-16.4,0.1c-13.7-1.5-22.6-9.4-25.9-22.8c-1.8-7.1-2.3-14.5-4.3-21.5
		c-1-3.6-3.3-7.3-6.1-9.8c-7.5-6.6-15.5-12.6-23.3-18.9c-5.4-4.3-6.9-3.9-11.4,1.1c-1.3,1.4-4.2,1.3-6.3,1.8
		c-0.5-2.2-2.1-4.8-1.4-6.5c3.3-9.1,15.9-11.7,25-5.1c6.7,4.9,13.1,10.3,19.9,15.2c1.6,1.2,3.9,2.2,5.7,2
		c22.8-2.8,45.6-3.1,68.3-0.2c23,3,45.8,1.5,68.8-0.5C265.2,196.4,280.5,196.5,296.4,195.9z M257.6,251.4c7.4,3.1,11.6,1.9,15.2-3.7
		c6.8-10.7,13.6-21.4,20.3-32.1c1.7-2.6,3.3-5.3,4.9-8c-6.3-3.2-11.3-2.2-14.6,2.9c-2.5,3.9-5,7.9-7.5,11.8
		C269.9,232,263.9,241.5,257.6,251.4z M176.2,207.5c-7.7-3-11.7-1.9-15.3,3.8c-7.6,11.9-15.2,23.9-22.8,35.8
		c-0.9,1.4-1.6,2.8-2.4,4.2c6.7,3.2,11.3,2,14.9-3.5c4.9-7.6,9.7-15.2,14.5-22.8C168.7,219.4,172.4,213.6,176.2,207.5z"/>
	<path class="st5" d="M257.6,251.4c6.3-9.9,12.3-19.5,18.4-29c2.5-3.9,5-7.9,7.5-11.8c3.3-5.1,8.3-6.2,14.6-2.9
		c-1.7,2.7-3.3,5.4-4.9,8c-6.8,10.7-13.5,21.4-20.3,32.1C269.2,253.4,265,254.5,257.6,251.4z"/>
	<path class="st5" d="M176.2,207.5c-3.9,6.1-7.5,11.9-11.2,17.6c-4.8,7.6-9.6,15.2-14.5,22.8c-3.5,5.5-8.2,6.7-14.9,3.5
		c0.8-1.4,1.6-2.9,2.4-4.2c7.6-12,15.2-23.9,22.8-35.8C164.6,205.6,168.6,204.5,176.2,207.5z"/>
</g>
</svg>
