<?xml version="1.0" encoding="utf-8"?>
<!-- Generator: Adobe Illustrator 27.1.1, SVG Export Plug-In . SVG Version: 6.00 Build 0)  -->
<svg version="1.1" id="Layer_1" xmlns="http://www.w3.org/2000/svg" xmlns:xlink="http://www.w3.org/1999/xlink" x="0px" y="0px"
	 viewBox="0 0 400 400" style="enable-background:new 0 0 400 400;" xml:space="preserve">
<style type="text/css">
	.st0{fill:none;stroke:#000000;stroke-width:5;stroke-linecap:round;stroke-linejoin:round;stroke-miterlimit:10;}
	.st1{fill:#F9C6B9;stroke:#000000;stroke-width:5;stroke-linecap:round;stroke-linejoin:round;stroke-miterlimit:10;}
	.st2{fill:#F9C6B9;stroke:#000000;stroke-width:6;stroke-linecap:round;stroke-linejoin:round;stroke-miterlimit:10;}
	.st3{stroke:#FFFFFF;stroke-miterlimit:10;}
	.st4{fill:#F9C6B9;}
	.st5{fill:#FFFFFF;stroke:#000000;stroke-width:5;stroke-linecap:round;stroke-linejoin:round;stroke-miterlimit:10;}
	.st6{fill:none;stroke:#000000;stroke-width:3;stroke-linecap:round;stroke-linejoin:round;stroke-miterlimit:10;}
	.st7{fill:#F9C6B9;stroke:#000000;stroke-width:3;stroke-linecap:round;stroke-linejoin:round;stroke-miterlimit:10;}
	.st8{fill:#FFFFFF;}
	.st9{fill:#F9C6B9;stroke:#000000;stroke-width:3.173;stroke-linecap:round;stroke-linejoin:round;stroke-miterlimit:10;}
	.st10{fill:#FFFFFF;stroke:#000000;stroke-width:3.173;stroke-linecap:round;stroke-linejoin:round;stroke-miterlimit:10;}
	.st11{fill:#FFFFFF;stroke:#FFFFFF;stroke-width:4;stroke-miterlimit:10;}
	.st12{fill:#F9C6B9;stroke:#F9C6B9;stroke-width:3;stroke-miterlimit:10;}
	.st13{fill:#F9C6B9;stroke:#F9C6B9;stroke-width:5;stroke-miterlimit:10;}
	.st14{fill:#F9C6B9;stroke:#F9C6B9;stroke-width:4;stroke-linecap:round;stroke-linejoin:round;stroke-miterlimit:10;}
	.st15{fill:#F9C6B9;stroke:#F9C6B9;stroke-width:5;stroke-linecap:round;stroke-linejoin:round;stroke-miterlimit:10;}
	.st16{fill:#FFFFFF;stroke:#FFFFFF;stroke-width:3;stroke-miterlimit:10;}
	.st17{fill:#F9C6B9;stroke:#F9C6B9;stroke-width:1.5;stroke-miterlimit:10;}
	.st18{fill:#F9C6B9;stroke:#F9C6B9;stroke-width:11;stroke-miterlimit:10;}
	.st19{fill:none;stroke:#000000;stroke-width:6;stroke-linecap:round;stroke-linejoin:round;stroke-miterlimit:10;}
	.st20{fill:#FFFFFF;stroke:#000000;stroke-width:6;stroke-linecap:round;stroke-linejoin:round;stroke-miterlimit:10;}
	.st21{fill:none;stroke:#000000;stroke-width:6;stroke-miterlimit:10;}
	.st22{fill:#F9C6B9;stroke:#000000;stroke-width:5;stroke-miterlimit:10;}
	.st23{fill:#FFFFFF;stroke:#000000;stroke-width:6;stroke-miterlimit:10;}
	.st24{fill:#FFFFFF;stroke:#000000;stroke-width:4;stroke-linecap:round;stroke-linejoin:round;stroke-miterlimit:10;}
	.st25{fill:none;stroke:#000000;stroke-width:2;stroke-linecap:round;stroke-linejoin:round;stroke-miterlimit:10;}
	.st26{fill:#FFFFFF;stroke:#000000;stroke-width:3;stroke-linecap:round;stroke-linejoin:round;stroke-miterlimit:10;}
	.st27{fill:none;stroke:#000000;stroke-width:3.685;stroke-miterlimit:10;}
	.st28{fill:#FFFFFF;stroke:#000000;stroke-width:3.685;stroke-miterlimit:10;}
</style>
<g>
	<path class="st4" d="M205.4,331.4c-44.1,0-81-30.1-89.8-73.2c-6.9-33.6,2.8-62.8,28.8-87.1c1.2-1.1,1.5-1.8,1.5-3.1
		c0-5.3,0-10.8,0.1-16c0.1-9.4,0.2-19.2-0.2-28.7c-1-24.9,16.6-44.4,34.5-50.7c9.3-3.3,18.3-5,26.8-5c14.8,0,28.4,5.1,40.3,15.2
		c12,10.2,17.9,23.3,17.7,39c-0.1,4.9,0,10,0,14.8c0,2.2,0,4.4,0,6.6c0,2.1,0,4.1,0,6.2c0,6.3,0,12.8,0.1,19.3
		c0,0.5,0.4,1.4,0.8,1.8c22.8,20.8,33.3,46.9,31,77.5c-2.9,40.1-35.3,75.4-75.2,82C216.2,330.9,210.8,331.4,205.4,331.4z M207,309.2
		c-0.1-1.4-0.3-2.9-0.5-4.3c-0.2-2.1,0.2-3.8,1.2-5c0.6-0.7,1.8-1.7,3.8-1.8c0.2,0,0.3,0,0.5,0c1.4,0,4.7,0.5,5.4,5.5
		c0.2,1.6,0.4,3.1,0.6,4.8l6.8-1.7c-0.5-1.4-1-2.6-1.5-3.8c-1.7-4.1,0.1-6.7,2.5-7.7c0.8-0.4,1.6-0.5,2.4-0.5c1.3,0,3.8,0.5,5.2,4.1
		c0.5,1.3,1,2.7,1.6,4.1l5.7-3c-1-1.4-1.9-2.7-2.8-4c-1.1-1.5-1.5-3.1-1.2-4.5c0.2-1,0.8-2.3,2.5-3.5c1-0.6,2-1,3-1
		c1.7,0,3.3,0.9,4.6,2.7c0.9,1.3,1.9,2.6,2.8,4l4.9-4.4c-1.2-1-2.4-2-3.5-3c-4.2-3.7-2.3-7-1.3-8.2c1.4-1.7,3-2,4-2
		c1.4,0,2.8,0.6,4.3,1.9c1.2,1,2.4,2,3.7,3l3.5-5.3c-1.4-0.7-2.8-1.4-4.1-2c-1.8-0.9-3-2.1-3.5-3.6c-0.3-0.9-0.5-2.4,0.5-4.2
		c1-1.8,2.6-2.8,4.5-2.8c1,0,2.1,0.3,3.3,0.9c1.4,0.7,2.8,1.3,4.2,2l2.2-6.4c-1.6-0.3-3.1-0.6-4.5-0.9c-1.4-0.3-3.5-0.9-4.7-2.7
		c-0.5-0.8-1.1-2.2-0.6-4.2c0.6-2.6,2.5-4.1,5.3-4.1c0.6,0,1.2,0.1,2,0.2c1.6,0.3,3.1,0.6,4.8,0.9l0.5-7.1c-1.6,0.1-3,0.2-4.4,0.3
		c-0.3,0-0.6,0-0.8,0c-3.5,0-5.6-1.9-5.8-5.1c-0.1-1.6,0.3-5.5,6-5.8c1.4-0.1,2.9-0.2,4.5-0.4l-1.2-6.4c-1.7,0.5-3.2,1-4.7,1.5
		c-0.9,0.3-1.7,0.4-2.4,0.4c-2.4,0-4.2-1.4-5-3.7c-0.6-1.9-0.2-3.3,0.2-4.1c0.7-1.4,2-2.4,3.8-2.9c1.6-0.5,3.2-1,4.9-1.5l-2.9-6.2
		c-1.3,0.8-2.6,1.6-3.8,2.4c-1.4,0.9-2.7,1.4-3.9,1.4c-1,0-2.9-0.3-4.4-2.6c-0.9-1.4-2.4-4.9,2.4-8c1.3-0.8,2.6-1.7,3.9-2.6l-4-4.9
		c-1.3,1.2-2.5,2.3-3.7,3.5c-1,1-2.5,2.2-4.5,2.2c-1.3,0-2.4-0.5-3.5-1.5c-1.5-1.4-1.9-2.8-1.9-3.8c-0.1-1.5,0.7-3.1,2.1-4.6
		c1.1-1.2,2.3-2.4,3.5-3.6l-5.5-4.1c-0.8,1.5-1.6,2.9-2.4,4.4c-1.3,2.5-3.1,3.7-5.1,3.7c-0.9,0-1.7-0.2-2.6-0.7
		c-1.8-0.9-2.5-2.2-2.7-3.1c-0.5-1.5-0.2-3.2,0.9-5.1c0.8-1.5,1.6-3,2.5-4.6l-6.6-2.6c-0.4,1.9-0.8,3.6-1.6,5.4
		c-0.8,1.9-3.4,3.9-5.7,3.9l-0.3,0c-1.5-0.1-2.8-0.8-3.7-2c-1-1.3-1.2-3.2-0.7-5.1c0.4-1.6,0.8-3.2,1.2-5l-6.5-0.8
		c0,1.6,0,3.2,0,4.7c0,2.3-0.5,3.9-1.7,5.1c-0.7,0.7-1.9,1.5-3.8,1.5l-0.1,0c-1.3,0-5.4-0.6-5.4-6.4c0-1.6,0-3.1,0-4.8l-6.8,0.9
		c0.5,1.9,0.9,3.5,1.4,5.2c0.5,1.8,0.4,3.4-0.3,4.7c-0.5,0.8-1.4,2-3.4,2.5c-0.6,0.2-1.1,0.2-1.6,0.2c-1.2,0-4-0.4-5.2-4.6
		c-0.5-1.7-1-3.5-1.4-5.3l-5.8,2.3c0.7,1.3,1.4,2.5,2,3.7c1,1.7,1.8,3.5,1.2,5.5c-0.4,1.3-1.3,2.4-2.8,3.2c-0.9,0.5-1.8,0.7-2.6,0.7
		c-3.1,0-4.7-2.9-5.3-4.1c-0.7-1.3-1.4-2.5-2.1-3.8l-5.8,4.3c1.4,1.2,2.6,2.2,3.7,3.4c1.8,1.7,2.2,3.3,2.2,4.4c0,1-0.3,2.4-1.6,3.8
		c-1.4,1.4-2.8,1.7-3.8,1.7c-1.5,0-3.1-0.7-4.5-2.2c-1.2-1.2-2.4-2.4-3.7-3.6l-4.4,5.3c1.3,0.8,2.6,1.6,3.8,2.4
		c1.8,1.1,2.9,2.4,3.2,3.9c0.2,0.9,0.2,2.4-0.9,4.1c-1,1.6-2.6,2.5-4.3,2.5c-1.2,0-2.4-0.4-3.6-1.1c-1.3-0.8-2.6-1.6-4-2.4l-2.7,5.9
		c1.5,0.5,2.9,1,4.4,1.4c2,0.6,3.4,1.6,4.1,3c0.4,0.9,0.8,2.3,0.2,4.2c-0.8,2.3-2.6,3.6-4.9,3.6c-0.8,0-1.7-0.2-2.8-0.5l-4.3-1.3
		l-0.8,4.2c1.5,0.2,3,0.3,4.5,0.4c4.4,0.3,5.7,3.2,5.6,5.9c-0.2,3.1-2.4,4.9-5.7,4.9c0,0,0,0,0,0c-0.2,0-0.4,0-0.7,0
		c-1.5-0.1-3-0.2-4.7-0.2l0.3,6.4c1.5-0.2,2.9-0.5,4.3-0.7c0.6-0.1,1.2-0.2,1.7-0.2c2.9,0,5,1.7,5.4,4.5c0.3,1.9-0.3,3.2-0.8,4
		c-0.9,1.3-2.4,2.1-4.5,2.4c-1.4,0.2-2.8,0.5-4.4,0.7l1.9,6.4c1.5-0.7,2.8-1.3,4.2-1.9c1.2-0.5,2.2-0.8,3.3-0.8
		c2.1,0,3.9,1.2,4.8,3.3c1.3,3,0,5.9-3.4,7.4c-1.4,0.6-2.9,1.3-4.4,2l3.7,6c0.9-0.8,1.8-1.4,2.6-2.1c1.4-1.1,2.9-2.2,4.8-2.2
		c1.1,0,2.7,0.4,4.1,2.2c1.3,1.6,2.7,4.8-1.9,8.4c-0.8,0.6-1.6,1.3-2.4,1.9l4.2,4.9c1-1.2,1.8-2.3,2.6-3.4c1.4-1.9,3-2.8,4.8-2.8
		c1.2,0,2.3,0.4,3.4,1.3c2,1.6,3.2,4.5,0.5,8.1c-0.9,1.2-1.7,2.3-2.7,3.6l5.7,3.3c0.6-1.6,1.2-3.1,2.1-4.4c1-1.5,3.4-3.1,5.5-3.1
		c0.3,0,0.5,0,0.8,0.1c1.5,0.3,2.8,1.1,3.4,2.4c0.8,1.5,0.8,3.3,0,5.2c-0.6,1.3-1.1,2.7-1.7,4.2l6.2,1.7c0.3-1.6,0.5-3.2,0.7-4.7
		c0.5-3.2,2.5-5,5.3-5c0.4,0,0.8,0,1.2,0.1c3.1,0.6,4.7,3.1,4.3,6.5c-0.2,1.5-0.4,3-0.6,4.5H207z M205.4,159.3l1.1-1.6h-2.2
		L205.4,159.3z M205.4,89.7c-6,0-12,1.2-18,3.5c-10,3.8-20.4,15.4-19.7,29.4c0.4,7.8,0.3,15.7,0.2,23.3c0,3.3-0.1,6.6-0.1,10
		c12.5-5.3,25.2-8,37.6-8c12.4,0,25,2.7,37.5,8c0-2.6,0-5.2-0.1-7.8c-0.1-8.8-0.2-17,0.2-25.5c0.6-13.9-9.7-25.5-19.7-29.3
		C217.4,90.9,211.3,89.7,205.4,89.7z"/>
	<path d="M206.9,70.1c13.7,0,26.7,4.5,38.7,14.6c11.2,9.5,17.1,22,16.8,37c-0.1,7.2,0,14.3,0,21.5c0,8.5-0.1,17,0.1,25.5
		c0,1.2,0.7,2.8,1.6,3.6c22.3,20.3,32.4,45.5,30.2,75.5c-2.9,39.1-34.3,73.3-73.2,79.8c-5.3,0.9-10.6,1.3-15.8,1.3
		c-42.1,0-78.6-28.4-87.4-71.2c-6.8-33.2,3.2-61.6,28-84.7c1.6-1.4,2.3-2.8,2.3-4.9c-0.1-14.9,0.4-29.9-0.2-44.8
		c-0.9-22.6,14.7-41.8,32.9-48.3C189.8,71.8,198.5,70.1,206.9,70.1 M165.3,159.6c13.4-6.2,26.8-9.3,40.1-9.3c13.3,0,26.6,3.1,40,9.3
		c0-12.6-0.4-24.8,0.1-37c0.7-15.3-10.5-27.6-21.3-31.8c-6.3-2.4-12.6-3.6-18.8-3.6c-6.3,0-12.6,1.2-18.9,3.6
		c-10.5,4-22,16.2-21.3,31.8c0.5,11.1,0.1,22.3,0.1,33.4C165.3,157.2,165.3,158.2,165.3,159.6 M211.3,155.2c-4.3,0-7.8,0-11.9,0
		c2.1,3,3.8,5.4,6,8.4C207.6,160.5,209.3,158,211.3,155.2 M189.2,181c-1.5,0-2.4-1.2-2.8-2.8c-0.7-2.6-1.4-5.1-2.2-8
		c-3.7,1.5-7.3,2.9-11,4.4c1.2,2.3,2.3,4.3,3.4,6.3c1.1,1.9,1.9,3.9-0.6,5.2c-0.5,0.3-1,0.4-1.5,0.4c-1.4,0-2.3-1.3-3.1-2.7
		c-1.1-2-2.2-4-3.5-6.4c-3.5,2.5-6.7,4.9-10.6,7.8c2.3,2.1,4.2,3.7,6,5.4c1.4,1.3,2.1,3,0.5,4.6c-0.7,0.7-1.4,1-2,1
		c-1,0-1.9-0.6-2.8-1.5c-1.8-1.8-3.6-3.5-5.7-5.5c-2.6,3.1-5.1,6.3-7.9,9.6c2.3,1.4,4.2,2.7,6.2,3.9c1.8,1.1,2.9,2.5,1.6,4.5
		c-0.6,1-1.4,1.3-2.2,1.3c-0.8,0-1.6-0.3-2.4-0.8c-2.1-1.2-4.1-2.5-6.4-3.8c-1.7,3.8-3.3,7.3-5,11c2.6,0.9,4.8,1.6,7.1,2.3
		c2,0.6,3.4,1.8,2.7,4c-0.5,1.5-1.4,1.9-2.6,1.9c-0.6,0-1.3-0.2-2-0.4c-2.2-0.7-4.4-1.4-6.9-2.2c-0.7,3.3-1.3,6.4-1.9,9.6
		c2.6,0.3,5,0.5,7.3,0.7c2,0.2,3.4,1,3.2,3.2c-0.1,2.1-1.5,2.6-3.2,2.6c-0.2,0-0.3,0-0.5,0c-2.3-0.1-4.6-0.2-7.5-0.4
		c0.2,4.2,0.4,8,0.6,12c2.7-0.4,4.9-0.8,7.1-1.2c0.4-0.1,0.9-0.1,1.3-0.1c1.5,0,2.7,0.6,3,2.5c0.4,2.4-1.3,3.2-3.3,3.6
		c-2.2,0.4-4.4,0.7-7.2,1.1c1.2,4.1,2.4,7.9,3.5,11.9c2.6-1.2,4.7-2.1,6.9-3.1c0.8-0.4,1.5-0.6,2.2-0.6c1,0,1.9,0.5,2.5,1.8
		c0.8,2-0.3,3.3-2.1,4.1c-2.2,1-4.4,2-7,3.2c2.3,3.8,4.4,7.2,6.6,10.9c1.9-1.5,3.4-2.7,4.9-4c1-0.8,2.1-1.6,3.2-1.6
		c0.7,0,1.4,0.3,2.1,1.2c1.6,2,0.2,3.6-1.5,4.9c-1.6,1.3-3.1,2.6-4.4,3.6c2.6,3.1,5.1,6,7.8,9.1c1.8-2.4,3.2-4.1,4.5-5.9
		c0.8-1.1,1.8-1.8,2.8-1.8c0.6,0,1.2,0.2,1.9,0.7c1.7,1.4,1.2,3,0.1,4.6c-1.4,1.8-2.8,3.7-4.4,5.8c3.7,2.1,7.1,4,10.7,6.1
		c1.1-2.6,1.6-4.8,2.9-6.7c0.7-1,2.3-2,3.4-2c0.1,0,0.2,0,0.3,0c2,0.4,2.4,2.2,1.6,4.2c-0.9,2.1-1.7,4.3-2.7,6.8
		c4,1.1,7.7,2.1,11.6,3.2c0.4-2.8,0.8-5.1,1.2-7.4c0.3-1.7,1.1-3,2.8-3c0.2,0,0.5,0,0.7,0.1c2,0.4,2.5,1.9,2.3,3.7
		c-0.3,2.3-0.6,4.6-1,7.4c4.1,0,8,0,12.2,0c-0.3-2.4-0.5-4.7-0.7-7c-0.2-2.1,0.3-3.8,2.7-4c0.1,0,0.2,0,0.3,0c2,0,2.7,1.5,2.9,3.4
		c0.3,2.4,0.6,4.8,1,7.5c4.3-1.1,8.2-2,12.3-3c-1-2.5-1.7-4.5-2.5-6.5c-0.8-1.8-0.8-3.6,1.2-4.4c0.5-0.2,1-0.3,1.4-0.3
		c1.3,0,2.3,1,2.9,2.6c0.8,2.1,1.7,4.3,2.6,6.7c3.8-2,7.1-3.8,10.6-5.7c-1.6-2.3-3-4.3-4.4-6.3c-1.2-1.7-1.2-3.3,0.6-4.5
		c0.6-0.4,1.1-0.5,1.6-0.5c1,0,1.9,0.7,2.6,1.7c1.4,2,2.8,4,4.5,6.3c3.1-2.8,6-5.5,9.1-8.3c-2.1-1.8-3.9-3.2-5.7-4.8
		c-1.5-1.3-2.6-2.9-1-4.8c0.7-0.8,1.4-1.2,2.1-1.2c0.9,0,1.8,0.5,2.7,1.3c1.9,1.6,3.8,3.1,5.9,4.8c2.2-3.4,4.4-6.6,6.6-10
		c-2.5-1.2-4.6-2.3-6.7-3.3c-2-0.9-3-2.4-1.9-4.4c0.6-1.1,1.4-1.5,2.3-1.5c0.7,0,1.5,0.2,2.2,0.6c2.2,1.1,4.3,2.1,6.8,3.2
		c1.4-4,2.7-7.7,4-11.7c-2.8-0.5-5.1-0.9-7.3-1.4c-2.1-0.4-3.9-1.3-3.3-3.8c0.4-1.7,1.5-2.2,2.8-2.2c0.5,0,1.1,0.1,1.6,0.2
		c2.4,0.4,4.7,0.9,7.5,1.4c0.3-4.4,0.6-8.4,1-12.7c-2.8,0.2-5,0.3-7.3,0.5c-0.2,0-0.4,0-0.7,0c-1.8,0-3.2-0.6-3.3-2.8
		c-0.1-2.4,1.5-3,3.6-3.2c2.3-0.1,4.6-0.4,7.3-0.6c-0.8-4.2-1.5-8-2.2-11.9c-2.8,0.9-5.1,1.6-7.5,2.3c-0.6,0.2-1.1,0.3-1.7,0.3
		c-1.2,0-2.1-0.6-2.6-2c-0.7-2.1,0.5-3.3,2.4-3.9c2.4-0.8,4.8-1.5,7.6-2.4c-1.8-3.9-3.5-7.5-5.2-11.4c-2.3,1.5-4.3,2.7-6.3,4
		c-0.9,0.6-1.7,1-2.5,1c-0.8,0-1.6-0.4-2.3-1.4c-1.3-2.1,0-3.4,1.7-4.5c2-1.3,4-2.6,6.3-4.1c-2.7-3.3-5.2-6.3-7.5-9.1
		c-2.1,2-3.9,3.6-5.6,5.4c-0.9,0.9-1.8,1.5-2.7,1.5c-0.6,0-1.2-0.2-1.8-0.8c-1.8-1.6-1.2-3.3,0.3-4.8c1.8-1.8,3.5-3.7,5.4-5.7
		c-3.5-2.6-6.8-5-10.1-7.4c-1.4,2.6-2.6,4.7-3.7,6.9c-0.7,1.3-1.6,2.4-2.9,2.4c-0.4,0-0.9-0.1-1.5-0.4c-2.1-1.1-1.8-2.9-0.8-4.7
		c1.2-2.2,2.4-4.5,3.9-7.1c-4-1.6-7.8-3.1-11.9-4.8c-0.7,2.9-1,5.5-2.1,7.8c-0.5,1.1-2.2,2.5-3.4,2.5c0,0-0.1,0-0.1,0
		c-2-0.1-2.7-1.9-2.1-4c0.6-2.4,1.1-4.9,1.8-7.7c-4.2-0.5-7.9-1-12-1.5c0,2.8,0,5.2,0,7.5c0,2.2-0.5,4-3,4c0,0-0.1,0-0.1,0
		c-2.3,0-2.9-1.8-2.9-3.9c0-2.4,0-4.9,0-7.7c-4.4,0.6-8.4,1.1-12.4,1.6c0.8,3,1.4,5.5,2.1,8c0.6,2,0.1,3.5-1.9,4.1
		C189.8,180.9,189.5,181,189.2,181 M206.9,65.1L206.9,65.1c-8.7,0-18,1.7-27.6,5.1c-18.8,6.6-37.2,27-36.2,53.2
		c0.4,9.5,0.3,19.2,0.2,28.6c0,5.3-0.1,10.7-0.1,16.1c0,0.5,0,0.6-0.7,1.3c-13.1,12.2-22.2,25.9-27.2,40.7
		c-5.1,15.1-5.9,31.5-2.3,48.7c9.1,44.3,47,75.2,92.3,75.2c5.5,0,11.1-0.5,16.6-1.4c41.1-6.8,74.3-43.1,77.3-84.3
		c2.3-31.4-8.4-58.2-31.7-79.5c0-0.1-0.1-0.1-0.1-0.2c-0.1-6.3-0.1-12.8-0.1-19.1c0-2.1,0-4.1,0-6.2c0-2.2,0-4.5,0-6.7
		c0-4.8,0-9.8,0-14.7c0.2-16.2-6.2-30.4-18.6-40.9C236.5,70.4,222.4,65.1,206.9,65.1L206.9,65.1z M170.3,152.1c0-2.1,0-4.2,0.1-6.2
		c0.1-7.7,0.2-15.6-0.2-23.4c-0.6-12.7,8.8-23.4,18.1-26.9c5.7-2.2,11.4-3.3,17.1-3.3c5.6,0,11.4,1.1,17,3.3
		c9.2,3.5,18.7,14.2,18.1,26.9c-0.4,8.5-0.3,16.8-0.2,25.6c0,1.3,0,2.7,0,4c-11.7-4.5-23.4-6.7-35-6.7
		C193.8,145.3,182.1,147.6,170.3,152.1L170.3,152.1z M205.4,183.7c2.8,0,4.6-1.2,5.6-2.2c1.6-1.6,2.4-3.9,2.4-6.9c0-0.6,0-1.2,0-1.8
		l0.9,0.1c-0.2,0.8-0.4,1.5-0.5,2.2c-0.7,2.7-0.3,5.3,1.1,7.2c1.3,1.8,3.2,2.8,5.5,3c0.1,0,0.3,0,0.4,0c3.4,0,6.8-2.8,7.9-5.4
		c0.4-1,0.8-2,1-3l1.3,0.5c-0.4,0.7-0.8,1.4-1.2,2.2c-1.4,2.5-1.7,4.8-1.1,7c0.4,1.4,1.4,3.3,4,4.6c1.2,0.6,2.5,1,3.8,1
		c2.1,0,5.1-0.9,7.3-5.1c0.3-0.6,0.7-1.2,1-1.8l0.9,0.7c-0.5,0.5-1,1-1.5,1.6c-1.9,2-2.9,4.2-2.8,6.4c0,1.5,0.6,3.6,2.7,5.6
		c1.9,1.7,3.9,2.1,5.2,2.1c3.3,0,5.5-2.2,6.2-3c0.5-0.5,1.1-1.1,1.7-1.6l0.3,0.4l0.2,0.3c-0.5,0.3-1,0.7-1.6,1
		c-5.4,3.5-5.2,8.2-3.2,11.4c1.5,2.4,3.8,3.8,6.5,3.8c1.7,0,3.5-0.6,5.3-1.8c0.4-0.3,0.9-0.6,1.4-0.9l0.5,1l0,0
		c-0.7,0.2-1.5,0.5-2.2,0.7c-3.1,1-4.6,2.8-5.3,4.2c-0.6,1.3-1.2,3.4-0.3,6.1c1.1,3.4,3.9,5.4,7.3,5.4c1,0,2.1-0.2,3.2-0.6
		c0.7-0.2,1.3-0.4,2-0.6l0.2,0.9c-0.6,0-1.1,0.1-1.7,0.1c-2.2,0.1-3.9,0.7-5.3,1.7c-1.2,0.9-3.3,2.9-3.1,6.8
		c0.2,4.6,3.5,7.5,8.3,7.5c0.3,0,0.7,0,1,0c0.5,0,1-0.1,1.5-0.1l-0.1,1.4c-0.7-0.1-1.4-0.3-2-0.4c-0.9-0.2-1.7-0.2-2.5-0.2
		c-3.9,0-6.9,2.3-7.7,6.1c-0.6,2.8,0.2,4.9,0.9,6.1c1.9,2.9,5.2,3.5,6.3,3.8c0.6,0.1,1.1,0.2,1.7,0.3l-0.3,1
		c-0.6-0.3-1.1-0.5-1.7-0.8c-1.6-0.8-3-1.1-4.4-1.1c-2.9,0-5.3,1.5-6.7,4.2c-1.4,2.6-1.1,4.8-0.6,6.2c0.5,1.5,1.7,3.6,4.8,5.1
		c0.5,0.2,1,0.5,1.5,0.7l-0.4,0.6c-0.5-0.4-1-0.8-1.5-1.3c-2-1.7-3.9-2.5-5.9-2.5c-2.2,0-4.4,1-5.9,2.9c-2.4,2.9-3.3,7.5,1.5,11.7
		c0.5,0.4,0.9,0.8,1.4,1.2l-0.7,0.6c-0.4-0.6-0.8-1.1-1.2-1.7c-2.3-3.1-4.9-3.7-6.6-3.7c-1.5,0-3,0.5-4.3,1.4
		c-2.4,1.6-3.3,3.7-3.6,5.1c-0.3,1.5-0.3,3.8,1.6,6.4c0.4,0.6,0.8,1.1,1.2,1.7l-0.7,0.4c-0.2-0.5-0.4-1-0.6-1.5
		c-2-5.2-5.9-5.7-7.5-5.7c-1.1,0-2.3,0.3-3.4,0.8c-3.5,1.6-6.1,5.6-3.8,11c0.1,0.3,0.3,0.7,0.4,1l-0.3,0.1l-1,0.3
		c-0.1-0.7-0.2-1.3-0.3-2c-0.7-5.7-4.5-7.7-7.8-7.7c-0.2,0-0.5,0-0.7,0c-2.9,0.2-4.6,1.6-5.5,2.7c-1.5,1.8-2,4-1.7,6.8
		c0.1,0.5,0.1,1,0.2,1.5h-0.9c0.1-0.6,0.2-1.1,0.2-1.7c0.6-4.7-1.9-8.5-6.3-9.3c-0.6-0.1-1.1-0.2-1.7-0.2c-4,0-7,2.8-7.7,7.1
		c-0.1,0.6-0.2,1.3-0.3,1.9l-0.8-0.2c0.2-0.5,0.4-1.1,0.6-1.6c1.1-2.6,1.1-5.2-0.1-7.3c-1-1.9-2.9-3.2-5.2-3.7
		c-0.4-0.1-0.8-0.1-1.2-0.1c-3.1,0-6.2,2.1-7.6,4.2c-0.5,0.7-0.9,1.5-1.3,2.3l-0.8-0.4c0.3-0.4,0.6-0.8,1-1.3
		c2.5-3.4,3.2-8.2-0.9-11.5c-1.9-1.5-3.8-1.8-5-1.8c-1.8,0-4.4,0.7-6.8,3.8c-0.2,0.3-0.5,0.6-0.7,1l-0.5-0.6
		c0.1-0.1,0.2-0.2,0.4-0.3c6.8-5.4,3.1-10.9,2.3-11.9c-2.1-2.7-4.7-3.2-6.1-3.2c-2.7,0-4.7,1.4-6.4,2.8c-0.1,0.1-0.3,0.2-0.4,0.3
		l-0.7-1.1c0.6-0.3,1.2-0.6,1.8-0.8c4.6-2.1,6.5-6.3,4.7-10.6c-1.3-3-3.9-4.9-7.1-4.9c-1.4,0-2.8,0.4-4.3,1.1
		c-0.5,0.2-1,0.5-1.5,0.7l-0.3-1c0.5-0.1,1.1-0.2,1.6-0.3c2.8-0.5,4.9-1.6,6.2-3.4c0.8-1.2,1.7-3.1,1.2-5.9c-0.7-4-3.8-6.6-7.9-6.6
		c-0.7,0-1.4,0.1-2.1,0.2c-0.5,0.1-1,0.2-1.5,0.3l0-0.9c0.6,0,1.3,0.1,1.9,0.1c0.3,0,0.5,0,0.8,0c4.7,0,7.9-2.9,8.2-7.3
		c0.2-2.8-0.8-5.1-2.6-6.6c2.5-0.6,4.4-2.4,5.3-5.1c0.9-2.7,0.3-4.8-0.3-6.1c-1-2-2.9-3.5-5.6-4.3c-0.6-0.2-1.1-0.4-1.7-0.5l0.4-0.8
		c0.5,0.3,1.1,0.7,1.6,1c1.7,1,3.3,1.5,4.9,1.5c2.6,0,4.9-1.3,6.4-3.6c1.6-2.4,1.5-4.6,1.2-6c-0.5-2.2-2-4.1-4.4-5.5
		c-0.5-0.3-0.9-0.6-1.4-0.8l0.9-1c0.6,0.6,1.2,1.1,1.7,1.7c1.9,2,4.1,3,6.3,3c1.4,0,3.5-0.4,5.6-2.4c2-2,2.4-4.1,2.4-5.6
		c0-1.5-0.5-3.9-3-6.2c-0.5-0.5-1-0.9-1.5-1.4l1-0.8c0.2,0.4,0.5,0.9,0.7,1.3c0.7,1.3,2.8,5.4,7.5,5.4c1.3,0,2.5-0.3,3.8-1
		c2.6-1.4,3.6-3.3,4-4.7c0.5-1.7,0.3-3.4-0.1-4.7c1.4,3,3.9,4.8,7,4.8c0.7,0,1.5-0.1,2.3-0.3c2.8-0.8,4.2-2.4,4.9-3.7
		c0.7-1.3,1.4-3.6,0.5-6.7c-0.2-0.8-0.4-1.5-0.7-2.3l1.2-0.2c0,0.6,0,1.3,0,1.9c-0.1,6.5,4.2,8.9,7.8,9L205.4,183.7L205.4,183.7z
		 M180.2,177.2l0.6-0.3c0.2,0.9,0.5,1.7,0.7,2.6c0,0.1,0.1,0.3,0.1,0.4c-0.3-0.6-0.6-1.2-0.8-1.5C180.7,178,180.4,177.6,180.2,177.2
		L180.2,177.2z"/>
</g>
<g>
	<path class="st4" d="M262.5,143.2c0,8.5-0.1,17,0.1,25.5c0,1.2,0.7,2.8,1.6,3.6c22.3,20.3,32.4,45.5,30.2,75.5
		c-2.9,39.1-34.3,73.3-73.2,79.8c-48.5,8.1-93.3-21.8-103.2-69.9c-6.8-33.2,3.2-61.6,28-84.7c1.6-1.4,2.3-2.8,2.3-4.9
		c-0.1-14.9,0.4-29.9-0.2-44.8c-0.9-22.6,14.7-41.8,32.9-48.3c23.1-8.2,45.3-6.6,64.6,9.8c11.2,9.5,17.1,22,16.8,37
		C262.4,128.9,262.5,136.1,262.5,143.2z M157.3,185.3c2.3,2.1,4.2,3.7,6,5.4c1.4,1.3,2.1,3,0.5,4.6c-1.7,1.7-3.3,1-4.8-0.5
		c-1.8-1.8-3.6-3.5-5.7-5.5c-2.6,3.1-5.1,6.3-7.9,9.6c2.3,1.4,4.2,2.7,6.2,3.9c1.8,1.1,2.9,2.5,1.6,4.5c-1.2,1.8-2.9,1.6-4.6,0.5
		c-2.1-1.2-4.1-2.5-6.4-3.8c-1.7,3.8-3.3,7.3-5,11c2.6,0.9,4.8,1.6,7.1,2.3c2,0.6,3.4,1.8,2.7,4c-0.8,2.3-2.7,2.2-4.6,1.6
		c-2.2-0.7-4.4-1.4-6.9-2.2c-0.7,3.3-1.3,6.4-1.9,9.6c2.6,0.3,5,0.5,7.3,0.7c2,0.2,3.4,1,3.2,3.2c-0.2,2.3-1.8,2.7-3.7,2.6
		c-2.3-0.1-4.6-0.2-7.5-0.4c0.2,4.2,0.4,8,0.6,12c2.7-0.4,4.9-0.8,7.1-1.2c2.1-0.4,3.8,0,4.2,2.3c0.4,2.4-1.3,3.2-3.3,3.6
		c-2.2,0.4-4.4,0.7-7.2,1.1c1.2,4.1,2.4,7.9,3.5,11.9c2.6-1.2,4.7-2.1,6.9-3.1c1.9-0.9,3.7-0.9,4.6,1.2c0.8,2-0.3,3.3-2.1,4.1
		c-2.2,1-4.4,2-7,3.2c2.3,3.8,4.4,7.2,6.6,10.9c1.9-1.5,3.4-2.7,4.9-4c1.7-1.4,3.6-2.6,5.3-0.4c1.6,2,0.2,3.6-1.5,4.9
		c-1.6,1.3-3.1,2.6-4.4,3.6c2.6,3.1,5.1,6,7.8,9.1c1.8-2.4,3.2-4.1,4.5-5.9c1.3-1.7,2.8-2.6,4.7-1.1c1.7,1.4,1.2,3,0.1,4.6
		c-1.4,1.8-2.8,3.7-4.4,5.8c3.7,2.1,7.1,4,10.7,6.1c1.1-2.6,1.6-4.8,2.9-6.7c0.7-1.1,2.6-2.2,3.8-1.9c2,0.4,2.4,2.2,1.6,4.2
		c-0.9,2.1-1.7,4.3-2.7,6.8c4,1.1,7.7,2.1,11.6,3.2c0.4-2.8,0.8-5.1,1.2-7.4c0.3-2,1.4-3.3,3.5-2.9c2,0.4,2.5,1.9,2.3,3.7
		c-0.3,2.3-0.6,4.6-1,7.4c4.1,0,8,0,12.2,0c-0.3-2.4-0.5-4.7-0.7-7c-0.2-2.1,0.3-3.8,2.7-4c2.2-0.2,3,1.4,3.2,3.3
		c0.3,2.4,0.6,4.8,1,7.5c4.3-1.1,8.2-2,12.3-3c-1-2.5-1.7-4.5-2.5-6.5c-0.8-1.8-0.8-3.6,1.2-4.4c2.1-0.9,3.5,0.2,4.3,2.2
		c0.8,2.1,1.7,4.3,2.6,6.7c3.8-2,7.1-3.8,10.6-5.7c-1.6-2.3-3-4.3-4.4-6.3c-1.2-1.7-1.2-3.3,0.6-4.5c1.7-1.2,3.1-0.3,4.2,1.2
		c1.4,2,2.8,4,4.5,6.3c3.1-2.8,6-5.5,9.1-8.3c-2.1-1.8-3.9-3.2-5.7-4.8c-1.5-1.3-2.6-2.9-1-4.8c1.6-1.9,3.2-1.2,4.8,0.1
		c1.9,1.6,3.8,3.1,5.9,4.8c2.2-3.4,4.4-6.6,6.6-10c-2.5-1.2-4.6-2.3-6.7-3.3c-2-0.9-3-2.4-1.9-4.4c1-1.9,2.8-1.7,4.5-0.9
		c2.2,1.1,4.3,2.1,6.8,3.2c1.4-4,2.7-7.7,4-11.7c-2.8-0.5-5.1-0.9-7.3-1.4c-2.1-0.4-3.9-1.3-3.3-3.8c0.5-2.4,2.5-2.4,4.4-2
		c2.4,0.4,4.7,0.9,7.5,1.4c0.3-4.4,0.6-8.4,1-12.7c-2.8,0.2-5,0.3-7.3,0.5c-2.1,0.1-3.8-0.3-3.9-2.7c-0.1-2.4,1.5-3,3.6-3.2
		c2.3-0.1,4.6-0.4,7.3-0.6c-0.8-4.2-1.5-8-2.2-11.9c-2.8,0.9-5.1,1.6-7.5,2.3c-1.9,0.6-3.6,0.4-4.2-1.7c-0.7-2.1,0.5-3.3,2.4-3.9
		c2.4-0.8,4.8-1.5,7.6-2.4c-1.8-3.9-3.5-7.5-5.2-11.4c-2.3,1.5-4.3,2.7-6.3,4c-1.8,1.2-3.5,1.5-4.8-0.5c-1.3-2.1,0-3.4,1.7-4.5
		c2-1.3,4-2.6,6.3-4.1c-2.7-3.3-5.2-6.3-7.5-9.1c-2.1,2-3.9,3.6-5.6,5.4c-1.4,1.4-2.9,2.2-4.5,0.7c-1.8-1.6-1.2-3.3,0.3-4.8
		c1.8-1.8,3.5-3.7,5.4-5.7c-3.5-2.6-6.8-5-10.1-7.4c-1.4,2.6-2.6,4.7-3.7,6.9c-1,1.8-2.3,3.1-4.4,2c-2.1-1.1-1.8-2.9-0.8-4.7
		c1.2-2.2,2.4-4.5,3.9-7.1c-4-1.6-7.8-3.1-11.9-4.8c-0.7,2.9-1,5.5-2.1,7.8c-0.5,1.2-2.3,2.5-3.5,2.5c-2-0.1-2.7-1.9-2.1-4
		c0.6-2.4,1.1-4.9,1.8-7.7c-4.2-0.5-7.9-1-12-1.5c0,2.8,0,5.2,0,7.5c0,2.2-0.6,4.1-3.1,4c-2.3,0-2.9-1.8-2.9-3.9c0-2.4,0-4.9,0-7.7
		c-4.4,0.6-8.4,1.1-12.4,1.6c0.8,3,1.4,5.5,2.1,8c0.6,2,0.1,3.5-1.9,4.1c-2.1,0.6-3.2-0.7-3.8-2.6c-0.7-2.6-1.4-5.1-2.2-8
		c-3.7,1.5-7.3,2.9-11,4.4c1.2,2.3,2.3,4.3,3.4,6.3c1.1,1.9,1.9,3.9-0.6,5.2c-2.3,1.2-3.5-0.4-4.5-2.3c-1.1-2-2.2-4-3.5-6.4
		C164.4,180,161.2,182.4,157.3,185.3z M245.4,159.6c0-12.6-0.4-24.8,0.1-37c0.7-15.3-10.5-27.6-21.3-31.8c-12.6-4.8-25.1-4.8-37.7,0
		c-10.5,4-22,16.2-21.3,31.8c0.5,11.1,0.1,22.3,0.1,33.4c0,1.1,0,2.1,0,3.5C192.2,147.2,218.6,147.2,245.4,159.6z M205.4,163.6
		c2.2-3.1,4-5.6,6-8.4c-4.3,0-7.8,0-11.9,0C201.5,158.2,203.3,160.6,205.4,163.6z"/>
	<path class="st4" d="M157.3,185.3c3.9-2.9,7.1-5.2,10.6-7.8c1.3,2.3,2.5,4.3,3.5,6.4c1,1.9,2.2,3.5,4.5,2.3
		c2.5-1.3,1.7-3.3,0.6-5.2c-1.1-1.9-2.1-3.9-3.4-6.3c3.7-1.5,7.3-2.9,11-4.4c0.8,2.9,1.5,5.4,2.2,8c0.5,1.9,1.6,3.2,3.8,2.6
		c2.1-0.6,2.5-2.1,1.9-4.1c-0.7-2.5-1.3-4.9-2.1-8c4.1-0.5,8-1.1,12.4-1.6c0,2.8,0,5.3,0,7.7c0,2.1,0.6,3.9,2.9,3.9
		c2.5,0,3.1-1.9,3.1-4c0-2.3,0-4.7,0-7.5c4.1,0.5,7.9,1,12,1.5c-0.7,2.8-1.2,5.3-1.8,7.7c-0.5,2.1,0.1,3.8,2.1,4
		c1.1,0.1,3-1.3,3.5-2.5c1-2.3,1.3-4.9,2.1-7.8c4.1,1.7,8,3.2,11.9,4.8c-1.4,2.7-2.6,4.9-3.9,7.1c-1,1.8-1.3,3.6,0.8,4.7
		c2.1,1.1,3.4-0.2,4.4-2c1.2-2.2,2.3-4.3,3.7-6.9c3.4,2.5,6.6,4.9,10.1,7.4c-1.9,2.1-3.7,3.9-5.4,5.7c-1.5,1.5-2.1,3.2-0.3,4.8
		c1.7,1.5,3.2,0.7,4.5-0.7c1.7-1.7,3.5-3.4,5.6-5.4c2.3,2.8,4.8,5.8,7.5,9.1c-2.2,1.5-4.2,2.8-6.3,4.1c-1.7,1.1-3,2.5-1.7,4.5
		c1.3,2,3,1.6,4.8,0.5c2-1.3,4-2.5,6.3-4c1.8,3.8,3.5,7.5,5.2,11.4c-2.8,0.9-5.2,1.6-7.6,2.4c-1.9,0.6-3.1,1.8-2.4,3.9
		c0.7,2.1,2.3,2.3,4.2,1.7c2.3-0.8,4.7-1.5,7.5-2.3c0.7,3.9,1.4,7.7,2.2,11.9c-2.7,0.2-5,0.5-7.3,0.6c-2.1,0.1-3.8,0.8-3.6,3.2
		c0.1,2.4,1.9,2.9,3.9,2.7c2.2-0.2,4.5-0.3,7.3-0.5c-0.3,4.3-0.6,8.3-1,12.7c-2.8-0.5-5.1-1-7.5-1.4c-1.9-0.4-3.9-0.4-4.4,2
		c-0.6,2.6,1.2,3.4,3.3,3.8c2.3,0.5,4.6,0.9,7.3,1.4c-1.4,4-2.7,7.7-4,11.7c-2.5-1.2-4.6-2.2-6.8-3.2c-1.8-0.9-3.5-1-4.5,0.9
		c-1.1,2,0,3.5,1.9,4.4c2.1,1,4.2,2.1,6.7,3.3c-2.2,3.4-4.4,6.6-6.6,10c-2.1-1.7-4-3.3-5.9-4.8c-1.6-1.3-3.3-2-4.8-0.1
		c-1.6,1.9-0.5,3.4,1,4.8c1.8,1.6,3.6,3,5.7,4.8c-3.1,2.8-6,5.4-9.1,8.3c-1.6-2.3-3-4.3-4.5-6.3c-1.1-1.5-2.4-2.3-4.2-1.2
		c-1.8,1.2-1.8,2.8-0.6,4.5c1.4,2,2.8,4,4.4,6.3c-3.5,1.9-6.9,3.7-10.6,5.7c-1-2.4-1.8-4.6-2.6-6.7c-0.8-2-2.2-3.2-4.3-2.2
		c-2,0.9-2,2.6-1.2,4.4c0.8,2,1.6,4,2.5,6.5c-4,1-7.9,1.9-12.3,3c-0.4-2.8-0.7-5.2-1-7.5c-0.2-1.9-1-3.5-3.2-3.3
		c-2.4,0.2-2.9,1.9-2.7,4c0.3,2.3,0.5,4.6,0.7,7c-4.2,0-8.1,0-12.2,0c0.4-2.8,0.7-5.1,1-7.4c0.2-1.8-0.3-3.4-2.3-3.7
		c-2.2-0.4-3.2,0.9-3.5,2.9c-0.4,2.3-0.7,4.6-1.2,7.4c-3.9-1.1-7.6-2.1-11.6-3.2c1-2.5,1.8-4.7,2.7-6.8c0.8-2,0.4-3.8-1.6-4.2
		c-1.1-0.2-3,0.9-3.8,1.9c-1.2,1.8-1.8,4.1-2.9,6.7c-3.6-2.1-7-4-10.7-6.1c1.6-2.1,3-4,4.4-5.8c1.2-1.6,1.7-3.2-0.1-4.6
		c-1.8-1.5-3.4-0.6-4.7,1.1c-1.3,1.8-2.7,3.5-4.5,5.9c-2.7-3.2-5.2-6.1-7.8-9.1c1.3-1,2.8-2.4,4.4-3.6c1.7-1.3,3-2.9,1.5-4.9
		c-1.7-2.2-3.6-1-5.3,0.4c-1.5,1.2-3,2.4-4.9,4c-2.2-3.7-4.3-7.1-6.6-10.9c2.6-1.2,4.8-2.2,7-3.2c1.8-0.8,2.9-2.2,2.1-4.1
		c-0.9-2.2-2.7-2.2-4.6-1.2c-2.1,1-4.3,1.9-6.9,3.1c-1.2-4-2.3-7.8-3.5-11.9c2.8-0.4,5-0.8,7.2-1.1c2-0.3,3.7-1.2,3.3-3.6
		c-0.4-2.3-2.2-2.7-4.2-2.3c-2.2,0.4-4.4,0.7-7.1,1.2c-0.2-4-0.4-7.8-0.6-12c2.8,0.1,5.1,0.3,7.5,0.4c1.9,0.1,3.6-0.3,3.7-2.6
		c0.2-2.2-1.2-3-3.2-3.2c-2.3-0.2-4.7-0.5-7.3-0.7c0.7-3.3,1.3-6.3,1.9-9.6c2.5,0.8,4.7,1.5,6.9,2.2c1.9,0.6,3.8,0.7,4.6-1.6
		c0.7-2.2-0.6-3.4-2.7-4c-2.2-0.7-4.4-1.5-7.1-2.3c1.7-3.7,3.3-7.2,5-11c2.3,1.4,4.4,2.6,6.4,3.8c1.7,1,3.4,1.3,4.6-0.5
		c1.3-2,0.2-3.4-1.6-4.5c-2-1.2-4-2.5-6.2-3.9c2.8-3.4,5.3-6.5,7.9-9.6c2.1,2,3.9,3.7,5.7,5.5c1.5,1.5,3.1,2.2,4.8,0.5
		c1.6-1.6,0.9-3.2-0.5-4.6C161.5,188.9,159.7,187.3,157.3,185.3z M205.3,291.7c28.5,0.1,52-23.3,52.1-51.9
		c0.1-28.6-23.3-52-51.9-52.1c-28.6-0.1-52,23.3-52.1,51.9C153.3,268.1,176.7,291.6,205.3,291.7z"/>
	<path class="st24" d="M205.3,291.7c-28.6-0.1-52-23.5-51.9-52.1c0.1-28.6,23.5-52,52.1-51.9c28.6,0.1,52,23.5,51.9,52.1
		C257.3,268.3,233.8,291.7,205.3,291.7z"/>
	<g>
		<path class="st4" d="M205.3,271.1c-8.5,0-16.4-3.3-22.3-9.3c-5.9-6-9.1-13.9-9.1-22.4c0.1-17.5,13.9-31.3,31.5-31.3
			c8.5,0,16.4,3.3,22.4,9.2c5.9,5.9,9.2,13.9,9.2,22.3c0,17.3-14.2,31.5-31.5,31.5H205.3z"/>
		<path d="M205.4,210.6c16.1,0,29,12.9,29,29c0,16.1-12.9,29-29,29c0,0-0.1,0-0.1,0c-16.1-0.1-29-13.1-28.9-29.2
			C176.5,223.4,189.3,210.7,205.4,210.6C205.4,210.6,205.4,210.6,205.4,210.6 M205.4,205.6v5V205.6L205.4,205.6
			c-9.1,0-17.6,3.5-24,9.9c-6.4,6.3-9.9,14.8-10,23.9c-0.1,9.1,3.4,17.7,9.8,24.2c6.4,6.4,14.9,10,24,10l0.1,0
			c9.1,0,17.7-3.5,24.1-9.9c6.4-6.4,9.9-14.9,9.9-24.1c0-9.1-3.5-17.7-9.9-24.1C223.1,209.2,214.5,205.6,205.4,205.6L205.4,205.6z"
			/>
	</g>
</g>
<line class="st25" x1="205" y1="167" x2="205" y2="188"/>
<line class="st25" x1="226.2" y1="170.3" x2="220" y2="190.4"/>
<line class="st25" x1="245.5" y1="179.7" x2="233.7" y2="197.1"/>
<line class="st25" x1="261.2" y1="194.3" x2="244.8" y2="207.5"/>
<line class="st25" x1="271.9" y1="212.8" x2="252.4" y2="220.7"/>
<line class="st25" x1="276.8" y1="233.7" x2="255.8" y2="235.5"/>
<line class="st25" x1="275.3" y1="255.1" x2="254.8" y2="250.7"/>
<line class="st25" x1="267.6" y1="275.1" x2="249.3" y2="264.9"/>
<line class="st25" x1="254.5" y1="292" x2="239.9" y2="276.9"/>
<line class="st25" x1="236.9" y1="304.4" x2="227.4" y2="285.6"/>
<line class="st25" x1="216.5" y1="311" x2="212.9" y2="290.3"/>
<line class="st25" x1="195.1" y1="311.4" x2="197.7" y2="290.5"/>
<line class="st25" x1="174.5" y1="305.5" x2="183" y2="286.3"/>
<line class="st25" x1="156.5" y1="293.8" x2="170.3" y2="278"/>
<line class="st25" x1="142.7" y1="277.4" x2="160.5" y2="266.3"/>
<line class="st25" x1="134.3" y1="257.7" x2="154.6" y2="252.3"/>
<line class="st25" x1="132.1" y1="236.4" x2="153.1" y2="237.1"/>
<line class="st25" x1="136.2" y1="215.3" x2="156" y2="222.2"/>
<line class="st25" x1="146.2" y1="196.4" x2="163.2" y2="208.8"/>
<line class="st25" x1="161.4" y1="181.2" x2="174" y2="198"/>
<line class="st25" x1="180.3" y1="171.2" x2="187.4" y2="190.9"/>
</svg>
