<?xml version="1.0" encoding="utf-8"?>
<!-- Generator: Adobe Illustrator 27.4.0, SVG Export Plug-In . SVG Version: 6.00 Build 0)  -->
<svg version="1.1" id="Layer_1" xmlns="http://www.w3.org/2000/svg" xmlns:xlink="http://www.w3.org/1999/xlink" x="0px" y="0px"
	 viewBox="0 0 400 400" style="enable-background:new 0 0 400 400;" xml:space="preserve">
<style type="text/css">
	.st0{fill:#F7BDBE;}
	.st1{fill:#FFFFFF;}
	.st2{fill:#231F20;}
	.st3{fill:#EE4994;stroke:#EE4994;stroke-width:2;stroke-linecap:round;stroke-linejoin:round;stroke-miterlimit:10;}
	.st4{fill:#EE4994;}
	.st5{fill:#C090C1;}
</style>
<path class="st0" d="M303.73,285.7c1.27,3.09,3.08,6.36,5.53,8.26c1.25,0.97,1.02,2.89-0.45,3.46c-3.62,1.4-8.99,2.93-12.92,2.18
	c-0.9-0.17-1.81,0.34-2.14,1.2c-8.72,23.34-53.42,22.56-94.39,20.77c-36.94-1.61-52.72,0.25-80.79-22.48
	c-0.57-0.46-1.36-0.62-2.03-0.34c-6.26,2.67-25.57-0.7-20.21-4.55c3.23-2.3,5.87-5.06,7.95-8.17c0.74-1.11,0.13-2.59-1.14-2.97
	c-5.89-1.79-16.06-9.06-12.33-11.02c14.67-7.68,19.29-24.23,24.35-38.79c4.55-13.12,9.21-26.45,19.86-35.52
	c45.67-38.91,114.45-19.77,137.8-1.41c12.02,9.45,20.59,27.62,23.34,42.27c1.39,7.4,3.04,15.06,7.63,21.2
	c4.65,6.21,11.52,10.03,18.52,13.01c5.25,2.23-9.65,9.19-17.02,10.18C304,283.17,303.24,284.51,303.73,285.7z"/>
<g>
	<path class="st1" d="M160.91,264.69c0.86,0.54,1.75,1.02,2.66,1.46c9.49,4.52,21.24,3.35,28.57-3.34c1.93-1.77,3.56-3.92,4.76-6.45
		c8.29-17.58,3.25-27.38-8.33-35.99c-3.42-2.54-6.45-4.51-12.99-4.08c-11.5,0.74-22.41,5.8-25.76,18.27
		C146.08,248.49,148.68,257.05,160.91,264.69z"/>
</g>
<path class="st2" d="M157.42,249.15c-0.65,5.65,0.21,11,2.17,15.33c8.91,5.58,20.71,5.77,28.76-0.03c1.82-3.25,3.09-7.1,3.57-11.3
	c1.5-12.98-5.01-24.41-14.53-25.51C167.87,226.53,158.92,236.17,157.42,249.15z"/>
<g>
	<path class="st1" d="M247.72,267.34c-0.86,0.54-1.75,1.02-2.66,1.46c-9.49,4.52-21.24,3.35-28.57-3.34
		c-1.93-1.77-3.56-3.92-4.76-6.45c-8.29-17.58-3.25-27.38,8.33-35.99c3.42-2.54,6.45-4.51,12.99-4.08
		c11.5,0.74,22.41,5.8,25.76,18.27C262.55,251.14,259.95,259.7,247.72,267.34z"/>
</g>
<path class="st2" d="M251.21,251.8c0.65,5.65-0.21,11-2.17,15.33c-8.91,5.58-20.71,5.77-28.76-0.03c-1.82-3.25-3.09-7.1-3.57-11.3
	c-1.5-12.98,5.01-24.41,14.53-25.51C240.76,229.18,249.7,238.81,251.21,251.8z"/>
<path class="st1" d="M199.36,175.94"/>
<path class="st1" d="M205.65,175.94"/>
<path d="M203.08,272.99c0,0-16.99-9.5-9.65-12.83c7.34-3.32,15.41-1.24,18.11-0.67S218.64,265.95,203.08,272.99z"/>
<path class="st3" d="M179.6,293.91c5.68,4.98,16.13,7.4,28.28,7.72c0,0,12.94-0.33,19.69-7.45c1.26-1.33,3.61-3.77,4.83-6.57
	c0.61-1.4,0.79-2.45,0.68-3.32c-0.14-1.15-0.81-1.95-1.8-2.67c-1.25-0.91-1.93-0.58-4.93-1.09c-2.2-0.37-4.84-1.09-9.03-1.29
	c0.14,0.67,1.11,5.56-0.79,9.89c-1.6,3.65-8.37,3.45-11.73,2.19c-0.69-0.26-1.26-0.83-1.79-1.6c-0.78-1.16-1.04-2.06-1.42-3.31
	c-1.2-3.89,0.16-8.02,0.3-8.43c-1.23-0.1-1.56-0.06-2.19-0.16c0.23,1.63,0.38,6.29-2,9.56c-3.54,4.86-8.83,2.98-12.02,0.25
	c-1.94-1.66-2.34-3.71-2.04-6.19c0.15-1.26,0.15-1.82,0.46-3.32c0.3-1.46,0.67-1.94,0.79-2.06c-4.47-0.28-7.7-0.24-8.64-0.08
	c-3.27,0.56-4.53,3.74-3.92,7.03c0.26,1.41,0.86,2.85,1.81,4.1C175.15,288.47,177.92,292.44,179.6,293.91z"/>
<path class="st1" d="M184.69,276.8c-0.3,1.43-0.31,6.15-0.45,7.34c-0.29,2.36,0.11,4.31,2.06,5.9c3.2,2.61,8.5,4.42,12.02-0.2
	c2.37-3.1,2.2-11.72,1.97-13.28c0,0,0-0.01,0-0.02c-2.22-0.37-4.37-0.67-6.31-0.91c-0.03,0-0.06-0.01-0.08-0.01
	c-4.84-0.6-8.37-0.83-8.37-0.83s-0.02,0.02-0.05,0.04C185.35,274.96,184.98,275.41,184.69,276.8z"/>
<path class="st1" d="M202.2,288.93c0.39,1.19,0.65,2.05,1.43,3.15c0.53,0.74,1.1,1.28,1.79,1.53c3.37,1.22,10.14,1.43,11.72-2.04
	c1.88-4.12,0.91-12.96,0.76-13.6c-0.01-0.05-0.02-0.08-0.02-0.08s-1.97-0.13-5.89-0.47c-3.93-0.34-9.51-0.73-9.51-0.73
	s-0.01,0.02-0.01,0.04C202.33,277.1,200.99,285.22,202.2,288.93z"/>
<path class="st0" d="M164.54,194.47c0,0-27.29-28.84-20.96-69.5c6.33-40.66,11.55-77.21,24.52-76.61
	c28.19,1.3,52.48,93.65,38.01,130.83C191.65,216.39,164.54,194.47,164.54,194.47z"/>
<path class="st4" d="M170.05,184.61c0,0,18.79-6.07,26.91-5.98c4-60.57-17.45-89.97-25.62-88.92
	C166.07,90.4,143.59,124.98,170.05,184.61z"/>
<path class="st0" d="M249.26,190.23c0,0,27.58-28.56,21.65-69.28c-5.92-40.72-10.78-77.32-23.75-76.85
	c-28.2,1.02-53.41,93.12-39.32,130.45C221.93,211.87,249.26,190.23,249.26,190.23z"/>
<path class="st4" d="M243.85,180.31c0,0-18.72-6.26-26.85-6.24c-3.39-60.61,18.36-89.79,26.51-88.66
	C248.78,86.14,270.91,120.95,243.85,180.31z"/>
<circle class="st0" cx="146.89" cy="269.6" r="20.1"/>
<circle class="st0" cx="257.6" cy="272.71" r="19.27"/>
<g>
	<g>
		<path class="st1" d="M148.12,272.15c-1.24-0.22-2.01-0.58-2.61-1.81c-0.29-0.6-0.47-1.08-0.33-1.83c0.12-0.62,0.32-1.21,0.69-1.67
			c-0.1,0-0.2-0.01-0.3-0.01c-0.07,0.06-0.13,0.13-0.19,0.2c-0.38,0.45-0.57,1.05-0.69,1.67c-0.14,0.75,0.03,1.24,0.33,1.83
			c0.6,1.22,1.38,1.58,2.61,1.81c0.51,0.09,1.12-0.07,1.52-0.26C148.81,272.16,148.44,272.21,148.12,272.15z"/>
		<path class="st1" d="M154.17,277.55c-0.91-1.55-0.5-3.4,1.01-4.31c0.13-0.08,0.27-0.14,0.41-0.21c-0.31,0.09-0.61,0.21-0.9,0.39
			c-1.51,0.92-1.91,2.76-1.01,4.31c0.83,1.42,2.36,1.82,3.77,1.17C156.18,279.27,154.9,278.81,154.17,277.55z"/>
		<path class="st1" d="M140.35,283.43c-1.33-2.01-1.01-3.42,0.32-4.59c0.2-0.17,0.43-0.32,0.68-0.43c-0.44,0.12-0.85,0.33-1.17,0.62
			c-1.33,1.17-1.65,2.58-0.32,4.59c0.91,1.37,2.6,1.42,4.08,0.78C142.59,284.82,141.16,284.65,140.35,283.43z"/>
		<path class="st5" d="M146.82,266.18c-0.41,0.15-0.71,0.38-0.95,0.67c-0.38,0.45-0.57,1.05-0.69,1.67
			c-0.14,0.75,0.03,1.24,0.33,1.83c0.6,1.22,1.38,1.58,2.61,1.81c0.32,0.06,0.69,0.01,1.02-0.08c0.29-0.08,0.55-0.19,0.72-0.3
			c1.35-0.89,1.92-2.61,1.13-4.23c-0.07-0.13-0.14-0.25-0.21-0.37c-0.04-0.06-0.07-0.13-0.11-0.19
			C149.84,265.82,148.63,265.51,146.82,266.18z"/>
		<path class="st5" d="M155.58,273.03c-0.14,0.06-0.28,0.12-0.41,0.21c-1.51,0.92-1.91,2.76-1.01,4.31
			c0.74,1.26,2.01,1.71,3.28,1.35c0.29-0.08,0.58-0.2,0.86-0.37c1.51-0.92,1.97-2.89,1.06-4.44
			C158.54,272.69,157,272.38,155.58,273.03z"/>
		<path class="st5" d="M141.35,278.4c-0.25,0.12-0.48,0.26-0.68,0.43c-1.33,1.17-1.65,2.58-0.32,4.59c0.81,1.22,2.24,1.39,3.58,0.96
			c0.3-0.1,0.6-0.21,0.89-0.37c0.85-0.46,0.95-0.89,1.11-1.96c0.09-0.63-0.14-1.8-0.32-2.21
			C144.84,278.09,142.77,277.75,141.35,278.4z"/>
	</g>
	<g>
		<path class="st1" d="M245.07,278.89c-0.35-0.8-0.47-1.46-0.38-2.08c0.15-1.05,0.5-1.38,1.14-1.74c0.19-0.1,0.38-0.2,0.57-0.28
			c-0.37,0.12-0.74,0.28-1.08,0.47c-0.64,0.36-0.99,0.68-1.14,1.74c-0.09,0.61,0.03,1.28,0.38,2.08c0.75,1.7,2.77,2.02,4.18,1.4
			C247.4,280.83,245.74,280.39,245.07,278.89z"/>
		<path class="st1" d="M259.35,284.12c-0.56-1.68,0.23-3.26,1.66-3.97c-0.16,0.04-0.3,0.08-0.41,0.13
			c-1.49,0.68-2.33,2.31-1.75,4.03c0.57,1.72,1.81,2.4,4.02,1.94c0.22-0.04,0.4-0.12,0.58-0.21c-0.02,0.01-0.05,0.02-0.07,0.02
			C261.16,286.52,259.93,285.83,259.35,284.12z"/>
		<path class="st1" d="M255.96,273.51c-1.98-0.56-2.24-1.26-2.17-2.93c0.02-0.6,0.28-1.21,0.68-1.72c-0.11,0-0.23-0.01-0.34-0.01
			c-0.06,0.06-0.11,0.13-0.17,0.19c-0.4,0.51-0.66,1.13-0.68,1.72c-0.07,1.67,0.18,2.37,2.17,2.93c0.88,0.25,1.52,0.23,2.15-0.08
			C257.12,273.73,256.61,273.69,255.96,273.51z"/>
		<path class="st5" d="M246.41,274.8c-0.2,0.08-0.39,0.18-0.57,0.28c-0.64,0.36-0.99,0.68-1.14,1.74c-0.09,0.61,0.03,1.28,0.38,2.08
			c0.67,1.5,2.33,1.93,3.67,1.59c0.46-0.12,0.89-0.33,1.23-0.62c1.32-1.14,1.64-2.51,0.32-4.46
			C249.43,274.13,247.82,274.19,246.41,274.8z"/>
		<path class="st5" d="M262.92,279.96c-0.59-0.19-1.41-0.06-1.81,0.12c-0.03,0.02-0.06,0.04-0.1,0.05c-1.43,0.71-2.22,2.3-1.66,3.97
			c0.57,1.72,1.81,2.4,4.02,1.94c0.03-0.01,0.05-0.02,0.07-0.02c1.07-0.26,1.6-1.1,1.93-2.05c0.25-0.72,0.14-1.23-0.07-1.86
			C264.87,280.83,264.14,280.36,262.92,279.96z"/>
		<path class="st5" d="M257.67,267.81c-1.28-0.45-2.48,0.14-3.2,1.06c-0.4,0.51-0.66,1.13-0.68,1.72c-0.07,1.67,0.18,2.37,2.17,2.93
			c0.65,0.18,1.16,0.22,1.64,0.1c0.43-0.1,0.84-0.33,1.27-0.7c0.29-0.25,0.98-1.45,0.96-2.09c-0.03-0.75-0.12-1.28-0.3-1.69
			c-0.03-0.07-0.07-0.13-0.11-0.19C259.1,268.41,258.56,268.11,257.67,267.81z"/>
	</g>
</g>
</svg>
