<?xml version="1.0" encoding="UTF-8"?><svg xmlns="http://www.w3.org/2000/svg" viewBox="0 0 164 164"><defs><style>.cls-1{fill:#f58120;}.cls-2{fill:#f9b6b5;}.cls-3{fill:#ee3425;}.cls-4{fill:#e55ea3;}.cls-5,.cls-6{fill:#fff;}.cls-7{fill:#6d2671;}.cls-8{fill:#df6e26;}.cls-9{fill:#231e21;}.cls-10{fill:#3f2e8c;}.cls-11{fill:#483494;}.cls-12{fill:#59445c;}.cls-13{fill:#631950;}.cls-14{fill:#4d4180;}.cls-15{fill:none;stroke:#010101;stroke-linecap:round;stroke-linejoin:round;stroke-width:1.1px;}.cls-6{mix-blend-mode:soft-light;}.cls-16{isolation:isolate;}</style></defs><g class="cls-16"><g id="Layer_1"><g><path class="cls-13" d="m144.8,34s0,0,0,0c0,0,0,0,0,0"/><path class="cls-13" d="m142,37.3h0s0,0,0,0"/><polyline class="cls-13" points="142 37.4 142 37.4 142 37.3 142 37.4"/><polyline class="cls-13" points="142 37.4 142 37.4 142 37.4 142 37.4"/><polyline class="cls-13" points="141.9 41.9 141.9 41.8 141.9 41.8 141.9 41.9"/><polyline class="cls-13" points="126.9 43.3 126.9 43.3 126.9 43.3 126.9 43.3 126.9 43.3"/><polyline class="cls-13" points="126.9 43.3 126.9 43.3 126.9 43.3 126.9 43.3"/></g><g><path class="cls-7" d="m22.1,77.8s0,0,0,0c0,0,0,0,0,0m4.9,2.1s0,0,0,0c0,0,0,0,0,0m-13.5.3s0,0,0,0c0,0,0,0,0,0m23.3,3.5s0,0,0,0c0,0,0,0,0,0m8.1,3.8s0,0,0,0c0,0,0,0,0,0m0,0s0,0,0,0c0,0,0,0,0,0m4.7,11.4s0,0,0,0c0,0,0,0,0,0"/><polyline class="cls-13" points="45.7 95.2 45.7 95.2 45.7 95.2"/><path class="cls-6" d="m39.3,73.7c-.8.1-1.7.3-2.5.6-.1,0-.2.2-.2.3,0,.1.2.3.3.2.5-.1.9-.2,1.4-.3.4,0,.8,0,1.2,0,.4,0,.8,0,1.2,0,1,.2,2,.4,3,.8.6.3,1.1.6,1.7,1,.5.4,1.1.7,1.6,1.1.8.7,1.5,1.4,2.1,2.2.6.8,1,1.6,1.4,2.5.1.3.2.7.3,1,0,.2.1.4.2.6,0,.3.1.5.2.7,0,0,0-.1,0-.2,0,0,0,0,0,0,0,.2.1.4.3.5.2.2.5.4.8.4.3,0,.6-.1.8-.3.2-.2.4-.5.4-.8,0,0,0-.2,0-.3,0,0,0-.2,0-.3,0-.3,0-.5-.1-.8,0-.4-.2-.8-.3-1.1-.3-.8-.6-1.6-1.1-2.3-.9-1.4-2.1-2.6-3.5-3.6-.7-.5-1.4-.9-2.2-1.2-.3-.1-.7-.3-1.1-.4-.4-.1-.8-.2-1.2-.3-.8-.2-1.6-.3-2.4-.4-.2,0-.5,0-.7,0-.5,0-1.1,0-1.6,0m-.9.8s0,0,0,0h0m2.4,0s0,0,0,0c0,0,0,0,0,0m8.4,5.2s0,0,0,0c0,0,0,0,0,0"/><path class="cls-6" d="m51.2,88.1c0,.7.6,1.4,1.4,1.4s1.4-.6,1.4-1.4c0-.7-.6-1.4-1.4-1.4s-1.4.6-1.4,1.4"/><path class="cls-6" d="m20.3,71.8s0,0,.1,0c0,0,0,0-.1,0m2.7.7s0,0,0,0c0,0,0,0,0,0"/></g><g><polyline class="cls-13" points="117.3 53.9 117.3 53.9 117.3 53.9 117.3 53.9"/><path class="cls-8" d="m41.9,28.1c-1,0-2,0-3,.2-.7,0-1.3.2-1.8.4-.5.1-1,.3-1.5.5-.9.4-1.8.9-2.6,1.5-.8.6-1.5,1.3-2.2,2.1-1.2,1.5-2.3,3.3-3.2,5.5-.7,1.8-1.3,3.9-1.8,6.3-.4,1.9-.7,4-.9,6.3-.2,2.8-.3,5.6-.2,8.2.1,3.2.5,6.3,1.1,9.5.6,3,1.5,6.1,2.7,9.2.3.9.7,1.9,1.2,3,0,0,.1.1.2.2,0,0,0,0,.1,0,0,0,.1,0,.2,0,0,0,.1-.1.2-.2,0-.1,0-.2,0-.3v-.2c0,0-.1,0-.1,0-.2-.5-.4-.9-.6-1.4.8.2,1.7.4,2.7.4h.2c1,0,2-.1,3.2-.4,1.1-.2,2.2-.6,3.4-1.1,1.1-.4,2.2-.9,3.3-1.6,1.8-.9,3.7-2.1,6-3.7.9-.6,1.8-1.2,2.7-1.9,1.1-.8,2.1-1.6,3-2.4,3.9-3.3,7.1-7.2,9.6-11.5,1.2-2.1,2.2-4.3,3.1-6.7.4-1,.6-1.8.8-2.6.3-1.1.4-2.1.4-3s0-.8-.1-1.2h0c.8.8,1.5,1.7,2.1,2.5h0c0,.2.1.2.2.3,0,0,0,0,.1,0,0,0,.1,0,.2,0,0,0,.1-.1.2-.2,0,0,0-.2,0-.3-1.6-2.1-3.4-4.1-5.4-6-2.1-2-4.4-3.9-6.7-5.4-2.5-1.7-5-3-7.6-4-2.7-1.1-5.4-1.7-8.1-1.8-.4,0-.8,0-1.1,0"/><path class="cls-2" d="m43.9,37.6c-.7,0-1.5,0-2.2.2-.5,0-.9.2-1.3.3-.4,0-.7.2-1.1.4-.7.3-1.4.7-2,1.1-.6.4-1.1,1-1.6,1.5-.9,1.1-1.7,2.4-2.3,4-.6,1.4-1,2.9-1.3,4.7-.3,1.4-.5,3-.6,4.7-.2,2.1-.2,4.1-.2,6.1,0,2.3.4,4.7.8,7,.5,2.2,1.1,4.5,2,6.8.3.7.5,1.4.9,2.2,0,0,.1.1.2.1,0,0,0,0,0,0,0,0,0,0,.1,0,0,0,.1,0,.1-.2,0,0,0-.2,0-.2h0c0-.1,0-.2,0-.2-.1-.3-.3-.7-.4-1,.6.2,1.3.3,2,.3h.1c.7,0,1.5,0,2.4-.3.8-.2,1.6-.4,2.5-.8.8-.3,1.6-.7,2.5-1.1,1.3-.7,2.7-1.6,4.4-2.7.6-.4,1.3-.9,2-1.4.8-.6,1.5-1.2,2.2-1.8,2.9-2.5,5.3-5.3,7.1-8.5.9-1.5,1.6-3.2,2.3-5,.3-.7.5-1.3.6-1.9.2-.8.3-1.5.3-2.2s0-.6,0-.9h0c.6.6,1.1,1.3,1.6,1.9h0c0,.1,0,.2.2.2,0,0,0,0,0,0,0,0,0,0,.1,0,0,0,.1,0,.1-.2,0,0,0-.2,0-.2-1.2-1.6-2.5-3.1-4-4.4-1.6-1.5-3.2-2.8-5-4-1.8-1.2-3.7-2.3-5.6-3-2-.8-4-1.2-6-1.4-.3,0-.6,0-.8,0"/><path class="cls-8" d="m142,35.8c.9.3,1.9.6,2.8,1.1.6.3,1.1.6,1.6.9.4.3.9.6,1.3.9.8.6,1.5,1.4,2.1,2.2.6.8,1.1,1.7,1.5,2.6.7,1.8,1.2,3.8,1.4,6.1.2,2,.1,4.1-.1,6.6-.2,2-.5,4-1,6.3-.6,2.7-1.3,5.4-2.2,7.9-1,3-2.4,5.9-3.9,8.7-1.5,2.7-3.3,5.4-5.3,8-.6.8-1.3,1.6-2,2.5,0,0-.2.1-.3,0,0,0,0,0-.1,0,0,0-.1,0-.2-.1,0,0-.1-.2,0-.3,0-.1,0-.2.1-.3v-.2c.1,0,.2,0,.2,0,.3-.4.6-.8.9-1.1-.8,0-1.7-.1-2.7-.4h-.2c-.9-.3-1.9-.8-3-1.4-1-.5-1.9-1.2-2.9-2-.9-.7-1.8-1.5-2.7-2.5-1.4-1.4-2.9-3.1-4.6-5.3-.7-.8-1.3-1.7-2-2.6-.8-1.1-1.5-2.1-2.2-3.2-2.7-4.3-4.7-9-5.8-13.8-.5-2.3-1.9-2.1-2.1-4.7,0-1-1.6-.7-1.6-1.5,0-1.1-.6-1.5-1.5-1.5-.7,0-6,0-2.9-1.6l4.5-2.4c-1,.6-4.9,2.5-5.8,3.1h0c0,.1-.2.2-.3.2,0,0,0,0-.1,0,0,0-.1,0-.2-.1,0,0-.1-.2-.1-.3,0,0,0-.2.1-.3,2.2-1.5,10.9-7.1,13.4-8.3,2.6-1.3,5.4-2.1,8.1-2.9,2.9-.9,5.7-1.4,8.5-1.6,2.9-.2,5.7,0,8.3.6.4,0,.7.2,1.1.3"/><path class="cls-8" d="m150.1,67.9h0,0s0,0,0,0c-.3.9-.5,1.8-.8,2.6-1,3-2.3,5.9-3.9,8.7-1.5,2.7-3.3,5.4-5.3,8-.6.8-1.3,1.6-2,2.5,0,0-.2.1-.3.1,0,0,0,0-.1,0,0,0-.1,0-.2-.1,0,0-.1-.2-.1-.3,0-.1,0-.2.1-.3v-.2c.1,0,.2,0,.2,0,.3-.4.6-.8.9-1.1-.8,0-1.7-.1-2.7-.4h-.2c-.9-.3-1.9-.8-3-1.4-.8-.4-1.5-.9-2.2-1.5h.3c.3-.2.7-.4,1-.5,2.1-.8,4.1-1.8,5.9-2.9,1.9-1.1,3.6-2.4,5.2-3.7,1.6-1.4,3.1-3,4.2-4.7,1.1-1.5,2-3.2,2.8-4.9,0,0,0,0,0,0"/><path class="cls-2" d="m137.3,44.2c.7.2,1.4.5,2.1.8.4.2.8.4,1.2.6.3.2.6.4.9.7.6.5,1.1,1,1.5,1.7.4.6.8,1.3,1.1,2,.5,1.3.9,2.8,1,4.5.1,1.5,0,3.1,0,4.9-.2,1.4-.4,3-.8,4.7-.4,2-1,4-1.6,5.9-.8,2.2-1.7,4.4-2.9,6.5-1.1,2-2.4,4-3.9,5.9-.4.6-.9,1.2-1.5,1.9,0,0-.1,0-.2,0,0,0,0,0,0,0,0,0,0,0-.1,0,0,0,0-.1,0-.2,0,0,0-.1,0-.2h0c0-.1,0-.2,0-.2.2-.3.5-.6.7-.8-.6,0-1.3-.1-2-.3h-.1c-.7-.3-1.4-.6-2.2-1-.7-.4-1.4-.9-2.2-1.5-.7-.5-1.3-1.1-2-1.8-1.1-1.1-2.1-2.3-3.4-3.9-.5-.6-1-1.3-1.5-1.9-.6-.8-1.1-1.6-1.6-2.3-2-3.2-3.5-6.6-4.3-10.2-.4-1.7-.6-3.5-.7-5.4,0-.8-.6,1.3-.5.7,0-.8-1.2-.7-1-1.3,0-.3-1-1.2-.8-1.5l-.5-.9c-.7.5,2.1-1.1,1.5-.6h0c0,0-.1.1-.2.1,0,0,0,0,0,0,0,0,0,0-.1,0,0,0,0-.1,0-.2,0,0-2.7,1.9-2.6,1.8,1.6-1.1,6-4.2,7.8-5.1,1.9-1,3.9-1.8,5.9-2.4,2.1-.7,4.2-1.1,6.3-1.2,2.1-.2,4.2,0,6.1.5.3,0,.5.1.8.2"/><path class="cls-1" d="m33.1,30.5c-.4.3-.8.6-1.2,1-.8.7-1.4,1.4-2.1,2.2-1.3,1.7-2.2,3.5-3,5.5-.8,2-1.3,4.1-1.7,6.3-.4,2.1-.6,4.3-.7,6.5,0,.4,0,.7,0,1.1,0,1.4.1,2.8.2,4.2,0-.5,0-.9,0-1.4,0-.6,0-1.1,0-1.7,0-1.5.3-3.1.5-4.6.1-.7.2-1.4.3-2,.1-.6.2-1.3.4-1.9.2-1,.5-2,.8-2.9.1-.6.3-1.2.5-1.8.1-.4.3-.8.4-1.2,0-.2.2-.5.3-.7.2-.6.5-1.3.7-1.9.7-1.5,1.5-2.9,2.5-4.1,0,0,0,0,.1-.1.3-.4.5-.7.8-1,.3-.3.6-.7,1-1,.2-.2.5-.4.7-.6,0,0,0,0,.1-.1.2-.2.4-.3.6-.5,0,0,0,0,0,0,0,0,0,0,0,0-.5.3-1,.5-1.4.8m-4.3,6.6s0,0,0,.1h0Z"/><path class="cls-12" d="m26.2,46.2c0-.4.2-.8.3-1.2,0,0,0,0,0,0,0,.4-.2.8-.3,1.2"/><path class="cls-1" d="m70,39.4c-1,0-2,.2-3,.3-1.2.2-2.5.5-3.7.8-2.2.6-4.4,1.6-6.5,2.8-1.9,1.1-3.8,2.5-5.6,4-1.6,1.4-3.2,3.1-4.8,5-3.2,3.8-5.9,7.9-8.3,11.6l-.6.8h0c-2.4,3.7-4.9,7.5-7.6,10.9-.3.4-.7.8-1,1.2h-.1c-.3.5-.6.9-.9,1.2-.9.8-1.9,1.5-2.8,2h0c-.5.3-1.1.6-1.7.9-.6.3-1.2.6-1.8,1-.9.5-2,1.2-2.9,2.2-.8.9-1.3,2-1.5,3.3-.1,1.2,0,2.4.5,3.8.3.8.8,1.6,1.3,2.5.5.7,1.1,1.4,1.9,2.1.7.6,1.4,1.1,2.2,1.5.7.4,1.6.7,2.5.9-.9.2-1.6.6-2.2,1.1-.3.3-.6.6-.8,1,0,.2-.1.3-.2.6,0,.2,0,.4-.1.7,0,.8.2,1.7.7,2.7.5,1,1.2,1.9,2.1,3,.8.9,1.8,1.9,3,3.1,1.1,1,2.3,2,3.6,2.9,2.3,1.7,5,3.4,7.9,4.9,2.6,1.4,5.5,2.6,8.7,3.8,2.8,1,5.7,2,9,2.8,2.8.8,5.8,1.5,9.1,2.1,1.7.3,3.3.6,4.8.9,1.8.3,3.6.5,5.5.8,4.3.5,8.7.7,13,.7s6.1-.1,9.2-.4c3.7-.3,7.4-.8,11.1-1.5,1.7-.3,3.5-.7,5.3-1.2.9-.2,2.3-.6,3.7-1,1.9-.6,4-1.4,6.2-2.4,2.5-1.1,4.8-2.3,6.9-3.6,2.4-1.5,4.2-2.9,5.7-4.5.7-.8,1.4-1.6,1.9-2.5.2-.4.4-.8.6-1.2.2-.6.4-1.2.4-1.7,0-.2,0-.4,0-.7,0-.2,0-.4-.2-.6-.2-.4-.4-.7-.8-1-.4-.3-.8-.5-1.2-.7-.2,0-.3-.1-.5-.2,1.9-.4,3.8-1.3,5.6-2.6.9-.7,1.7-1.4,2.4-2.2.7-.8,1.2-1.7,1.6-2.6.3-.7.4-1.4.4-2.1,0-.7-.1-1.5-.4-2.2-.3-.7-.8-1.4-1.4-2.2-.3-.3-.7-.7-1.1-1-.1-.1-.3-.2-.4-.3h-.2c-.2-.3-.4-.4-.5-.6-1.1-1-2.2-2-3.3-3.2-.9-1.1-1.9-2.2-2.8-3.6-2-2.9-3.7-6-5.4-9.1h0c-.5-.9-.9-1.8-1.4-2.6-2.1-3.8-4.5-7.8-7.7-11.2-1.3-1.4-2.7-2.6-4.2-3.7,0,0,0,0,0,0-.3-.2-.6-.4-.8-.6,0,0-.1,0-.2,0s-.2-.1-.5-.3c-2.1-1.1-9.6-5.1-13.8-7-5.1-2.2-10.5-4.2-16.1-5.9-4.5-1.4-13.9-3.9-13.9-3.9"/><path class="cls-4" d="m78.7,129.4s0,0,0,0c0,0,0,0,0,0"/><path class="cls-11" d="m61.8,42.5h0s0,0,0,0h0c0,0,0,.1.1.2,0,0,0-.1,0-.2h0s0,0,0,0c0,0,0,0,0,0"/><path class="cls-6" d="m81.6,54.8s0,0,0,0c0,0,0,0,0,0"/><path class="cls-14" d="m51.9,86s0,0,0,0c0,0,0,0,0,0,0,0,0,0,0,0"/><path class="cls-14" d="m52.2,86s0,0,0,0c0,0,0,0,0,0"/><path class="cls-10" d="m104.5,93.6s0,0,0,0c0,0,0,0,0,0"/><path class="cls-14" d="m105.1,91.5s0,0,0,0c0,0,0,0,0,0,0,0,0,0,0,0"/><path class="cls-14" d="m105.4,91.5s0,0,0,0c0,0,0,0,0,0"/><path class="cls-5" d="m72.9,88.4h0c-.2,0-.4,0-.6.1-.2,0-.4.2-.6.3-.3.3-.5.6-.4.9,0,0,0,.2,0,.2,0,0,0,0,0,0,0,0-.1,0-.2,0,0,0,0,.1,0,.2,0,0,0,.1,0,.2.2.1.4.2.6.3.2,0,.4,0,.7,0,.4,0,.8-.1,1.2-.4.1,0,.3-.2.4-.3.1-.1.2-.3.3-.4,0-.2,0-.3,0-.4,0,0,0-.2,0-.2,0,0-.1-.1-.2-.2,0,0-.2-.1-.2-.2,0,0-.2,0-.3-.1-.2,0-.4,0-.6,0"/><path class="cls-5" d="m83.6,88.7h0c-.3,0-.7.1-.9.3-.1,0-.2.2-.3.4,0,.1,0,.3,0,.5,0,.1,0,.3.2.5,0,.1,0,.2,0,.3.3.2.6.4,1,.4h0c.3,0,.7,0,.9-.3.1,0,.2-.2.3-.3,0-.1.1-.2.2-.4,0-.1,0-.3,0-.5,0-.2-.2-.3-.3-.5-.1-.1-.3-.2-.5-.3-.2,0-.3-.1-.5-.1"/><path class="cls-3" d="m73,88.1c-.4,0-.8,0-1.1.2-.2,0-.5.2-.7.4-.2.1-.4.3-.6.5-.3.3-.6.7-.8,1.1-.2.4-.3.8-.4,1.3,0,.4,0,.9,0,1.4.1.9.4,1.9.9,2.8.4.9,1,1.6,1.7,2.3.7.6,1.5,1.2,2.4,1.6.8.4,1.7.6,2.7.7.4,0,.7,0,1.1,0,1.5,0,3-.3,4.3-1,.4-.2.8-.4,1.2-.7.4-.2.7-.5,1.1-.9.7-.6,1.2-1.4,1.7-2.2.2-.4.4-.9.6-1.4.2-.5.3-1,.3-1.6,0-.5,0-1-.1-1.4-.1-.4-.3-.8-.6-1.2-.1-.2-.2-.3-.4-.5-.2-.1-.3-.3-.6-.4-.4-.2-.8-.4-1.3-.5-.4,0-.8-.1-1.2-.1s-.3,0-.4,0c-.5,0-1.1.2-1.7.4-.3,0-.5.2-.8.3-.1,0-.3.1-.4.2-.5.2-.8.3-1.2.4-.2,0-.4,0-.6,0-.1,0-.2,0-.3,0-.6-.2-1.2-.5-1.7-.7-.4-.2-.8-.4-1.2-.6-.5-.2-1-.4-1.4-.4-.1,0-.3,0-.4,0m-.2,2.6c0,0-.2,0-.3,0,0,0-.2,0-.3-.1,0,0-.2-.1-.3-.2,0,0-.2-.2-.2-.3,0-.2-.2-.3-.2-.5,0-.2,0-.3,0-.5h0s.1-.1.1-.1c.2-.1.5-.2.7-.3.2,0,.4,0,.6,0s0,0,.1,0c.3,0,.6,0,.9.2h0c0,.1,0,.3,0,.3,0,.2,0,.4,0,.6,0,.1,0,.3-.2.4,0,.1-.1.2-.2.3,0,0-.1.1-.2.2,0,0-.2,0-.3.1,0,0-.2,0-.3,0m10-1.6h.2c0,0,.2,0,.3,0,.4,0,.8,0,1.2.2.2,0,.4.2.6.3h0c0,.1,0,.2,0,.2,0,.2-.1.4-.2.6,0,.1-.2.2-.2.3,0,0-.2.1-.3.2,0,0-.1,0-.2,0,0,0-.1,0-.2,0,0,0-.1,0-.2,0,0,0-.2,0-.2,0,0,0-.2-.1-.2-.2,0,0-.2-.2-.2-.3,0-.1-.1-.3-.2-.5,0-.2,0-.5-.1-.8,0,0,0,0,0,0h.2Zm-8.5,7.1c.5-.3,1-.6,1.6-.8.6-.2,1.3-.4,2-.4.2,0,.4,0,.6,0,.5,0,1.1,0,1.6.1.7.1,1.3.3,1.9.6.6.3,1.1.6,1.6,1,.2.2.5.5.7.7,0,0,0,0,0,0h0c0,.1-.2.2-.2.3h0c-.6.5-1.2.9-1.9,1.2-.7.3-1.4.6-2.2.8,0,0,0,0,0,0-.6.1-1.3.2-1.9.2s-.3,0-.5,0h0c-.8,0-1.6-.2-2.3-.4-.7-.3-1.4-.6-2-1-.3-.2-.5-.4-.7-.5.2-.3.4-.5.6-.8.4-.4.8-.8,1.2-1.1h0Z"/><g><path class="cls-3" d="m77.3,81.3c-.2,0-.3,0-.5,0-.4,0-.8,0-1.2.2-.4,0-.7.2-1,.4-.3.2-.5.4-.7.6,0,.1-.1.3-.2.5,0,.2,0,.4,0,.6,0,.2,0,.3.2.6.1.2.3.4.4.6.3.4.8.7,1.2,1,.4.3.8.5,1.3.8.2.1.4.2.6.3.2,0,.3.2.5.3,0,0,0,0,.1,0,0,0,0,0,0,0,0,0,0,0,.1,0s0,0,0,0c.3,0,.6-.1,1-.2.4-.1.8-.3,1.2-.5.4-.2.8-.4,1.2-.6.4-.2.7-.5,1-.7.3-.3.5-.6.6-.8.1-.3.1-.6,0-.9,0-.3-.3-.6-.7-.9-.3-.2-.6-.4-1-.6-.3-.1-.6-.2-1-.3-.4,0-.7-.2-1.2-.2-.8-.1-1.5-.2-2.2-.2"/><path class="cls-12" d="m74.5,83.9s0,0,0,0c0,0,0,0,0,0"/><path class="cls-12" d="m75.1,84.7s0,0,0,0h0Z"/><path class="cls-12" d="m75.4,84.9s0,0,0,0c0,0,0,0,0,0h0Z"/></g><path class="cls-2" d="m79.2,94.9h0s0,0,0,0c-1.2,0-2.5.3-3.7.9-.5.2-1,.5-1.4.9-.5.4-1,.9-1.3,1.3,0,0,0,0,0,0,0,0,0,.2,0,.3.2.2.4.4.6.6.3.2.5.4.8.5.5.3,1,.5,1.7.7.9.2,1.8.4,2.7.4s.3,0,.4,0c1.1,0,2.1-.2,3.1-.5.5-.2,1-.4,1.4-.6.5-.3.8-.5,1.1-.9.2-.3.3-.7.3-1,0-.4-.3-.7-.5-.9-.3-.3-.7-.5-1-.7-.3-.2-.7-.3-1.2-.5-.4-.1-.7-.2-1.1-.3-.4,0-.9-.1-1.5-.1"/></g><path class="cls-1" d="m66.1,40.1s28.7-5.4,51.9,16.5"/><path class="cls-5" d="m67.5,87.5c2.4-2,3.3-3.4,4-5.5,2.4-7.6,2.3-14.1-3.2-18.7-4.2-3.6-4.6-5-11.5-5.8-.4,0-.8,0-1.2,0-4.2-.1-7.9,1.7-11.5,5.1-2.4,2.2-4.5,4.8-4.8,8.9-1,8.5.5,14.2,7.2,18.1,3.5,2,6.5,3,9.3,3.1,3.9,0,7.5-1.6,11.7-5"/><path class="cls-5" d="m109.3,60.7c-2.5-.8-4.6-1.2-6.5-1.2-4.1,0-7,1.9-10.5,5.2-3.9,3.6-6.9,8.8-5.4,15.1,1.1,4.7,3.1,9.8,7.9,12.5,2.8,1.6,5.5,2.4,8,2.5,3.4.2,6.7-.7,10.4-2,3.2-1.1,4.6-3.1,5.9-4.8,6.1-8.2,4.7-15.2,0-20.7-2.3-2.8-3.5-4.7-9.8-6.7"/><path class="cls-9" d="m63.9,81.7c1.3-1.6,1.9-3.1,2.1-5.4.4-4.9-.7-8.9-4.6-12.2-5.2-4.3-11.5-2.8-15.4,3-3.9,5.8-2.7,13.8,2.5,18.1,5.2,4.3,11,1.8,15.4-3.5"/><path class="cls-9" d="m114.8,85.5c1.6-1.7,2.2-3.2,2.4-5.5.5-5-.9-9.2-5.4-12.5-6.1-4.4-13.5-2.9-18.1,3-4.5,5.9-3.1,14.1,3,18.5,6.1,4.4,12.9,1.9,18.1-3.5"/><path class="cls-15" d="m121.1,94.4s9.1-12.3,39.8-11.1"/><path class="cls-15" d="m121.9,98.2s17.5-7.3,30.7-3.3"/><path class="cls-15" d="m120.1,102.2s10.6-.9,31,5.3"/><g><path class="cls-15" d="m36.4,88.2s-2.2-13.5-32.9-12.2"/><path class="cls-15" d="m35.6,92s-12.8-6.7-24.9-4.4"/><path class="cls-15" d="m37.4,96s-12.2-2.9-35.1,6.5"/></g></g></g></svg>