<?xml version="1.0" encoding="UTF-8"?><svg id="Layer_1" xmlns="http://www.w3.org/2000/svg" viewBox="0 0 164 164"><defs><style>.cls-1{fill:#fee783;}.cls-2{fill:#fed00b;}</style></defs><rect class="cls-2" x="88" y="15.2" width="36.4" height="51.6" transform="translate(48.6 139.2) rotate(-80.7)"/><path class="cls-2" d="m88.9,134.9s2.2-16.7,6.3-21.6c4.1-4.8,19.4-10.6,19.4-10.6l3.9,2.8-2.3,10.6-5,10.2-6.1,6.7-11.8,4.7-4.5-2.9Z"/><path class="cls-2" d="m23.9,101.6s12.8,6,13.7,20.4c.9,14.5-8.4,21.2-8.4,21.2,0,0-23.3-5.5-21.3-17.8,2-12.3.7-21.4,16-23.8"/><path class="cls-1" d="m80.5,58.6l-5.6,34.3-45.1,6.4s9.9,13.7,9.5,19.2c-.3,5.5-2.1,19.5-3.5,21.5-1.4,2,6.3,2.1,6.3,2.1l32.1-4.1,12.2-.2.7-7.6s1.3-8,2.8-10.6c1.5-2.5,20.5-17.6,20.5-17.6l6.2-.6,4-7.6,3.7-29.1-43.6-6Z"/><path class="cls-2" d="m122.4,34.4l-3.1,19-4.2-.7,3.1-19,4.2.7Zm-12.7-2.1l-3.1,19-4.2-.7,3.1-19,4.2.7Zm-12.7-2.1l-3.1,19-4.2-.7,3.1-19,4.2.7Zm34.8-.8l-46.4-7.6-5.2,31.7,46.4,7.6,5.2-31.7Zm-16.8,76.1c-11.4,1-21.1,9.6-23,21.4-.4,2.6-.4,5.1-.1,7.5l3.9-.4c8.5-.9,15.4-7.2,17-15.5v-.6c.1-.2.2-.4.2-.6h0c0-.1,1.9-11.9,1.9-11.9Zm6.4-38.8l-38-6.2-5.2,31.8c-.4,2.7-2.6,4.9-5.3,5.3h-.4c0,0-39.7,4-39.7,4,7,7.1,10.7,17.3,9,27.9-.6,3.7-1.8,7.2-3.5,10.3l47.3-4.7c-.4-3-.3-6.1.2-9.2,2.5-15.3,15.5-26.3,30.4-26.9l5.3-32.3ZM24.3,102.9h-.4c-8.3,3-13.8,11.2-12.9,20.3,1,9.9,9.3,17.3,19.1,17.3,2.7-3.4,4.6-7.5,5.4-12,1.7-10.3-3-20.2-11.2-25.6M135,23.4c2.3.4,3.9,2.6,3.5,4.9l-5.9,35.9c-.4,2.3-2.6,3.9-4.9,3.5h0s-8.3,50.7-8.3,50.7c0,.2,0,.4-.2.6-1.8,11.2-11,20.2-22.8,21.4l-63.8,6.4h-.4s0,0,0,0h0s-.5,0-.5,0c-.2,0-.4,0-.7,0h-.2c-.3,0-.6,0-.8,0,0,0,0,0-.1,0-.2,0-.4,0-.7,0,0,0-.2,0-.2,0-.3,0-.5,0-.8,0,0,0-.2,0-.3,0-.2,0-.3,0-.5,0h-.3s0,0-.1,0h-.6c0,0-.6-.2-.6-.2h-.2s0,0-.1,0c-.5-.1-1.1-.2-1.6-.4h0c-10.1-2.6-18-11.3-19.1-22.3-1-10.1,4-19.4,12.1-24.4h.1c0,0,.1-.2.1-.2h.2c0-.1,0-.1,0-.1h0s.2-.1.2-.1c.2-.1.4-.3.7-.4,0,0,.1,0,.2-.1.2-.1.4-.2.6-.3h.1c.2-.2.5-.3.7-.4,0,0,.2,0,.3-.1.5-.2,1-.4,1.5-.6,0,0,.2,0,.3,0l.6-.2c0,0,.1,0,.2,0h0c.2,0,.5-.2.7-.2,0,0,.2,0,.2,0,.2,0,.4-.1.7-.2,0,0,0,0,.1,0h0c.3,0,.5-.1.8-.2,0,0,0,0,.1,0,.8-.1,1.5-.3,2.3-.3l44.3-4.4,5.2-31.8h0c-2.3-.4-3.9-2.6-3.5-4.9l5.9-35.9c.4-2.3,2.6-3.9,4.9-3.5l50.7,8.3Z"/><path class="cls-1" d="m124.5,44.3c.8-2,1.7-3.8,2.1-5.9.9-4.7-6.4-6-7.3-1.3-.4,2.3-1.7,4.2-2.4,6.4-.7,2.3-.3,4.5-.4,6.8,0,2,2.2,3.5,4,3.4,2.2-.2,3.3-2,3.4-4,0-1.9-.2-3.5.6-5.3"/><path class="cls-1" d="m114.1,42.8c.8-2,1.7-3.8,2.1-5.9.9-4.7-6.4-6-7.3-1.3-.4,2.3-1.7,4.2-2.4,6.4-.7,2.3-.3,4.5-.4,6.8,0,2,2.2,3.5,4,3.4,2.2-.2,3.3-2,3.4-4,0-1.9-.2-3.5.6-5.3"/><path class="cls-1" d="m103.7,41.6c.8-2,1.7-3.8,2.1-5.9.9-4.7-6.4-6-7.3-1.3-.4,2.3-1.7,4.2-2.4,6.4-.7,2.3-.3,4.5-.4,6.8,0,2,2.2,3.5,4,3.4,2.2-.2,3.3-2,3.4-4,0-1.9-.2-3.5.6-5.3"/><path class="cls-1" d="m93.6,39.3c.8-2,1.7-3.8,2.1-5.9.9-4.7-6.4-6-7.3-1.3-.4,2.3-1.7,4.2-2.4,6.4-.7,2.3-.3,4.5-.4,6.8,0,2,2.2,3.5,4,3.4,2.2-.2,3.3-2,3.4-4,0-1.9-.2-3.5.6-5.3"/></svg>