<?xml version="1.0" encoding="UTF-8"?><svg id="Layer_2" xmlns="http://www.w3.org/2000/svg" viewBox="0 0 164 164"><defs><style>.cls-1{fill:#010201;}.cls-2{fill:#ec5897;}.cls-3{fill:#f48120;}.cls-4{fill:#ef5495;}.cls-5{fill:#eb5997;}.cls-6{fill:#fff;}.cls-7{fill:#ffd10a;}.cls-8{fill:#ffd20b;}.cls-9{fill:#ffd210;}.cls-10{fill:#ffd214;}.cls-11{fill:#faf8fb;}.cls-12{fill:#b392c0;}</style></defs><g><path class="cls-8" d="m151.63,85.27c0,.09-.18.28-.28.37-.28.46-.73.73-1.38.73-.46,0-.83-.09-1.29-.18-.28,0-.64-.09-1.01-.18v2.2c0,.55-.37,1.01-.92,1.29-.64.28-1.29.37-1.93-.09-.28-.18-.46-.55-.46-.92v-3.03h0c-.37,0-.64-.09-1.01-.18-.46-.09-.92-.09-1.29-.46-.28-.28-.46-.55-.55-.92v-.92c0-.55.64-1.1,1.19-1.19.46,0,.83,0,1.29.09.28,0,.46,0,.83.09,0-.28,0-.46.09-.73.09-.55.18-1.19.37-1.74.28-1.01,1.19-1.29,2.02-1.1.46,0,.83.28,1.1.73.18.37.18.73.18,1.1-.18.73-.28,1.38-.46,2.11,0,.28,0,.37.28.46.55.09,1.1.18,1.74.28.55,0,1.01.28,1.29.73,0,.09.09.28.18.37v1.19-.09Z"/><path class="cls-12" d="m78.17,148.26h-.55c-.37-.09-.64-.37-.83-.64-.55-.73-.92-1.65-1.19-2.48-.46-1.19-.73-2.48-1.01-3.76-.18-.83-.37-1.56-.46-2.39-.18-.73-.28-1.47-.46-2.2v-.37h-.64c-.64,0-1.01-.18-1.38-.73s-.73-1.1-1.1-1.65c-.55-.83-1.1-1.74-1.56-2.57-.37-.55-.64-1.19-1.01-1.74,0,0-.09-.18-.18-.28,0,0-.18-.09-.28-.09h-1.1c-.28,0-.55,0-.83.09-.18,0-.46,0-.64.09-1.1.09-2.2.37-3.31.73-1.01.37-2.02.73-2.85,1.47-.64.46-1.1,1.1-1.47,1.84-.64,1.56-1.1,3.21-1.65,4.87-.46,1.38-1.01,2.85-1.74,4.13-.55.92-1.1,1.84-1.93,2.57-.55.46-1.1.83-1.84,1.01-.37,0-.64,0-.83-.18-.28-.18-.55-.46-.83-.73-.28-.28-.46-.64-.64-1.01-.73-1.29-1.19-2.66-1.56-4.04-.28-1.01-.46-2.11-.73-3.12-.09-.55-.18-1.1-.28-1.56,0-.46-.18-1.01-.18-1.47v-4.41c0-.73,0-1.47.09-2.2v-.55c0-.92.28-1.74.46-2.57.28-1.1.64-2.2,1.1-3.21.37-.92.92-1.84,1.38-2.66.55-1.01,1.19-1.93,1.84-2.85.37-.46.73-.92,1.19-1.38s.92-1.01,1.38-1.47c.83-.73,1.65-1.47,2.57-2.11,1.19-.83,2.39-1.56,3.67-2.3,0-.18,0-.37-.09-.46-.37-1.19-.73-2.39-1.1-3.58-.37-1.38-.83-2.75-1.19-4.22-.37-1.38-.73-2.85-1.1-4.32-.28-1.1-.55-2.2-.73-3.31-.28-1.29-.55-2.66-.83-3.95-.18-.92-.37-1.84-.55-2.85-.18-.73-.28-1.47-.37-2.3,0-.55-.18-1.01-.28-1.56,0-.55-.18-1.1-.28-1.56,0-.55-.18-1.1-.28-1.56,0-.37-.09-.83-.18-1.19,0-.46-.09-.92-.18-1.38,0-.28,0-.55-.09-.83v-.64c0-.55-.18-1.1-.18-1.65-.09-.92-.18-1.74-.28-2.66,0-.64-.09-1.29-.18-1.93,0-.73-.09-1.56-.18-2.3v-1.19c0-.92,0-1.93-.09-2.85v-5.51c0-1.1.09-2.2.18-3.31.09-1.29.28-2.57.46-3.86.28-2.3.73-4.5,1.19-6.7.64-2.94,1.47-5.88,2.48-8.72.64-1.74,1.29-3.49,2.02-5.14,1.29-2.85,2.75-5.51,4.41-8.08,1.19-1.84,2.39-3.58,3.86-5.23.92-1.1,1.84-2.2,2.85-3.31,1.1-1.19,2.3-2.39,3.58-3.58,2.02-1.84,4.13-3.58,6.34-5.14,0,0,.09,0,.18-.09.28.18.64.37.92.64,1.1.83,2.2,1.65,3.31,2.48.64.46,1.19,1.01,1.84,1.56,1.29,1.1,2.48,2.3,3.58,3.49.73.83,1.47,1.65,2.2,2.48.83,1.01,1.65,2.02,2.39,3.12.83,1.1,1.56,2.2,2.3,3.4.64,1.1,1.29,2.2,1.93,3.31.46.73.92,1.56,1.29,2.39.64,1.29,1.19,2.66,1.84,4.04.73,1.65,1.38,3.4,1.93,5.14.46,1.47.92,2.94,1.29,4.41.28,1.01.55,2.02.73,3.03.28,1.19.46,2.3.73,3.49.18.73.28,1.56.46,2.3.09.73.18,1.56.28,2.3.09.73.18,1.47.28,2.2v.92c0,.92.09,1.84.18,2.66.18,1.74.18,3.58.09,5.33,0,1.1,0,2.11-.18,3.21,0,1.01-.09,1.93-.18,2.94,0,.83-.18,1.65-.28,2.39,0,.64-.18,1.38-.28,2.02-.09.83-.28,1.56-.37,2.39-.09.73-.18,1.38-.28,2.11-.09.83-.28,1.65-.46,2.48-.09.73-.28,1.56-.37,2.3-.18,1.01-.37,2.11-.55,3.12-.28,1.56-.55,3.12-.92,4.68-.28,1.19-.46,2.3-.73,3.49-.46,2.02-.92,3.95-1.38,5.97-.37,1.65-.83,3.21-1.29,4.87-.37,1.38-.83,2.75-1.29,4.13,0,.18,0,.28.18.37,1.1.55,2.2,1.29,3.21,2.02.92.64,1.74,1.29,2.48,2.02.37.37.83.73,1.19,1.19,1.29,1.38,2.39,2.75,3.31,4.41.92,1.56,1.65,3.21,2.2,4.96.28.92.55,1.93.73,2.94.18.73.18,1.56.28,2.39v2.85c0,.92-.09,1.93-.18,2.85,0,.64-.09,1.38-.28,2.02-.18,1.38-.46,2.75-.83,4.04-.28,1.1-.64,2.3-1.1,3.31-.28.73-.64,1.38-1.1,2.02-.37.37-.64.83-1.19,1.01-.37.09-.73,0-1.01,0-.64-.28-1.29-.64-1.74-1.19-.64-.73-1.29-1.56-1.65-2.48,0-.09-.09-.18-.18-.28h0c-.28-.73-.55-1.38-.83-2.11-.09-.28-.18-.55-.28-.83-.37-1.01-.64-2.02-1.01-3.03-.28-.83-.55-1.56-.83-2.39-.37-.83-.83-1.47-1.56-2.02-1.29-.92-2.75-1.47-4.32-1.74-.46,0-.92-.18-1.38-.28h-1.01c-.73-.18-1.47-.18-2.2-.18-.64,1.19-1.38,2.3-2.02,3.4-.55.92-1.01,1.84-1.56,2.75-.37.55-.83.92-1.56.92h-.37c-.09,0-.18,0-.18.18-.09.46-.18,1.01-.28,1.47-.18.92-.37,1.84-.55,2.66-.18,1.01-.46,1.93-.73,2.94-.28,1.01-.55,2.02-1.01,2.94-.18.37-.46.73-.64,1.1-.18.28-.46.46-.73.55l-.28-.64Zm16.16-86.77h0c-.37.28-.55.73-.73,1.1h0c-.28.55-.55,1.1-.92,1.65-.28.46-.55.92-.83,1.38-.28.37-.55.73-.83,1.01l-.83.83c-.37.28-.73.55-1.1.92h0c-.37.28-.64.46-1.01.73-.73.46-1.47.83-2.2,1.29-.92.55-1.93,1.01-3.03,1.29-1.01.28-1.93.55-2.94.64-.64,0-1.29.18-1.93.18h-.92c-.55,0-1.1,0-1.65-.18-1.1-.18-2.11-.46-3.12-.83-.92-.37-1.84-.73-2.66-1.29-1.47-.83-2.75-1.93-3.95-3.12-1.01-1.01-1.74-2.11-2.39-3.31-.28-.46-.46-1.01-.73-1.47-.28-.55-.64-1.01-1.19-1.38-.64-.46-1.56-.09-1.84.64,0,0,0,.09-.09.18v1.29h0c.37,1.01.83,2.11,1.38,3.03,0,.18.18.37.28.55.37.64.83,1.19,1.19,1.84.18.37.46.64.73.92.64.64,1.29,1.38,2.02,1.84.37.28.83.55,1.19.83h0l.64.37h0c.18.09.37.18.55.28h0c.28.18.64.28.92.46h.18c.46.18.83.37,1.29.55h0c.28.09.55.18.83.28h0c.09.09.18.09.28.18.37.09.64.28,1.01.37.09,0,.18,0,.28.09.18,0,.28,0,.46.09h7.16c.37,0,.73-.09,1.1-.18h1.1c.64-.09,1.29-.18,1.93-.37.64-.18,1.38-.46,2.02-.73,1.01-.37,1.93-.83,2.75-1.38.55-.37,1.01-.64,1.47-1.01h.09l.28-.28c.64-.55,1.29-1.19,1.93-1.84.92-1.01,1.65-2.02,2.2-3.21.18-.37.37-.73.55-1.1.18-.37.37-.73.55-1.1.18-.46.18-.92,0-1.38-.18-.37-.46-.73-.83-.92-.37-.28-.83-.64-1.38-.28l.73.55Zm-16.44-5.42c.55,0,1.01,0,1.56-.09.73,0,1.56-.18,2.3-.37,1.65-.37,3.21-1.01,4.68-1.84,1.1-.64,2.11-1.38,3.03-2.39,1.01-1.1,1.74-2.39,2.2-3.76.64-1.84.83-3.67.92-5.6v-1.84c0-1.38-.28-2.75-.83-4.13-.83-2.3-2.3-4.22-4.22-5.78-1.47-1.19-3.12-2.02-4.87-2.66-1.1-.37-2.2-.64-3.4-.73-.64,0-1.38-.09-2.11,0-.73,0-1.38.09-2.02.28-2.3.64-4.5,1.38-6.52,2.66-1.47.92-2.66,2.11-3.4,3.67-.83,1.65-1.29,3.49-1.47,5.33,0,.55-.09,1.1-.18,1.56-.09,1.01-.28,1.93-.18,2.94,0,.55.09,1.1.28,1.65.46,1.56,1.01,3.12,1.84,4.59.46.73.92,1.47,1.47,2.11,1.1,1.19,2.48,2.11,3.95,2.75,2.2,1.01,4.5,1.47,6.98,1.47v.18Z"/><path class="cls-8" d="m130.42,91.52c-.37,0-.73.18-1.19.18-.64,0-1.19.28-1.74.55-.73.37-1.29,1.01-1.56,1.74,0,.18-.18.37-.18.55-.18.37-.28.73-.28,1.1,0,1.38-.46,2.57-.83,3.86,0,.18-.09.46-.18.64-.09.55-.46,1.01-1.01,1.19h-.83c-.64,0-1.1-.37-1.38-.92v-.18c0-.55,0-1.01.09-1.56,0-.28.09-.64.18-.92,0-.46.18-.92.28-1.38,0-.37.18-.83.28-1.19v-.09c.18-.37,0-.73,0-1.01-.18-.55-.46-1.1-.92-1.47-.37-.28-.73-.46-1.1-.73-.46-.28-1.01-.55-1.56-.83-.64-.28-1.29-.55-1.84-.83s-.92-.64-.92-1.29c0-.37,0-.73.18-1.01.28-.46.73-.83,1.29-.92.37,0,.83,0,1.19.18.83.37,1.65.28,2.39,0,.83-.28,1.47-.92,1.93-1.65.18-.37.37-.83.55-1.19,0-.18.18-.37.18-.64s0-.64.18-.92c0-.37.09-.73.18-1.1.18-.83.46-1.56.73-2.39.09-.46.46-.73.92-.92.92-.28,1.65.09,2.02.55.37.55.37,1.1.18,1.74-.28.83-.46,1.65-.73,2.48-.09.37-.18.83-.18,1.19v1.74c0,.46.18.73.55,1.01.46.37,1.01.46,1.56.64.55.18,1.1.18,1.65.18s1.01.18,1.38.55c.18.18.28.46.37.73.18.46,0,1.47-.55,1.84-.28.18-.46.28-.83.28h-.46v.18Z"/><path class="cls-7" d="m29.14,18.89c.28,0,.64.18.92.28.73.28,1.47.55,2.2.64h1.19c.37,0,.64-.28.83-.64.73-1.38,1.19-2.75,1.38-4.32,0-.28.09-.55.09-.83,0-.46.28-.92.55-1.29.46-.46.92-.64,1.56-.55.64.18,1.1.55,1.29,1.19v.64c-.18,1.38-.46,2.66-.83,3.95-.28.92-.37,1.93-.09,2.85.37,1.38,1.19,2.3,2.57,2.75h.64c1.19,0,2.02,1.19,1.65,2.39-.18.64-.73,1.01-1.38,1.01h-.46c-1.47-.09-3.03-.09-4.5.09-.92.09-1.56.64-2.11,1.38,0,.09-.09.28-.18.37-.37,1.47-.83,3.03-1.19,4.5-.18.73-.83,1.1-1.56,1.1-.83,0-1.56-.55-1.65-1.38v-.55c.18-.83.28-1.65.46-2.48.18-.64.28-1.19.55-1.84.18-.55.28-1.01.37-1.56.18-1.56-.28-2.85-1.56-3.76-.46-.37-1.01-.64-1.56-1.01-.18-.09-.37-.28-.55-.37-.28-.28-.37-.55-.37-.92s.09-.83.28-1.19c.28-.55.83-.73,1.38-.83l.09.37Z"/><path class="cls-8" d="m15.46,9.7c-.64-.18-1.1-.28-1.65-.46h-.18c-1.56-.37-1.47-2.11-.73-2.85.37-.37.83-.55,1.38-.37.73.18,1.47.37,2.11.55h.18s0-.18.09-.18c.18-.64.37-1.29.46-2.02v-.28c.18-.64.64-.92,1.29-1.01,1.01,0,2.2.83,1.84,2.11-.18.64-.37,1.29-.46,2.02v.37c.46.09.83.28,1.29.37.28,0,.64.18.83.46.37.37.37.73.37,1.19,0,.28,0,.46-.18.73-.37.64-1.01,1.01-1.65.83-.55-.09-1.1-.28-1.74-.46,0,.09-.09.18-.18.28-.37.73-.73,1.47-1.01,2.2-.55,1.29-1.93,1.1-2.57.46-.55-.55-.73-1.29-.37-2.02.28-.46.46-1.01.73-1.47,0-.09,0-.18.18-.37v-.09Z"/><path class="cls-9" d="m140.06,100.7c1.38,0,2.11,1.1,1.65,2.3-.28.64-.83,1.01-1.56,1.01-.55,0-1.01-.28-1.29-.73-.09-.18-.18-.46-.18-.73,0-.64,0-1.19.55-1.56.28-.28.64-.28.92-.28h-.09Z"/><path class="cls-9" d="m15.09,29.35c-.92,0-1.65-.73-1.56-1.65,0-.92.73-1.74,1.56-1.65.92,0,1.65.55,1.65,1.65,0,1.01-.83,1.74-1.65,1.74v-.09Z"/><path class="cls-10" d="m131.06,116.4c-.73,0-1.29-.55-1.29-1.38,0-1.01.64-1.47,1.29-1.47.92,0,1.38.55,1.47,1.38,0,.83-.55,1.47-1.47,1.47Z"/><path class="cls-9" d="m17.66,41.57c.83,0,1.38.55,1.38,1.38s-.55,1.47-1.29,1.47c-.83,0-1.38-.55-1.38-1.38s.64-1.47,1.38-1.47h-.09Z"/><path class="cls-11" d="m82.21,136.6c0-.09,0-.18.18-.18h.37s-.09.09-.18.09h-.37v.09Z"/><path class="cls-6" d="m77.89,56.07c-2.39,0-4.77-.46-6.98-1.47-1.47-.64-2.85-1.56-3.95-2.75-.55-.64-1.1-1.38-1.47-2.11-.83-1.47-1.38-3.03-1.84-4.59-.18-.55-.18-1.1-.28-1.65-.18-1.01,0-1.93.18-2.94,0-.55.09-1.1.18-1.56.18-1.84.64-3.67,1.47-5.33.83-1.56,1.93-2.75,3.4-3.67,2.02-1.29,4.22-2.02,6.52-2.66.64-.18,1.38-.18,2.02-.28h2.11c1.19.09,2.3.37,3.4.73,1.84.55,3.4,1.47,4.87,2.66,1.93,1.56,3.31,3.49,4.22,5.78.46,1.29.73,2.66.83,4.13v1.84c0,1.93-.28,3.76-.92,5.6-.46,1.38-1.19,2.66-2.2,3.76-.92.92-1.93,1.74-3.03,2.39-1.47.83-3.03,1.38-4.68,1.84-.73.18-1.47.28-2.3.37-.55,0-1.01,0-1.56.09v-.18Zm6.15-11.02h0c0-.09.09-.18.18-.28.18-.37.28-.83.46-1.19,0-.09,0-.28.09-.37,0-.37,0-.64.18-1.01,0-.28.09-.64.09-.92,0-.55,0-1.1-.18-1.65-.09-.46-.18-.92-.28-1.38,0-.09-.09-.18-.18-.28h0c-.18-.64-.55-1.1-1.01-1.56-.55-.55-1.29-.92-2.02-1.29-.92-.37-1.84-.64-2.75-.83-1.01-.18-2.11-.28-3.12,0-2.3.37-3.95,1.65-4.87,3.86-.37.92-.64,1.93-.64,2.94v1.47c.18.73.28,1.47.64,2.2.28.46.46.92.73,1.38.46.73,1.01,1.38,1.74,1.84.46.28.92.55,1.38.73,1.1.46,2.3.73,3.49.73h.92c.46,0,.92-.09,1.38-.28.92-.28,1.74-.73,2.39-1.47.55-.55,1.01-1.1,1.19-1.84,0-.18.09-.28.18-.46v-.37Z"/><path class="cls-4" d="m68.71,73.43c-.28-.18-.64-.28-.92-.46h0c-.18-.09-.37-.18-.55-.28h0c-.18-.09-.46-.28-.64-.37h0c-.37-.28-.83-.55-1.19-.83-.83-.46-1.38-1.19-2.02-1.84-.28-.28-.55-.55-.73-.92-.37-.64-.73-1.19-1.19-1.84l-.28-.55c-.55-1.01-1.01-2.02-1.38-3.03h0v-1.29s0-.09.09-.18c.37-.73,1.19-1.01,1.84-.64.55.37.92.83,1.19,1.38.28.46.46,1.01.73,1.47.64,1.29,1.38,2.39,2.39,3.31,1.19,1.19,2.48,2.3,3.95,3.12.83.46,1.74.92,2.66,1.29,1.01.37,2.02.64,3.12.83.55.09,1.1.09,1.65.18h.92c.64,0,1.29-.09,1.93-.18,1.01-.09,2.02-.37,2.94-.64,1.1-.28,2.02-.73,3.03-1.29.73-.46,1.47-.83,2.2-1.29.37-.18.64-.46,1.01-.73h0c.37-.28.73-.55,1.1-.92l.83-.83c.28-.37.55-.64.83-1.01.28-.46.55-.92.83-1.38.28-.55.55-1.1.92-1.65h0c.18-.37.37-.83.73-1.1h0c.55-.37.92,0,1.38.28.37.28.64.55.83.92.18.46.18.92,0,1.38-.18.37-.37.73-.55,1.1-.18.37-.37.73-.55,1.1-.64,1.19-1.38,2.2-2.2,3.21-.55.64-1.19,1.29-1.93,1.84-.09,0-.18.18-.28.28h-.09c-.46.37-1.01.73-1.47,1.01-.92.55-1.84,1.01-2.75,1.38-.64.28-1.38.46-2.02.73-.64.18-1.29.28-1.93.37-.09-.09-.09,0-.18,0h-.28c-.09-.09-.09,0-.18,0h-.28c-.09-.09-.09,0-.18,0-.37,0-.73.09-1.1.18h-1.1c-.73,0-1.38.09-2.11,0h-1.93c0-.09,0-.18-.18,0h-.55c0-.18-.09-.18-.18,0h-.18s0-.18-.18,0h-.73c-.18,0-.28,0-.46-.09,0-.18-.18-.09-.28-.09-.37-.09-.64-.28-1.01-.37-.09,0-.18,0-.28-.09h0c-.28-.09-.55-.18-.83-.28h0c-.46-.18-.83-.37-1.29-.55h-.18l-.73-.64Z"/><path class="cls-5" d="m72.57,75.08c.09,0,.28,0,.28.09-.09,0-.18,0-.28-.09Z"/><path class="cls-5" d="m82.48,75.36s0-.18.18,0h-.18Z"/><path class="cls-2" d="m59.44,61.58s0,.09-.09.18c0,0,0-.09.09-.18Z"/><path class="cls-5" d="m75.23,75.63c.09-.09.09,0,.18,0h-.18Z"/><path class="cls-5" d="m74.13,75.54c.09-.09.09,0,.18,0h-.18Z"/><path class="cls-5" d="m81.57,75.54s0-.18.18,0h-.18Z"/><path class="cls-5" d="m82.03,75.45s0-.18.18,0h-.18Z"/><path class="cls-1" d="m84.41,37.89c0,.09.18.18.18.28.09.46.18.92.28,1.38.09.55.18,1.1.18,1.65,0,.28,0,.64-.09.92,0,.28-.09.64-.18,1.01,0,.09,0,.28-.09.37-.18.37-.28.83-.46,1.19,0,.09-.09.18-.18.28h0c0,.18-.09.28-.18.46-.28.73-.73,1.29-1.19,1.84-.73.73-1.56,1.19-2.39,1.47-.46.18-.92.18-1.38.28h-.92c-1.19,0-2.39-.28-3.49-.73-.46-.18-1.01-.46-1.38-.73-.73-.46-1.29-1.1-1.74-1.84-.28-.46-.46-.92-.73-1.38-.37-.64-.46-1.47-.64-2.2-.09-.46,0-1.01,0-1.47,0-1.01.18-2.02.64-2.94.92-2.2,2.57-3.49,4.87-3.86,1.01-.18,2.11-.09,3.12,0,.92.18,1.84.46,2.75.83.73.28,1.47.73,2.02,1.29.46.46.83.92,1.01,1.56h0v.37Z"/></g><g><path class="cls-3" d="m45.52,147.01c-.06-2.65,2.04-4.86,4.69-4.92,2.65-.06,4.86,2.04,4.92,4.69.06,2.65-1.12,16.79-3.78,16.86-2.65.06-5.77-13.97-5.84-16.63Z"/><path class="cls-6" d="m47.37,145.12c-.04-1.63,1.26-2.99,2.9-3.03,1.64-.04,3,1.25,3.04,2.89.04,1.63-.69,10.34-2.34,10.38-1.64.04-3.57-8.61-3.61-10.24Z"/></g><g><path class="cls-3" d="m99.62,146.21c.32-2.64,2.72-4.51,5.36-4.19,2.64.32,4.51,2.72,4.19,5.36-.32,2.64-3.55,16.45-6.19,16.13-2.64-.32-3.68-14.67-3.36-17.3Z"/><path class="cls-6" d="m101.73,144.61c.2-1.62,1.68-2.78,3.31-2.58,1.63.2,2.79,1.68,2.59,3.3-.2,1.62-2.19,10.13-3.82,9.93-1.63-.2-2.28-9.03-2.08-10.66Z"/></g></svg>