<?xml version="1.0" encoding="UTF-8"?><svg id="Layer_1" xmlns="http://www.w3.org/2000/svg" viewBox="0 0 164 164"><defs><style>.cls-1{fill:#facdba;}.cls-2{fill:#f28261;}.cls-3{fill:#f0eceb;}.cls-4{fill:#f0f2f3;}.cls-5{fill:#f6ae9b;}.cls-6{fill:#f4997a;}.cls-7{fill:#eb3528;}.cls-8{fill:#fee9df;}.cls-9{fill:#fff;}.cls-10{fill:#fff5f0;}.cls-11{fill:#fffefe;}.cls-12{fill:#fefbfa;}.cls-13{fill:#feefe7;}.cls-14{fill:#eff8fc;}.cls-15{fill:#f17050;}.cls-16{fill:#fde0d5;}.cls-17{fill:#fdebe2;}.cls-18{fill:#252021;}.cls-19{fill:#453937;}.cls-20{fill:#322a2a;}</style></defs><path class="cls-7" d="m151.5,104.7c-.9.1-1.7.3-2.6.4-1.3.1-2.6.2-3.8.4-1.5.1-3,.3-4.5.5-.8,0-1.7.3-2.5.2-2.3-.1-4.6,0-6.9,0-1.7,0-3.5,0-5.2,0-.2,0-.4-.1-.6-.2-.3,0-.7-.2-1,0-1.7.6-3.4,1.3-5,2-2.5,1.1-4.9,2.2-7.3,3.3-2.6,1.2-5.1,2.4-7.6,3.6-1.4.7-2.7,1.4-4,2.1-1.3.6-2.7,1.2-4.1,1.8-1,.4-1.9.9-2.8,1.3-1.1.5-2.3.9-3.4,1.2-2.3.7-4.7,1.3-7,2-.6.2-1.2.4-1.8.5-.7.2-1.5.3-2.2.4-2.8.4-5.6.7-8.5.6-1.4,0-2.7,0-4.1-.2-.8,0-1.5-.4-2.2-.6-.9-.2-1.9-.4-2.9-.6-.9-.3-1.8-.6-2.7-.9-1.9-.7-3.9-1.4-5.8-2.3-2.1-1-4.1-2.2-6.2-3.3-1.4-.7-2.8-1.5-4.2-2.2-1.4-.8-2.7-1.6-4.1-2.4-.5-.3-1-.4-1.7-.3-1.1.2-2.2.2-3.3.3-1.6.2-3.3.5-4.9.7-.6,0-1.3,0-1.9.2-1.5.2-3,.4-4.6.5-2.8.2-5.5.3-8.3.4-.8,0-1.7,0-2.5,0-1.2,0-2.4-.4-3.4-.9-.8-.4-1.4-1.3-1.5-2.2,0-.4,0-.8.2-1.2.2-.6.3-1.1.6-1.6.2-.5.6-.8,1.2-1.1,4.3-1.6,8.6-3.2,12.9-4.8,3.9-1.5,7.7-2.9,11.6-4.4,2.8-1,5.6-2,8.4-3.1,1.2-.5,2.5-1,3.7-1.4,0-1.3,0-2.4,0-3.5,0-.8.1-1.7.2-2.5,0-.8,0-1.6.1-2.5.1-1.1.3-2.3.5-3.4.3-1.6.6-3.1.9-4.6.4-2.6,1.2-5.1,2-7.5.4-1.2,1-2.4,1.5-3.7.5-1.2,1-2.4,1.6-3.6.9-1.7,1.9-3.3,2.8-4.9.4-.6,1-1.1,1.3-1.8.4-.7,1-1.3,1.4-2,.2-.3.4-.5.7-.8,1.6-1.9,3.3-3.8,5.2-5.5,1.3-1.2,2.7-2.4,4.2-3.4,1.2-.8,2.3-1.8,3.6-2.6,1.6-1,3.2-1.9,4.8-2.8.9-.5,1.9-1,2.9-1.4,1.2-.5,2.4-.9,3.6-1.4,1.2-.6,2.5-.9,3.8-1.3,1.5-.4,2.9-.8,4.4-1.2.2,0,.5,0,.7-.2.2-.1.5-.3.5-.6.1-1,.6-1.7,1.6-2.1,1-.4,2.1-.7,3.1-.7,1.1,0,2.3.1,3.2.7.4.3.7.7,1,1.1.2.4.5.6.9.6,1.3,0,2.6.2,3.9.3.9,0,1.8.2,2.7.3.5,0,1.1.1,1.6.2,2,.2,3.9.6,5.8,1,2.2.5,4.4,1,6.5,1.8,2.5.9,5,1.9,7.4,3.2,3.3,1.8,6.2,3.7,9.4,6.5,2.3,2,4.3,4.2,6.1,6.7,1.1,1.5,2.2,2.9,3.1,4.5,1.3,2.2,2.6,4.4,3.5,6.7.6,1.6,1.4,3.1,2,4.7.5,1.3.9,2.6,1.3,4,.6,1.8,1.1,3.6,1.6,5.4.3,1,.5,2,.7,3.1.2.9.4,1.8.6,2.7.2,1.4.4,2.8.7,4.1.2.9.4,1.9.5,2.8,0,.5.1,1,.2,1.5.2,2.2.5,4.4.7,6.6.2,1.6.3,3.2.4,4.9-.3.1-.7.3-1,.4-2.1.6-4.2,1.1-6.4,1.4-.1,0-.3.1-.4.2-.2,0-.5,0-.7.1Zm-45.2-24.4c0,0,0-.1,0-.2,0-.6,0-1.2,0-1.8-.1-1.2-.5-2.4-1-3.6-.5-1.3-1.2-2.5-2.2-3.5,0,0,0,0,0-.1,0,0,0-.2,0-.2-1-1-2.3-1.6-3.6-2.1-.9-.3-1.9-.4-2.8-.7-.1,0-.3,0-.4,0h-.5c0,0-.2,0-.2,0-.2,0-.4,0-.7,0-.3,0-.6,0-.9,0-.2,0-.5,0-.7,0,0,0-.1,0-.2,0-2,.3-3.9,1-5.3,2.5,0,0,0,0-.1.1,0,0-.2.2-.2.3,0,0,0,0,0,0l-.6.7c0,0,0,.1-.1.2,0,0,0,.1-.1.2,0,.1-.2.3-.3.4-.2.3-.6.5-.6,1,0,0,0,.2-.1.2-.5.8-.6,1.8-1,2.7-.2.5-.4.9-.3,1.4,0,0,0,.1,0,.2,0,.1,0,.2,0,.3,0,0,0,.1,0,.2,0,.1,0,.2,0,.3,0,0,0,0,0,0,0,0,0,0,0,.1,0,.5.1,1.1.2,1.6.2.5.3,1,.5,1.4,1.5,3.7,4.1,6.2,7.9,7.4.5.2,1.1.1,1.7.2.5,0,1.1.2,1.6-.1.3,0,.6,0,.9,0,.1,0,.3,0,.4-.1.5-.1,1.1-.2,1.6-.4,1-.4,1.9-1,2.8-1.5,0,0,0,0,.1-.1.4-.4.9-.7,1.3-1.1h.1c.2-.3.4-.6.6-.8h0s0,0,0,0c1-.8,1.6-1.9,2.1-3,0,0,0-.1,0-.2,0-.1,0-.2.1-.4,0,0,0-.1,0-.2,0-.4.2-.7.3-1.1,0-.1,0-.2,0-.3Zm-45.2-2.7c0,0,0-.1,0-.2,0-.5.1-1,.1-1.6,0-.6,0-1.3,0-1.9-.3-1.5-.8-2.8-1.5-4.2-.4-.7-.9-1.2-1.5-1.6-1-.6-2.2-.8-3.4-.7-1.3,0-2.5.7-3.3,1.8-1.3,1.8-2.1,3.7-2.2,5.9,0,0,0,.1,0,.2,0,.8,0,1.7.4,2.5.6,1.8,1.5,3.3,3,4.5.5.4,1.1.8,1.8.8.2,0,.5,0,.7.1.7.1,1.3,0,1.9-.3,1.2-.6,2.2-1.6,2.8-2.8,0-.1.2-.3.2-.5.3-.7.6-1.5.9-2.2Z"/><path class="cls-11" d="m151.5,104.7c.2,0,.5,0,.7-.1-.1.2-.3.3-.4.5-.1-.1-.2-.2-.3-.3Z"/><path class="cls-9" d="m96.4,68c.9.3,1.9.3,2.8.7,1.4.5,2.6,1.1,3.6,2.1,0,0,0,.1,0,.2,0,0,0,0,0,.1,1,1,1.8,2.1,2.2,3.5.4,1.2.8,2.3,1,3.6,0,.6,0,1.2,0,1.8,0,0-.1.1-.2.2-.2,0-.3.1-.5.2,0-.5,0-1,0-1.4,0-.4-.2-.8-.3-1.3-.4-1.8-1.2-3.4-2.8-4.4-.1,0-.2,0-.3-.1-.2,0-.5-.1-.7-.3-.6-.5-1.3-.8-2.1-.8-.5,0-1.1-.2-1.6-.3l-1.3.2c0,0-.1,0-.2,0-.2,0-.3,0-.5.1-.4,0-.7,0-.9.3-.1,0-.2.1-.4.2,0,0,0,0,0,0,0,0-.1.1-.2.2-.4.3-.8.6-1.2.9,0,0-.1.2-.2.3-.8.6-1.1,1.5-1.5,2.4,0,0,0,0,0,.1-.1.7-.6,1.4-.4,2.1-.2.4-.2.7,0,1.1v.9s0,0,0,.1c.2,1,.7,1.9,1.2,2.7,0,0,0,.1.1.2h0s0,0,0,0c0,0,0,0,0,0,.5.5,1,1,1.6,1.5,0,0,0,0,.1,0,.4.2.8.5,1.3.7,0,0,.2.1.3.2.7.2,1.3.4,2,.6.5.2.9.2,1.4,0,1-.2,1.9-.4,2.8-.9,0,0,.1,0,.2-.1h0c.1,0,.2-.2.3-.2.5-.5,1.1-1,1.6-1.6,0,0,.1-.2.2-.3.3-.5.6-1,.8-1.5,0,0,0,0,0,0,.1-.3.2-.7.3-1,0,0,0,0,0-.1,0-.1,0-.2,0-.4,0,0,0,0,.1,0,.2,0,.4,0,.6,0,0,.4-.2.7-.3,1.1,0,0,0,.1,0,.2,0,.1,0,.2-.1.4,0,0,0,.1,0,.2-.5,1.2-1.1,2.2-2.1,3,0,0,0,0,0,0-.2.2-.4.4-.6.6,0,0,0,0-.1.1-.4.4-.9.7-1.3,1.1,0,0,0,0-.1.1-.9.5-1.8,1-2.8,1.5-.5.2-1,.3-1.6.4-.1,0-.3,0-.4.1-.3,0-.6,0-.9,0-.5,0-1.1,0-1.6.1-.6,0-1.2,0-1.7-.2-3.8-1.2-6.4-3.7-7.9-7.4.3-.7.2-1.2-.5-1.4,0-.5-.1-1.1-.2-1.6,0,0,0,0,0,0,0,0,0,0,0-.1,0-.1,0-.2,0-.3,0,0,0-.1,0-.2,0-.1,0-.2,0-.3,0,0,0-.1,0-.2,0-.5.2-.9.3-1.4.3-.9.4-1.8,1-2.7,0,0,0-.2.1-.2,0-.5.4-.7.6-1,.1,0,.3,0,.4-.1,0,0,0-.2-.1-.3,0,0,0-.1.1-.2,0,0,0-.1.1-.2.2-.2.4-.5.6-.7,0,0,0,0,0,0,0,0,.2-.2.2-.3,0,0,0,0,.1-.1,1.4-1.5,3.3-2.2,5.3-2.5,0,0,.1,0,.2,0,.2,0,.5,0,.7,0,.3,0,.6,0,.9,0,.2,0,.4,0,.7,0,0,0,.2,0,.2,0,.2,0,.3,0,.5,0,.1,0,.3,0,.4,0Z"/><path class="cls-12" d="m49.3,75.3c0-2.2.9-4.2,2.2-5.9.8-1.1,2-1.8,3.3-1.8,1.1,0,2.3.1,3.4.7.6.4,1.2.9,1.5,1.6.7,1.3,1.3,2.7,1.5,4.2.1.6,0,1.2,0,1.9,0,.5,0,1-.1,1.6,0,0,0,.1,0,.2-.3.7-.6,1.5-.9,2.2,0,.2-.1.3-.2.5-.7,1.2-1.6,2.2-2.8,2.8-.6.3-1.2.4-1.9.3-.2,0-.5,0-.7-.1-.7,0-1.3-.4-1.8-.8-1.5-1.1-2.4-2.7-3-4.5-.3-.8-.3-1.6-.4-2.5,0,0,0-.1,0-.2Zm10.5,4h0c0,0,0,0,0,0,0,0,0-.1.1-.2.2-.6.4-1.1.6-1.7,0-.2,0-.4.1-.6,0-.9-.1-1.7-.2-2.6,0-.4-.2-.7-.3-1.1-.6-1.1-1.5-1.7-2.5-2.2-1.1-.5-2.1-.5-3.1.3-.3.3-.6.7-.8,1.1h0s0,0,0,0c-.2.3-.3.6-.5.9,0,0,0,.1-.1.2-.4.9-.7,1.8-.6,2.8,0,.3,0,.6.1.9,0,1,.5,1.9,1,2.7.5.8,1.2,1.4,2.1,1.5h1.1c.2,0,.4,0,.5,0,.8-.3,1.5-.7,2-1.3.2-.2.3-.5.5-.7h0Z"/><path class="cls-11" d="m84.1,80.6c.6.2.8.7.5,1.4-.2-.5-.3-1-.5-1.4Z"/><path class="cls-16" d="m94.1,89.6c.5,0,1.1,0,1.6-.1-.5.3-1.1,0-1.6.1Z"/><path class="cls-11" d="m105.6,80.4c.2,0,.3-.1.5-.2,0,0,0,0,0,0h0c0,.1,0,.2,0,.3-.2,0-.4,0-.6,0,0,0,0-.1,0-.2Z"/><path class="cls-5" d="m94.6,67.9c-.3,0-.6,0-.9,0,.3,0,.6,0,.9,0Z"/><path class="cls-11" d="m86.3,72.1c0,0,0,.2.1.3-.1,0-.3,0-.4.1,0-.1.2-.3.3-.4Z"/><path class="cls-16" d="m54.5,83.2c.2,0,.5,0,.7.1-.2,0-.5,0-.7-.1Z"/><path class="cls-10" d="m96.6,89.4c.1,0,.3,0,.4-.1-.1,0-.3,0-.4.1Z"/><path class="cls-6" d="m96.4,68c-.1,0-.3,0-.4,0,.1,0,.3,0,.4,0Z"/><path class="cls-2" d="m84,77.8c0,0,0,.1,0,.2,0,0,0-.1,0-.2Z"/><path class="cls-1" d="m106.2,80.3h0s0,0,0,0c0,0,.1-.1.2-.2,0,0,0,.1,0,.2Z"/><path class="cls-3" d="m61,77.6c0,0,0-.1,0-.2,0,0,0,.1,0,.2Z"/><path class="cls-15" d="m49.3,75.3c0,0,0,.1,0,.2,0,0,0-.1,0-.2Z"/><path class="cls-17" d="m85.4,73.4c0,0,0,.2-.1.2,0,0,0-.2.1-.2Z"/><path class="cls-3" d="m105.8,81.8c0,0,0-.1,0-.2,0,0,0,.1,0,.2Z"/><path class="cls-3" d="m105.6,82.4c0,0,0-.1,0-.2,0,0,0,.1,0,.2Z"/><path class="cls-2" d="m83.9,78.8s0,0,0,.1c0,0,0,0,0,0,0,0,0,0,0-.1,0,0,0,0,0,0Z"/><polygon class="cls-3" points="103.5 85.4 103.5 85.4 103.5 85.4 103.5 85.4"/><path class="cls-17" d="m86.5,71.7c0,0,0,.1-.1.2,0,0,0-.1.1-.2Z"/><path class="cls-13" d="m103,71.2s0,0,0-.1c0,0,0,0,0,.1Z"/><path class="cls-3" d="m102.8,86.2s0,0,.1-.1c0,0,0,0-.1.1Z"/><path class="cls-8" d="m87.2,71s0,0,0,0c0,0,0,0,0,0Z"/><path class="cls-16" d="m101.4,87.4s0,0,.1-.1c0,0,0,0-.1.1Z"/><path class="cls-11" d="m87.6,70.5s0,0-.1.1c0,0,0,0,.1-.1Z"/><path class="cls-6" d="m95.6,67.9c0,0-.2,0-.2,0,0,0,.2,0,.2,0Z"/><path class="cls-5" d="m93.1,68c0,0-.1,0-.2,0,0,0,.1,0,.2,0Z"/><path class="cls-2" d="m83.9,78.3c0,0,0,.1,0,.2,0,0,0-.1,0-.2Z"/><path class="cls-18" d="m97.2,69.3c1.6,1.1,2.4,2.6,2.8,4.4,0,.4.2.8.3,1.3,0,.5,0,1.1,0,1.6,0,.1,0,.2,0,.4,0,0,0,0,0,0h0c-.1.4-.2.7-.3,1,0,0,0,0,0,0h0c-.3.6-.6,1.1-.8,1.6,0,0-.1.2-.2.3-.5.5-1.1,1-1.6,1.6-.1,0-.2.1-.3.2,0,0,0,0,0,0,0,0-.1,0-.2.1-.9.5-1.8.7-2.8.9-.5,0-.9,0-1.4,0-.7-.2-1.3-.4-2-.6,0,0-.2-.1-.3-.2-.4-.2-.8-.5-1.3-.7,0,0,0,0-.1,0-.5-.5-1-1-1.6-1.5,0,0,0,0,0,0h0s0,0,0,0c0,0,0,0,0,0,0,0,0-.1-.1-.2-.5-.9-1-1.7-1.2-2.7,0,0,0,0,0,0h0c0-.3,0-.6,0-.9,0-.4,0-.7,0-1.1-.2-.8.3-1.4.4-2.1,0,0,0,0,0,0h0c.4-.9.8-1.8,1.5-2.5,0,0,.1-.2.2-.3.4-.3.8-.6,1.2-.9,0,0,.1-.1.2-.2,0,0,0,0,0,0,.1,0,.2-.1.4-.2.2-.3.6-.4.9-.3.2,0,.3,0,.5-.1,0,0,.1,0,.2,0,.4,0,.8-.1,1.3-.2.5.1,1.1.3,1.6.3.8,0,1.5.3,2.1.8.2.1.5.2.7.3h.3Z"/><path class="cls-14" d="m97.6,86.8c.5,0,.9,0,1.4,0-.5.3-.9.2-1.4,0Z"/><path class="cls-20" d="m96.2,72c-.2,0-.3,0-.5.1.2,0,.3,0,.5-.1Z"/><path class="cls-3" d="m102.4,73.3h-.3c.1,0,.2,0,.3,0Z"/><path class="cls-3" d="m104,84c0,0,.1-.2.2-.3,0,0-.1.2-.2.3Z"/><path class="cls-3" d="m102.1,85.7c.1,0,.2-.1.3-.2-.1,0-.2.1-.3.2Z"/><path class="cls-4" d="m95.3,86.1c0,0,.2.1.3.2,0,0-.2-.1-.3-.2Z"/><path class="cls-20" d="m94.8,72.4c-.1,0-.2.1-.4.2.1,0,.2-.1.4-.2Z"/><path class="cls-4" d="m92.2,83.4c0,0,0,.1.1.2,0,0,0-.1-.1-.2Z"/><path class="cls-3" d="m105.4,81.1h0c0,0,0-.1,0-.1,0,0,0,0,0,.1Z"/><path class="cls-3" d="m105.1,82.1h0c0,0,0,0,0,0,0,0,0,0,0,0Z"/><path class="cls-20" d="m94.5,72.6c0,0-.1.1-.2.2,0,0,.1-.1.2-.2Z"/><path class="cls-4" d="m92.3,83.7h0s0,0,0,0c0,0,0,0,0,0Z"/><path class="cls-4" d="m93.9,85.3s0,0,.1,0c0,0-.1,0-.1,0Z"/><path class="cls-3" d="m101.9,85.9c0,0,.1,0,.2-.1,0,0-.1,0-.2.1Z"/><path class="cls-18" d="m57.2,76.6c-.2.2-.3.5-.5.7-.5.7-1.2,1.1-2,1.3-.2,0-.3,0-.5,0-.4,0-.7,0-1.1,0-1-.1-1.6-.7-2.1-1.5-.5-.9-1-1.7-1-2.7,0-.3,0-.6-.1-.9-.1-1,.2-1.9.6-2.8,0,0,0-.1.1-.2.2-.3.3-.6.5-.9,0,0,0,0,0,0,.3-.4.5-.8.8-1.1,1-.8,2-.8,3.1-.3,1.1.5,2,1.2,2.5,2.2.2.3.3.7.3,1.1.1.9.1,1.7.2,2.6,0,.2,0,.4-.1.6-.2.6-.4,1.1-.6,1.7,0,0,0,.1-.1.2h0s0,0,0,0c0,0,0,0,0,0h0Z"/><path class="cls-3" d="m59.8,79.2c0,0,0-.1.1-.2,0,0,0,.1-.1.2Z"/><polygon class="cls-3" points="59.7 79.3 59.7 79.3 59.8 79.3 59.7 79.3"/><path class="cls-19" d="m53,73.2c0,0,0,.1-.1.2,0,0,0-.1.1-.2Z"/><path class="cls-20" d="m53.6,72.2s0,0,0,0c0,0,0,0,0,0h0Z"/></svg>