<?xml version="1.0" encoding="UTF-8"?><svg id="Layer_1" xmlns="http://www.w3.org/2000/svg" viewBox="0 0 164 164"><defs><style>.cls-1{fill:#f8b5b5;}.cls-2{fill:#ed3325;}.cls-3{fill:#fff;}.cls-4{fill:#b393c4;}.cls-5{fill:#231e21;}</style></defs><path class="cls-4" d="m154,95.5h0c-1.2-2-2.8-3.9-4.6-5.7-7.3-7.3-18.3-7.7-26.1-1.1-.3.2-.5.4-.8.7.7-1.1,1.4-2.4,2-3.7.7-1.5,1.2-3,1.8-5,.3-.9,1.8-5.5,5.4-6.4,3-.7,4.9,2.2,5.1,2.5.9,1.6,2.5,2.7,4.2,3.1,1.7.4,3.5,0,4.9-1,2.9-2,3.7-6,1.9-9.1-2.5-4.4-9.4-11.1-19.2-8.6-10.2,2.5-13.8,12.5-14.7,15.5-.4,1.3-.7,2.3-1.1,3.2-1.2,2.6-3.2,5.5-5.2,5.7-.4,0-.8,0-1.4,0,0,0-.1,0-.2,0-.4,0-1.6-.8-1.8-2-.1-.8.3-1.6.9-2.2,2-2.1,3.9-5,5.5-8.6,3.2-7.1,4.6-15.3,4.1-23.7-1.2-20-17.2-35.3-35.6-34.2l-6.2.4c-18.4,1.1-32.4,18.3-31.2,38.3.5,8.4,2.9,16.4,6.9,23,2.1,3.4,4.3,6,6.5,7.9.7.6,1.2,1.3,1.2,2.1,0,1.3-1.1,2-1.5,2.2,0,0,0,0-.1,0h-.2c-.4.1-.9.2-1.3.2-2,0-4.4-2.6-5.9-5-.5-.8-1-1.8-1.5-3-1.2-2.9-6.1-12.3-16.5-13.6-10-1.2-16,6.3-18,10.9-1.4,3.3,0,7.2,3,8.8,1.6.8,3.4,1,5,.4,1.7-.6,3.1-1.9,3.8-3.5.2-.4,1.7-3.5,4.8-3.2,3.7.5,5.7,4.8,6.1,5.7.8,1.9,1.6,3.4,2.4,4.7.8,1.3,1.6,2.4,2.4,3.5-.3-.2-.6-.4-.8-.6-8.6-5.6-19.4-3.8-25.8,4.3-1.6,2-2.8,4.1-3.8,6.2-1.5,3.3-.3,7.1,2.8,8.9,1.5.9,3.4,1,5,.5,1.7-.5,3.1-1.8,3.9-3.5.5-1.2,1.3-2.4,2.2-3.5,2.2-2.8,5.9-3.4,8.9-1.5,1.5,1,3.1,2.1,4.9,3.5,4.3,3.3,9.6,5,14.9,4.6,2.3-.1,4.5-.6,6.6-1.4-.2.3-.4.6-.6.9-3.4,5.3-9.2,8.1-15.2,7.3-.6,0-1.3-.2-2-.3-11.7-1.4-22.4,7.1-24.4,19.3v.3c-.6,3.6,1.7,7,5.2,7.7.5.1,1.1.1,1.6.1,3-.2,5.5-2.5,6-5.6v-.2c.9-5.2,5.4-8.9,10.3-8.3.6,0,1.2.2,1.8.2,9.6,1.3,18.8-3,27.3-12.8,3.2-3.7,5.8-11.1,6.1-11.9,1-2.8,4.4-6.5,8-6.7,5.1-.3,8.3,5.4,8.4,5.6.3.8,3.5,7.7,7.6,11.2,10,8.7,19.3,11.8,28.6,9.3.6-.2,1.2-.3,1.8-.4,4.8-1.2,9.7,1.9,11.2,6.9v.2c.9,3,3.6,5,6.7,4.8.5,0,1.1-.1,1.6-.3,3.4-1.1,5.2-4.8,4.2-8.3v-.3c-3.6-11.9-15.3-19-26.7-16.1-.7.2-1.3.3-1.9.5-5.9,1.5-12-.5-16-5.4-.2-.3-.5-.6-.7-.9,2.2.5,4.4.8,6.7.6,5.3-.3,10.3-2.6,14.2-6.4,1.6-1.5,3-2.9,4.4-4,2.7-2.3,6.4-2.2,9,.4,1,1,1.9,2.1,2.6,3.2,1,1.6,2.5,2.6,4.3,3,1.7.3,3.5,0,4.9-1.1,2.8-2.1,3.6-6.1,1.7-9.1"/><path class="cls-3" d="m74.1,60.1c.3.1,1,.2,2.1.3.8,0,1.6.1,2.4.1-.7,0-1.5,0-2.2-.1-1.1-.1-1.8-.2-2.1-.3-.5-.2-.2-1.4,1-3.3.4-.5,1.1-1.4,1.2-1.7.5-.9.9-1.1,1.2-1.1,0,0,0,0-.1,0-.3,0-.7.1-1.3,1.1-.1.2-.9,1.1-1.2,1.7-1.2,1.9-1.5,3-1,3.3"/><path class="cls-3" d="m52.5,39.5c.5,0,.9,0,.9,0,.2,0,.3,0,.4,0,0,0-.2,0-.2,0,0,0-.5,0-1.1,0"/><path class="cls-3" d="m77.9,66.8s0,0,0,0c-.2,0-.3,0-.5,0,.2,0,.3,0,.5,0"/><path class="cls-3" d="m81.9,66.6h0c.2,0,.3,0,.5,0,0,0,0,0,0,0-.2,0-.5,0-.7,0,0,0,0,0,0,0h.2Z"/><path class="cls-3" d="m86.3,66h0c0,0,.1,0,.1,0,.7-.3,1.3-.4,1.9-.4-.6,0-1.3,0-2.1.4,0,0,0,0-.1,0h.2s0,0,0,0"/><path class="cls-3" d="m82.6,66.6h0s3.8-.6,3.8-.6c0,0,0,0,0,0h-.2s-3.8.6-3.8.6c0,0,0,0,0,0s0,0,0,0c0,0,.1,0,.2,0"/><path class="cls-3" d="m78.1,66.8s0,0,0,0h3.6c0-.1,0-.1,0-.1h0s-3.8.1-3.8.1c0,0,0,0,0,0,0,0,0,0,0,0,0,0,.1,0,.2,0"/><path class="cls-3" d="m49.1,51c.1-2.3,1.3-3.8,2.6-5.2,2-2,4.1-3.1,6.5-3.1-2.5,0-4.7,1-6.7,3.1-1.3,1.3-2.5,2.8-2.6,5.2-.4,4.9.5,8.1,4.4,10.3,2.1,1.2,3.9,1.7,5.6,1.6-1.6,0-3.4-.5-5.4-1.6-3.9-2.2-4.9-5.4-4.4-10.3"/><path class="cls-3" d="m86.6,54.4c-.9-3.5.7-6.5,2.8-8.6,1.9-1.9,3.5-3,5.8-3.1-2.4,0-4.1,1.1-6,3.1-2.1,2.1-3.7,5.1-2.8,8.6.7,2.6,1.9,5.4,4.6,6.9,1.7.9,3.2,1.3,4.7,1.3-1.4,0-2.9-.4-4.5-1.3-2.7-1.5-3.9-4.3-4.6-6.9"/><path class="cls-1" d="m76.5,55.2c-.1.2-.9,1.1-1.2,1.7-1.2,1.9-1.5,3-1,3.3.3.1,1,.2,2.1.3.7,0,1.5.1,2.2.1,1.3,0,2.4-.2,2.6-.6.1-.4-.5-1.1-.8-2-1.1-2.7-1.8-3.9-2.5-3.9,0,0,0,0-.1,0-.3,0-.7.2-1.2,1.1"/><path class="cls-5" d="m49.1,41.8c0-.4.3-.9.6-1.2.7-.7,1.6-1.1,2.4-1.1.1,0,.2,0,.4,0,.6,0,1.1,0,1.1,0,0,0,.2,0,.2,0,.3,0,.6,0,.6-.4,0-.4-.3-.8-.7-.9-.5-.1-1.1-.2-1.8-.2-1.1,0-2.2.3-3.2,1.2-.4.4-.5.8-.8,1.5-.1.4-.2,1.2.2,1.3,0,0,.1,0,.2,0,.2,0,.5,0,.6-.4"/><path class="cls-5" d="m103.6,38.5c-.7-.3-1.2-.4-1.8-.4-.5,0-1,.1-1.7.4-.4.1-.7.4-.5.8,0,.2.2.4.4.4,0,0,0,0,.1,0,.2,0,.4,0,.6,0,.4-.1.7-.2,1-.2,0,0,0,0,.1,0,1.6,0,2.6,1.1,3,1.8.2.3.2.6.2.6,0,.3,0,.5.4.6,0,0,0,0,0,0,.2,0,.3,0,.4-.2.4-.3.2-1.1,0-1.5-.3-.7-.6-1.1-1.5-1.8-.2-.1-.5-.4-.7-.4"/><path class="cls-3" d="m70.3,73.8c-1.2-.6-2.5-1.4-3.2-2.6-.3-.4-.6-.8-.9-1.3-1.1-1.8-.8-4.3,1.1-4.4-2-.1-2.4,2.5-1.3,4.4.3.5.6.8.9,1.3.8,1.2,2.1,2,3.2,2.6,1.3.6,3.1,1.5,4.6,1.8.6,0,.9.1,1.2.1-.3,0-.6,0-1-.1-1.5-.3-3.4-1.2-4.6-1.8"/><path class="cls-3" d="m77.2,75.7c0,0,.1,0,.2,0,.3,0,.5,0,.8,0-.2,0-.4,0-.6,0-.2,0-.3,0-.4,0"/><path class="cls-2" d="m88.3,65.5c-.5,0-1.2.1-1.9.4,0,0,0,0-.1,0h.2s.7.9.6,2c-.1,1.1-.2,1.3-.5,1.7-.8.8-2,.9-2.8.4-.3-.2-.6-.9-.8-1.3-.4-1.1-.5-2.1-.5-2.2,0,0-.1,0-.2,0-.2,0-.3,0-.5,0,0,0,.2.7.3,2.3,0,.5-.1.8-.3,1.1-.8,1.4-2.6.8-2.6.8,0,0-1.7-.2-1.4-2.3,0-.4.1-.8.1-1,0-.5,0-.7.1-.7,0,0-.1,0-.2,0-.2,0-.3,0-.5,0-1,0-1.9,0-3.1-.2-.7,0-1.3-.1-1.8-.2,0,0,0,0,0,0,0,0,.3.7,0,2.3-.3,1.8-3.5,2.1-4.1.3-.2-.8.1-1.4.1-2.1s0-.9.2-1c-.3,0-.6,0-.9-.2-.2,0-.4,0-.6,0-1.8,0-2.2,2.6-1.1,4.4.3.5.6.8.9,1.3.8,1.2,2.1,2,3.2,2.6,1.3.6,3.1,1.5,4.6,1.8.4,0,.8,0,1,.1.4,0,.8,0,1.2,0,.1,0,.3,0,.4,0,.2,0,.4,0,.6,0,3.9,0,8.5-1.6,9.9-3.2,1.1-1.2,1.1-1.4,1.5-1.8.5-.6.8-1.7.9-2.9,0-1.4-.8-2.3-2.2-2.3"/><path class="cls-3" d="m82.6,66.5h0c0,.1,0,1.1.5,2.2.2.5.4,1.1.8,1.3.8.4,1.9.4,2.8-.4.4-.4.4-.5.5-1.7.1-1.1-.6-2-.6-2h-.2s0,0,0,0l-3.8.6Z"/><path class="cls-3" d="m68.6,66.8c0,.7-.4,1.3-.1,2.1.6,1.9,3.7,1.6,4.1-.3.3-1.5,0-2.3,0-2.3,0,0,0,0,0,0-.4,0-3.4-.6-3.7-.6-.1.1-.2.5-.2,1"/><path class="cls-3" d="m81.7,66.6h-3.6c0,.1,0,.1,0,.1,0,0,0,.2-.1.7,0,.2,0,.6-.1,1-.3,2.1,1.4,2.3,1.4,2.3,0,0,1.9.6,2.6-.8.2-.3.3-.6.3-1.1-.1-1.5-.3-2.3-.3-2.3h0s-.2,0-.2,0Z"/><path class="cls-3" d="m53.1,58c-3.4-2.4-4.3-7-1.9-10.3,2.4-3.4,6.4-4.3,9.8-1.9,2.5,1.8,3.3,4.1,3.1,6.9,0,1.3-.4,2.2-1.3,3.1-2.7,3.1-6.4,4.6-9.8,2.2m12.5,1.9c1.4-1.2,1.9-2,2.2-3.2,1.3-4.4,1.1-8.1-2.1-10.7-2.5-2-2.7-2.8-6.7-3.2-.2,0-.5,0-.7,0-2.4,0-4.5,1.1-6.5,3.1-1.3,1.3-2.5,2.8-2.6,5.2-.4,4.9.5,8.1,4.4,10.3,2,1.1,3.7,1.6,5.4,1.6,2.2,0,4.3-1,6.6-3"/><path class="cls-3" d="m93.6,59.1c-3-.3-4.6-2.2-5.4-5.1-1.1-3.9.9-7.6,4.4-9,.9-.4,2.9-.3,4.2.2,2.7,1,4.3,1.9,5.1,4.8.4,1.5.6,2.6,0,4.2-.9,2.2-2.2,4.1-4.7,4.5-1.3.2-2.5.4-3.5.3m5.3-15.8c-1.4-.4-2.6-.6-3.7-.6-2.3,0-3.9,1.2-5.8,3.1-2.1,2.1-3.7,5.1-2.8,8.6.7,2.6,1.9,5.4,4.6,6.9,1.6.9,3.1,1.2,4.5,1.3,1.9,0,3.8-.5,5.8-1.3,1.8-.6,2.5-1.8,3.2-2.8,3.3-4.7,2.4-8.6-.3-11.6-1.3-1.5-2-2.6-5.6-3.6"/><path class="cls-5" d="m101.8,54.3c.6-1.6.4-2.8,0-4.2-.9-3-2.4-3.8-5.1-4.8-1.3-.5-3.3-.6-4.2-.2-3.4,1.4-5.5,5-4.4,9,.9,3,2.5,4.8,5.4,5.1,1,.1,2.2-.1,3.5-.3,2.6-.4,3.9-2.3,4.7-4.5"/><path class="cls-5" d="m62.9,55.8c.8-1,1.2-1.8,1.3-3.1.2-2.8-.6-5.1-3.1-6.9-3.4-2.4-7.4-1.5-9.8,1.9-2.4,3.4-1.5,8,1.9,10.3,3.4,2.4,7.1.9,9.8-2.2"/></svg>