<?xml version="1.0" encoding="utf-8"?>
<!-- Generator: Adobe Illustrator 27.4.0, SVG Export Plug-In . SVG Version: 6.00 Build 0)  -->
<svg version="1.1" id="Layer_1" xmlns="http://www.w3.org/2000/svg" xmlns:xlink="http://www.w3.org/1999/xlink" x="0px" y="0px"
	 viewBox="0 0 400 400" style="enable-background:new 0 0 400 400;" xml:space="preserve">
<style type="text/css">
	.st0{fill:#FFFFFF;}
	.st1{fill:#F7BDBE;}
	.st2{fill:#EE4994;}
	.st3{fill:#231F20;}
	.st4{fill:#EE4994;stroke:#EE4994;stroke-width:2;stroke-linecap:round;stroke-linejoin:round;stroke-miterlimit:10;}
	.st5{fill:#C090C1;}
</style>
<path class="st0" d="M199.84,174.7"/>
<path class="st0" d="M206.49,175.3"/>
<path class="st1" d="M279.56,144.48c3.58,20.03-24.51,44.48-24.51,44.48s-31,9.81-49.93-8.19c0,0,6.8-62.79,32.27-82.17
	s37.05-27.67,53.95-16.54s60.66,91.48,25.23,79.9c0,0,0.9,13.94-62.41-37.06"/>
<path class="st2" d="M247.77,188.28c0,0-19.19-8.41-27.78-9.17c0.68-19.73,1.21-27.24,5.14-40.42c16.79-31.65,33.9-8.37,41.42-3.34
	C278.95,143.67,259.32,168.02,247.77,188.28z"/>
<path class="st1" d="M294.86,304.91c0.89,3.43,2.34,7.12,4.64,9.47c1.18,1.2,0.66,3.19-0.97,3.58c-4,0.95-9.87,1.81-13.9,0.46
	c-0.93-0.31-1.96,0.1-2.42,0.96c-12.49,23.31-59.4,16.14-102.23,8.43c-38.62-6.95-55.49-7.23-81.78-35.13
	c-0.53-0.57-1.34-0.85-2.09-0.64c-6.96,1.91-26.8-4.37-20.61-7.65c3.73-1.96,6.9-4.48,9.53-7.47c0.93-1.06,0.51-2.7-0.78-3.29
	c-5.94-2.72-15.6-11.81-11.4-13.34c16.52-5.99,23.74-22.74,31.12-37.33c6.65-13.16,13.45-26.51,25.94-34.54
	c53.57-34.43,123.18-4.52,145.14,18.1c11.3,11.65,17.73,31.98,18.54,47.78c0.41,7.98,1.06,16.28,5.01,23.38
	c4.01,7.19,10.69,12.19,17.63,16.32c5.21,3.09-11.46,8.29-19.34,8.29C295.5,302.28,294.51,303.58,294.86,304.91z"/>
<g>
	<path class="st0" d="M147.62,262.51c0.83,0.69,1.7,1.32,2.59,1.91c9.34,6.1,21.86,6.54,30.52,0.55c2.28-1.59,4.3-3.62,5.92-6.11
		c11.22-17.31,7.31-28.34-3.65-39.04c-3.24-3.16-6.14-5.66-13.08-6.14c-12.2-0.86-24.39,2.91-29.69,15.55
		C134.33,243.37,135.85,252.74,147.62,262.51z"/>
</g>
<path class="st3" d="M146.16,245.67c-1.49,5.85-1.35,11.6,0.1,16.43c8.57,7.14,20.97,9.01,30.26,4.06
	c2.37-3.16,4.26-7.03,5.37-11.38c3.43-13.44-1.8-26.38-11.66-28.9C160.37,223.37,149.59,232.23,146.16,245.67z"/>
<g>
	<path class="st0" d="M238.56,277.63c-0.98,0.45-1.99,0.82-3.01,1.16c-10.62,3.41-22.82,0.5-29.57-7.57
		c-1.78-2.14-3.19-4.63-4.09-7.46c-6.22-19.67,0.47-29.26,13.88-36.67c3.96-2.19,7.43-3.83,14.24-2.44
		c11.99,2.41,22.75,9.29,24.5,22.88C256.46,262.7,252.5,271.34,238.56,277.63z"/>
</g>
<path class="st3" d="M244.43,261.79c-0.12,6.04-1.78,11.54-4.46,15.82c-10.16,4.6-22.61,3.13-30.25-4.12
	c-1.45-3.68-2.24-7.91-2.15-12.4c0.26-13.87,8.73-24.96,18.91-24.77C236.66,236.51,244.7,247.92,244.43,261.79z"/>
<path class="st0" d="M200.68,174.63"/>
<path class="st0" d="M207.3,175.52"/>
<path d="M190.8,277.23c0,0-16.52-12.41-8.33-14.87c8.2-2.45,16.39,0.89,19.15,1.87C204.37,265.21,208.17,272.04,190.8,277.23z"/>
<path class="st4" d="M163.13,295.9c5.26,6.04,15.91,10.07,28.65,12.13c0,0,13.66,1.5,21.76-5.04c1.51-1.22,4.33-3.45,6.01-6.23
	c0.84-1.38,1.18-2.47,1.19-3.39c0.01-1.23-0.57-2.16-1.51-3.06c-1.18-1.13-1.95-0.89-5.03-1.85c-2.26-0.7-4.94-1.83-9.31-2.64
	c0.06,0.72,0.37,6-2.24,10.29c-2.2,3.61-9.29,2.44-12.65,0.63c-0.68-0.37-1.21-1.05-1.65-1.94c-0.66-1.33-0.8-2.31-1.03-3.68
	c-0.71-4.26,1.31-8.42,1.51-8.83c-1.28-0.28-1.63-0.28-2.28-0.47c0,1.75-0.49,6.67-3.46,9.77c-4.41,4.61-9.71,1.88-12.68-1.45
	c-1.81-2.02-1.93-4.24-1.27-6.8c0.34-1.3,0.42-1.89,0.96-3.42c0.52-1.49,0.98-1.94,1.13-2.06c-4.66-0.93-8.06-1.35-9.08-1.31
	c-3.52,0.13-5.3,3.29-5.12,6.83c0.07,1.52,0.5,3.12,1.32,4.57C159.22,289.55,161.58,294.12,163.13,295.9z"/>
<path class="st0" d="M170.92,278.62c-0.52,1.46-1.19,6.42-1.52,7.66c-0.64,2.44-0.49,4.55,1.33,6.49c3,3.2,8.31,5.86,12.67,1.5
	c2.93-2.93,3.98-12.02,3.96-13.69c0-0.01,0-0.01,0-0.02c-2.28-0.71-4.5-1.33-6.5-1.86c-0.03-0.01-0.06-0.02-0.09-0.02
	c-5.01-1.32-8.68-2.06-8.68-2.06s-0.02,0.01-0.06,0.04C171.87,276.78,171.42,277.21,170.92,278.62z"/>
<path class="st0" d="M187.61,293.87c0.24,1.3,0.39,2.25,1.06,3.52c0.45,0.85,0.98,1.5,1.67,1.86c3.37,1.76,10.46,2.94,12.62-0.48
	c2.57-4.07,2.8-13.51,2.73-14.19c0-0.05-0.01-0.09-0.01-0.09s-2.05-0.42-6.13-1.34c-4.08-0.92-9.9-2.12-9.9-2.12
	s-0.01,0.02-0.02,0.04C189.43,281.46,186.86,289.8,187.61,293.87z"/>
<path class="st1" d="M161.43,189.18c0,0-24.6-34.21-12.16-76.07s23.13-79.56,36.68-77.09c29.46,5.37,41.88,105.96,21.38,143.01
	S161.43,189.18,161.43,189.18z"/>
<path class="st2" d="M168.62,179.58c0,0,20.62-3.72,29.15-2.46c12.81-63.14-5.57-97.11-14.31-97.16
	C177.83,79.93,149.27,113.1,168.62,179.58z"/>
<circle class="st1" cx="132.18" cy="265.68" r="21.33"/>
<circle class="st1" cx="248.19" cy="284.69" r="20.45"/>
<g>
	<g>
		<path class="st0" d="M133.11,268.54c-1.27-0.41-2.03-0.9-2.49-2.27c-0.22-0.67-0.34-1.2-0.09-1.97c0.21-0.64,0.5-1.23,0.97-1.66
			c-0.11-0.02-0.21-0.04-0.32-0.06c-0.08,0.06-0.16,0.11-0.23,0.18c-0.46,0.42-0.75,1.02-0.97,1.66c-0.26,0.77-0.14,1.31,0.09,1.97
			c0.46,1.37,1.22,1.86,2.49,2.27c0.52,0.17,1.18,0.09,1.64-0.06C133.84,268.65,133.45,268.65,133.11,268.54z"/>
		<path class="st0" d="M138.71,275.08c-0.73-1.76-0.05-3.64,1.67-4.39c0.15-0.07,0.31-0.11,0.46-0.16
			c-0.33,0.05-0.67,0.14-1.01,0.28c-1.72,0.75-2.4,2.64-1.67,4.39c0.67,1.62,2.22,2.25,3.8,1.76
			C140.58,277.17,139.3,276.51,138.71,275.08z"/>
		<path class="st0" d="M123.34,279.3c-1.12-2.3-0.58-3.74,0.99-4.78c0.23-0.16,0.5-0.27,0.77-0.36c-0.48,0.07-0.94,0.23-1.32,0.48
			c-1.56,1.04-2.11,2.48-0.99,4.78c0.76,1.57,2.54,1.86,4.18,1.4C125.5,281.08,124.02,280.69,123.34,279.3z"/>
		<path class="st5" d="M132.6,262.08c-0.45,0.1-0.8,0.3-1.09,0.57c-0.46,0.42-0.75,1.02-0.97,1.66c-0.26,0.77-0.14,1.31,0.09,1.97
			c0.46,1.37,1.22,1.86,2.49,2.27c0.33,0.11,0.73,0.11,1.09,0.06c0.31-0.04,0.6-0.12,0.79-0.21c1.54-0.74,2.4-2.48,1.79-4.29
			c-0.05-0.15-0.11-0.28-0.17-0.42c-0.03-0.07-0.06-0.15-0.09-0.22C135.83,262.12,134.59,261.63,132.6,262.08z"/>
		<path class="st5" d="M140.84,270.53c-0.15,0.05-0.31,0.09-0.46,0.16c-1.72,0.75-2.4,2.64-1.67,4.39c0.59,1.43,1.87,2.09,3.25,1.89
			c0.32-0.05,0.64-0.12,0.96-0.26c1.72-0.75,2.48-2.76,1.75-4.52C144,270.59,142.42,270.05,140.84,270.53z"/>
		<path class="st5" d="M125.1,274.16c-0.28,0.09-0.54,0.2-0.77,0.36c-1.56,1.04-2.11,2.48-0.99,4.78c0.68,1.4,2.16,1.78,3.63,1.52
			c0.33-0.06,0.66-0.14,0.99-0.26c0.96-0.36,1.12-0.81,1.44-1.9c0.19-0.65,0.11-1.91-0.02-2.37
			C128.82,274.32,126.69,273.67,125.1,274.16z"/>
	</g>
	<g>
		<path class="st0" d="M234.13,289.41c-0.26-0.89-0.29-1.6-0.11-2.24c0.31-1.09,0.73-1.38,1.45-1.66c0.21-0.08,0.43-0.15,0.64-0.22
			c-0.41,0.07-0.82,0.19-1.2,0.34c-0.72,0.29-1.14,0.58-1.45,1.66c-0.18,0.63-0.15,1.35,0.11,2.24c0.55,1.89,2.63,2.52,4.2,2.07
			C236.3,291.78,234.62,291.08,234.13,289.41z"/>
		<path class="st0" d="M248.41,296.94c-0.35-1.84,0.7-3.4,2.31-3.95c-0.17,0.02-0.33,0.04-0.45,0.08c-1.67,0.51-2.78,2.1-2.42,3.99
			c0.36,1.89,1.56,2.78,3.95,2.62c0.23-0.02,0.44-0.07,0.64-0.14c-0.03,0-0.05,0.01-0.08,0.01
			C249.97,299.72,248.77,298.82,248.41,296.94z"/>
		<path class="st0" d="M246.34,285.3c-2.01-0.87-2.17-1.64-1.86-3.38c0.11-0.63,0.46-1.24,0.96-1.72c-0.12-0.02-0.24-0.04-0.36-0.06
			c-0.07,0.06-0.14,0.12-0.2,0.18c-0.5,0.48-0.85,1.09-0.96,1.72c-0.31,1.75-0.14,2.52,1.86,3.38c0.89,0.38,1.57,0.46,2.27,0.22
			C247.54,285.7,247,285.58,246.34,285.3z"/>
		<path class="st5" d="M236.11,285.29c-0.22,0.06-0.43,0.13-0.64,0.22c-0.72,0.29-1.14,0.58-1.45,1.66
			c-0.18,0.63-0.15,1.35,0.11,2.24c0.49,1.67,2.17,2.36,3.64,2.19c0.5-0.06,0.98-0.22,1.38-0.48c1.55-1.02,2.09-2.41,0.97-4.65
			C239.39,285.02,237.69,284.85,236.11,285.29z"/>
		<path class="st5" d="M252.75,293.07c-0.6-0.29-1.48-0.26-1.93-0.13c-0.04,0.01-0.07,0.03-0.11,0.04c-1.6,0.54-2.66,2.1-2.31,3.95
			c0.36,1.89,1.56,2.78,3.95,2.62c0.03,0,0.05-0.01,0.08-0.01c1.16-0.12,1.83-0.93,2.32-1.89c0.37-0.73,0.33-1.27,0.19-1.97
			C254.68,294.26,253.97,293.67,252.75,293.07z"/>
		<path class="st5" d="M248.96,279.54c-1.28-0.65-2.63-0.2-3.52,0.66c-0.5,0.48-0.85,1.09-0.96,1.72c-0.31,1.75-0.14,2.52,1.86,3.38
			c0.65,0.28,1.19,0.4,1.71,0.34c0.47-0.05,0.93-0.23,1.44-0.56c0.34-0.22,1.24-1.39,1.3-2.06c0.08-0.79,0.06-1.37-0.08-1.82
			c-0.02-0.08-0.06-0.14-0.09-0.21C250.37,280.38,249.84,279.99,248.96,279.54z"/>
	</g>
</g>
</svg>
