<?xml version="1.0" encoding="UTF-8"?><svg id="Layer_1" xmlns="http://www.w3.org/2000/svg" viewBox="0 0 164 164"><defs><style>.cls-1{fill:#fee783;}.cls-2{fill:#fed00b;}</style></defs><rect class="cls-2" x="57.7" y="12.3" width="51.6" height="36.4" transform="translate(-5.3 27.1) rotate(-17.9)"/><path class="cls-2" d="m111,121.9s-5.7-15.9-4.3-22c1.4-6.2,12.4-18.3,12.4-18.3l4.8.7,2.8,10.5.2,11.3-2.3,8.7-8.3,9.5-5.3-.6Z"/><path class="cls-2" d="m37.9,122s14.1-.5,21.5,11.9c7.4,12.5,2.2,22.7,2.2,22.7,0,0-23.3,5.8-27.1-6.1-3.8-11.9-9.1-19.3,3.4-28.5"/><path class="cls-1" d="m68.6,57.8l10.7,33.1-37.2,26.3s15.1,7.7,17.2,12.7c2.2,5,7,18.3,6.7,20.7-.4,2.4,6.5-1,6.5-1l26.7-18.3,10.7-5.7-2.9-7.1s-2.5-7.8-2.3-10.7c.2-2.9,10.2-25,10.2-25l5.2-3.4v-8.6c0,0-10-27.6-10-27.6l-41.6,14.5Z"/><path class="cls-2" d="m94.8,17.2l5.9,18.3-4.1,1.3-5.9-18.3,4.1-1.3Zm-12.2,3.9l5.9,18.3-4.1,1.3-5.9-18.3,4.1-1.3Zm-12.2,3.9l5.9,18.3-4.1,1.3-5.9-18.3,4.1-1.3Zm30.6-16.6l-44.8,14.4,9.8,30.5,44.8-14.4-9.8-30.5Zm19.8,75.4c-9.7,6.1-14.4,18.2-10.7,29.6.8,2.5,1.9,4.7,3.3,6.7l3.3-2.2c7.2-4.7,10.4-13.5,8-21.5l-.2-.5c0-.2-.1-.4-.2-.6h0c0-.1-3.6-11.5-3.6-11.5Zm-12.1-37.4l-36.6,11.8,9.9,30.7c.9,2.6,0,5.5-2.3,7.1l-.3.2-33.5,21.7c9.5,3.1,17.4,10.5,20.7,20.7,1.2,3.6,1.6,7.2,1.5,10.8l39.9-25.8c-1.7-2.5-3.1-5.3-4-8.3-4.8-14.8,1.8-30.5,14.8-37.8l-10-31.1ZM38.9,123l-.3.3c-6.1,6.3-7.2,16.1-2.3,23.8,5.4,8.4,16.2,11.1,24.9,6.7.9-4.2.7-8.8-.7-13.2-3.2-9.9-11.9-16.6-21.6-17.6M101.1,1.7c2.2-.7,4.7.5,5.4,2.8l11.2,34.6c.7,2.2-.5,4.7-2.8,5.4h0s15.8,48.8,15.8,48.8c0,.2.1.4.2.6,3.5,10.8-.5,23-10.5,29.4l-53.9,34.8-.4.2h0s0,0,0,0l-.4.3c-.2.1-.4.2-.6.3h-.2c-.2.2-.5.4-.7.5,0,0,0,0-.1,0-.2,0-.4.2-.6.3,0,0-.1,0-.2,0-.2.1-.5.2-.7.3,0,0-.2,0-.3.1-.1,0-.3.1-.4.2h-.3c0,.1,0,.1-.1.2l-.6.2-.6.2h-.2c0,0,0,0-.1,0-.5.2-1,.3-1.6.4h0c-10.2,2.3-21.2-1.8-27.2-11.1-5.5-8.5-5.3-19.1-.4-27.2h0c0-.1,0-.3,0-.3v-.2c.1,0,.1,0,.1,0h0s.1-.2.1-.2c.1-.2.3-.4.4-.6,0,0,0-.1.1-.2.1-.2.3-.4.4-.6h0c.2-.3.3-.5.5-.7,0,0,.1-.2.2-.2.3-.4.7-.8,1.1-1.2,0,0,.1-.1.2-.2l.4-.4s0,0,.1-.1h0c.2-.2.4-.4.6-.6,0,0,.1-.1.2-.2.2-.2.3-.3.5-.5,0,0,0,0,.1,0h0c.2-.2.4-.4.6-.5,0,0,0,0,.1,0,.6-.5,1.2-.9,1.9-1.3l37.4-24.2-9.9-30.7h0c-2.2.7-4.7-.5-5.4-2.8l-11.2-34.6c-.7-2.2.5-4.7,2.8-5.4L101.1,1.7Z"/><path class="cls-1" d="m101.3,25c-.1-2.1-.2-4.2-.8-6.3-1.3-4.6-8.4-2.4-7.1,2.1.6,2.2.4,4.6.8,6.8.4,2.4,1.8,4.1,2.8,6.3.8,1.8,3.6,2.1,5.1,1.2,1.9-1.2,2-3.3,1.2-5.1-.8-1.8-1.8-3-1.9-5"/><path class="cls-1" d="m91.3,28.4c-.1-2.1-.2-4.2-.8-6.3-1.3-4.6-8.4-2.4-7.1,2.1.6,2.2.4,4.6.8,6.8.4,2.4,1.8,4.1,2.8,6.3.8,1.8,3.6,2.1,5.1,1.2,1.9-1.2,2-3.3,1.2-5.1-.8-1.8-1.8-3-1.9-5"/><path class="cls-1" d="m81.5,32.2c-.1-2.1-.2-4.2-.8-6.3-1.3-4.6-8.4-2.4-7.1,2.1.6,2.2.4,4.6.8,6.8.4,2.4,1.8,4.1,2.8,6.3.8,1.8,3.6,2.1,5.1,1.2,1.9-1.2,2-3.3,1.2-5.1-.8-1.8-1.8-3-1.9-5"/><path class="cls-1" d="m71.4,34.7c-.1-2.1-.2-4.2-.8-6.3-1.3-4.6-8.4-2.4-7.1,2.1.6,2.2.4,4.6.8,6.8.4,2.4,1.8,4.1,2.8,6.3.8,1.8,3.6,2.1,5.1,1.2,1.9-1.2,2-3.3,1.2-5.1-.8-1.8-1.8-3-1.9-5"/></svg>