<?xml version="1.0" encoding="UTF-8"?><svg id="Layer_1" xmlns="http://www.w3.org/2000/svg" viewBox="0 0 164 164"><defs><style>.cls-1{fill:#ee3325;}.cls-2{fill:#3db654;}.cls-3{fill:#fff;opacity:.3;}</style></defs><g><path class="cls-1" d="m138.9,97.9c0,28.2-15.2,54.3-40.1,60-.8.2-1.6.3-2.4.3-5.1.3-10.9-1.8-16.2-1.8s-13.1,2.5-19.4.9c-23.4-6-39.3-31.9-39.3-59.4s.1-5,.4-7.4c1,.4,2,.8,3,.9,1.4.2,3-.2,3.9-1.3.9-1.1.9-3-.3-3.8,2.8.2,5.6-1.4,6.8-3.9,1.2-2.5.8-5.7-1.1-7.7,2.8.6,5.8-.9,7.1-3.5,1.2-2.5.6-5.9-1.6-7.7,1.9.1,3.9-1,4.7-2.8.8-1.8.4-4-1-5.3h0c9.8-5,22.3-5.9,36.9-1.6,21.2-4.7,35.2-3.2,44.2,3.1,10.9,7.6,14.5,22.1,14.5,41.1Z"/><path class="cls-2" d="m99.2,17.2c-8.3,8.3-11.8,19.5-13.3,26.9-.4,2.3,2.3,3.7,4,2.1L129.2,7.8c1.6-1.6.2-4.4-2-4-7.4,1.4-19.2,4.8-27.9,13.5Z"/><path class="cls-2" d="m115.4,36.1c-9.3,8.8-21.8,11.8-29.2,12.9s-2.7-1.8-1.5-3L127,5.1c1.2-1.2,3.3-.1,3,1.6-1.3,7.1-4.9,20.2-14.6,29.4Z"/><path class="cls-2" d="m79.6,62.9c2,0,3.9-1.3,4.6-3.2,1.2-3.3,2.6-8.7,1.5-14.3-1.1-5.4-4.1-11.9-6.4-16.3-1.4-2.7-4.8-3.5-7.3-1.7h-.1c-2.6,2-2.7,5.9-.2,7.9,3.7,3,8,7.4,8.6,11.6,1.3,8.9-1.7,16-1.7,16h.9Z"/></g><path class="cls-3" d="m132.6,85.7c4.6,20.3-2.1,41.6-19.1,49.8,0,0,0,0,0,0-.5.2-1-.3-.6-.8,21.3-29.7,11.8-58.4,4.8-72.3-.6-1.3.8-2.5,2-1.7,6.5,4.7,10.4,13.5,13,24.9Z"/><path class="cls-1" d="m43.4,55.3s-22.3,6.8-21.5,35.1l5.6,14.2,29.5-30.5-13.6-18.8Z"/></svg>