<?xml version="1.0" encoding="UTF-8"?><svg id="Layer_1" xmlns="http://www.w3.org/2000/svg" viewBox="0 0 164 164"><defs><style>.cls-1{fill:#f58120;}.cls-2{fill:#010101;}.cls-3{fill:#ee3425;}.cls-4,.cls-5{fill:#fff;}.cls-6{fill:#ef5596;}.cls-7{fill:#05bce7;}.cls-5{opacity:.5;}</style></defs><g><path class="cls-7" d="m158.1,143c-4.2-4-21.5-14.9-9.5-28.9,12-14.1,3.7-35.8,3.7-35.8-.8-3.2-2.2-5.5-3.9-7.1.6-3.3,1-6.6,1-10,0-29.9-25.6-54.2-57.1-54.2s-57.1,24.3-57.1,54.2.9,10.9,2.6,16c-2,2.3-15.9,18.7-10.8,34.4,5.5,16.9-15.1,21.7-20.6,24.1-5.5,2.4,24.8,3.6,31.6-9.6,6.3-12.2,4.5-30.5,14.9-38,1.1.5,2.2,1.1,3.4,1.6-2.8,7.2-6.2,19.8.2,30.2,9.4,15.5-9.6,24-14.4,27.3-4.8,3.4,25.1-1,28.6-15.2,2.9-11.8-1.8-27.2,3.4-36.9.4,0,.8.1,1.1.2-1.1,7.6-1.1,19.1,6.4,27.5,12.3,13.8-4.8,25-8.9,29.1-4.1,4,24.5-4.7,25.3-19.3.6-11.6-6.5-25.5-4.1-35.8,3.5,0,7.1-.2,10.6-.6,10.3,9.9-.5,28.1.5,42.6,1.1,14.5,29.9,22.8,25.7,18.8-4.2-4-21.5-14.9-9.5-28.9,12-14.1,3.7-35.8,3.7-35.8,0-.2-.1-.4-.2-.6,3.8-1.1,7.5-2.5,11.1-4,2.8,10.2-4.1,24.4-3.3,36.1,1.1,14.5,29.9,22.8,25.7,18.8Z"/><path class="cls-5" d="m59.9,21.6s-31.7,22.8-17.4,57.8c0,0,4.5,6.3,5.3,0,.8-6.3-11.3-24.4,14.3-53.4,0,0,3-8.7-2.3-4.3Z"/></g><g><path class="cls-4" d="m129.8,56.2c-.4,0-.9,0-1.5,0h0c-.2,0-.3,0-.5,0-.2,0-.5,0-.8,0,0,0,0,0-.1,0-.2,0-.5,0-.7.1-.6,0-1.2.2-1.9.4,0,0,0,0,0,0,1.6-2.8,1.7-6.4.3-10-2.3-6-8.5-8.5-14.4-6.3-6,2.3-8.3,8.2-6,14.2,1.9,5.1,7.1,7.9,12.3,7.2,0,0,0,0,0,0-.4.5-.8,1-1.2,1.6-.1.2-.2.3-.3.5,0,0,0,0,0,0,0,0,0,0-.1.2v.2c-.1.1-.2.2-.2.2l-1.1,2.1c-5.2,0-10.1-2.3-12.7-7-5.6-10.5-3.3-17.3,4-22.3,7.3-5.1,20.8-3.1,24.2,7.5,1.5,4.5,1.8,8.2.6,11.3Z"/><path class="cls-2" d="m126.2,56.4s0,0,0,0c-.6,0-1.2.2-1.9.4,0,0,0,0,0,0-3.8,1.1-6.3,3.3-7.8,5.1,0,0,0,0,0,0-.4.5-.8,1-1.2,1.6t0,0c-5.4.2-10.5-2.9-12.5-8.3-2.6-6.8,0-13.5,6.8-16,6.8-2.6,13.8.4,16.3,7.1,1.3,3.5,1.4,7.1.2,10.1Z"/><path class="cls-4" d="m67.2,34.8c-8.8-1-16,7.2-16,16s.2,3.7.6,5.3c1.3,0,3.6,0,6,.8-.1-.2-.3-.5-.4-.7-2.7-5.8-.6-12.2,5.2-14.8,5.8-2.7,12.1-1.2,14.8,4.6,2.7,5.8.3,12.6-5.5,15.3-2.2,1-4.5,1.4-6.6,1.1.4.6.9,1.2,1.3,1.9l1.5,2.9c8.5-.4,15.2-8.7,15.2-16.2s-4.2-14.6-16-16Z"/><path class="cls-3" d="m96.9,66.2l-11.7.5c-.9,0-1,.6-.9.9.6,3.3,3.5,5.8,7,5.7,3.5-.1,6-2.8,6.5-6.2,0-.4,0-1-1-.9Z"/><path class="cls-1" d="m88.4,59.3c1.4,0,4.8-.2,4.8-.2,0,0,1.6,0,1-1.4-.9-2.3-2-4.3-3.4-5-1.2-.6-3.3,5.1-3.3,5.1,0,0-.7,1.5.9,1.4Z"/><path class="cls-2" d="m72.7,62.7c-1.9.9-3.9,1.9-5.8,1.9-1.5-2.7-4.7-7.1-11.3-8.3-2.6-6.5-.1-13.5,6.3-16.5,6.7-3.1,14-1.4,17.1,5.3,3.1,6.7.4,14.5-6.3,17.6Z"/><path class="cls-6" d="m64.6,66.4c-.1-.5-.3-.9-.5-1.4-1.7-3.8-5.4-5.9-9.5-5.5-.7,0-1.4.2-2.2.4-4.9,1.4-7.4,5.8-6.6,10.6,0,.4.2.9.3,1.3,1.5,5.4,7.1,8.4,12.5,6.8.7-.2,1.3-.4,1.9-.7,4-2.1,5.5-6.8,4.1-11.5Z"/><path class="cls-6" d="m136.5,66.3c-.1-.9-.4-1.7-.7-2.4-.5-1.1-1.1-2-1.9-2.8-1.8-1.7-4.3-2.6-7.1-2.5-.4,0-.8,0-1.2.1-3.5.6-6.2,2.9-7.5,5.9-.7,1.7-1,3.5-.7,5.5.6,3.5,2.8,5.9,5.8,6.9,1.6.6,3.5.7,5.4.4,4.1-.6,7-3.5,7.8-7.2.3-1.2.3-2.5,0-3.9Z"/></g></svg>