<?xml version="1.0" encoding="UTF-8"?>
<svg id="Layer_1" xmlns="http://www.w3.org/2000/svg" viewBox="0 0 400 400">
  <defs>
    <style>
      .cls-1 {
        fill: #f9c6b9;
      }

      .cls-2 {
        fill: #fff;
      }
    </style>
  </defs>
  <path class="cls-1" d="M237.13,256.56c4.44-2,9.8-1.7,13.99.77,2.96,1.75,5.27,4.54,6.54,7.75.79-.79,1.59-1.57,2.4-2.33l.35-.33c2.09-1.96,4.06-3.82,4.73-6.1.47-1.6.32-3.48.15-5.47-.93-11.15-1.5-24.17,1.2-36.58.75-3.46,2.08-7.72,5.73-9.97,1.25-.77,2.59-1.18,3.92-1.39-2.27-14.68-12.28-28.51-27.17-37.34-14.11-8.37-30.14-10.18-47.12-12.11l-1.24-.14c-1.51-.17-3.04-.29-4.59-.37-.26.03-.52.02-.77-.03-12.92-.45-26.81,2.6-41.4,9.11-3.66,1.63-8.39,3.91-12.5,7.1-7.64,5.91-13.51,15.32-16.53,26.49-3.18,11.74-2.99,24.16-2.56,32.48.47,9.41,1.59,20.33,6.28,29.98,1.92,3.95,3.77,6.98,6.61,9.34.63-.6,1.24-1.22,1.79-1.87,3.38-4.02,6.81-8.68,6.58-12.8-.07-1.21.75-2.3,1.93-2.58,1.19-.28,2.4.34,2.87,1.47.9,2.13,1.23,4.13,1.55,6.05.29,1.72.56,3.34,1.23,4.94.81,1.92,1.64,3.91,2.92,5.32,1.48,1.64,3.68,2.7,5.82,3.72,3.63,1.75,7.38,3.55,11.24,3.88,1.29.11,2.29,1.19,2.29,2.49s-.99,2.38-2.28,2.49c-4.3.38-8.25,2.32-12.44,4.37-1.04.51-2.09,1.02-3.14,1.51-.81.37-1.67.78-2.42,1.26,3.69,7.06,11.32,11.47,17.71,14.56,6.78,3.29,12.45,5.31,17.83,6.37,3.4.67,6.91.98,10.42,1.14,8.69-14.32,17.88-28.62,27.31-42.5,2.41-3.55,5.71-8.4,10.78-10.69ZM228.65,207.29c1.27-.63,2.62-.72,3.51-.77,2.58-.17,5.56-.23,8.19,1.19,3.09,1.67,5.19,5.79,3.41,9.25-.63,1.23-2.14,1.71-3.37,1.07-1.23-.63-1.71-2.14-1.07-3.37.36-.7-.33-2.01-1.34-2.56-1.46-.79-3.51-.73-5.49-.6-.56.04-1.25.08-1.63.27-.83.41-1.26,1.99-1.28,4.69,0,1.38-1.13,2.49-2.5,2.49h-.01c-1.38,0-2.49-1.13-2.49-2.51.01-1.96.04-7.16,4.06-9.14ZM165.23,211.39c-1.58-.04-2.96-.03-3.82.54-1.27.84-1.66,3.12-1.93,5.19-.16,1.26-1.24,2.18-2.48,2.18-.11,0-.21,0-.32-.02-1.37-.18-2.34-1.43-2.16-2.8.3-2.28.85-6.54,4.12-8.71,2.24-1.49,4.93-1.42,6.72-1.38,1.97.05,5.63.15,7.86,2.85,1.72,2.09,1.76,4.8,1.79,6.59.02,1.38-1.08,2.52-2.46,2.54h-.04c-1.36,0-2.48-1.1-2.5-2.46-.02-1.45-.09-2.8-.65-3.49-.68-.83-2.38-.98-4.13-1.03ZM200.18,265.58c-.26,0-.52,0-.78,0-12.1,0-23.86-6.95-29.46-17.48-.65-1.22-.19-2.73,1.03-3.38,1.22-.65,2.73-.19,3.38,1.03,4.85,9.12,15.19,15.03,25.7,14.82,10.26-.26,20.39-6.37,25.8-15.58.7-1.19,2.23-1.58,3.42-.89,1.19.7,1.59,2.23.89,3.42-6.27,10.66-18.04,17.74-29.99,18.04Z"/>
  <path class="cls-1" d="M288.05,209.83c-1.46-1.35-3.85-1.67-6.59-1.92-2.65-.24-4.98-.36-6.62.65-2.04,1.25-2.92,4.28-3.47,6.77-2.55,11.73-2.04,23.78-1.1,35.06.19,2.29.41,4.84-.33,7.35-1.06,3.58-3.74,6.1-6.1,8.32l-.35.32c-7.68,7.25-14.28,15.56-19.64,24.7-.7,1.19-2.23,1.59-3.42.89-1.19-.7-1.59-2.23-.89-3.42,4.04-6.9,8.76-13.34,14.1-19.24-.42-3.16-2.33-6.07-5.05-7.68-2.82-1.66-6.42-1.86-9.4-.52-3.5,1.58-6.01,4.98-8.7,8.94-8.85,13.02-17.48,26.41-25.69,39.84.77.01,1.54.02,2.31.03l47.87.56c2.54-4.65,5.44-8.52,8.22-12.03l22.86-28.82c1.57-1.99,3.2-4.04,3.84-6.31.39-1.37.44-2.95.5-4.48.24-6.8.43-13.64.57-20.43-.57-.88-.52-1.98.05-2.8.05-2.99.1-5.98.13-8.94.05-4.14.1-8.83-1.1-13.03-.51-1.8-1.17-3.05-2-3.82Z"/>
  <path class="cls-2" d="M156.45,280.41c1.69-.83,3.4-1.67,5.16-2.41-1.36-.59-2.67-1.22-3.93-1.83-2.45-1.18-5.23-2.51-7.36-4.88-1.85-2.05-2.9-4.54-3.82-6.74-.35-.83-.61-1.64-.83-2.44-1.37,2.29-3.1,4.5-4.9,6.64-1.96,2.32-4.3,4.18-6.37,5.81-1.42,1.12-2.88,2.22-4.41,3.16,3.55,1.07,7.08,2.51,10.24,5.43,2.44,2.26,4.12,4.91,5.31,7.72.42-1.76,1-3.56,2.22-5.11,1.59-2.02,3.84-3.06,5.65-3.9,1.02-.47,2.03-.97,3.04-1.47Z"/>
  <path class="cls-2" d="M119.99,194.31c3.3-12.22,9.8-22.56,18.3-29.14,4.54-3.51,9.61-5.96,13.53-7.71,15.21-6.78,29.77-9.98,43.39-9.54,7.43-4,14.55-8.71,21.16-14.01,1.91-1.53,4.12-3.38,6.02-5.45,1.82-1.98,3.38-4.18,5.17-6.86,4.92-7.36,10.04-16.1,11.38-25.7-10.69-3.66-22.21-5.59-33.66-5.59-1.84,0-3.69.05-5.52.15-14.11.77-28.14,3.21-41.7,7.26-7.77,2.32-13.46,4.62-18.45,7.45-6.69,3.8-12.6,8.85-19.42,15.26-9.7,9.13-19.39,19.27-24.56,31.58-2.85,6.79-4.59,14.89-5.3,24.74-1.44,19.96,1.81,38.48,9.43,53.54,2.01,3.98,3.84,6.72,5.94,8.89,2.25,2.32,5.06,4.2,7.77,6.02l6.72,4.51c-1.93-7.3-2.58-14.7-2.92-21.35-.44-8.66-.63-21.62,2.73-34.04Z"/>
  <path class="cls-2" d="M307.8,167.93c-2.5-9.88-7.78-18.92-12.89-27.66-2.61-4.47-5.31-9.1-8.71-12.96-3.22-3.67-7.21-6.8-11.07-9.83-7.55-5.93-15.36-12.07-23.93-16.41-2.43-1.23-4.93-2.36-7.5-3.39-1.69,10.14-6.95,19.13-12.01,26.7-1.66,2.49-3.49,5.11-5.64,7.46-2.12,2.32-4.52,4.33-6.58,5.98-4.93,3.95-10.13,7.59-15.53,10.86,16.27,1.85,33,3.96,47.57,12.6,16.41,9.73,27.38,25.18,29.66,41.6.25.02.48.04.72.06,2.83.26,6.7.61,9.54,3.23,1.55,1.43,2.63,3.37,3.42,6.11,1.41,4.9,1.35,9.98,1.29,14.46-.02,1.51-.04,3.03-.06,4.56,5.1-5.02,9.06-11.85,11.37-19.74,2.45-8.35,3.21-17.73,2.38-29.51-.39-5.65-1.04-10.13-2.05-14.11Z"/>
  <path d="M227.07,218.95h.01c1.37,0,2.49-1.11,2.5-2.49.01-2.7.44-4.28,1.28-4.69.38-.19,1.07-.23,1.63-.27,1.97-.13,4.02-.19,5.49.6,1.01.55,1.7,1.86,1.34,2.56-.63,1.23-.15,2.74,1.07,3.37,1.23.63,2.74.15,3.37-1.07,1.79-3.46-.32-7.58-3.41-9.25-2.63-1.43-5.61-1.36-8.19-1.19-.89.06-2.24.15-3.51.77-4.02,1.98-4.05,7.19-4.06,9.14,0,1.38,1.11,2.51,2.49,2.51Z"/>
  <path d="M172.5,218.37h.04c1.38-.02,2.48-1.16,2.46-2.54-.03-1.79-.06-4.5-1.79-6.59-2.22-2.7-5.89-2.8-7.86-2.85-1.78-.05-4.48-.12-6.72,1.38-3.27,2.17-3.82,6.43-4.12,8.71-.18,1.37.79,2.62,2.16,2.8.11.01.22.02.32.02,1.24,0,2.31-.92,2.48-2.18.27-2.07.66-4.34,1.93-5.19.85-.57,2.24-.58,3.82-.54,1.74.05,3.45.2,4.13,1.03.56.68.63,2.04.65,3.49.02,1.37,1.13,2.46,2.5,2.46Z"/>
  <path d="M312.65,166.71c-2.68-10.56-8.14-19.91-13.42-28.95-2.73-4.68-5.56-9.51-9.27-13.74-3.52-4.01-7.7-7.29-11.73-10.46-7.74-6.08-15.75-12.37-24.76-16.94-3.43-1.74-6.99-3.29-10.66-4.64-.2-.11-.42-.19-.66-.24-13.45-4.85-28.21-7.06-42.69-6.27-14.5.79-28.92,3.3-42.86,7.46-8.15,2.43-14.15,4.87-19.49,7.89-7.13,4.04-13.3,9.31-20.38,15.97-10.1,9.5-20.21,20.12-25.74,33.29-3.07,7.3-4.92,15.91-5.68,26.31-1.51,20.87,1.93,40.29,9.95,56.16,2.24,4.44,4.35,7.56,6.81,10.11,2.62,2.71,5.65,4.74,8.58,6.7l11.47,7.69c.19.13.39.22.59.29.41.99.85,1.97,1.32,2.94,2.02,4.15,4.1,7.6,7.23,10.41-3.17,2.5-6.55,4.92-9.91,4.66-1.26-.1-2.4.76-2.64,2-.25,1.24.47,2.47,1.67,2.86,1.71.56,3.36,1,4.97,1.43,4.42,1.18,8.24,2.21,11.48,5.2,4.06,3.76,5.55,9.01,6.65,16.26.18,1.22,1.24,2.13,2.47,2.13h.02c1.25-.01,2.29-.94,2.45-2.17.45-3.42,1.05-6.87,1.8-10.25.01-.05.02-.09.03-.14,4.63,6.76,12.05,11.02,18.35,14.07,7.18,3.48,13.23,5.63,19.05,6.77,6.47,1.27,13.04,1.35,19.39,1.42l49.39.57h.03c.94,0,1.8-.52,2.22-1.36,2.51-4.89,5.52-8.93,8.41-12.58l22.86-28.82c1.79-2.26,3.82-4.82,4.74-8.05.55-1.95.62-3.92.68-5.66.25-6.99.45-14.02.58-21,7.47-5.77,13.22-14.6,16.29-25.06,2.62-8.94,3.44-18.87,2.57-31.26-.41-5.95-1.11-10.72-2.19-14.99ZM113.45,245.2c-2.72-1.82-5.52-3.7-7.77-6.02-2.1-2.17-3.93-4.91-5.94-8.89-7.61-15.06-10.87-33.58-9.43-53.54.71-9.85,2.45-17.94,5.3-24.74,5.17-12.31,14.86-22.46,24.56-31.58,6.81-6.41,12.72-11.46,19.42-15.26,4.99-2.83,10.68-5.12,18.45-7.45,13.56-4.05,27.59-6.49,41.7-7.26,1.84-.1,3.68-.15,5.52-.15,11.46,0,22.97,1.92,33.66,5.59-1.34,9.61-6.46,18.34-11.38,25.7-1.79,2.68-3.36,4.87-5.17,6.86-1.9,2.07-4.11,3.92-6.02,5.45-6.61,5.3-13.73,10.01-21.16,14.01-13.62-.44-28.19,2.76-43.39,9.54-3.91,1.75-8.99,4.2-13.53,7.71-8.49,6.57-14.99,16.92-18.3,29.14-3.36,12.42-3.17,25.38-2.73,34.04.34,6.66.99,14.05,2.92,21.35l-6.72-4.51ZM147.76,285.78c-1.22,1.55-1.8,3.34-2.22,5.11-1.19-2.81-2.87-5.46-5.31-7.72-3.16-2.92-6.69-4.36-10.24-5.43,1.53-.94,2.99-2.04,4.41-3.16,2.07-1.63,4.41-3.48,6.37-5.81,1.8-2.13,3.53-4.35,4.9-6.64.21.79.48,1.6.83,2.44.92,2.2,1.97,4.69,3.82,6.74,2.14,2.37,4.91,3.7,7.36,4.88,1.26.6,2.57,1.24,3.93,1.83-1.76.75-3.47,1.58-5.16,2.41-1.01.5-2.02.99-3.04,1.47-1.81.84-4.05,1.88-5.65,3.9ZM188.62,308.6c-5.38-1.06-11.05-3.08-17.83-6.37-6.38-3.09-14.02-7.5-17.71-14.56.75-.48,1.62-.88,2.42-1.26,1.05-.49,2.1-1,3.14-1.51,4.19-2.05,8.14-3.99,12.44-4.37,1.29-.11,2.28-1.2,2.28-2.49s-1-2.38-2.29-2.49c-3.86-.33-7.61-2.13-11.24-3.88-2.13-1.03-4.34-2.09-5.82-3.72-1.28-1.42-2.11-3.4-2.92-5.32-.67-1.6-.94-3.22-1.23-4.94-.32-1.93-.65-3.92-1.55-6.05-.47-1.12-1.68-1.75-2.87-1.47-1.19.27-2,1.36-1.93,2.58.23,4.12-3.2,8.78-6.58,12.8-.55.65-1.16,1.28-1.79,1.87-2.85-2.36-4.69-5.39-6.61-9.34-4.69-9.65-5.81-20.57-6.28-29.98-.42-8.33-.61-20.75,2.56-32.48,3.02-11.17,8.89-20.58,16.53-26.49,4.12-3.19,8.84-5.47,12.5-7.1,14.58-6.51,28.48-9.56,41.4-9.11.25.05.51.06.77.03,1.54.07,3.07.19,4.59.37l1.24.14c16.98,1.92,33.02,3.74,47.12,12.11,14.89,8.83,24.9,22.66,27.17,37.34-1.33.21-2.67.62-3.92,1.39-3.65,2.24-4.98,6.5-5.73,9.97-2.7,12.41-2.12,25.43-1.2,36.58.17,1.99.32,3.87-.15,5.47-.68,2.28-2.65,4.14-4.73,6.1l-.35.33c-.81.76-1.61,1.54-2.4,2.33-1.26-3.21-3.57-6-6.54-7.75-4.2-2.47-9.56-2.77-13.99-.77-5.07,2.28-8.37,7.14-10.78,10.69-9.43,13.88-18.62,28.17-27.31,42.5-3.51-.16-7.02-.47-10.42-1.14ZM291.15,226.68c-.03,2.97-.08,5.95-.13,8.94-.57.81-.62,1.92-.05,2.8-.14,6.79-.33,13.63-.57,20.43-.06,1.53-.11,3.1-.5,4.48-.64,2.27-2.27,4.32-3.84,6.31l-22.86,28.82c-2.78,3.51-5.68,7.38-8.22,12.03l-47.87-.56c-.77,0-1.54-.02-2.31-.03,8.21-13.43,16.84-26.82,25.69-39.84,2.69-3.96,5.2-7.36,8.7-8.94,2.98-1.34,6.58-1.14,9.4.52,2.72,1.6,4.63,4.52,5.05,7.68-5.33,5.9-10.06,12.35-14.1,19.24-.7,1.19-.3,2.72.89,3.42,1.19.7,2.72.3,3.42-.89,5.35-9.14,11.96-17.45,19.64-24.7l.35-.32c2.36-2.22,5.04-4.75,6.1-8.32.74-2.51.53-5.06.33-7.35-.94-11.27-1.45-23.32,1.1-35.06.54-2.49,1.43-5.51,3.47-6.77,1.64-1,3.97-.89,6.62-.65,2.74.25,5.13.56,6.59,1.92.83.77,1.49,2.02,2,3.82,1.2,4.2,1.15,8.89,1.1,13.03ZM307.47,211.55c-2.31,7.89-6.27,14.71-11.37,19.74.02-1.52.04-3.04.06-4.56.05-4.48.11-9.56-1.29-14.46-.78-2.74-1.87-4.68-3.42-6.11-2.83-2.62-6.71-2.97-9.54-3.23-.23-.02-.47-.04-.72-.06-2.28-16.42-13.26-31.87-29.66-41.6-14.57-8.64-31.29-10.75-47.57-12.6,5.4-3.27,10.6-6.91,15.53-10.86,2.06-1.65,4.46-3.66,6.58-5.98,2.15-2.35,3.98-4.97,5.64-7.46,5.06-7.57,10.32-16.56,12.01-26.7,2.56,1.03,5.06,2.16,7.5,3.39,8.57,4.34,16.38,10.48,23.93,16.41,3.86,3.03,7.84,6.17,11.07,9.83,3.4,3.86,6.1,8.49,8.71,12.96,5.11,8.74,10.39,17.78,12.89,27.66,1.01,3.98,1.66,8.46,2.05,14.11.82,11.78.06,21.16-2.38,29.51Z"/>
  <path d="M229.29,244.11c-1.19-.7-2.72-.3-3.42.89-5.42,9.21-15.54,15.32-25.8,15.58-10.51.21-20.85-5.69-25.7-14.82-.65-1.22-2.16-1.68-3.38-1.03-1.22.65-1.68,2.16-1.03,3.38,5.6,10.53,17.37,17.48,29.46,17.48.26,0,.52,0,.78,0,11.95-.3,23.72-7.38,29.99-18.04.7-1.19.3-2.72-.89-3.42Z"/>
</svg>