<?xml version="1.0" encoding="UTF-8"?>
<svg id="Layer_1" data-name="Layer 1" xmlns="http://www.w3.org/2000/svg" viewBox="0 0 400 400">
  <circle cx="199.54" cy="197.71" r="126.5" style="fill: #fce2dc; stroke-width: 0px;"/>
  <path d="M197.1,328.96c-72.48,0-131.46-58.97-131.46-131.46S124.62,66.06,197.1,66.06s131.45,58.97,131.45,131.45-58.97,131.46-131.45,131.46ZM197.1,73.15c-68.58,0-124.37,55.79-124.37,124.36s55.79,124.37,124.37,124.37,124.36-55.79,124.36-124.37-55.79-124.36-124.36-124.36Z" style="fill: #000; stroke-width: 0px;"/>
  <path d="M201.91,197.4l-4.46,2.01c-1.09,0-5.17-4.86-5.93-5.66l-6.93-6.4c-3.58-3.02-9.09-6.86-13.51-8.4,0,0-16.09-7.35-22.27-11.03-6.37-3.79-11.55-9.27-15.63-15.45l-.43-.64c-3.03-4.59-5.22-9.67-6.46-15.03l-.48-2.06c-.4-1.73-.69-3.48-.88-5.25l-.45-4.35,107.42-.3h5.36l30.52.02-.28,3.18c-.19,2.11-.56,4.2-1.13,6.24-1.08,3.87-2.64,8.16-4.18,10.92h0l-2.04,3.06c-3.18,4.78-7.06,9.05-11.49,12.69l-4.17,3.42c-4.87,3.99-10.17,7.49-16,9.86-11.6,4.73-17.94,12.5-17.94,12.5-7.34,6.89-8.66,10.66-8.66,10.66h.02,0Z" style="fill: #fff; stroke-width: 0px;"/>
  <g>
    <path d="M186.34,182.43c-4.01-3.38-8.55-5.97-13.5-7.69l-4.74-1.65c-3.95-1.37-7.74-3.22-11.25-5.48l-5.34-3.44c-5.75-3.7-10.58-8.48-14.35-14.18l-.43-.65c-2.24-3.39-3.95-7.05-5.12-10.91l129.21-.08c-.53,1.71-.85,2.33-2.05,4.51l-1.94,2.91c-2.95,4.42-6.52,8.37-10.62,11.73l-4.17,3.42c-4.56,3.74-9.6,6.85-15,9.24l-8.54,3.79c-2.45,1.08-4.56,2.44-6.27,4.02-3.78,3.2-5.69,4.82-5.74,4.87l-9.17,8.83-10.97-9.25h-.01Z" style="fill: #f9c6b9; stroke-width: 0px;"/>
    <path d="M122.4,120.49c-.91,0-1.74.54-2.11,1.38-.16.38-.22.79-.17,1.19.17,1.37.11,2.71.18,4.09.39,7.52,1.92,23.75,18.62,38.75,11.64,10.46,22.63,13.74,29.74,17.19,5.94,2.88,9,5.07,12.59,7.94,2.91,2.32,5.12,3.63,6.6,7.2,2.89,6.98,1.84,11.86,1.88,18.41v52.72c0,8.74-3.85,17.24-14.85,20.07l-19.12,4.94s-.05.02-.07.03c-2.98,1.05-3.36,5.13-.75,6.93,1.2.82.59,1.92,17.1,3.26h0c13.9,1.02,34.92,1.65,48.82.62h0c16.52-1.64,19.37-3.4,19.73-4.11.57-1.13,2.77-4.41-2.02-6.43l-21.6-6.13c-9.34-2.24-12.39-10.22-12.37-18.99v-52.72c0-11.1,2.46-18.66,7.44-24.36,0,0,6.36-7.62,15.3-12.05,10.51-5.2,40.77-16.05,45.68-54.65.08-.59.11-1.11.17-1.7.1-.9.02-1.75-.02-2.52-.37-.84-.48-.99-1.4-.99M202.18,197.71l-4.46,2.01c-1.09,0-5.17-4.86-5.93-5.66l-6.93-6.4c-3.58-3.02-9.09-6.86-13.51-8.4,0,0-16.09-7.35-22.27-11.03-6.37-3.79-11.55-9.27-15.63-15.45l-.43-.64c-3.03-4.59-5.22-9.67-6.46-15.03l-.48-2.06c-.4-1.73-.69-3.48-.88-5.25l-.45-4.35,107.42-.3h5.36l30.52.02-.28,3.18c-.19,2.11-.56,4.2-1.13,6.24-1.08,3.87-2.64,8.16-4.18,10.92h0l-2.04,3.06c-3.18,4.78-7.06,9.05-11.49,12.69l-4.17,3.42c-4.87,3.99-10.17,7.49-16,9.86-11.6,4.73-17.94,12.5-17.94,12.5-7.34,6.89-8.66,10.66-8.66,10.66h.02,0Z" style="fill: #000; stroke-width: 0px;"/>
    <path d="M192.26,174.3c-.56,0-1.09-.33-1.31-.88l-33.44-82.42c-.29-.72.05-1.55.78-1.84.72-.29,1.55.05,1.84.78l33.44,82.42c.29.72-.05,1.55-.78,1.84-.17.07-.35.1-.53.1Z" style="fill: #000; stroke-width: 0px;"/>
    <ellipse cx="165.23" cy="107.17" rx="10.9" ry="11.3" transform="translate(-26.43 61.87) rotate(-19.67)" style="fill: #f9c6b9; stroke-width: 0px;"/>
  </g>
  <path d="M203.78,194.31c-4,6.26-3.59,20.79-3.6,23.85v51.29c0,26.36,21.65,22.74,35.01,28.21,3.1,3.48-29.02,3.05-37.57,3.05h0s-40.97.42-37.87-3.05c9.02-3.82,35.01-1.85,35.01-28.21v-51.31c0-3.07.47-21.17-2.97-24.08" style="fill: #fff; stroke-width: 0px;"/>
  <rect x="63.9" y="193.38" width="258.8" height="7.09" transform="translate(-79.7 237.07) rotate(-53.9)" style="fill: #000; stroke-width: 0px;"/>
</svg>