<?xml version="1.0" encoding="UTF-8"?>
<svg id="Layer_1" xmlns="http://www.w3.org/2000/svg" viewBox="0 0 70 70">
  <defs>
    <style>
      .cls-1 {
        fill: #fff;
      }

      .cls-2 {
        opacity: .45;
      }

      .cls-3 {
        fill: #00b2c9;
      }
    </style>
  </defs>
  <g id="_x37_IOhdB">
    <path class="cls-3" d="M64.07,30.05c-.5-.31-1.63-.24-2.05.22-.32.35-.52.82-.79,1.23-.31.46-.64,1.02-1.28.74-.62-.27-.73-.92-.59-1.54.06-.31.29-.6.48-.87.14-.21.39-.37.49-.59.12-.3.28-.71.17-.93-.11-.21-.56-.33-.86-.33-1.15-.01-2,.99-2.23,2.49-.1.71-.2,1.44-.41,2.12-.3,1.02-1.25,1.26-1.99.49-.37-.39-.68-.94-.79-1.46-.2-.93-.3-1.9-.31-2.85-.03-2.41.82-3.57,3.13-4.28.89-.28,1.81-.45,2.72-.64.83-.18,1.7-.26,2.5-.53.81-.27,1.16-1.31.91-2.24-.23-.83-.86-.98-1.59-.89-.41.04-.82.14-1.22.22-.78.17-1.23-.09-1.51-.83-.35-.93.1-1.66.56-2.39.3-.48.56-.95.2-1.51-.4-.6-1.05-.8-1.64-.63-.5.15-1.06.55-1.32.99-.56.95-.98,1.99-1.38,3.03-.34.87-.55.96-1.21.31-.82-.83-1.46-1.78-1.92-2.82-.18-.4-.32-.81-.44-1.24-.45-1.59-.84-3.2-1.28-4.8-.24-.87-.75-1.53-1.62-1.87-.51-.2-1.04-.42-1.52.05-.48.49-.59,1.09-.37,1.73.15.44.39.85.55,1.28.7,1.84-.15,3.35-1.93,3.48-1.94.14-3.94-2.03-3.57-3.94.14-.72.46-1.42.71-2.13.39-1.15-.18-2.31-1.33-2.66-.74-.23-1.6.58-1.83,1.72-.02.1-.02.2-.03.31-.06.38-.05.79-.18,1.14-.13.34-.41.62-.61.92-.32-.22-.78-.39-.92-.7-.29-.62-.42-1.32-.59-2-.22-.87-.36-1.77-.64-2.62-.22-.63-.77-1-1.45-1.01-.71-.02-1.25.35-1.53,1-.2.47-.33.98-.46,1.48-.26,1.05-.46,2.12-.8,3.14-.1.31-.59.48-.9.72-.21-.3-.5-.58-.6-.91-.2-.66-.23-1.38-.45-2.03-.23-.64-.63-1.26-1.45-1.19-.78.06-1.6.96-1.56,1.79.02.58.21,1.17.43,1.7.73,1.75.38,3.34-1.07,4.55-1.05.88-2.51.97-3.53.21-.84-.61-1.03-1.85-.48-3.13.18-.43.49-.85.51-1.29.03-.5-.11-1.07-.36-1.49-.29-.49-.84-.4-1.34-.23-.9.3-1.55.85-1.81,1.77-.24.82-.42,1.65-.63,2.48-.57,2.27-1.14,4.54-2.84,6.29-.26.27-.6.45-.91.67-.18-.32-.36-.64-.53-.97-.55-1.08-1-2.22-1.67-3.21-.57-.82-1.68-.86-2.36-.32-.66.53-.65,1.14-.08,2.16.28.5.53,1.09.56,1.65.06,1.05-.61,1.48-1.63,1.22-.47-.11-.96-.2-1.45-.23-.72-.04-1.15.31-1.3,1.05-.31,1.49.36,2.38,1.94,2.66,1.66.31,3.31.62,4.93,1.08,1.3.36,2.13,1.33,2.23,2.71.09,1.1.08,2.22-.03,3.32-.07.67-.31,1.4-.69,1.93-.26.35-.93.54-1.41.53-.27-.01-.63-.56-.75-.92-.23-.77-.31-1.57-.47-2.36s-.51-1.46-1.22-1.91c-.7-.44-1.55-.46-1.86,0-.44.67.13,1.08.46,1.56.25.38.55.77.65,1.2.13.52-.01,1.16-.61,1.24-.33.05-.79-.34-1.09-.64-.27-.26-.36-.68-.57-1.01-.43-.65-1.42-.96-2.14-.68-.7.27-1.08.99-.85,1.87.17.61.4,1.27.79,1.76,1.03,1.26,2.13,2.47,3.27,3.63,1.2,1.22,2.61,2.25,3.7,3.55,1.06,1.28,1.57,2.88,1.09,4.58-.3,1.07-.88,1.16-1.57.31-.52-.64-.96-1.36-1.47-2.01-.62-.78-1.44-1.08-2.43-.82-.55.14-.87.49-.78,1.08.31,1.93.93,3.68,2.84,4.64.6.3,1.2.62,1.75,1,.93.64.89.89-.12,1.35-.71.32-.78.78-.21,1.31.62.57,1.36.67,2.15.21.69-.41,1.33-.9,2.02-1.3,1.21-.71,2.43-.67,3.59.11.39.26.75.56,1.13.83,1.15.79,2.33.89,3.61.3.73-.33,1.49-.65,2.26-.81.47-.09,1.07-.01,1.48.22,1.97,1.12,2.73,4.8.53,6.5-.61.48-1.23.96-1.82,1.47-1.2,1.05-1.65,2.8-.81,3.82.55.67,1.36,1.2,2.16,1.57,2.09.96,4.35.79,6.58.77,1.04,0,2.08.05,3.11-.01,1.54-.09,3.03-.43,4.37-1.24,1.72-1.04,2-3.12.6-4.57-.54-.55-1.15-1.04-1.78-1.5-2.43-1.78-1.94-4.53-.59-6.16.69-.82,1.56-1.19,2.63-.77.75.29,1.48.69,2.26.83.75.15,1.59.16,2.32-.02.59-.14,1.12-.64,1.64-1.02.42-.31.82-.55,1.21-.7,1.01-.38,1.95-.23,3.1.47.53.32,1.03.71,1.55,1.04.65.4,1.34.48,1.99.06.26-.17.57-.49.58-.75,0-.21-.39-.49-.67-.62-.83-.41-.91-.77-.14-1.33.64-.47,1.35-.87,2.06-1.25,1.77-.95,2.36-2.58,2.63-4.42.09-.59-.2-.91-.78-1.04-1-.24-1.83.11-2.59,1.15-.44.61-.84,1.25-1.32,1.82-.53.62-1.07.56-1.37-.19-.21-.51-.37-1.12-.3-1.65.21-1.62.77-3.1,2.04-4.25,1.57-1.43,3.19-2.83,4.64-4.38.88-.94,1.57-2.11,2.19-3.26.43-.79.14-1.6-.42-1.95ZM42.68,19.57c.64-1.12,1.65-1.6,2.85-1.54,2.15.11,3.89,1.08,5.13,2.83.36.52.45,1.24.67,1.86-.23.67-.33,1.3-.63,1.82-1.07,1.84-1.03,3.63.03,5.45.62,1.08.57,1.74-.06,2.33-.83.76-2.21.68-2.9-.29-.39-.55-.73-1.24-.79-1.9-.21-2.47-1.54-4.29-3.22-5.94-.41-.4-.79-.84-1.09-1.31-.68-1.09-.63-2.2.01-3.31ZM29.5,24.95c1.78.12,2.99,1.11,3.66,2.72.73,1.77,1.01,3.63.72,5.55-.24,1.62-1.48,2.63-3.29,2.73-1.66.1-2.79-.68-3.25-2.28-.15-.54-.24-1.1-.36-1.66.09-.01.19-.03.28-.04-.16-1.35-.32-2.69-.49-4.04-.22-1.69,1.04-3.09,2.73-2.98ZM19.98,23.93c-1.47-3.27.13-6.34,3.71-7.07.28-.06.56-.1.76-.13,2.26-.03,3.79,2.37,2.91,4.54-.29.72-.79,1.4-1.33,1.98-1.56,1.65-2.67,3.47-2.81,5.82-.04.68-.39,1.4-.77,2-.55.88-1.53,1.03-2.39.54-.71-.42-.9-1.14-.55-2.12.3-.84.65-1.68.89-2.54.29-1.05,0-2.06-.42-3.02ZM23.06,39.89c-.89.36-1.42.83-1.56,1.81-.08.52-.28,1.05-.54,1.51-.33.62-.94.8-1.61.65-.65-.15-1.15-.62-1.09-1.25.17-1.89-.49-3.36-1.88-4.6-.49-.43-.55-1.11-.25-1.73.41-.83,1.16-.74,2.06-.68.91.2,1.62-.41,2.27-1.1.55-.59,1.16-1.04,1.99-1.12,1.42-.13,2.36.58,3.01,1.77.58,1.07.52,2.49-.32,3.34-.58.58-1.32,1.1-2.08,1.4ZM34.92,43.49c-.19,1.06-.28,2.14-.42,3.22-.04.33-.07.67-.16.99-.36,1.31-1.58,1.72-2.65.87-.38-.3-.66-.72-.99-1.09-.65-.72-1.2-.81-2.07-.37-.77.39-1.56.67-2.46.4-1.52-.45-2.31-1.68-2.06-3.28.2-1.24,1.23-1.97,2.77-1.95h.58c1.52.18,2.76-.52,3.65-1.97.46-.75,1.13-1.25,2.06-1.13.94.12,1.37.84,1.7,1.64.38.89.21,1.76.05,2.67ZM33.84,22.97c-1.24-.21-2.2-.82-2.66-2.01-.67-1.79-.76-3.61.09-5.35.69-1.44,1.78-2.44,3.52-2.35,1.64.09,2.64,1.14,3.24,2.53.34.82.44,1.74.59,2.36-.11.93-.14,1.58-.27,2.21-.44,2.02-2.18,3-4.51,2.61ZM42.1,43.77c-.26.67-.4,1.38-.61,2.06-.1.35-.16.72-.32,1.03-.48.93-1.4,1.17-2.29.64-1.49-.87-2.07-2.35-1.65-4.45.15-.78.44-1.54.76-2.26.3-.66.88-1.01,1.97-1.01,1.78-.02,2.96,1.9,2.14,3.99ZM43.72,33.29c-.32,1.19-1.14,2.01-2.2,2.6-1.32.74-2.65.29-3.25-1.11-.16-.38-.2-.8-.31-1.2-.23-.84-.52-1.66-.7-2.51-.2-.98-.53-1.99-.42-2.94.18-1.52,1.81-2.54,3.66-2.57.87-.07,1.64.27,2.09,1.04,1.21,2.07,1.77,4.29,1.13,6.69ZM52.9,43.48c-.07.77-.53,1.49-1.17,1.89-.27.17-.57.29-.89.33-.85.1-1.69-.59-2.03-1.71-.11-.37-.17-.75-.26-1.13-.33-1.31-1.02-2.28-2.34-2.79-1.09-.41-1.69-1.3-1.65-2.22.05-.94.89-2.03,1.91-2.22,1.52-.29,3.07-.44,4.95-.69.58.01,1.28.92,1.06,1.98-.12.57-.42,1.1-.69,1.63-.38.74-.42,1.38.21,2.05.1.1.18.21.26.31.55.74.72,1.62.64,2.57Z"/>
  </g>
  <g class="cls-2">
    <path class="cls-1" d="M64.49,32c-.62,1.15-1.31,2.32-2.19,3.26-1.45,1.55-3.07,2.95-4.64,4.38-1.27,1.15-1.83,2.63-2.04,4.25-.07.53.09,1.14.3,1.65.3.75.84.81,1.37.19.48-.57.88-1.21,1.32-1.82.76-1.04,1.59-1.39,2.59-1.15.58.13.87.45.78,1.04-.27,1.84-.86,3.47-2.63,4.42-.71.38-1.42.78-2.06,1.25-.77.56-.69.92.14,1.33.28.13.67.41.67.62,0,.26-.32.58-.58.75-.65.42-1.34.34-1.99-.06-.52-.33-1.02-.72-1.55-1.04-1.15-.7-2.09-.85-3.1-.47.31-1.67.6-3.42.85-5.23.64-.4,1.1-1.12,1.17-1.89.08-.95-.09-1.83-.64-2.57.74-7.33.88-15.57-.12-24.35.46,1.04,1.1,1.99,1.92,2.82.66.65.87.56,1.21-.31.4-1.04.82-2.08,1.38-3.03.26-.44.82-.84,1.32-.99.59-.17,1.24.03,1.64.63.36.56.1,1.03-.2,1.51-.46.73-.91,1.46-.56,2.39.28.74.73,1,1.51.83.4-.08.81-.18,1.22-.22.73-.09,1.36.06,1.59.89.25.93-.1,1.97-.91,2.24-.8.27-1.67.35-2.5.53-.91.19-1.83.36-2.72.64-2.31.71-3.16,1.87-3.13,4.28.01.95.11,1.92.31,2.85.11.52.42,1.07.79,1.46.74.77,1.69.53,1.99-.49.21-.68.31-1.41.41-2.12.23-1.5,1.08-2.5,2.23-2.49.3,0,.75.12.86.33.11.22-.05.63-.17.93-.1.22-.35.38-.49.59-.19.27-.42.56-.48.87-.14.62-.03,1.27.59,1.54.64.28.97-.28,1.28-.74.27-.41.47-.88.79-1.23.42-.46,1.55-.53,2.05-.22.56.35.85,1.16.42,1.95Z"/>
  </g>
  <path d="M33.18,66.03c-1.61,0-3.23-.12-4.76-.82-.93-.43-1.72-1.01-2.24-1.63-.89-1.08-.51-2.99.84-4.16.55-.48,1.13-.93,1.69-1.37l.14-.11c.87-.68,1.32-1.77,1.23-3.01-.1-1.33-.78-2.54-1.73-3.08-.35-.2-.89-.28-1.3-.19-.79.16-1.56.49-2.21.79-1.35.62-2.65.51-3.85-.33-.18-.12-.35-.25-.52-.38-.2-.15-.4-.3-.61-.44-1.09-.73-2.21-.77-3.33-.11-.34.2-.67.42-.99.64-.33.23-.68.46-1.04.67-.86.5-1.73.42-2.44-.24-.35-.32-.5-.64-.45-.95.05-.31.29-.57.73-.76.62-.28.64-.39.64-.41,0-.01,0-.13-.56-.51-.55-.38-1.16-.7-1.73-.99-2.1-1.06-2.68-3.03-2.96-4.82-.11-.67.24-1.17.96-1.35,1.06-.28,1.99.04,2.68.91.25.31.48.64.7.96.24.35.5.71.77,1.04.28.34.53.51.71.48.17-.03.33-.29.44-.69.42-1.49.05-3.04-1.05-4.36-.64-.77-1.41-1.46-2.16-2.12-.51-.45-1.03-.92-1.52-1.41-1.17-1.19-2.28-2.42-3.28-3.65-.46-.56-.7-1.32-.84-1.85-.26-.97.14-1.84,1-2.16.84-.32,1.95.04,2.43.78.09.14.16.3.23.45.09.2.18.39.31.52.46.45.76.59.89.57.14-.02.25-.09.32-.2.12-.18.15-.47.08-.75-.08-.33-.31-.66-.52-.98l-.1-.14c-.06-.09-.13-.18-.2-.27-.3-.37-.71-.88-.26-1.57.37-.57,1.36-.6,2.19-.08.7.44,1.13,1.12,1.33,2.07.05.27.1.54.15.8.09.51.18,1.04.33,1.53.1.34.41.72.53.75.4.02.99-.16,1.19-.43.34-.46.58-1.13.65-1.81.11-1.05.12-2.15.03-3.28-.1-1.26-.83-2.15-2.06-2.49-1.6-.45-3.23-.76-4.9-1.07-.89-.16-1.52-.51-1.88-1.04-.33-.49-.42-1.14-.26-1.92.18-.86.71-1.29,1.56-1.25.45.02.94.1,1.5.24.46.11.82.08,1.05-.11.25-.21.29-.59.28-.86-.02-.43-.2-.93-.53-1.55-.47-.85-.77-1.73.14-2.46.41-.33.96-.47,1.49-.39.5.08.94.35,1.23.77.48.69.84,1.47,1.2,2.22.16.34.32.68.49,1.01.11.22.24.44.36.66.01.02.03.05.04.07.03-.02.05-.04.08-.05.21-.14.41-.27.57-.43,1.65-1.7,2.22-3.97,2.77-6.16v-.03c.08-.29.15-.58.22-.86.13-.53.26-1.09.41-1.62.27-.93.93-1.58,1.97-1.93.29-.1,1.19-.4,1.63.33.28.47.43,1.08.4,1.63-.02.36-.19.68-.35.99-.07.13-.13.25-.19.38-.5,1.18-.34,2.29.4,2.84.94.69,2.27.61,3.23-.2,1.35-1.13,1.7-2.61,1-4.27-.28-.66-.43-1.26-.45-1.79-.04-.94.86-1.97,1.79-2.05.79-.07,1.36.39,1.7,1.35.13.37.2.75.26,1.12.06.32.11.62.2.92.06.18.2.36.35.55.03.03.05.06.08.09.05-.03.1-.06.15-.09.2-.12.43-.25.47-.37.22-.67.39-1.38.55-2.07.08-.35.16-.71.25-1.06l.02-.07c.12-.48.25-.97.44-1.44.32-.75.97-1.17,1.76-1.16.79.01,1.43.47,1.67,1.18.19.56.32,1.15.44,1.71.07.31.14.62.21.93.04.15.07.29.11.44.12.52.25,1.05.47,1.52.06.14.28.27.49.39.05.03.09.05.14.08.02-.03.05-.06.07-.09.15-.2.3-.38.37-.58.08-.22.1-.47.13-.73.01-.12.02-.24.04-.36,0-.04,0-.08.01-.11,0-.07.01-.14.03-.21.15-.76.59-1.44,1.13-1.76.34-.2.69-.25,1.01-.15.61.19,1.1.6,1.38,1.15.28.56.32,1.21.1,1.84-.08.22-.16.43-.24.65-.19.49-.37.96-.46,1.44-.15.8.16,1.73.83,2.49.7.79,1.63,1.22,2.48,1.16.73-.05,1.32-.37,1.65-.88.38-.59.41-1.4.08-2.26-.07-.19-.16-.38-.25-.57-.11-.23-.22-.47-.3-.72-.26-.74-.11-1.44.43-1.98.58-.58,1.22-.33,1.74-.12l.04.02c.9.35,1.49,1.04,1.77,2.03.19.69.37,1.39.55,2.09.23.89.47,1.81.72,2.71.43,1.51,1.21,2.84,2.31,3.95.36.36.46.36.48.36.02,0,.12-.06.32-.58.39-1.01.82-2.08,1.4-3.06.28-.48.87-.92,1.46-1.1.73-.22,1.48.07,1.91.73.47.71.07,1.35-.19,1.78-.43.7-.85,1.36-.54,2.17.24.63.58.82,1.23.68l.09-.02c.37-.08.76-.17,1.15-.21.37-.04,1.51-.17,1.85,1.07.31,1.12-.16,2.24-1.06,2.54-.54.18-1.1.28-1.65.37-.29.05-.59.1-.88.16-.2.04-.41.09-.62.13-.69.14-1.41.29-2.08.5-2.21.69-2.99,1.75-2.96,4.05.01.97.11,1.91.3,2.8.1.47.38.97.74,1.35.28.3.61.43.91.36.3-.07.54-.34.66-.75.19-.62.28-1.28.38-1.92l.03-.17c.25-1.64,1.21-2.7,2.45-2.7h.02c.33,0,.9.13,1.07.46.16.3.02.72-.16,1.13-.07.17-.21.31-.32.42-.07.07-.14.14-.19.21-.03.05-.06.09-.1.14-.15.21-.3.43-.35.65-.08.36-.12,1.01.46,1.26.38.17.59-.06.93-.59l.04-.06c.09-.14.17-.28.26-.44.16-.28.33-.58.56-.83.51-.56,1.79-.62,2.36-.26.62.4,1.01,1.33.5,2.28-.58,1.08-1.3,2.32-2.23,3.31-1.18,1.26-2.49,2.44-3.76,3.58-.3.27-.6.54-.9.81-1.09.99-1.73,2.33-1.96,4.1-.07.52.12,1.12.28,1.52.11.27.25.44.4.46.15.03.35-.1.55-.33.32-.38.61-.79.89-1.2.14-.2.28-.41.43-.61.8-1.1,1.73-1.51,2.84-1.25.93.22,1.04.84.97,1.32-.23,1.58-.75,3.52-2.76,4.6-.67.36-1.37.75-2.03,1.23-.41.3-.43.45-.43.49,0,.05.07.19.54.42.08.04.8.4.8.85,0,.39-.43.78-.69.95-.69.45-1.46.43-2.25-.05-.26-.16-.51-.34-.76-.51-.26-.18-.53-.37-.8-.53-1.5-.91-2.6-.85-4.04.22-.11.08-.21.16-.32.25-.43.34-.88.69-1.4.82-.72.18-1.58.19-2.42.03-.58-.11-1.12-.35-1.65-.58-.22-.09-.43-.19-.65-.27-.9-.35-1.67-.12-2.36.7-.79.95-1.17,2.17-1.04,3.26.12,1.01.66,1.86,1.58,2.54.57.42,1.23.92,1.81,1.53.73.75,1.06,1.68.94,2.63-.12.94-.7,1.78-1.58,2.32-1.25.75-2.71,1.17-4.48,1.27-.72.04-1.46.03-2.17.02-.32,0-.64,0-.96,0-.25,0-.49,0-.74.01-.4,0-.79.01-1.19.01ZM27.4,51.13c.42,0,.86.1,1.19.29,1.09.62,1.87,1.98,1.98,3.47.1,1.4-.41,2.66-1.41,3.43l-.14.11c-.56.43-1.13.88-1.67,1.35-1.15,1.01-1.51,2.6-.78,3.48.47.57,1.21,1.11,2.07,1.5,1.81.83,3.81.8,5.74.76.25,0,.49,0,.74-.01h0c.32,0,.64,0,.97,0,.7,0,1.43.02,2.13-.02,1.69-.1,3.08-.49,4.26-1.2.77-.46,1.25-1.16,1.35-1.96.1-.8-.18-1.59-.8-2.23-.56-.58-1.2-1.07-1.75-1.47-1.03-.75-1.64-1.75-1.78-2.88-.15-1.23.28-2.59,1.15-3.63.81-.98,1.82-1.27,2.91-.85.22.09.44.18.67.28.53.23,1.03.45,1.55.54.78.15,1.56.14,2.22-.02.42-.1.82-.42,1.21-.73.11-.09.22-.17.33-.25,1.6-1.18,2.93-1.25,4.59-.24.28.17.56.36.82.55.24.17.49.34.73.49.62.38,1.2.4,1.72.06.27-.17.47-.43.47-.54-.02-.06-.24-.26-.52-.4-.36-.17-.78-.42-.81-.82-.03-.39.32-.7.63-.92.68-.5,1.4-.9,2.09-1.27,1.81-.97,2.28-2.69,2.51-4.24.05-.37-.03-.64-.6-.77-.92-.22-1.64.11-2.33,1.06-.14.2-.28.4-.42.6-.29.41-.58.84-.91,1.23-.41.48-.77.54-1,.5-.23-.04-.55-.2-.78-.76-.19-.46-.39-1.14-.31-1.77.24-1.89.93-3.33,2.11-4.4.3-.27.6-.54.9-.81,1.26-1.13,2.56-2.3,3.73-3.55.89-.95,1.59-2.16,2.16-3.21.37-.69.11-1.35-.34-1.63-.39-.25-1.39-.2-1.74.17-.19.21-.34.47-.49.74-.09.15-.18.31-.28.47l-.04.06c-.29.45-.73,1.12-1.54.77-.65-.28-.92-.96-.74-1.82.07-.31.26-.58.43-.82.03-.04.06-.09.09-.13.07-.11.16-.2.25-.29.09-.09.18-.18.22-.27.21-.5.2-.66.17-.71-.04-.08-.35-.2-.64-.2h-.02c-.98,0-1.75.89-1.96,2.28l-.03.17c-.1.66-.2,1.34-.4,1.99-.17.57-.54.97-1.02,1.08-.47.11-.97-.07-1.38-.49-.42-.44-.74-1.03-.86-1.58-.2-.92-.3-1.89-.31-2.9-.03-2.5.9-3.77,3.31-4.52.7-.22,1.43-.37,2.13-.52.2-.04.41-.09.61-.13.3-.06.6-.12.9-.17.55-.09,1.08-.18,1.58-.35.65-.22.98-1.09.75-1.95-.16-.59-.55-.8-1.32-.71-.37.04-.74.12-1.1.2l-.09.02c-.88.19-1.47-.13-1.79-.99-.39-1.04.12-1.87.58-2.61.3-.48.48-.83.2-1.25-.32-.48-.84-.68-1.36-.53-.46.14-.96.51-1.18.88-.55.95-.98,1.99-1.36,2.99-.2.51-.37.82-.68.89-.3.06-.59-.15-.93-.49-1.16-1.17-1.98-2.57-2.43-4.16-.26-.9-.49-1.83-.73-2.72-.18-.7-.36-1.39-.55-2.08-.23-.84-.72-1.41-1.47-1.71l-.04-.02c-.54-.21-.88-.32-1.22,0-.41.41-.51.91-.32,1.47.08.23.18.44.29.68.09.19.18.4.26.6.39,1.01.34,1.97-.12,2.7-.42.65-1.13,1.05-2.03,1.11-1.01.07-2.08-.42-2.88-1.33-.77-.87-1.13-1.96-.94-2.9.1-.53.29-1.03.48-1.52.08-.21.16-.42.24-.64.17-.5.14-1.02-.08-1.46-.22-.43-.61-.75-1.09-.9-.24-.07-.47.02-.62.1-.43.25-.77.8-.9,1.43,0,.05-.01.1-.02.15,0,.05,0,.1-.01.14-.02.11-.03.22-.04.34-.03.29-.05.58-.16.86-.1.27-.27.49-.44.71-.07.09-.13.17-.2.26-.04.05-.09.09-.16.1-.06.01-.13,0-.19-.04-.09-.06-.19-.12-.3-.19-.28-.16-.56-.32-.69-.61-.24-.51-.37-1.07-.5-1.61-.03-.14-.07-.29-.11-.43-.08-.31-.15-.64-.22-.95-.12-.55-.24-1.12-.43-1.66-.18-.52-.63-.84-1.22-.85-.59,0-1.06.29-1.3.86-.18.43-.3.91-.42,1.37l-.02.07c-.09.35-.17.7-.25,1.04-.16.7-.33,1.42-.56,2.12-.1.3-.4.47-.68.64-.11.07-.22.13-.31.19-.05.04-.12.06-.19.05-.07-.01-.12-.05-.16-.1-.06-.09-.13-.17-.2-.26-.17-.22-.35-.44-.43-.71-.1-.32-.16-.65-.21-.97-.06-.37-.13-.72-.24-1.05-.26-.74-.64-1.07-1.19-1.03-.67.05-1.37.86-1.34,1.54.02.47.16,1.02.41,1.62.78,1.85.37,3.57-1.14,4.83-1.14.95-2.72,1.05-3.84.22-.94-.69-1.16-2.04-.56-3.43.06-.14.13-.28.2-.41.15-.28.28-.54.29-.79.02-.46-.11-.98-.33-1.36-.11-.19-.33-.36-1.05-.12-.89.3-1.43.82-1.66,1.6-.15.53-.28,1.07-.41,1.6-.07.29-.14.58-.21.87v.03c-.58,2.25-1.17,4.58-2.9,6.38-.2.2-.43.35-.66.5-.1.06-.2.13-.29.19-.06.04-.13.06-.2.04-.07-.02-.13-.06-.16-.12-.06-.1-.11-.2-.17-.3-.12-.22-.25-.44-.37-.67-.17-.34-.34-.69-.5-1.03-.35-.73-.7-1.49-1.16-2.15-.21-.31-.53-.5-.89-.56-.39-.06-.8.05-1.11.29-.47.37-.61.78-.02,1.84.37.68.57,1.25.59,1.76.04.71-.23,1.08-.45,1.27-.35.29-.86.36-1.47.21-.53-.13-.99-.21-1.41-.23-.6-.03-.92.23-1.05.85-.13.64-.07,1.16.19,1.54.28.41.8.69,1.56.83,1.68.31,3.33.62,4.95,1.08,1.42.4,2.3,1.47,2.41,2.92.09,1.16.08,2.29-.03,3.37-.08.77-.35,1.51-.74,2.05-.32.43-1.07.65-1.61.63-.45-.02-.86-.73-.97-1.09-.16-.52-.25-1.06-.34-1.59-.04-.26-.09-.53-.14-.79-.17-.83-.52-1.38-1.11-1.75-.59-.37-1.3-.4-1.52-.07-.24.37-.09.6.23.99.08.09.15.19.23.3l.09.14c.24.35.49.72.6,1.14.1.42.05.85-.15,1.14-.15.23-.38.37-.66.41-.35.05-.77-.18-1.31-.71-.19-.19-.3-.43-.41-.66-.06-.14-.12-.27-.2-.39-.36-.55-1.22-.82-1.84-.59-.62.24-.89.85-.7,1.58.13.48.34,1.17.74,1.66,1,1.22,2.09,2.44,3.25,3.62.47.48.99.94,1.5,1.39.76.68,1.55,1.38,2.21,2.17,1.2,1.44,1.61,3.15,1.14,4.81-.17.61-.45.96-.81,1.04-.37.08-.77-.14-1.19-.65-.28-.34-.54-.71-.79-1.07-.22-.31-.45-.64-.69-.94-.57-.72-1.3-.97-2.17-.74-.7.18-.62.65-.6.8.28,1.75.8,3.5,2.7,4.46.58.29,1.2.62,1.78,1.02.5.34.8.62.77.96-.03.34-.38.56-.93.81-.26.12-.42.26-.44.39-.02.13.08.32.3.52.55.51,1.18.57,1.86.18.34-.2.68-.43,1.01-.65.33-.22.67-.45,1.02-.65,1.3-.76,2.59-.72,3.85.12.22.15.43.3.63.46.17.13.33.25.5.37,1.07.74,2.17.83,3.36.28.68-.31,1.48-.65,2.32-.83.14-.03.3-.04.45-.04ZM32.84,49.26c-.44,0-.89-.17-1.3-.5-.28-.22-.5-.5-.72-.76-.1-.12-.2-.24-.3-.35-.57-.63-1-.71-1.78-.32-.78.39-1.65.72-2.64.42-1.64-.49-2.5-1.85-2.23-3.55.21-1.36,1.31-2.16,2.95-2.16.02,0,.04,0,.06,0,.08,0,.16,0,.29,0h.29s.02,0,.03,0c1.41.17,2.56-.46,3.42-1.85.57-.94,1.37-1.37,2.3-1.25,1.07.14,1.54.94,1.9,1.79.39.94.23,1.86.07,2.75v.05c-.13.7-.22,1.43-.3,2.13-.04.36-.08.72-.13,1.08l-.02.14c-.04.29-.07.59-.16.89-.2.71-.64,1.23-1.23,1.42-.16.05-.33.08-.5.08ZM29.55,46.6c.48,0,.9.24,1.33.72.11.12.21.25.31.37.21.26.41.5.65.69.45.35.93.47,1.35.33.43-.14.75-.52.91-1.08.07-.26.11-.53.14-.82l.02-.14c.05-.36.09-.71.13-1.07.08-.71.16-1.44.29-2.16v-.05c.16-.86.3-1.67-.03-2.48-.34-.82-.73-1.39-1.51-1.49-.74-.1-1.35.25-1.82,1.02-.95,1.55-2.29,2.27-3.88,2.09h-.27c-.13,0-.21,0-.29,0-1.43,0-2.35.62-2.52,1.74-.23,1.46.48,2.59,1.89,3.01.78.23,1.48.01,2.28-.39.38-.19.72-.29,1.03-.29ZM39.8,48.02c-.34,0-.7-.1-1.05-.31-1.61-.94-2.2-2.53-1.77-4.72.14-.71.4-1.47.78-2.32.35-.78,1.05-1.15,2.19-1.15,0,0,.02,0,.03,0,.85,0,1.61.4,2.1,1.11.6.87.69,2.08.25,3.22-.17.43-.29.9-.41,1.35-.06.23-.12.46-.19.69-.03.09-.05.19-.08.29-.07.26-.14.54-.27.79-.26.51-.65.85-1.12.98-.15.04-.31.07-.46.07ZM39.98,40.02s-.02,0-.02,0c-1.2,0-1.56.46-1.74.86-.37.82-.61,1.54-.75,2.21-.39,1.96.12,3.37,1.53,4.2.39.23.78.29,1.13.19.34-.1.62-.35.82-.74.11-.2.17-.44.23-.69.03-.1.05-.2.08-.3.07-.22.13-.45.18-.68.12-.47.25-.95.43-1.4.39-.99.32-2.02-.19-2.76-.39-.57-1.01-.9-1.69-.9ZM39.96,39.78h0,0ZM50.67,45.95c-.91,0-1.75-.75-2.09-1.89-.07-.23-.12-.47-.17-.69-.03-.15-.06-.3-.1-.45-.33-1.34-1.03-2.18-2.19-2.62-1.15-.44-1.86-1.4-1.8-2.46.05-.98.93-2.23,2.1-2.45,1.05-.2,2.14-.33,3.29-.48.53-.07,1.08-.13,1.67-.21.01,0,.03,0,.04,0,.31,0,.64.19.9.51.38.48.53,1.14.4,1.76-.12.55-.38,1.07-.64,1.56l-.06.13c-.38.74-.34,1.24.17,1.77.75.79,1.07,1.82.96,3.07-.11,1.22-1.1,2.3-2.27,2.44-.07,0-.14.01-.2.01ZM51.43,35.18c-.58.08-1.13.15-1.65.21-1.19.15-2.22.28-3.26.47-.93.17-1.67,1.2-1.71,1.99-.04.84.54,1.62,1.49,1.98,1.3.5,2.12,1.46,2.49,2.96.04.16.07.31.1.47.05.23.09.44.15.65.3.99,1.02,1.62,1.76,1.53.93-.11,1.76-1.01,1.84-2,.09-1.1-.19-2.01-.83-2.69-.83-.88-.57-1.71-.24-2.33l.07-.13c.24-.47.49-.95.6-1.44.1-.49,0-.99-.3-1.36-.16-.19-.35-.32-.51-.33ZM19.79,44.15c-.16,0-.32-.02-.49-.06-.83-.19-1.35-.8-1.28-1.51.16-1.76-.41-3.15-1.8-4.39-.55-.49-.67-1.27-.3-2.02.46-.94,1.34-.88,2.19-.83h.11s.03,0,.04.01c.74.17,1.35-.29,2.04-1.03.47-.5,1.14-1.1,2.14-1.19,1.4-.13,2.5.51,3.25,1.89.67,1.22.51,2.75-.36,3.63-.64.65-1.41,1.17-2.16,1.46-.9.36-1.3.81-1.41,1.61-.07.51-.27,1.06-.56,1.6-.29.54-.79.82-1.39.82ZM17.47,35.81c-.55,0-.89.11-1.12.58-.27.55-.2,1.1.19,1.44,1.49,1.33,2.14,2.9,1.96,4.8-.05.53.42.88.9.99.43.1,1.01.09,1.34-.52.27-.49.44-.98.51-1.43.14-.98.65-1.57,1.72-1.99.69-.27,1.4-.75,2-1.35.73-.73.84-2.01.28-3.05-.67-1.23-1.55-1.75-2.78-1.64-.65.06-1.21.38-1.83,1.04-.69.74-1.47,1.39-2.49,1.18h-.09c-.22-.02-.42-.03-.6-.03ZM40.27,36.49c-.25,0-.49-.04-.72-.12-.65-.22-1.18-.75-1.5-1.5-.11-.26-.17-.53-.22-.8-.03-.14-.06-.29-.1-.43-.08-.28-.16-.56-.25-.85-.16-.55-.33-1.11-.45-1.68-.04-.2-.09-.4-.14-.61-.19-.79-.38-1.62-.28-2.41.19-1.58,1.82-2.75,3.89-2.78.99-.07,1.84.35,2.31,1.16,1.38,2.37,1.76,4.62,1.16,6.88-.31,1.15-1.06,2.05-2.31,2.75-.45.25-.93.38-1.38.38ZM40.71,25.79c-.06,0-.13,0-.19,0,0,0,0,0-.01,0-1.82.03-3.26,1.02-3.42,2.35-.08.71.1,1.49.27,2.24.05.21.1.41.14.62.12.55.28,1.11.44,1.64.09.29.17.57.25.86.04.15.07.31.11.46.05.25.1.49.19.71.26.62.68,1.05,1.21,1.23.52.18,1.11.1,1.7-.23,1.13-.63,1.81-1.43,2.08-2.45.57-2.12.2-4.25-1.11-6.5-.35-.6-.94-.93-1.66-.93ZM40.5,25.56h0,0ZM30.32,36.21c-1.64,0-2.75-.85-3.22-2.47-.11-.38-.19-.78-.26-1.16-.03-.17-.07-.35-.11-.52-.01-.07,0-.13.04-.19.04-.06.1-.09.16-.1h.05s-.12-1-.12-1c-.11-.94-.23-1.87-.35-2.81-.11-.9.16-1.77.75-2.4.58-.61,1.37-.92,2.24-.86,1.81.12,3.15,1.11,3.87,2.87.77,1.87,1.02,3.78.74,5.68-.26,1.73-1.58,2.84-3.52,2.94-.09,0-.19,0-.28,0ZM27.27,32.21c.02.09.04.18.05.28.07.37.15.75.25,1.12.42,1.48,1.43,2.19,3,2.1,1.7-.09,2.84-1.04,3.06-2.53.27-1.81.03-3.63-.71-5.42-.66-1.59-1.82-2.46-3.45-2.57-.72-.05-1.38.2-1.85.7-.49.52-.71,1.25-.62,2,.12.94.23,1.87.35,2.81l.15,1.22c.02.13-.07.25-.2.27h-.03ZM49.34,33.07c-.08,0-.16,0-.24-.01-.63-.07-1.17-.38-1.53-.89-.28-.4-.77-1.19-.84-2.02-.22-2.6-1.72-4.38-3.15-5.79-.46-.45-.84-.91-1.12-1.36-.71-1.13-.71-2.33,0-3.56.66-1.16,1.73-1.73,3.08-1.66,2.2.11,4.03,1.13,5.31,2.94.28.39.4.87.53,1.33.05.2.11.4.17.59.02.05.02.11,0,.16-.07.21-.13.42-.19.62-.13.44-.25.86-.46,1.24-1,1.73-.99,3.44.03,5.2.67,1.16.64,1.95-.11,2.64-.4.37-.93.57-1.49.57ZM45.34,18.27c-1.07,0-1.91.49-2.45,1.42-.62,1.08-.62,2.08,0,3.06.26.42.62.84,1.05,1.27,1.5,1.47,3.06,3.34,3.3,6.1.06.71.5,1.42.75,1.78.28.39.7.63,1.18.69.5.05.98-.11,1.34-.44.48-.44.65-.94.02-2.03-1.12-1.93-1.13-3.8-.03-5.7.19-.33.3-.72.42-1.13.05-.18.11-.37.17-.56-.06-.18-.11-.37-.16-.55-.12-.44-.23-.85-.46-1.17-1.2-1.71-2.86-2.62-4.93-2.73-.06,0-.12,0-.19,0ZM21.05,32.13c-.36,0-.74-.1-1.11-.32-.58-.33-1.16-1.02-.66-2.41.09-.25.18-.49.27-.74.22-.58.44-1.19.61-1.79.23-.84.11-1.72-.4-2.85-.74-1.64-.76-3.3-.05-4.67.72-1.4,2.11-2.37,3.94-2.74.2-.04.41-.07.58-.1l.19-.03s.06,0,.09,0c1.1,0,2.09.53,2.73,1.47.68,1,.82,2.27.36,3.4-.28.68-.76,1.39-1.38,2.06-1.77,1.89-2.62,3.63-2.74,5.67-.04.62-.31,1.33-.8,2.11-.39.61-.97.94-1.61.94ZM24.47,16.97l-.18.03c-.17.03-.37.06-.56.1-1.67.34-2.95,1.22-3.6,2.49-.63,1.24-.61,2.74.06,4.24.35.77.77,1.95.43,3.18-.17.62-.4,1.24-.62,1.83-.09.24-.18.49-.27.73-.31.87-.16,1.46.45,1.82.79.46,1.6.28,2.06-.46.45-.72.7-1.35.73-1.88.13-2.13,1.04-4.03,2.88-5.97.58-.62,1.03-1.28,1.28-1.91.4-.98.28-2.08-.31-2.94-.55-.8-1.39-1.26-2.33-1.26h-.02ZM34.83,23.3c-.33,0-.67-.03-1.03-.09-1.43-.24-2.39-.97-2.84-2.17-.76-1.99-.73-3.86.09-5.54.84-1.73,2.11-2.57,3.75-2.48,1.57.08,2.73.99,3.45,2.68.26.6.39,1.27.49,1.81.04.21.08.41.12.59,0,.03,0,.06,0,.09-.04.31-.07.59-.09.85-.05.51-.09.95-.19,1.38-.4,1.84-1.8,2.89-3.76,2.89ZM34.56,13.5c-1.35,0-2.35.73-3.08,2.21-.76,1.56-.78,3.29-.07,5.15.39,1.03,1.2,1.64,2.47,1.86,2.2.38,3.82-.55,4.23-2.42.09-.4.13-.83.18-1.32.02-.25.05-.52.09-.82-.04-.17-.08-.36-.11-.57-.1-.54-.22-1.15-.46-1.71-.64-1.51-1.66-2.31-3.03-2.38-.07,0-.14,0-.21,0Z"/>
</svg>