<?xml version="1.0" encoding="UTF-8"?>
<svg id="Layer_1" xmlns="http://www.w3.org/2000/svg" viewBox="0 0 70 70">
  <defs>
    <style>
      .cls-1 {
        fill: #fff;
      }

      .cls-2 {
        opacity: .45;
      }

      .cls-3 {
        fill: #00b2c9;
      }
    </style>
  </defs>
  <path class="cls-3" d="M65.29,24.98c-.37.95-.85,1.86-1.41,2.72-.56.85-1.23,1.69-1.86,2.53l-3.82,5.07-7.64,10.14c-3.84,5.11-7.91,10.72-11.84,16.11,0,0,0,0,0,0-.45.61-.9,1.23-1.34,1.84-.76,1.05-1.52,2.08-2.26,3.09-.02-.03-.04-.06-.06-.08-.95-1.29-2.3-2.46-3.4-3.7-.28-.31-.54-.62-.77-.95l-.53-.77-3.21-4.7-3.98-5.23-1.74-2.49-2.99-3.73c-2.54-3.37-4.15-5.61-6.72-8.96l-1.66-2.03s0,0,0,0l-2.82-3.44c-.12-.15-.21-.41-.29-.69-.14-.48-.26-1.04-.46-1.3-.31-.42-.48-.81-.75-1.24-.55-.87-.86-1.79-1.24-2.74-.39-.95-.3-2.73-.5-3.73-.19-1.01-.02-1.96,0-2.99.01-1.03.3-1.48.5-2.49.21-1.01.59-1.79,1-2.74.01-.03.03-.06.04-.09,1.62-3.73,5.18-6.16,8.97-7.7,1.91-.79,3.98-1.19,6.05-1.14,1.9.05,3.8.45,5.57,1.17.15.06.31.13.46.2.46.2.9.43,1.33.67,1.37.77,2.63,1.77,3.72,2.91.25.26.49.53.72.8,1.11,1.31,2.03,2.78,2.79,4.32,0,.01.01.03.02.04.04.08.13.11.21.08.08-.04.11-.13.08-.21,0-.02-.02-.04-.03-.06,1.25-1.68,2.36-3.47,3.74-5,.36-.37.71-.76,1.11-1.08.38-.35.81-.64,1.22-.95.83-.55,1.69-1.04,2.61-1.42,0,0,.02,0,.03-.01.03-.01.05-.02.08-.03,3.8-1.6,8.24-1.8,12-.17,1.91.78,3.68,1.87,5.19,3.25.74.7,1.41,1.48,2,2.31.57.85,1.08,1.74,1.47,2.68.38.95.72,1.92.93,2.93.23,1,.39,2.03.44,3.05,0,.06,0,.12,0,.18.09,1.98-.26,3.98-.99,5.83Z"/>
  <g class="cls-2">
    <path class="cls-1" d="M37.38,63.4c-.76,1.05-1.52,2.08-2.26,3.09-.02-.03-.04-.06-.06-.08-.95-1.29-2.3-2.46-3.4-3.7-.28-.31-.54-.62-.77-.95l-.53-.77c-4.97-6.6-14.82-19.85-20.3-27.15,0,0,0,0,0,0l-2.82-3.44c-.12-.15-.21-.41-.29-.69-3.03-4.25-4.03-8.93-2.67-14.12.29-1.12.72-2.2,1.26-3.2,1.62-3.73,5.18-6.16,8.97-7.7,1.91-.79,3.98-1.19,6.05-1.14,1.9.05,3.8.45,5.57,1.17l.09.19,1.68.61s-1.73,9.98-7.47,7.47c-3.98-1.74-6.47,1-6.47,1-2.99,1.49-4.73,7.72,8.46,27.14,6.79,9.99,11.73,17.41,14.93,22.26,0,.01.02.03.03.04Z"/>
  </g>
  <g>
    <path d="M34.75,14.02c.57-.89,1.12-1.79,1.69-2.69.57-.89,1.16-1.78,1.85-2.61.36-.4.71-.82,1.12-1.17.38-.38.82-.71,1.24-1.05.21-.17.45-.31.67-.46.22-.15.45-.31.69-.43l.71-.4c.24-.12.49-.23.73-.35l.37-.17.38-.15.76-.29.78-.24c.13-.04.26-.08.39-.12l.4-.09c.26-.06.53-.12.79-.18l.8-.13c.27-.05.54-.07.81-.09.27-.02.54-.05.81-.06.54,0,1.09-.03,1.63.02.27.02.55.02.82.06l.81.12c.14.02.27.04.4.07l.4.09c.27.06.54.11.8.2l.79.25c.26.09.51.2.76.29,2.02.79,3.92,1.93,5.53,3.4.8.75,1.52,1.58,2.16,2.47.61.91,1.15,1.87,1.57,2.88.41,1.01.76,2.05.97,3.11.23,1.06.4,2.13.45,3.23.11,2.18-.26,4.4-1.09,6.42-.41,1.01-.93,1.98-1.54,2.88-.62.91-1.28,1.72-1.92,2.56l-3.88,5.03-7.75,10.05-7.75,10.05-3.89,5.01-1.95,2.51-.97,1.25-.49.63-.24.31-.21.32h0c-.05.09-.15.11-.22.06s-.1-.15-.05-.22c0,0,0,0,0,0,5.02-6.84,10.13-13.57,15.22-20.34l7.63-10.14,3.82-5.07c.63-.85,1.3-1.69,1.86-2.53.56-.86,1.04-1.77,1.41-2.72.75-1.9,1.09-3.96.98-6-.05-1.02-.22-2.04-.44-3.05-.21-1.01-.55-1.98-.93-2.93-.4-.94-.91-1.83-1.47-2.68-.59-.83-1.26-1.6-2-2.31-1.51-1.38-3.28-2.47-5.19-3.25-3.76-1.63-8.2-1.43-12,.17-.96.39-1.86.9-2.72,1.47-.42.31-.84.6-1.22.95-.4.33-.75.71-1.11,1.08-1.4,1.55-2.52,3.36-3.79,5.06-.03.04-.09.05-.13.02-.04-.03-.05-.09-.02-.13Z"/>
    <path d="M33.97,12.19c-.56-1.08-1.2-2.11-1.96-3.04-.76-.93-1.64-1.75-2.63-2.41-1.99-1.32-4.35-1.92-6.73-2.24-.6-.08-1.2-.14-1.79-.18l-.89-.03c-.15-.01-.29,0-.44,0l-.44.02-.44.02-.44.05-.44.05c-.15.02-.29.04-.44.07l-.87.17-.85.23c-1.13.34-2.23.79-3.26,1.37-1.03.59-2,1.27-2.89,2.04-.88.78-1.67,1.66-2.37,2.61l-.5.73-.45.76c-.3.51-.55,1.04-.78,1.58-.22.54-.41,1.1-.57,1.67l-.21.86c-.07.29-.11.58-.17.87-.19,1.17-.27,2.35-.2,3.53.13,2.36.84,4.66,1.99,6.74.29.52.6,1.03.94,1.52.33.5.69.97,1.06,1.46l2.19,2.93.09.26c0-.1-.05-.23-.12-.29l.04.04,10.97,14.85,5.47,7.43c1.82,2.48,3.63,4.97,5.47,7.43.05.07.04.17-.03.22-.07.05-.17.04-.22-.03-1.89-2.43-3.74-4.88-5.61-7.33l-5.58-7.35-11.14-14.71.04.04c-.08-.07-.13-.2-.13-.31l.09.26-2.22-2.9-.56-.73c-.19-.25-.38-.5-.55-.76-.36-.51-.69-1.04-1-1.58-.62-1.08-1.13-2.24-1.51-3.44-.38-1.2-.6-2.45-.68-3.7-.08-1.26,0-2.52.19-3.76.06-.31.1-.62.17-.92l.21-.91c.16-.61.36-1.21.6-1.8.24-.58.5-1.16.82-1.7l.48-.82.54-.78c.75-1.01,1.6-1.95,2.54-2.78.95-.82,1.99-1.54,3.09-2.15,1.11-.6,2.28-1.06,3.49-1.41,1.21-.36,2.46-.52,3.72-.56h.47c.16-.01.31-.01.47,0l.94.06c.62.06,1.23.14,1.84.23,1.22.19,2.44.46,3.62.87,1.18.41,2.31.98,3.32,1.71,1.02.73,1.9,1.63,2.63,2.63.73,1,1.32,2.09,1.81,3.21.02.05,0,.1-.05.13-.05.02-.1,0-.12-.04Z"/>
  </g>
</svg>