<?xml version="1.0" encoding="UTF-8"?>
<svg id="Layer_1" xmlns="http://www.w3.org/2000/svg" viewBox="0 0 70 70">
  <defs>
    <style>
      .cls-1 {
        fill: #fff;
      }

      .cls-2 {
        opacity: .45;
      }

      .cls-3 {
        fill: #00b2c9;
      }
    </style>
  </defs>
  <path class="cls-1" d="M23.55,50.06s0,0-.01-.01l-.85-.73c-.44-.14-.92-.15-1.37-.01-.47.14-.91.44-1.23.83-.31.39-.49.89-.41,1.36.07.48.4.9.83,1.2.1.08.22.14.34.21.11.06.22.11.35.15.24.07.5.09.77.07.52-.05,1.05-.25,1.49-.55.22-.15.41-.34.53-.56.13-.22.18-.49.18-.75,0-.39-.12-.76-.28-1.13-.11.02-.23,0-.33-.07Z"/>
  <path class="cls-1" d="M26.95,55.62c-.15-.13-.3-.24-.47-.33-.34-.19-.72-.3-1.12-.35-.39-.05-.8-.04-1.2.01-.4.06-.8.15-1.17.31-.37.15-.72.37-.98.66-.26.29-.43.67-.51,1.06-.12.57-.06,1.17.05,1.76l.42.52.94,1.16c.63.38,1.38.56,2.12.5.76-.06,1.52-.36,2.12-.84.6-.48,1.03-1.18,1.07-1.93.05-.75-.3-1.5-.85-2.09-.13-.15-.28-.29-.43-.42Z"/>
  <path class="cls-3" d="M20.64,53.3c-.13-.07-.26-.14-.39-.22-.5-.32-.96-.83-1.09-1.48-.14-.64.07-1.31.44-1.82.37-.51.89-.9,1.49-1.11.6-.21,1.27-.23,1.89-.03.04.01.07.03.1.05h.01s.94.74.94.74c.17.14.2.39.07.56-.02.03-.05.05-.08.07.18.37.32.76.35,1.19.02.3-.03.61-.17.88-.14.28-.35.5-.59.68-.48.35-1.03.59-1.63.68-.3.04-.61.03-.91-.04-.15-.04-.3-.09-.44-.16ZM28.39,59.48c-.21.4-.51.76-.85,1.05-.68.59-1.54.96-2.44,1.06-.9.1-1.84-.1-2.63-.56-.03-.02-.06-.04-.09-.07h0s-.63-.75-.63-.75l-.2-.73c-.03-.12-.06-.22-.08-.32l-.07-.31c-.05-.21-.09-.41-.12-.62-.06-.42-.07-.85,0-1.28.07-.43.24-.85.53-1.19.28-.34.66-.59,1.06-.77.4-.18.81-.29,1.24-.37.42-.07.86-.1,1.3-.05.43.04.87.16,1.27.36.2.1.39.23.56.37.16.14.33.28.48.45.3.31.57.67.76,1.09.19.41.29.87.28,1.33-.01.46-.14.92-.35,1.32ZM29.14,48.66c-.1.21-.26.38-.43.5-.17.13-.36.22-.55.29-.38.14-.79.18-1.19.15-.24-.02-.49-.08-.72-.17-.05.04-.1.08-.17.1-.21.06-.43-.07-.49-.28,0-.01,0-.02,0-.03-.07-.37-.17-.82-.06-1.3.05-.23.16-.48.34-.67.18-.19.39-.31.6-.39.42-.15.84-.21,1.28-.14.22.03.44.1.63.22.1.06.2.13.27.21.08.07.15.15.22.23.14.16.26.36.32.58.06.23.05.49-.05.7ZM57.41,59.53c-.01-.47-.05-.95-.13-1.42-.03-.23-.09-.47-.13-.7-.06-.23-.11-.46-.18-.69-.54-1.83-1.51-3.52-2.42-5.26-.9-1.75-1.72-3.52-2.56-5.29-.83-1.76-1.69-3.51-2.56-5.26-.33-.67-.67-1.33-1.02-2,.02.05,0,.1-.03.13-.46.44-1.07.71-1.69.81-.63.1-1.28.03-1.87-.2-.3-.11-.58-.28-.83-.48-.25-.2-.47-.45-.65-.71-.12-.18-.23-.36-.32-.54-.2-.37-.36-.75-.53-1.11-.25-.55-.52-1.09-.92-1.47-.2-.19-.42-.34-.68-.43-.25-.09-.52-.12-.78-.09-.54.05-1.06.32-1.49.68-.43.36-.77.83-1.09,1.34-.31.51-.6,1.05-.93,1.58-.34.53-.75,1.05-1.27,1.46-.26.21-.55.39-.87.52-.32.13-.68.21-1.03.21-.69.02-1.35-.16-1.95-.44-.6-.28-1.14-.67-1.61-1.11-.24-.23-.46-.46-.66-.72-.19-.24-.38-.48-.57-.7-.19-.22-.38-.43-.56-.56-.19-.13-.3-.15-.47-.11-.17.04-.4.16-.62.32-.22.16-.44.34-.65.54-.22.2-.56.19-.77-.03-.1-.11-.15-.25-.15-.38-.72.17-1.5.16-2.21-.03-.51.97-1.03,1.93-1.54,2.89-.93,1.72-1.91,3.42-2.91,5.1l-1.51,2.51c-.51.84-1.02,1.66-1.48,2.51-.93,1.7-1.73,3.47-2.3,5.31-.29.92-.52,1.86-.7,2.81-.2.92-.16,1.86.15,2.72.3.86.86,1.63,1.6,2.16.73.55,1.63.84,2.57.99s1.9.16,2.89.2c.98.05,1.95.08,2.92.11,1.95.06,3.9.1,5.85.12,1.96.03,3.9.07,5.86.06,1.95,0,3.91-.02,5.86,0,1,0,2.01,0,3.01,0,.95,0,1.89-.02,2.84-.05,1.95-.05,3.9-.16,5.82-.35.96-.1,1.9-.26,2.79-.57.86-.29,1.59-.89,1.99-1.7.41-.81.52-1.76.5-2.7Z"/>
  <path class="cls-1" d="M28.04,49.16c.32-.14.63-.37.74-.65.11-.28-.02-.57-.26-.82-.06-.06-.12-.12-.19-.17-.07-.06-.13-.09-.2-.13-.14-.07-.29-.11-.46-.12-.32-.03-.68.05-.97.18-.14.07-.26.15-.34.25-.08.1-.12.22-.14.36-.04.28.04.61.14.98.02.08.02.17,0,.24.55.16,1.17.1,1.69-.12Z"/>
  <path d="M22.68,60.62c2.03,1.3,5.44.04,5.58-2.5.02-1.5-1.43-3.01-2.94-3.11-1.1-.08-2.42.18-3.18,1.03-.74.94-.45,2.15-.16,3.29.12.51-.63.7-.77.2-.3-1.28-.53-2.84.42-3.93.96-1.01,2.43-1.27,3.76-1.14,1.35.14,2.48,1.15,3.03,2.37.58,1.25.07,2.76-.99,3.58-1.33,1.1-3.36,1.3-4.82.35-.08-.05,0-.18.08-.13h0Z"/>
  <path d="M26.47,49.63c.9.55,2.38-.02,2.42-1.11,0-.47-.38-.93-.79-1.15-.44-.2-.99-.13-1.42.07-.65.3-.52.96-.34,1.59.13.51-.62.72-.77.21-.14-.58-.24-1.45.26-1.99.65-.64,1.72-.75,2.51-.34.54.34.98.94.95,1.62-.12,1.33-1.86,1.93-2.89,1.22-.08-.05,0-.18.08-.13h0Z"/>
  <path d="M22.82,49.05c-1.51-.53-3.52.8-3.23,2.45.16.74.88,1.3,1.59,1.5.74.17,1.55-.12,2.14-.56.93-.66.54-1.73.05-2.61-.24-.47.46-.83.71-.37.38.77.8,1.89.3,2.77-.64,1.05-2.16,1.58-3.33,1.27-2.58-.91-2.39-3.79.1-4.63.56-.18,1.18-.16,1.72.04.09.03.04.17-.05.14h0Z"/>
  <g class="cls-2">
    <path class="cls-1" d="M54.97,64.23c-1.41.49-2.92.6-4.4.71-2.5.19-5,.25-7.3.27.05-.1.11-.21.19-.31.12-.17.28-.36.48-.55.88-.86,2.19-1.04,3.39-1.3,1.2-.26,2.51-.72,3.04-1.83.52-1.1.08-2.4-.38-3.54-2.11-5.29-4.22-10.58-6.33-15.87-.34-.86-.69-1.74-.76-2.66-.03-.4,0-.82.1-1.2.02-.08.05-.17.08-.25.14-.41.37-.79.7-1.08.92-.82,2.26-.73,3.5-.43,1.35,2.42,2.57,4.91,3.79,7.4,1.13,2.3,2.18,4.64,3.33,6.94,1.27,2.55,2.87,4.99,3.22,7.9.29,2.45-.11,4.93-2.65,5.81Z"/>
  </g>
  <path d="M45.09,9.16c-.17-1.06-.17-2.13-.16-3.2,0,0,0,.03,0,.03-.02-.24-.06-.45-.13-.55-.06-.1-.15-.13-.37-.14-.9-.03-3.41-.14-4.35-.18-1.92-.08-3.85-.02-5.79-.01,0,0-5.8.06-5.8.06-.69.02-1.43-.04-2.09.09-.43.09-.45.46-.55.85-.2,1.1-.45,2.32,0,3.38.14.4.39.49.84.44.52-.06,1.51-.2,1.63.55.04.28.01.52.03.78,0,0,0,.73,0,.73.02,1.96.06,6.82.08,8.7.07,2.91.06,5.99-1.28,8.65-2.82,6.18-6.05,12.14-9.57,17.93-2.04,3.24-3.89,6.66-4.69,10.43-.21.9-.38,1.83-.22,2.75.22,1.34,1.05,2.56,2.24,3.23,1.23.69,2.65.81,4.06.87,8.67.4,17.4.32,26.07.31,2.87-.09,5.79-.12,8.61-.61,1.98-.36,3.35-1.32,3.64-3.41.58-3.89-1.78-7.3-3.42-10.66-2.52-5.19-4.9-10.53-7.84-15.5-2.34-3.74-4.04-7.96-3.89-12.44.07-2.4.05-4.84.05-7.24,0-.97,0-1.94.04-2.91.04-.75-.06-1.96.92-2.16.31-.05.57,0,.82.06.12.03.2.15.17.28-.03.11-.13.19-.24.18-.23-.02-.46-.03-.63.02-.5.12-.36,1.14-.4,1.64-.07,2.9,0,5.79-.05,8.7,0,0-.03,1.45-.03,1.45-.12,3.83,1.14,7.57,3.07,10.85,2.76,4.55,5.05,9.38,7.34,14.18.7,1.49,1.78,3.75,2.57,5.19,1.4,2.58,2.61,5.47,2.16,8.48-.33,2.34-1.88,3.55-4.15,3.95-.97.2-1.95.28-2.92.36-9.66.54-19.35.27-29.03.07-1.72-.12-4.16-.02-5.84-.5-2.01-.49-3.66-2.2-3.97-4.26-.17-1,0-2.02.22-2.99.82-3.84,2.69-7.34,4.77-10.62,3.5-5.77,6.74-11.73,9.53-17.86.41-.87.72-1.73.91-2.67.39-1.84.33-3.83.31-5.71-.02-1.87-.06-6.77-.08-8.7,0-.31,0-1.08-.02-1.39,0-.03-.01-.04-.01-.04,0,0,0,0,0,0-.26-.06-.6,0-.92.02-.39.06-1.01-.05-1.27-.45-.65-1.02-.56-2.3-.37-3.42.14-.77.2-1.88,1.15-2.08.77-.16,1.49-.08,2.25-.11,0,0,5.8-.06,5.8-.06,1.93,0,3.87-.07,5.81.01,0,0,2.9.12,2.9.12l1.45.05c.13,0,.3.01.47.08.5.17.65.83.66,1.22,0,1.07,0,2.14-.16,3.2-.02.09-.1.15-.19.13-.07-.01-.12-.07-.13-.13h0Z"/>
  <path d="M25.86,37.33c1.82-1.67,2.47-1.17,3.82.6.9,1.11,2.24,2.05,3.71,2.02,1.87-.1,2.71-2.06,3.57-3.47.65-1.1,1.68-2.17,3.07-2.31,1.55-.18,2.5,1.14,3.02,2.38.47,1.03.89,2.11,1.99,2.51.96.38,2.17.19,2.87-.5.51-.49,1.27.25.77.77-1.59,1.5-4.45,1.15-5.58-.72-.36-.57-.59-1.16-.83-1.71-.35-.79-.67-1.54-1.45-1.87-.75-.29-1.56.01-2.19.5-.92.73-1.42,1.87-2.09,2.84-1.2,1.84-2.93,2.66-5,1.6-1.15-.55-1.97-1.54-2.69-2.55-.34-.42-.75-.95-1.34-.84-.56.12-1.04.55-1.47.92-.11.1-.29-.07-.16-.18h0Z"/>
</svg>