<?xml version="1.0" encoding="UTF-8"?>
<svg id="Layer_1" xmlns="http://www.w3.org/2000/svg" viewBox="0 0 70 70">
  <defs>
    <style>
      .cls-1 {
        fill: #fff;
      }

      .cls-2 {
        opacity: .45;
      }

      .cls-3 {
        fill: #00b2c9;
      }
    </style>
  </defs>
  <g>
    <path class="cls-3" d="M67.85,43.49c-.08.03-.17.05-.27.07-.1.01-.19.01-.31.01-.89,0-1.78-.1-2.66-.29-1.76-.37-3.46-1.02-5.13-1.72-3.33-1.42-6.46-3.33-9.24-5.64-1.4-1.16-2.71-2.41-3.92-3.75-.6-.67-1.19-1.37-1.74-2.07-.27-.36-.52-.72-.73-1.1-.21-.38-.38-.78-.47-1.17h0c-.03-.16-.17-.27-.33-.26-.1,0-.13.01-.19.03-.05.01-.1.03-.15.04-.1.03-.18.07-.27.11-.17.08-.33.17-.47.27-.3.2-.57.43-.81.67-.13.12-.24.25-.36.37-.11.13-.23.26-.33.39-.11.13-.21.26-.32.4l-.3.41h0c-.05.07-.07.15-.06.23.04.34.12.61.2.91.08.29.18.57.29.86.21.56.47,1.1.75,1.62.28.53.6,1.03.93,1.52.33.49.71.95,1.06,1.41l4.14,5.35c-.58,1.1-.95,2.29-1.2,3.49-.27,1.27-.41,2.55-.58,3.81l-.48,3.79-.12.95c-.04.32-.08.62-.16.88-.04.13-.1.25-.17.36-.06.1-.15.19-.24.26-.14.1-.29.15-.43.15-.18-1.92-.33-3.85-.5-5.77-.08-1-.2-2.01-.28-2.99-.08-.99-.1-1.98.05-2.94h0c.02-.14-.07-.28-.21-.31-1.09-.27-2.12-.78-3.11-1.37-.5-.29-.98-.61-1.47-.92-.49-.31-.98-.63-1.46-.95-.97-.64-1.9-1.31-2.77-2.07-.87-.75-1.7-1.57-2.53-2.38-.41-.4-.82-.82-1.16-1.27-.34-.45-.63-.95-.77-1.48-.14-.53-.13-1.11-.04-1.67.04-.28.11-.56.19-.83.04-.14.09-.28.12-.43.03-.15.04-.34-.04-.5-.07-.17-.2-.29-.34-.37-.14-.08-.29-.13-.44-.17s-.3-.05-.44-.07c-.15-.02-.29-.03-.44-.04-.59-.03-1.18.03-1.76.13-1.07.19-2.11.54-3.11.96-.01-.01-.02-.03-.04-.03-.06-.03-.12,0-.15.05-.01.02-.02.05-.03.07,0,0,0,0,0,0-.02.01-.03.04-.02.06t0,0c-.12.27-.23.54-.31.83-.09.33-.16.67-.2,1.02-.08.69-.08,1.38-.01,2.06.07.69.17,1.35.32,2.03.08.34.2.7.42,1.01.13.19.29.36.48.49-.2.09-.44.12-.68.09-.19-.02-.37-.07-.55-.14-.17-.08-.33-.19-.48-.32-.6-.53-.95-1.34-1.27-2.13-.32-.8-.55-1.63-.7-2.48-.04-.21-.07-.43-.09-.64l-.02-.16v-.1s-.03-.08-.04-.12c-.05-.16-.14-.29-.24-.4-.2-.21-.43-.33-.64-.43-.21-.1-.43-.18-.63-.26-3.21-1.33-6.15-3.36-8.53-5.9-.23-.24-.56-.34-.82-.34-.27,0-.52.04-.75.11-.23.07-.45.16-.65.24l-.61.27c-.81.36-1.6.71-2.42.9-.41.1-.82.15-1.23.14-.4-.01-.83-.07-1.12-.23-.15-.08-.25-.19-.31-.32-.06-.14-.09-.31-.07-.49.03-.36.2-.72.44-1.03.49-.64,1.22-1.13,1.91-1.7.35-.28.7-.58,1.02-.91.32-.33.62-.7.85-1.1.48-.79.81-1.62,1.18-2.41.18-.39.38-.78.61-1.13.23-.35.49-.68.79-.95l.1-.18s0,0,0,0c0,0,.03-.03.06-.04.06-.02.15-.03.2,0,.12.03.25.19.29.37.05.2.04.44.02.7-.02.26-.05.52-.09.78-.04.26-.08.52-.13.78,0,.06-.03.14-.03.23,0,.09,0,.17,0,.25.02.16.06.32.13.46.26.57.69.96,1.11,1.31.21.18.42.33.65.5.23.16.47.31.71.44.49.26,1.01.45,1.54.6,1.06.29,2.16.41,3.25.36,2.15-.1,4.26-.83,5.99-2.11.03-.02.05-.04.08-.06.88-.66,1.6-1.47,2.32-2.26.36-.4.71-.79,1.09-1.15.38-.37.78-.7,1.2-1.01,1.7-1.22,3.75-1.96,5.85-2.08.52-.04,1.05-.02,1.57.02.52.05,1.04.13,1.56.23.52.1,1.03.22,1.54.36.51.14,1.02.3,1.51.48,1.99.72,3.87,1.75,5.53,3.07,1.66,1.31,3.1,2.92,4.19,4.73.6,1.27,1.27,2.51,1.96,3.73.7,1.22,1.43,2.42,2.22,3.59.78,1.17,1.6,2.32,2.48,3.42.79,1,1.63,1.96,2.51,2.87-.02.04-.01.1.02.13,1.3,1.28,2.65,2.53,4.12,3.64,1.1.82,2.29,1.56,3.56,2.12.43.19.86.36,1.31.5.24.08.47.11.66.17.1.03.15.06.21.11.05.05.09.11.1.15.01.09-.02.16-.18.23Z"/>
    <path class="cls-3" d="M43.77,55.91h-.08s0-.07,0-.07c-.11-1.2-.22-2.43-.31-3.61-.06-.72-.12-1.44-.18-2.16-.04-.49-.09-1-.14-1.49-.05-.5-.1-1.01-.14-1.51-.09-1.21-.08-2.12.05-2.96.02-.1-.05-.2-.15-.22-.96-.24-1.95-.68-3.13-1.38-.47-.28-.94-.58-1.4-.87l-.33-.21c-.4-.26-.81-.52-1.21-.78-1.13-.74-2.01-1.4-2.78-2.07-.86-.74-1.68-1.55-2.49-2.33l-.05-.05c-.46-.45-.84-.84-1.17-1.27-.4-.52-.65-1.02-.79-1.5-.13-.5-.14-1.05-.04-1.7.04-.27.11-.55.19-.84.01-.04.03-.09.04-.13.03-.09.06-.19.08-.29.03-.18.02-.33-.03-.46-.07-.17-.21-.27-.31-.33-.12-.07-.25-.12-.42-.16-.13-.03-.26-.05-.39-.06h-.05c-.1-.02-.2-.03-.31-.03-.04,0-.08,0-.13,0-.52-.02-1.09.02-1.74.13-.95.17-1.96.48-3.09.95l-.05.02-.04-.04s-.02-.02-.02-.02c-.01,0-.03,0-.04.02l-.06.13c-.13.3-.23.56-.31.82-.09.33-.16.67-.2,1-.08.66-.08,1.34-.01,2.04.07.71.17,1.37.32,2.02.07.28.18.65.41.99.13.19.28.35.46.47l.12.08-.13.06c-.22.09-.46.13-.72.1-.19-.02-.39-.07-.57-.15-.17-.08-.33-.19-.5-.33-.59-.52-.94-1.29-1.3-2.16-.32-.81-.56-1.65-.71-2.5-.04-.23-.07-.44-.09-.64l-.03-.26s-.01-.07-.02-.1c-.05-.17-.15-.29-.22-.37-.19-.2-.41-.32-.62-.42-.16-.08-.33-.14-.49-.2l-.13-.05c-3.22-1.33-6.18-3.38-8.56-5.92-.18-.19-.47-.31-.76-.31-.23,0-.45.03-.73.11-.21.06-.41.14-.6.22l-.72.31c-.8.36-1.56.69-2.36.87-.44.1-.86.15-1.25.14-.35,0-.83-.06-1.16-.24-.16-.09-.27-.21-.34-.36-.07-.15-.09-.33-.08-.52.03-.35.19-.72.45-1.07.38-.5.89-.9,1.43-1.32.16-.13.33-.26.49-.39.29-.23.66-.54,1.01-.9.32-.33.61-.7.84-1.08.35-.57.62-1.17.88-1.75.1-.22.2-.44.3-.65.21-.45.41-.82.61-1.14.24-.37.51-.7.79-.96l.1-.19s.05-.04.09-.06c.08-.03.18-.03.25,0,.15.04.3.23.34.43.05.21.04.46.02.73-.02.23-.05.49-.09.78-.04.26-.08.52-.13.78v.05s-.03.11-.03.17c0,.07,0,.15,0,.24.01.14.06.29.12.44.25.55.66.92,1.09,1.28.19.16.39.31.64.49.22.16.46.31.7.43.46.24.97.44,1.53.59,1.03.29,2.12.41,3.22.35,2.14-.1,4.25-.84,5.94-2.1.03-.02.05-.04.08-.06.84-.63,1.55-1.41,2.23-2.17l.07-.08c.34-.38.7-.78,1.09-1.15.34-.33.73-.66,1.21-1.02,1.72-1.23,3.81-1.98,5.89-2.09.47-.03.99-.03,1.58.02.46.04.94.11,1.57.23.53.1,1.05.23,1.55.36.51.14,1.02.3,1.52.48,2.03.74,3.9,1.77,5.55,3.08,1.7,1.35,3.12,2.95,4.21,4.75.55,1.16,1.19,2.38,1.96,3.73.75,1.31,1.48,2.49,2.21,3.59.83,1.25,1.64,2.36,2.47,3.41.78.99,1.63,1.95,2.51,2.87l.04.04-.03.05s0,.03,0,.04c1.16,1.14,2.55,2.45,4.11,3.63,1.22.91,2.38,1.6,3.54,2.11.44.19.87.36,1.3.49.13.04.25.07.37.1.1.02.2.05.29.08.1.03.17.06.24.13.06.06.11.13.12.2.02.14-.05.25-.23.32h0c-.08.03-.17.06-.29.07-.12.02-.24.01-.37.01-.83,0-1.71-.1-2.63-.29-1.9-.41-3.75-1.14-5.15-1.73-3.35-1.43-6.47-3.33-9.26-5.65-1.4-1.16-2.72-2.42-3.93-3.76-.58-.65-1.17-1.35-1.75-2.08-.31-.42-.55-.77-.73-1.12-.24-.44-.4-.83-.48-1.2-.03-.13-.13-.21-.25-.2-.08,0-.11.01-.16.02h-.05s-.08.03-.11.04c-.08.03-.16.06-.24.1h-.02c-.17.09-.33.18-.46.28-.28.19-.54.4-.8.66-.09.09-.18.18-.27.27l-.09.1s-.08.09-.12.14c-.07.08-.14.16-.21.24l-.1.13c-.07.09-.14.18-.21.27l-.3.41c-.04.05-.05.11-.05.18.05.34.12.63.2.9.08.3.19.6.28.85.2.52.44,1.05.75,1.61.26.48.56.98.93,1.51.25.37.54.73.81,1.08.08.11.17.22.25.33l4.17,5.39-.02.05c-.52.99-.91,2.13-1.19,3.47-.23,1.09-.37,2.21-.51,3.29l-.67,5.26c-.04.32-.08.62-.17.9-.05.15-.11.27-.18.38-.06.1-.15.19-.26.28-.15.1-.32.16-.47.16ZM27.82,29.22c.1,0,.2,0,.3,0,.04,0,.08,0,.13,0,.11,0,.21.01.32.03h.04c.13.02.27.04.41.07.18.04.33.1.46.17.13.07.29.2.38.41.07.15.08.34.04.55-.02.11-.05.21-.08.31-.01.04-.03.09-.04.13-.08.28-.15.56-.19.82-.1.62-.08,1.17.04,1.64.13.47.37.94.76,1.45.33.43.7.81,1.15,1.26l.05.05c.8.78,1.63,1.59,2.48,2.33.77.67,1.64,1.32,2.76,2.06.4.26.8.52,1.21.78l.33.21c.45.29.93.59,1.39.87,1.17.69,2.15,1.13,3.09,1.36.18.04.29.22.27.4-.13.83-.14,1.73-.05,2.92.04.5.09,1.01.14,1.51.05.49.1.99.14,1.49.06.72.12,1.44.18,2.17.1,1.16.19,2.36.31,3.53.11-.01.22-.06.31-.13.1-.08.17-.15.22-.24.06-.1.12-.21.16-.34.08-.26.12-.56.16-.87l.67-5.26c.14-1.08.28-2.2.51-3.3.28-1.33.67-2.47,1.18-3.46l-4.11-5.31c-.08-.11-.17-.22-.25-.32-.27-.35-.56-.72-.81-1.09-.37-.54-.68-1.04-.94-1.52-.31-.57-.56-1.1-.76-1.63-.09-.25-.2-.55-.29-.86-.08-.27-.16-.57-.2-.92-.01-.1.01-.2.07-.29l.3-.42c.07-.09.14-.18.22-.27l.1-.13c.07-.08.14-.17.21-.25.04-.05.08-.09.12-.14l.09-.1c.09-.1.18-.19.27-.28.27-.27.54-.49.82-.68.14-.1.3-.19.48-.28h.02c.08-.05.16-.08.25-.11.04-.01.08-.02.12-.03h.06s.09-.03.18-.04c.2,0,.37.12.41.31.08.36.23.74.46,1.17.18.34.41.68.72,1.09.57.73,1.16,1.42,1.74,2.07,1.2,1.33,2.52,2.59,3.91,3.75,2.78,2.31,5.89,4.2,9.22,5.63,1.39.59,3.23,1.31,5.12,1.72.92.19,1.82.29,2.64.29.12,0,.21,0,.3-.01.1-.01.18-.03.25-.06h0c.15-.06.14-.11.13-.14,0-.02-.03-.07-.07-.11-.04-.04-.09-.06-.18-.09-.08-.03-.18-.05-.28-.07-.12-.03-.25-.06-.38-.1-.43-.14-.87-.31-1.31-.5-1.17-.52-2.34-1.21-3.57-2.13-1.57-1.18-2.97-2.51-4.13-3.64-.05-.04-.06-.1-.06-.17-.87-.91-1.71-1.86-2.49-2.85-.84-1.05-1.65-2.17-2.48-3.42-.74-1.11-1.47-2.28-2.22-3.6-.77-1.36-1.42-2.58-1.96-3.74-1.08-1.78-2.48-3.36-4.17-4.7-1.64-1.3-3.49-2.33-5.51-3.06-.49-.17-1-.34-1.51-.48-.49-.13-1.01-.25-1.54-.36-.63-.12-1.11-.19-1.56-.23-.59-.05-1.1-.05-1.56-.02-2.05.11-4.11.85-5.81,2.06-.47.35-.85.67-1.19,1-.39.38-.75.77-1.08,1.15l-.07.08c-.69.76-1.4,1.56-2.26,2.19-.03.02-.05.04-.08.06-1.71,1.27-3.86,2.03-6.03,2.13-1.12.05-2.22-.07-3.27-.36-.56-.15-1.09-.36-1.56-.6-.25-.13-.49-.28-.72-.44-.26-.19-.46-.34-.65-.5-.45-.37-.87-.76-1.13-1.34-.07-.17-.12-.33-.13-.49-.01-.1-.01-.19,0-.27,0-.06.01-.13.02-.18v-.05c.05-.26.1-.52.14-.78.04-.29.07-.54.09-.77.02-.25.03-.49-.01-.68-.04-.17-.15-.29-.24-.32-.04-.01-.1-.01-.15,0-.02,0-.03.02-.03.02l-.1.19c-.28.26-.54.57-.78.94-.2.31-.4.68-.6,1.12-.1.21-.2.43-.3.65-.26.58-.53,1.19-.89,1.77-.24.39-.53.77-.86,1.11-.35.36-.73.68-1.02.91-.16.13-.33.26-.49.39-.53.42-1.04.81-1.4,1.29-.25.33-.4.67-.42.99-.01.17,0,.32.06.45.05.12.14.21.27.28.3.17.76.21,1.09.22.38,0,.79-.04,1.21-.14.79-.18,1.54-.51,2.33-.87l.72-.31c.2-.08.4-.17.62-.23.29-.09.53-.12.78-.11.34,0,.66.14.88.36,2.37,2.52,5.3,4.56,8.5,5.88l.13.05c.16.06.33.13.5.21.22.11.46.23.67.45.12.13.21.28.25.43.01.04.02.09.03.13l.03.26c.02.2.05.41.09.63.15.84.38,1.67.7,2.46.35.86.69,1.6,1.25,2.1.15.13.31.24.46.31.17.07.35.12.52.14.18.02.35,0,.5-.04-.14-.12-.27-.26-.38-.42-.24-.35-.36-.74-.43-1.04-.15-.66-.25-1.33-.32-2.04-.07-.71-.06-1.41.02-2.08.04-.34.11-.69.2-1.03.07-.26.17-.52.3-.82,0-.04.01-.08.05-.11l.02-.05c.05-.1.16-.14.26-.09,0,0,.02,0,.02.01,1.12-.47,2.13-.78,3.08-.94.54-.09,1.02-.14,1.47-.14Z"/>
  </g>
  <path d="M58.54,36.39c1.35,1.22,2.69,2.45,4.16,3.51,1.45,1.07,3.04,1.97,4.75,2.47.2.05.43.08.68.17.28.1.56.33.59.71.01.19-.06.37-.18.51-.12.13-.26.2-.4.24-.26.09-.54.09-.76.09-.93,0-1.86-.1-2.77-.29-1.82-.38-3.54-1.01-5.24-1.71-3.38-1.43-6.55-3.36-9.39-5.7-1.42-1.17-2.75-2.44-3.99-3.8-.62-.68-1.21-1.38-1.78-2.11-.28-.37-.55-.76-.78-1.18-.23-.42-.43-.86-.54-1.36l.33.26s-.03,0-.05.01c-.03,0-.06.01-.09.03-.06.02-.13.05-.19.08-.13.06-.26.14-.38.22-.25.17-.49.37-.72.6-.11.11-.22.23-.33.34-.1.12-.21.24-.31.37-.1.13-.2.25-.3.38l-.29.39.06-.23c.03.24.1.53.18.79.08.27.17.53.27.8.2.53.45,1.04.72,1.54.54,1.01,1.21,1.92,1.93,2.83l4.26,5.53c.08.11.09.25.03.37-.6,1.08-.98,2.27-1.24,3.5-.26,1.23-.41,2.49-.58,3.75l-.49,3.79-.12.95c-.04.31-.08.65-.19,1-.06.17-.13.34-.24.5-.11.17-.25.31-.41.43-.16.11-.35.2-.56.24-.21.04-.44.02-.65-.06h0c-.11-.05-.18-.15-.18-.26l-.51-6-.25-3.01c-.07-1.01-.08-2.04.08-3.07l.2.31c-1.16-.3-2.22-.84-3.22-1.44-.5-.3-.98-.62-1.47-.93l-1.45-.95c-.96-.64-1.91-1.34-2.78-2.11-.87-.77-1.69-1.6-2.5-2.41-.41-.41-.81-.83-1.17-1.3-.36-.47-.67-.99-.85-1.57-.17-.59-.17-1.2-.08-1.78.04-.29.11-.58.2-.86.08-.28.21-.56.2-.79-.01-.23-.22-.4-.47-.49-.25-.09-.54-.12-.82-.16-.57-.07-1.14-.1-1.71-.07-1.14.05-2.28.3-3.34.73-.02,0-.05,0-.06-.02,0-.02,0-.05.02-.06,1.06-.46,2.21-.74,3.37-.82.58-.04,1.16-.03,1.75.03.29.04.58.06.88.15.15.05.29.12.42.23.13.11.22.28.23.46.02.17-.02.33-.06.48-.04.15-.09.28-.12.41-.07.27-.13.55-.17.83-.07.55-.06,1.12.1,1.65.17.52.47,1.01.81,1.45.35.44.75.85,1.16,1.25.83.8,1.65,1.61,2.52,2.35.87.75,1.79,1.41,2.75,2.04l1.45.94c.49.31.97.62,1.46.91.98.58,2,1.08,3.09,1.36.14.03.23.17.21.31h0c-.15.97-.13,1.95-.05,2.94l.27,2.99.52,6-.19-.26c.17.07.4.03.6-.12.1-.07.18-.16.25-.26.07-.11.12-.23.17-.36.09-.26.12-.56.16-.88l.12-.95.48-3.8c.16-1.26.31-2.54.58-3.81.27-1.27.66-2.53,1.3-3.69l.03.37-4.27-5.51c-.35-.46-.73-.92-1.06-1.41-.34-.49-.65-.99-.93-1.52-.28-.52-.54-1.06-.75-1.62-.1-.28-.2-.56-.29-.86-.08-.3-.15-.57-.2-.91-.01-.08.01-.16.06-.23h0s.3-.41.3-.41c.1-.14.21-.27.32-.4.11-.13.22-.26.33-.39.12-.12.23-.25.36-.37.25-.24.52-.47.81-.67.15-.1.31-.19.48-.27.09-.04.17-.08.27-.11.05-.02.1-.03.15-.04.06-.01.09-.02.19-.03.16,0,.3.1.33.25h0c.09.41.26.81.47,1.19.21.38.46.75.73,1.1.55.7,1.13,1.4,1.74,2.07,1.21,1.34,2.52,2.59,3.91,3.75,2.78,2.31,5.89,4.21,9.22,5.64,1.66.7,3.37,1.35,5.12,1.73.88.19,1.76.3,2.65.3.23,0,.42,0,.59-.06.08-.03.15-.07.19-.1.03-.03.05-.08.05-.12,0-.08-.1-.22-.25-.27-.18-.07-.4-.1-.64-.17-1.79-.56-3.39-1.52-4.85-2.63-1.45-1.12-2.78-2.39-4.08-3.66-.04-.04-.04-.11,0-.16.04-.04.11-.04.16,0Z"/>
  <g class="cls-2">
    <path class="cls-1" d="M66.13,42.34c-3.92-.64-7.81-2.94-10.69-5.69-2.95-2.82-5.36-6.14-7.98-9.26-2.62-3.12-5.55-6.11-9.18-7.96-3.63-1.85-8.1-2.44-11.79-.71-1.05.49-2.02,1.16-3.1,1.56-.3.11-.63.19-.96.21.03-.02.05-.04.08-.06.88-.66,1.6-1.47,2.32-2.26.36-.4.71-.79,1.09-1.15.38-.37.78-.7,1.2-1.01,1.7-1.22,3.75-1.96,5.85-2.08.52-.04,1.05-.02,1.57.02.52.05,1.04.13,1.56.23.52.1,1.03.22,1.54.36.51.14,1.02.3,1.51.48,1.99.72,3.87,1.75,5.53,3.07,1.66,1.31,3.1,2.92,4.19,4.73.6,1.27,1.27,2.51,1.96,3.73.7,1.22,1.43,2.42,2.22,3.59.78,1.17,1.76,2.36,2.64,3.47.79,1,1.46,1.64,2.34,2.55-.02.04.18.18.21.21,1.3,1.28,2.57,2.51,4.04,3.62,1.1.82,2.56,1.78,3.83,2.34Z"/>
  </g>
  <path d="M23.24,30.5c-.13.3-.23.62-.31.94-.07.32-.12.65-.15.98-.05.66-.01,1.32.07,1.98.08.66.21,1.32.37,1.96.09.31.2.6.37.84.17.24.4.43.66.5.14.04.22.18.18.32-.01.04-.04.08-.07.11h0c-.38.39-.93.53-1.43.49-.25-.02-.5-.08-.73-.18-.23-.1-.44-.24-.63-.4-.37-.32-.65-.71-.88-1.11-.23-.4-.41-.81-.58-1.23-.34-.84-.59-1.71-.74-2.6-.04-.22-.07-.45-.1-.67l-.02-.17v-.06s-.01-.03-.02-.04c-.02-.05-.05-.11-.1-.16-.1-.11-.27-.21-.45-.29-.18-.09-.38-.16-.6-.24-3.31-1.36-6.31-3.43-8.76-6.03-.08-.08-.2-.13-.38-.14-.17,0-.36.03-.55.09-.19.05-.38.14-.58.22l-.6.26c-.8.36-1.63.74-2.53.95-.45.1-.92.17-1.39.16-.24,0-.48-.03-.71-.07-.24-.04-.49-.11-.73-.25-.24-.13-.47-.35-.59-.62-.12-.27-.15-.55-.13-.81.04-.53.28-.99.57-1.38.29-.39.64-.7.99-.99.35-.28.7-.55,1.04-.82.68-.54,1.3-1.11,1.74-1.83.45-.72.78-1.53,1.16-2.33.38-.8.84-1.63,1.56-2.27h0s-.1.18-.1.18c.02-.13.09-.26.18-.34.09-.09.18-.14.28-.17.19-.07.38-.08.59-.01.4.14.61.48.68.8.08.33.05.62.03.89-.02.27-.06.55-.1.81-.04.27-.09.53-.14.8-.01.07-.02.12-.02.17,0,.05,0,.1,0,.15,0,.1.04.2.08.3.18.41.55.78.94,1.1.2.16.41.33.62.48.2.15.42.28.65.4.45.24.93.42,1.43.57,1,.28,2.04.4,3.08.36,2.08-.08,4.14-.79,5.82-2.03.84-.62,1.55-1.4,2.27-2.19.36-.39.73-.79,1.12-1.16.39-.38.82-.72,1.25-1.04,1.77-1.25,3.9-2,6.07-2.1.54-.03,1.08-.01,1.62.03.54.05,1.07.14,1.6.25.53.11,1.05.23,1.57.38.52.15,1.03.31,1.53.5,2.02.75,3.91,1.81,5.59,3.16,1.67,1.35,3.12,2.98,4.21,4.83,0,0,0,.02.01.02h0c.31,1.05.75,2.07,1.23,3.06.49.99,1.04,1.94,1.64,2.87,1.2,1.85,2.6,3.57,4.14,5.15.02.02.02.04,0,.06-.02.02-.04.02-.06,0-1.56-1.57-2.98-3.28-4.2-5.13-.61-.93-1.17-1.88-1.67-2.87-.5-.99-.95-2.01-1.28-3.08v.03c-1.09-1.81-2.52-3.42-4.18-4.73-1.66-1.32-3.54-2.35-5.53-3.07-.5-.18-1-.34-1.51-.48-.51-.14-1.03-.26-1.55-.36-.52-.1-1.04-.18-1.57-.23-.52-.04-1.05-.06-1.57-.02-2.1.12-4.15.86-5.85,2.08-.42.31-.82.64-1.2,1.01-.38.37-.73.76-1.09,1.15-.71.79-1.43,1.61-2.31,2.26-1.74,1.32-3.89,2.07-6.07,2.17-1.09.05-2.19-.07-3.25-.36-.53-.15-1.05-.34-1.54-.6-.25-.13-.49-.27-.71-.44-.22-.16-.43-.32-.65-.5-.42-.35-.85-.74-1.11-1.31-.06-.14-.11-.3-.13-.46,0-.08-.01-.17,0-.25,0-.08.02-.17.03-.23.04-.26.09-.52.13-.78.04-.26.07-.52.09-.77.02-.26.03-.51-.02-.7-.04-.19-.17-.34-.29-.38-.05-.02-.14-.01-.2,0-.03.01-.05.03-.06.04,0,0,0,0,0,0l-.1.18h0c-.61.55-1.03,1.3-1.4,2.08-.37.79-.7,1.62-1.18,2.41-.24.39-.53.77-.85,1.1-.32.33-.67.63-1.02.91-.69.56-1.42,1.06-1.91,1.7-.24.31-.41.67-.44,1.03-.01.18,0,.35.07.48.06.14.16.24.31.32.29.16.72.22,1.13.23.41,0,.82-.05,1.23-.14.82-.19,1.61-.54,2.42-.9l.61-.27c.2-.08.42-.18.65-.25.23-.07.48-.12.75-.11.27,0,.6.1.82.34,2.38,2.54,5.31,4.57,8.53,5.9.2.08.41.16.63.26.21.1.44.22.64.43.1.11.19.24.24.4.01.04.02.08.03.12v.1s.03.16.03.16c.03.21.06.43.09.64.15.85.38,1.68.7,2.48.32.79.68,1.61,1.27,2.13.15.13.31.24.48.32.17.08.36.13.55.14.38.04.76-.07,1.01-.31l.11.44c-.4-.12-.71-.4-.92-.71-.22-.32-.33-.67-.42-1.01-.15-.68-.26-1.35-.32-2.03-.07-.68-.07-1.37.01-2.06.04-.34.11-.68.2-1.02.1-.33.22-.66.38-.97.03-.06.09-.08.15-.05.05.03.08.09.05.14h0Z"/>
</svg>