<?xml version="1.0" encoding="UTF-8"?>
<svg id="Layer_1" xmlns="http://www.w3.org/2000/svg" viewBox="0 0 70 70">
  <defs>
    <style>
      .cls-1 {
        fill: none;
      }

      .cls-2 {
        fill: #b2e8ef;
      }

      .cls-3 {
        fill: #fff;
      }

      .cls-4 {
        opacity: .45;
      }

      .cls-5 {
        fill: #00b2c9;
      }
    </style>
  </defs>
  <path class="cls-2" d="M62.85,52.23c-5.78,9.3-16.09,15.5-27.85,15.5s-22.07-6.19-27.85-15.5h55.7Z"/>
  <path d="M35,68.13C16.73,68.13,1.88,53.27,1.88,35S16.73,1.88,35,1.88s33.12,14.86,33.12,33.12-14.86,33.12-33.12,33.12ZM35,2.59C17.13,2.59,2.59,17.13,2.59,35s14.54,32.41,32.41,32.41,32.41-14.54,32.41-32.41S52.87,2.59,35,2.59Z"/>
  <path class="cls-5" d="M50.59,17v4.42c0,4.89-3.98,8.87-8.87,8.87h-1.21v21.82h-10.46v-15.19h-.42c-4.89,0-8.87-3.98-8.87-8.87v-7.41c0-1.67,1.35-3.02,3.02-3.02s3.02,1.35,3.02,3.02v7.41c0,1.56,1.27,2.83,2.83,2.83h.42v-12.17c0-2.88,2.35-5.23,5.23-5.23.65,0,1.28.12,1.85.34,1.97.75,3.38,2.66,3.38,4.89v5.54h1.21c1.56,0,2.83-1.27,2.83-2.83v-4.42c0-1.67,1.35-3.02,3.02-3.02s3.02,1.35,3.02,3.02Z"/>
  <path d="M62.43,52.63H7.13c-.2,0-.36-.16-.36-.36s.16-.36.36-.36h55.3c.2,0,.36.16.36.36s-.16.36-.36.36Z"/>
  <g>
    <path class="cls-1" d="M37.05,14.06c-.56-.22-1.16-.33-1.76-.33-2.74,0-4.98,2.23-4.98,4.98v12.43h-.67c-1.7,0-3.08-1.38-3.08-3.09v-7.41c0-1.53-1.24-2.77-2.76-2.77s-2.77,1.24-2.77,2.77v7.41c0,4.75,3.86,8.62,8.61,8.62h.67v15.19h6.83V14.1s-.06-.03-.09-.04Z"/>
    <path d="M47.57,13.73c-1.8,0-3.27,1.47-3.27,3.27v4.42c0,1.42-1.16,2.58-2.58,2.58h-.95v-5.29c0-2.26-1.42-4.32-3.54-5.12-.62-.24-1.28-.36-1.94-.36-3.02,0-5.48,2.46-5.48,5.48v11.92h-.17c-1.42,0-2.58-1.16-2.58-2.58v-7.41c0-1.8-1.47-3.27-3.27-3.27s-3.27,1.47-3.27,3.27v7.41c0,5.03,4.09,9.12,9.12,9.12h.17v15.19h10.97v-21.82h.95c5.03,0,9.12-4.09,9.12-9.12v-4.42c0-1.8-1.47-3.27-3.27-3.27ZM50.59,21.42c0,4.89-3.98,8.87-8.87,8.87h-1.21v21.63h-3.38v-.06h-6.83v-15.19h-.67c-4.75,0-8.61-3.87-8.61-8.62v-7.41c0-1.53,1.24-2.77,2.77-2.77s2.76,1.24,2.76,2.77v7.41c0,1.7,1.38,3.09,3.08,3.09h.67v-12.43c0-2.74,2.23-4.98,4.98-4.98.61,0,1.2.11,1.76.33.03.01.06.03.09.04v-.27c1.97.75,3.38,2.66,3.38,4.89v5.54h1.21c1.56,0,2.83-1.27,2.83-2.83v-4.42c0-1.67,1.35-3.02,3.02-3.02s3.02,1.35,3.02,3.02v4.42Z"/>
    <g class="cls-4">
      <path class="cls-3" d="M40.26,30.04h1.46c4.75,0,8.62-3.87,8.62-8.62v-4.42c0-1.53-1.24-2.77-2.77-2.77s-2.77,1.24-2.77,2.77v4.42c0,1.7-1.38,3.08-3.08,3.08h-1.46v-5.79c0-2.02-1.25-3.86-3.13-4.61v37.76h3.13v-21.82Z"/>
    </g>
    <path d="M47.57,13.98c-1.67,0-3.02,1.35-3.02,3.02v4.42c0,1.56-1.27,2.83-2.83,2.83h-1.21v-5.54c0-2.22-1.41-4.14-3.38-4.89v.27c1.87.76,3.13,2.6,3.13,4.61v5.79h1.46c1.7,0,3.08-1.38,3.08-3.08v-4.42c0-1.53,1.24-2.77,2.77-2.77s2.77,1.24,2.77,2.77v4.42c0,4.75-3.87,8.62-8.62,8.62h-1.46v21.82h-3.13v.06h3.38v-21.63h1.21c4.89,0,8.87-3.98,8.87-8.87v-4.42c0-1.67-1.35-3.02-3.02-3.02Z"/>
  </g>
</svg>