<?xml version="1.0" encoding="UTF-8"?>
<svg id="Layer_1" xmlns="http://www.w3.org/2000/svg" viewBox="0 0 70 70">
  <defs>
    <style>
      .cls-1 {
        fill: #b2e8ef;
      }

      .cls-2 {
        fill: #00b2c9;
      }
    </style>
  </defs>
  <path d="M34.87,67.51c-17.99,0-32.63-14.64-32.63-32.63S16.87,2.24,34.87,2.24s32.63,14.64,32.63,32.63-14.64,32.63-32.63,32.63ZM34.87,2.74C17.15,2.74,2.73,17.16,2.73,34.87s14.41,32.13,32.13,32.13,32.13-14.41,32.13-32.13S52.59,2.74,34.87,2.74Z"/>
  <g>
    <g>
      <polygon class="cls-2" points="52.61 31.51 45.8 23.05 22.63 23.05 15.82 31.51 34.2 49.82 34.23 49.55 34.23 49.82 52.61 31.51"/>
      <path d="M34.23,50.07s-.01,0-.02,0c-.07,0-.14-.02-.19-.07L15.64,31.68c-.09-.09-.1-.23-.02-.33l6.81-8.46c.05-.06.12-.09.19-.09h23.17c.08,0,.15.03.19.09l6.81,8.46c.08.1.07.24-.02.33l-18.38,18.31s-.11.07-.18.07ZM16.15,31.49l17.93,17.86s.1-.05.16-.05c.04,0,.08.02.12.04l17.91-17.85-6.59-8.19h-22.93l-6.59,8.19Z"/>
    </g>
    <g>
      <polygon class="cls-2" points="52.61 31.51 45.8 23.05 22.63 23.05 15.82 31.51 52.61 31.51"/>
      <path d="M52.61,31.76H15.82c-.1,0-.18-.05-.22-.14s-.03-.19.03-.26l6.81-8.46c.05-.06.12-.09.19-.09h23.17c.08,0,.15.03.19.09l6.81,8.46c.06.07.07.18.03.26s-.13.14-.22.14ZM16.34,31.26h35.75l-6.41-7.96h-22.93l-6.41,7.96Z"/>
    </g>
    <g>
      <polygon class="cls-2" points="34.86 31.51 34.21 23.05 22.63 23.05 15.82 31.51 34.86 31.51"/>
      <path d="M34.86,31.76H15.82c-.1,0-.18-.05-.22-.14s-.03-.19.03-.26l6.81-8.46c.05-.06.12-.09.19-.09h11.58c.13,0,.24.1.25.23l.65,8.46c0,.07-.02.14-.07.19-.05.05-.11.08-.18.08ZM16.34,31.26h18.25l-.61-7.96h-11.23l-6.41,7.96Z"/>
    </g>
    <g>
      <polygon class="cls-1" points="52.61 31.51 40.38 31.51 45.8 23.05 52.61 31.51"/>
      <path d="M52.61,31.76h-12.23c-.09,0-.18-.05-.22-.13-.04-.08-.04-.18,0-.25l5.42-8.46c.04-.07.12-.11.2-.11.08,0,.16.03.21.09l6.81,8.46c.06.07.07.18.03.26s-.13.14-.22.14ZM40.83,31.26h11.25l-6.27-7.78-4.99,7.78Z"/>
    </g>
    <g>
      <polygon class="cls-1" points="15.82 31.51 28.05 31.51 22.63 23.05 15.82 31.51"/>
      <path d="M28.05,31.76h-12.23c-.1,0-.18-.05-.22-.14s-.03-.19.03-.26l6.81-8.46c.05-.06.13-.1.21-.09.08,0,.15.05.2.11l5.42,8.46c.05.08.05.17,0,.25-.04.08-.13.13-.22.13ZM16.34,31.26h11.25l-4.99-7.78-6.27,7.78Z"/>
    </g>
    <g>
      <polygon class="cls-1" points="40.38 31.51 28.05 31.51 34.21 23.05 40.38 31.51"/>
      <path d="M40.38,31.76h-12.33c-.09,0-.18-.05-.22-.14-.04-.08-.03-.18.02-.26l6.16-8.46c.09-.13.31-.13.4,0l6.16,8.46c.06.08.06.18.02.26-.04.08-.13.14-.22.14ZM28.54,31.26h11.35l-5.67-7.79-5.67,7.79Z"/>
    </g>
    <g>
      <polygon class="cls-1" points="40.38 31.51 28.05 31.51 34.21 49.82 40.38 31.51"/>
      <path d="M34.21,50.07c-.11,0-.2-.07-.24-.17l-6.16-18.31c-.03-.08-.01-.16.03-.23.05-.07.12-.1.2-.1h12.33c.08,0,.16.04.2.1.05.07.06.15.03.23l-6.16,18.31c-.03.1-.13.17-.24.17ZM28.4,31.76l5.82,17.28,5.82-17.28h-11.63Z"/>
    </g>
    <g>
      <polygon class="cls-2" points="52.61 31.51 34.21 49.82 40.38 31.51 52.61 31.51"/>
      <path d="M34.21,50.07s-.09-.01-.13-.04c-.1-.06-.14-.18-.1-.29l6.16-18.31c.03-.1.13-.17.24-.17h12.23c.1,0,.19.06.23.15.04.09.02.2-.05.27l-18.4,18.31s-.11.07-.18.07ZM40.56,31.76l-5.77,17.14,17.22-17.14h-11.45Z"/>
    </g>
  </g>
</svg>