<?xml version="1.0" encoding="UTF-8"?>
<svg id="Layer_1" xmlns="http://www.w3.org/2000/svg" viewBox="0 0 70 70">
  <defs>
    <style>
      .cls-1 {
        fill: #b2e8ef;
      }

      .cls-2 {
        fill: #fff;
      }

      .cls-3 {
        opacity: .45;
      }

      .cls-4 {
        fill: #00b2c9;
      }
    </style>
  </defs>
  <g>
    <path class="cls-4" d="M32.52,37.52v-14.54h.96c3.87,0,7.02-3.15,7.02-7.02v-3.5c0-1.32-1.07-2.39-2.39-2.39s-2.39,1.07-2.39,2.39v3.5c0,1.24-1,2.24-2.24,2.24h-.96v-4.38c0-1.76-1.11-3.28-2.67-3.87-.46-.18-.95-.27-1.47-.27-2.28,0-4.14,1.86-4.14,4.14v9.63h-.33c-1.23,0-2.24-1.01-2.24-2.24v-5.87c0-1.32-1.07-2.39-2.39-2.39s-2.39,1.07-2.39,2.39v5.87c0,3.87,3.15,7.02,7.02,7.02h.33v12.02h5.55"/>
    <path d="M29.79,40.5h-5.79v-12.02h-.09c-4.01,0-7.26-3.26-7.26-7.26v-5.87c0-1.45,1.18-2.64,2.64-2.64s2.63,1.18,2.63,2.64v5.87c0,1.1.89,2,1.99,2h.09v-9.39c0-2.42,1.97-4.39,4.39-4.39.54,0,1.06.1,1.56.29,1.69.65,2.83,2.29,2.83,4.1v4.14h.71c1.1,0,1.99-.9,1.99-2v-3.5c0-1.45,1.18-2.64,2.64-2.64s2.64,1.18,2.64,2.64v3.5c0,4.01-3.26,7.26-7.26,7.26h-.71v14.29h-.49v-14.79h1.2c3.73,0,6.77-3.04,6.77-6.77v-3.5c0-1.18-.96-2.14-2.14-2.14s-2.14.96-2.14,2.14v3.5c0,1.37-1.12,2.49-2.49,2.49h-1.2v-4.63c0-1.6-1.01-3.07-2.51-3.64-.44-.17-.9-.25-1.38-.25-2.15,0-3.89,1.75-3.89,3.89v9.88h-.58c-1.37,0-2.49-1.12-2.49-2.49v-5.87c0-1.18-.96-2.14-2.14-2.14s-2.14.96-2.14,2.14v5.87c0,3.73,3.04,6.77,6.77,6.77h.58v12.02h5.3v.49Z"/>
  </g>
  <g>
    <g>
      <path class="cls-4" d="M50.29,57.59c-.06.06-.13.11-.19.16-3.04,2.55-7.52,2.55-10.56,0-.06-.05-.13-.11-.19-.16-2.31-2.04-3.58-5.11-3.35-8.11.28-3.71,2.65-6.93,4.83-10,1.38-1.94,2.75-4.01,3.52-6.21.16-.44.78-.44.94,0,.78,2.2,2.15,4.27,3.52,6.21,2.19,3.08,4.55,6.3,4.83,10,.23,3-1.04,6.07-3.35,8.11Z"/>
      <path d="M44.82,59.92c-1.93,0-3.86-.66-5.44-1.98-.07-.06-.13-.11-.2-.17-2.39-2.11-3.67-5.22-3.44-8.31.28-3.66,2.51-6.8,4.67-9.84l.2-.29c1.36-1.92,2.73-3.99,3.49-6.15.11-.3.38-.5.7-.5h0c.32,0,.6.2.7.5.76,2.15,2.13,4.23,3.49,6.15l.2.29c2.16,3.04,4.39,6.18,4.67,9.84.23,3.1-1.05,6.21-3.44,8.31-.06.06-.13.11-.2.17-1.58,1.32-3.51,1.98-5.44,1.98ZM44.82,33.18s-.18.01-.24.17c-.78,2.21-2.17,4.32-3.55,6.27l-.2.29c-2.12,2.98-4.32,6.07-4.58,9.6-.22,2.9,1.03,5.93,3.27,7.91.06.05.12.11.19.16,2.97,2.49,7.28,2.49,10.25,0,.06-.05.12-.11.19-.16h0c2.24-1.98,3.49-5.01,3.27-7.91-.27-3.52-2.46-6.61-4.58-9.59l-.2-.29c-1.38-1.95-2.77-4.06-3.55-6.27-.06-.16-.2-.17-.24-.17h0Z"/>
    </g>
    <g class="cls-3">
      <path class="cls-2" d="M39.71,45.67c-1.15,2.31-.91,5.08.63,7.06.48.63,1.08,1.16,1.73,1.55.48.29.64.91.35,1.39-.29.48-.91.64-1.39.35-3.19-2.51-3.94-7.22-1.57-10.51.11-.14.33-.01.25.15h0Z"/>
    </g>
  </g>
  <path d="M34.94,67.3c-17.81,0-32.3-14.49-32.3-32.3S17.13,2.7,34.94,2.7s32.3,14.49,32.3,32.3-14.49,32.3-32.3,32.3ZM34.94,3.4C17.51,3.4,3.33,17.57,3.33,35s14.18,31.6,31.6,31.6,31.6-14.18,31.6-31.6S52.37,3.4,34.94,3.4Z"/>
  <path d="M12.54,57.85c-.09,0-.18-.03-.25-.1-.14-.14-.14-.36,0-.49L57.23,12.32c.14-.14.36-.14.49,0s.14.36,0,.49L12.78,57.75c-.07.07-.16.1-.25.1Z"/>
  <path d="M29.73,40.6H3.35c-.19,0-.35-.16-.35-.35s.16-.35.35-.35h26.38c.19,0,.35.16.35.35s-.16.35-.35.35Z"/>
  <path class="cls-1" d="M29.03,40.56H3.91c1.14,6.38,4.21,12.1,8.58,16.54l16.54-16.54Z"/>
</svg>