<?xml version="1.0" encoding="UTF-8"?>
<svg id="Layer_1" xmlns="http://www.w3.org/2000/svg" viewBox="0 0 70 70">
  <defs>
    <style>
      .cls-1 {
        fill: #00b2c9;
      }
    </style>
  </defs>
  <g>
    <path class="cls-1" d="M50.97,27.97s-4.08-3.88-10-3.88l3.67,4.29s-6.33-5.72-15.31,1.22l4.49,4.49-7.76-2.45s-12.45,6.12-15.11,11.23c0,0,13.27,12.66,31.64,1.02,0,0,2.45-3.88,1.63-7.15l2.04,5.1s5.92-1.63,4.7-13.88Z"/>
    <path d="M26.98,49.15c-2.78,0-5.21-.46-7.19-1.07-5.63-1.71-8.93-4.82-9.07-4.96-.11-.11-.14-.28-.07-.42,1.13-2.17,4.05-4.75,8.67-7.66,3.42-2.15,6.56-3.7,6.59-3.72.08-.04.17-.05.26-.02l6.38,2.02-3.47-3.47c-.07-.07-.11-.17-.1-.27,0-.1.06-.19.14-.26,2.62-2.02,6.71-4.24,11.31-3.28.96.2,1.78.5,2.45.82l-2.18-2.54c-.09-.1-.11-.25-.05-.38.06-.12.18-.21.32-.21,5.99,0,10.07,3.81,10.25,3.98.06.06.1.14.11.22.52,5.16-.14,9.12-1.95,11.77-1.38,2.02-2.94,2.47-3,2.49-.17.05-.35-.04-.42-.21l-1.23-3.07c-.25,2.65-1.74,5.04-1.82,5.17-.03.04-.07.08-.11.11-5.93,3.76-11.33,4.96-15.81,4.96ZM11.4,42.8c.79.69,3.9,3.19,8.62,4.62,5.03,1.53,12.99,2.1,22.32-3.78.31-.52,2.26-3.95,1.55-6.81-.04-.18.06-.36.23-.42.18-.06.37.03.44.2l1.91,4.78c.48-.22,1.46-.81,2.36-2.14,2.07-3.08,2.13-7.71,1.8-11.11-.61-.53-4.07-3.38-8.88-3.67l3.16,3.68c.12.14.11.35-.02.48-.13.13-.34.13-.48,0-.01-.01-1.57-1.39-4.16-1.91-3.32-.68-6.9.33-10.38,2.91l4.21,4.21c.11.11.14.29.05.43-.08.14-.25.2-.41.15l-7.62-2.41c-1.29.65-12.02,6.15-14.69,10.77Z"/>
  </g>
  <path d="M35.04,67.93c-18.08,0-32.79-14.71-32.79-32.79S16.96,2.35,35.04,2.35s32.79,14.71,32.79,32.79-14.71,32.79-32.79,32.79ZM35.04,3.05C17.35,3.05,2.96,17.45,2.96,35.14s14.39,32.08,32.08,32.08,32.08-14.39,32.08-32.08S52.73,3.05,35.04,3.05Z"/>
  <path d="M22.22,42.21c-.08,0-.16,0-.25,0-.19,0-.35-.16-.35-.36,0-.19.16-.35.35-.35h0c4.74.06,10.1-1.61,15.95-4.96,4.27-2.44,8.7-5.71,13.16-9.71,3.75-3.36,6.13-6.01,6.15-6.04.13-.15.35-.16.5-.03.15.13.16.35.03.5-.02.03-2.43,2.71-6.2,6.09-4.5,4.03-8.96,7.33-13.28,9.79-5.86,3.35-11.27,5.05-16.06,5.05Z"/>
</svg>