<?xml version="1.0" encoding="UTF-8"?>
<svg id="Layer_1" xmlns="http://www.w3.org/2000/svg" viewBox="0 0 70 70">
  <defs>
    <style>
      .cls-1 {
        fill: #b2e8ef;
      }

      .cls-2 {
        fill: #00b2c9;
      }
    </style>
  </defs>
  <path d="M35,67.96c-18.17,0-32.96-14.79-32.96-32.96S16.83,2.04,35,2.04s32.96,14.79,32.96,32.96-14.79,32.96-32.96,32.96ZM35,2.75C17.22,2.75,2.75,17.22,2.75,35s14.47,32.25,32.25,32.25,32.25-14.47,32.25-32.25S52.78,2.75,35,2.75Z"/>
  <g>
    <g>
      <path class="cls-2" d="M57.83,27.72c-2.42-.61-9.04-1.23-11.46-1.12-5.38.26-7.33.94-8.32,2.34-.41.18-1.43.54-3.08.54-1.83,0-2.9-.45-3.2-.6-1.04-1.25-3.06-1.87-8.15-2.12-2.43-.12-9.04.51-11.46,1.12-.75.19-.65,2.32-.17,2.54.83.38.9,2.36,1.14,4.16.34,2.53,1.7,5.68,2.84,6.76,2.77,2.62,9.19,2.58,12.64.78,2.75-1.44,4.22-6.16,4.3-9.32.41-.36,1.07-.71,2.07-.71,1.06,0,1.73.37,2.12.73.13,3.16,1.6,7.72,4.29,9.13,3.46,1.81,9.87,1.84,12.64-.78,1.14-1.07,2.5-4.22,2.84-6.76.24-1.8.31-3.79,1.14-4.16.47-.21.58-2.35-.17-2.54ZM27.58,40.95c-2.84,1.45-8.12,1.47-10.4-.62-2.28-2.1-3.43-8.89-1.61-10.46,1.82-1.57,5.92-1.32,7.91-1.22,5.89.27,6.79,1.15,7.45,3.2.67,2.05-.51,7.67-3.35,9.11ZM52.91,40.33c-2.28,2.1-7.55,2.07-10.4.62-2.84-1.45-4.02-7.07-3.35-9.11.67-2.05,1.56-2.92,7.45-3.2,1.99-.09,6.09-.35,7.91,1.22,1.82,1.57.67,8.37-1.61,10.46Z"/>
      <path d="M22.65,43.65c-2.65,0-5.3-.66-6.85-2.12-1.21-1.15-2.58-4.37-2.91-6.91-.04-.31-.08-.62-.11-.93-.16-1.37-.32-2.78-.88-3.03-.47-.21-.56-1.2-.51-1.77.06-.7.32-1.14.72-1.24,2.37-.59,9.05-1.24,11.54-1.12,4.88.23,7.14.82,8.29,2.16.33.15,1.35.55,3.04.55,1.54,0,2.52-.32,2.92-.49,1.11-1.51,3.34-2.14,8.47-2.39,2.49-.12,9.17.53,11.54,1.12.4.1.66.54.72,1.24.05.57-.04,1.56-.51,1.77-.56.25-.72,1.67-.88,3.03-.04.31-.07.62-.11.93-.34,2.53-1.7,5.76-2.91,6.91-2.86,2.7-9.41,2.66-12.93.82-1.62-.84-2.64-2.66-3.22-4.04-.68-1.62-1.11-3.5-1.2-5.2-.47-.4-1.1-.6-1.88-.6-.73,0-1.34.19-1.82.58-.06,1.68-.49,3.64-1.16,5.28-.58,1.41-1.62,3.28-3.26,4.14-1.61.84-3.85,1.31-6.08,1.31ZM22.94,27.01c-2.82,0-8.57.59-10.72,1.12-.14.04-.27.28-.32.63-.11.68.07,1.36.19,1.44.82.37.98,1.79,1.17,3.43.04.31.07.62.11.92.32,2.4,1.64,5.55,2.76,6.61,2.22,2.1,8.23,2.89,12.36.74,1.65-.86,4.04-4.26,4.16-9.1,0-.07.03-.14.09-.18.58-.5,1.35-.77,2.23-.77,1.18,0,1.9.43,2.29.8.05.05.08.11.08.17.12,2.86,1.49,7.53,4.16,8.92,4.13,2.16,10.13,1.36,12.36-.74,1.12-1.06,2.44-4.21,2.76-6.61.04-.31.08-.62.11-.92.19-1.64.35-3.06,1.17-3.43.13-.08.3-.76.19-1.44-.06-.35-.18-.59-.32-.63h0c-2.33-.58-8.94-1.23-11.39-1.11-5.01.24-7.13.82-8.12,2.23-.03.04-.06.07-.1.09-.47.21-1.52.56-3.18.56-1.89,0-3.01-.48-3.31-.62-.03-.02-.06-.04-.08-.07-1.03-1.25-3.19-1.8-7.96-2.03-.2,0-.42-.01-.67-.01ZM47.42,42.23c-1.84,0-3.69-.37-5.02-1.05-2.96-1.51-4.16-7.31-3.48-9.42.69-2.13,1.63-3.09,7.68-3.37h.22c2.11-.11,6.04-.3,7.87,1.28.78.68.97,2.05.98,3.09.04,2.54-.94,6.23-2.59,7.75-1.29,1.18-3.47,1.71-5.66,1.71ZM48.98,28.82c-.8,0-1.54.04-2.14.06h-.22c-5.76.28-6.59,1.1-7.22,3.03-.62,1.92.53,7.44,3.23,8.81,3.38,1.72,8.3,1.09,10.11-.59h0c1.55-1.42,2.47-4.94,2.43-7.37-.02-1.32-.31-2.28-.81-2.72-1.19-1.03-3.44-1.24-5.38-1.24ZM22.68,42.23c-2.19,0-4.38-.53-5.66-1.71-1.65-1.52-2.63-5.21-2.59-7.75.02-1.03.2-2.41.98-3.09,1.83-1.58,5.76-1.4,7.87-1.3h.22c6.05.29,6.99,1.25,7.68,3.38.68,2.1-.52,7.91-3.48,9.42h0c-1.33.68-3.17,1.05-5.02,1.05ZM21.11,28.82c-1.94,0-4.19.21-5.38,1.24-.5.43-.79,1.4-.81,2.72-.04,2.44.88,5.95,2.43,7.37,1.82,1.67,6.73,2.31,10.11.59h0c2.7-1.38,3.85-6.89,3.23-8.81-.63-1.94-1.46-2.75-7.22-3.02h-.22c-.6-.04-1.34-.07-2.14-.07ZM27.58,40.95h0,0Z"/>
    </g>
    <path class="cls-1" d="M46.61,28.64c1.99-.09,6.09-.35,7.91,1.22,1.82,1.57.67,8.37-1.61,10.46-2.28,2.1-7.55,2.07-10.4.62-2.84-1.45-4.02-7.07-3.35-9.11s1.56-2.92,7.45-3.2Z"/>
    <path class="cls-1" d="M23.48,28.64c-1.99-.09-6.09-.35-7.91,1.22-1.82,1.57-.67,8.37,1.61,10.46,2.28,2.1,7.55,2.07,10.4.62,2.84-1.45,4.02-7.07,3.35-9.11-.67-2.05-1.56-2.92-7.45-3.2Z"/>
  </g>
</svg>