<?xml version="1.0" encoding="UTF-8"?>
<svg id="Layer_1" xmlns="http://www.w3.org/2000/svg" viewBox="0 0 70 70">
  <defs>
    <style>
      .cls-1 {
        fill: #fff;
      }

      .cls-2 {
        opacity: .45;
      }

      .cls-3 {
        fill: #00b2c9;
      }
    </style>
  </defs>
  <path d="M47.49,61.71c-1.52.66-3.13,1.14-4.78,1.36-1.65.22-3.33.19-4.97-.09-3.29-.55-6.35-2.02-9.06-3.89-2.72-1.88-5.13-4.15-7.3-6.61-1.09-1.23-2.11-2.52-3.08-3.85-.24-.33-.48-.67-.71-1.01l-.18-.26c-.1-.15-.14-.36-.1-.55.04-.19.14-.35.3-.47.15-.12.36-.17.54-.14h.07s.04.02.04.02l.07.02.15.03.3.07.6.13,1.19.27-.37.55c-2.81-3.93-4.94-8.32-6.39-12.92-.72-2.3-1.28-4.65-1.68-7.02-.19-1.19-.36-2.38-.46-3.59l-.04-.45v-.11s-.02-.07-.02-.14c0-.12.02-.24.06-.35.17-.46.69-.74,1.17-.6.12.03.23.09.32.15.03.02.04.03.06.04l.04.03.09.07.35.28.71.55-.57.43c-.69-1.72-1-3.54-1.13-5.36-.13-1.82-.07-3.64.1-5.44.17-1.8.46-3.59.82-5.36.18-.88.38-1.76.61-2.64.11-.44.23-.87.35-1.31l.09-.33.05-.16.02-.08.04-.11c.11-.29.32-.54.58-.69.26-.15.58-.22.89-.17l.11.02.08.02.16.04.33.08c.44.11.88.22,1.31.34.87.24,1.74.5,2.6.77,1.72.56,3.41,1.19,5.06,1.93,1.65.74,3.26,1.58,4.78,2.59,1.51,1.01,2.94,2.18,4.1,3.63l-.64.28-.27-1.8-.02-.12c0-.07,0-.13,0-.2.02-.14.07-.27.16-.38.17-.22.44-.35.72-.32.14.01.28.07.37.13l.19.13.38.25c1.01.68,1.99,1.42,2.94,2.18,1.9,1.53,3.7,3.18,5.37,4.96,3.34,3.55,6.15,7.62,8.21,12.06l-.66.04.37-1.21.09-.3.05-.15.02-.08s.01-.05.03-.09c.1-.31.4-.56.72-.62.32-.07.68.04.91.29.06.06.1.13.14.2.02.04.03.06.04.09l.03.07.14.29c.18.39.36.77.53,1.16.68,1.56,1.29,3.15,1.82,4.76,1.04,3.23,1.78,6.59,1.94,10,.08,1.71,0,3.43-.27,5.12-.28,1.69-.77,3.36-1.51,4.92-.74,1.56-1.72,3-2.91,4.25-1.18,1.25-2.55,2.32-4.02,3.21-.16.1-.37.05-.47-.11,0-.01-.01-.02-.02-.03h0c-4.4-9.54-9.32-18.84-14.56-27.94-2.62-4.55-5.34-9.05-8.16-13.48-1.41-2.22-2.84-4.41-4.32-6.58-.37-.55-.72-1.08-1.12-1.59-.4-.51-.82-1-1.26-1.48-.87-.97-1.81-1.9-2.64-2.96l.53-.4,4.13,5.85s.01.02.02.03h0s11.71,22.53,11.71,22.53l5.83,11.28,5.79,11.29c.03.06,0,.13-.05.16-.06.03-.13,0-.16-.05l-5.97-11.21-5.93-11.22-11.81-22.47.02.03-4.12-5.84h0c-.11-.15-.07-.36.08-.47.14-.1.34-.07.45.07.79,1.01,1.72,1.94,2.61,2.92.44.49.88.99,1.29,1.52.42.52.79,1.09,1.15,1.63,1.49,2.17,2.92,4.38,4.34,6.6,2.82,4.44,5.55,8.94,8.18,13.5,5.26,9.12,10.18,18.43,14.6,27.99l-.49-.15c1.42-.87,2.73-1.89,3.87-3.09,1.13-1.2,2.08-2.58,2.78-4.07.71-1.49,1.18-3.1,1.45-4.73.27-1.64.34-3.31.26-4.97-.16-3.33-.88-6.63-1.91-9.82-.52-1.59-1.12-3.16-1.79-4.69-.17-.38-.34-.76-.52-1.14l-.13-.28-.03-.07s-.02-.05-.03-.06c-.01-.02-.03-.04-.04-.06-.06-.06-.15-.09-.25-.07-.09.02-.16.08-.19.17,0,0-.01.03-.02.06l-.02.08-.05.15-.09.3-.37,1.21c-.06.19-.26.29-.44.24-.1-.03-.18-.1-.22-.19h0c-2.03-4.36-4.79-8.36-8.09-11.87-1.65-1.75-3.42-3.38-5.3-4.89-.94-.75-1.9-1.47-2.9-2.15l-.37-.25-.19-.12s-.03-.02-.05-.02c-.02,0-.06.01-.08.04,0,.01-.01.02-.02.04,0,0,0,.01,0,.02,0,.02,0,.07.01.1l.27,1.8c.03.2-.11.38-.3.41-.13.02-.26-.04-.34-.13-1.09-1.36-2.47-2.5-3.93-3.48-1.47-.98-3.05-1.81-4.67-2.53-1.62-.73-3.3-1.35-4.99-1.9-.85-.27-1.7-.53-2.56-.76-.43-.12-.86-.23-1.29-.34l-.32-.08-.16-.04-.08-.02h-.05c-.14-.03-.29,0-.41.07-.12.07-.22.19-.27.32l-.02.05-.02.08-.05.16-.09.32c-.12.43-.24.86-.34,1.29-.22.86-.42,1.73-.6,2.61-.36,1.75-.64,3.51-.81,5.28-.17,1.77-.23,3.55-.1,5.31.13,1.76.44,3.51,1.08,5.13.08.19-.02.41-.21.48-.13.05-.27.03-.37-.05l-.71-.55-.35-.28-.09-.07-.04-.03s-.03-.02-.03-.02c-.03-.02-.05-.03-.08-.04-.11-.04-.25.04-.28.15,0,.03-.02.05-.01.09,0,0,0,.05,0,.09v.11s.04.44.04.44c.1,1.18.26,2.36.45,3.53.39,2.34.94,4.66,1.65,6.93,1.42,4.53,3.51,8.86,6.27,12.72h0c.11.16.08.38-.08.5-.09.06-.19.08-.28.06l-2.36-.53s-.05.02-.06.04c0,.01,0,.02,0,.04l.16.24c.23.33.46.67.7.99.95,1.31,1.96,2.58,3.03,3.8,2.14,2.43,4.51,4.67,7.17,6.51,2.65,1.83,5.62,3.26,8.78,3.79,1.58.27,3.19.31,4.77.09,1.58-.21,3.13-.66,4.6-1.3h0c.17-.07.36,0,.43.17.07.17,0,.36-.17.43Z"/>
  <g class="cls-2">
    <path class="cls-1" d="M47.18,61.15c-1.45.63-2.97,1.08-4.53,1.29-1.59.21-3.2.17-4.78-.1-3.17-.54-6.13-1.97-8.78-3.8-2.65-1.84-5.03-4.08-7.17-6.51-1.07-1.22-2.08-2.49-3.03-3.8-.24-.33-.47-.66-.7-.99l-.16-.24s-.01-.02,0-.03c0-.03.03-.05.06-.04l2.35.53c.1.02.2,0,.29-.06.16-.12.2-.34.08-.5h0c-1.38-1.93-2.61-3.97-3.64-6.1-1.04-2.13-1.92-4.35-2.63-6.61-.71-2.27-1.26-4.58-1.65-6.93-.19-1.17-.35-2.35-.45-3.53l-.04-.44v-.11s-.01-.08-.01-.09c0-.03,0-.06.01-.09.03-.1.18-.18.28-.15.03,0,.05.02.08.04,0,0,.02.01.03.03l.04.03.09.07.35.28.71.55c.1.08.24.1.37.05.19-.08.28-.29.21-.48-.65-1.62-.96-3.37-1.08-5.13-.13-1.76-.07-3.54.1-5.31.17-1.77.45-3.53.81-5.28.18-.87.38-1.74.6-2.61.11-.43.23-.86.34-1.29l.09-.32.05-.16.02-.08.02-.05c.05-.13.15-.24.27-.32.12-.07.27-.1.41-.08h.04c.07,3.65.25,7.22.26,10.9.01,6.56.03,13.17,1.25,19.61,1.22,6.45,3.73,12.8,8.18,17.63,3.88,4.22,9.17,7.13,14.82,8.16,1.95.35,3.97.5,5.78,1.3.11.05.23.1.34.16l.33.62Z"/>
  </g>
  <path class="cls-3" d="M57.47,48.1c-.27,1.63-.74,3.24-1.45,4.73-.7,1.49-1.65,2.87-2.78,4.08-1.04,1.12-2.25,2.06-3.55,2.88-4.37-9.43-9.24-18.63-14.43-27.63-2.63-4.56-5.35-9.06-8.18-13.5-1.41-2.22-2.85-4.43-4.34-6.6-.37-.54-.74-1.1-1.15-1.63-.41-.52-.85-1.03-1.29-1.52-.89-.98-1.82-1.91-2.61-2.92-.11-.14-.31-.17-.46-.06-.15.11-.18.32-.07.46,1.4,1.92,2.76,3.86,4.11,5.82l12.98,24.62,6.53,12.3,6.07,11.38.33.62c-1.45.63-2.97,1.08-4.53,1.29-1.59.21-3.2.17-4.78-.1-3.17-.54-6.13-1.97-8.78-3.8-2.65-1.84-5.03-4.08-7.17-6.51-1.07-1.22-2.08-2.49-3.03-3.8-.24-.33-.47-.66-.7-.99l-.16-.24s-.01-.02,0-.03c0-.03.03-.05.06-.04l2.35.53c.1.02.2,0,.29-.06.16-.12.2-.34.08-.5h0c-1.38-1.93-2.61-3.97-3.64-6.1-1.04-2.13-1.92-4.35-2.63-6.61-.71-2.27-1.26-4.58-1.65-6.93-.19-1.17-.35-2.35-.45-3.53l-.04-.44v-.11s-.01-.08-.01-.09c0-.03,0-.06.01-.09.03-.1.18-.18.28-.15.03,0,.05.02.08.04,0,0,.02.01.03.03l.04.03.09.07.35.28.71.55c.1.08.24.1.37.05.19-.08.28-.29.21-.48-.65-1.62-.96-3.37-1.08-5.13-.13-1.76-.07-3.54.1-5.31.17-1.77.45-3.53.81-5.28.18-.87.38-1.74.6-2.61.11-.43.23-.86.34-1.29l.09-.32.05-.16.02-.08.02-.05c.05-.13.15-.24.27-.32.12-.07.27-.1.41-.08h.04s.01.01.01.01l.08.02.16.04.32.08c.43.11.86.22,1.29.34.86.23,1.72.49,2.56.76,1.7.55,3.37,1.18,4.99,1.9,1.63.72,3.2,1.55,4.67,2.53,1.47.98,2.84,2.11,3.93,3.47.08.1.2.15.34.13.2-.03.33-.21.3-.41l-.27-1.8s-.01-.09-.01-.1v-.03s0-.02.02-.03c.02-.02.05-.04.07-.03t.05.02l.19.12.38.25c.99.67,1.96,1.39,2.9,2.14,1.88,1.5,3.65,3.14,5.3,4.89,1.65,1.75,3.17,3.63,4.53,5.61,1.37,1.98,2.55,4.08,3.56,6.26h0c.04.09.12.16.22.19.19.06.39-.05.44-.24l.37-1.21.09-.3.05-.15.02-.08s.01-.05.02-.06c.03-.1.1-.15.19-.17.1-.02.19.01.25.07.01.02.03.03.04.06,0,0,.02.03.03.05l.03.07.13.28c.18.38.35.76.52,1.14.67,1.53,1.27,3.1,1.79,4.7,1.03,3.18,1.76,6.48,1.92,9.82.08,1.66,0,3.33-.26,4.97Z"/>
</svg>