<?xml version="1.0" encoding="UTF-8"?>
<svg id="Layer_1" xmlns="http://www.w3.org/2000/svg" viewBox="0 0 70 70">
  <defs>
    <style>
      .cls-1 {
        fill: #fff;
      }

      .cls-2 {
        opacity: .45;
      }

      .cls-3 {
        fill: #00b2c9;
      }
    </style>
  </defs>
  <path d="M35.15,67.31c-17.81,0-32.31-14.49-32.31-32.31S17.34,2.69,35.15,2.69s32.31,14.49,32.31,32.31-14.49,32.31-32.31,32.31ZM35.15,3.39C17.72,3.39,3.54,17.57,3.54,35s14.18,31.61,31.61,31.61,31.61-14.18,31.61-31.61S52.59,3.39,35.15,3.39Z"/>
  <g>
    <g>
      <path class="cls-3" d="M43.76,53.57c-.1.09-.2.18-.31.27-4.92,4.13-12.17,4.13-17.09,0-.1-.09-.21-.18-.31-.27-3.74-3.31-5.79-8.27-5.42-13.12.45-6,4.28-11.21,7.82-16.19,2.23-3.14,4.44-6.49,5.7-10.04.25-.72,1.27-.72,1.52,0,1.26,3.55,3.47,6.91,5.7,10.04,3.54,4.98,7.36,10.19,7.82,16.19.37,4.85-1.69,9.82-5.43,13.12Z"/>
      <path d="M34.9,57.18c-3.19,0-6.28-1.12-8.7-3.15-.11-.09-.21-.18-.31-.27-3.82-3.38-5.88-8.36-5.51-13.33.45-5.88,4.05-10.95,7.53-15.85l.33-.46c2.21-3.12,4.43-6.48,5.67-9.98.15-.43.54-.7.99-.7s.84.28.99.7c1.24,3.5,3.46,6.87,5.67,9.98l.33.47c3.48,4.9,7.08,9.96,7.53,15.84.38,4.96-1.68,9.95-5.51,13.33-.1.09-.21.18-.31.27-2.42,2.03-5.51,3.15-8.7,3.15ZM34.9,13.92c-.19,0-.43.1-.53.38-1.26,3.56-3.5,6.96-5.73,10.1l-.33.46c-3.45,4.85-7.01,9.86-7.44,15.6-.36,4.74,1.69,9.69,5.34,12.92.1.09.2.18.31.26,2.34,1.96,5.31,3.04,8.39,3.04,3.07,0,6.05-1.08,8.39-3.04.1-.09.2-.17.3-.26h0c3.65-3.23,5.7-8.18,5.34-12.92-.44-5.74-4-10.75-7.44-15.6l-.33-.47c-2.23-3.15-4.47-6.55-5.73-10.1-.1-.28-.34-.38-.53-.38Z"/>
    </g>
    <g class="cls-2">
      <path class="cls-1" d="M26.64,34.28c-1.86,3.74-1.48,8.23,1.02,11.43.78,1.02,1.74,1.87,2.79,2.5.78.47,1.03,1.48.57,2.26-.47.78-1.48,1.03-2.26.57-5.16-4.06-6.38-11.68-2.54-17,.18-.23.54-.02.41.25h0Z"/>
    </g>
  </g>
</svg>