<?xml version="1.0" standalone="no"?>
<!DOCTYPE svg PUBLIC "-//W3C//DTD SVG 20010904//EN"
 "http://www.w3.org/TR/2001/REC-SVG-20010904/DTD/svg10.dtd">
<svg version="1.0" xmlns="http://www.w3.org/2000/svg"
 width="700.000000pt" height="700.000000pt" viewBox="0 0 700.000000 700.000000"
 preserveAspectRatio="xMidYMid meet">
<metadata>
Created by potrace 1.14, written by Peter Selinger 2001-2017
</metadata>
<g transform="translate(0.000000,700.000000) scale(0.100000,-0.100000)"
fill="#000000" stroke="none">
<path d="M0 3500 l0 -3500 3500 0 3500 0 0 3500 0 3500 -3500 0 -3500 0 0
-3500z m5491 1191 c191 -39 355 -106 496 -203 78 -54 199 -175 251 -251 53
-76 119 -224 157 -352 158 -527 67 -893 -297 -1201 -268 -225 -510 -326 -818
-341 -250 -12 -489 49 -677 174 -84 55 -207 176 -257 252 -52 79 -124 221
-172 340 -95 234 -127 486 -86 682 40 193 136 361 311 542 206 214 386 336
546 371 99 22 412 15 546 -13z m-3536 -47 c461 -66 745 -274 917 -669 51 -117
75 -224 94 -422 14 -146 15 -192 5 -265 -31 -233 -137 -436 -330 -628 -157
-156 -313 -255 -509 -321 -229 -78 -485 -79 -707 -4 -220 74 -427 211 -548
363 -177 222 -275 402 -323 592 -29 115 -27 327 5 438 29 104 140 329 219 448
180 268 483 449 812 484 90 10 229 3 365 -16z"/>
<path d="M5405 4304 c-197 -35 -301 -78 -398 -165 -92 -82 -160 -190 -220
-349 -78 -208 -74 -360 17 -585 110 -272 263 -407 576 -506 95 -31 116 -34
220 -33 194 1 323 46 476 167 226 180 348 465 315 742 -14 121 -50 235 -114
360 -71 138 -184 253 -307 314 -47 23 -116 48 -155 56 -89 19 -303 18 -410 -1z"/>
<path d="M1970 4275 c-107 -17 -259 -66 -327 -105 -155 -89 -304 -299 -362
-509 -44 -159 -34 -326 29 -490 125 -324 387 -513 710 -513 380 1 700 228 822
582 31 91 32 101 33 250 0 182 -17 258 -90 400 -159 307 -445 442 -815 385z"/>
</g>
</svg>
