<?xml version="1.0" standalone="no"?>
<!DOCTYPE svg PUBLIC "-//W3C//DTD SVG 20010904//EN"
 "http://www.w3.org/TR/2001/REC-SVG-20010904/DTD/svg10.dtd">
<svg version="1.0" xmlns="http://www.w3.org/2000/svg"
 width="700.000000pt" height="700.000000pt" viewBox="0 0 700.000000 700.000000"
 preserveAspectRatio="xMidYMid meet">
<metadata>
Created by potrace 1.14, written by Peter Selinger 2001-2017
</metadata>
<g transform="translate(0.000000,700.000000) scale(0.100000,-0.100000)"
fill="#000000" stroke="none">
<path d="M0 3500 l0 -3500 3500 0 3500 0 0 3500 0 3500 -3500 0 -3500 0 0
-3500z m3871 2790 c241 -24 468 -88 657 -184 245 -126 364 -280 364 -471 0
-147 -60 -276 -180 -387 -177 -163 -425 -242 -892 -283 -433 -37 -542 -53
-706 -100 -325 -95 -571 -311 -743 -652 -137 -274 -187 -505 -178 -822 6 -203
24 -312 78 -475 154 -461 545 -825 1019 -948 150 -39 372 -49 520 -24 263 46
509 174 701 365 156 156 282 372 283 485 1 46 -2 52 -34 74 l-35 24 -230 -8
c-126 -5 -318 -8 -425 -8 -174 -1 -204 2 -274 22 -351 101 -504 371 -382 671
77 190 285 380 505 463 l86 32 340 6 c286 6 375 12 560 35 290 37 509 40 637
7 280 -70 447 -239 521 -529 20 -79 22 -112 21 -308 0 -235 -14 -348 -68 -557
-163 -625 -546 -1180 -1076 -1558 -322 -229 -685 -375 -1090 -437 -160 -24
-538 -24 -700 0 -1242 190 -2082 1061 -2224 2307 -18 155 -21 460 -6 611 60
590 286 1151 650 1609 98 124 310 338 430 434 330 263 712 453 1105 546 261
62 529 83 766 60z"/>
</g>
</svg>
