<?xml version="1.0" encoding="utf-8"?>
<!-- Generator: Adobe Illustrator 27.1.1, SVG Export Plug-In . SVG Version: 6.00 Build 0)  -->
<svg version="1.1" id="Layer_1" xmlns="http://www.w3.org/2000/svg" xmlns:xlink="http://www.w3.org/1999/xlink" x="0px" y="0px"
	 viewBox="0 0 400 400" style="enable-background:new 0 0 400 400;" xml:space="preserve">
<style type="text/css">
	.st0{fill:#A22E3A;}
	.st1{fill:#F7C4B7;stroke:#000000;stroke-width:5;stroke-linecap:round;stroke-linejoin:round;stroke-miterlimit:10;}
	.st2{fill:#FFFFFF;}
	.st3{fill:#F7C4B7;}
	.st4{fill:#00B0C7;}
	.st5{fill:#00B0C7;stroke:#00B0C7;stroke-width:0.75;stroke-miterlimit:10;}
	.st6{fill:none;stroke:#F7C4B7;stroke-width:6;stroke-linecap:round;stroke-linejoin:round;stroke-miterlimit:10;}
	.st7{fill:none;stroke:#F7C4B7;stroke-width:6;stroke-miterlimit:10;}
	.st8{fill:none;stroke:#000000;stroke-width:5;stroke-linecap:round;stroke-linejoin:round;stroke-miterlimit:10;}
	.st9{fill:#FFFFFF;stroke:#000000;stroke-width:5;stroke-linecap:round;stroke-linejoin:round;stroke-miterlimit:10;}
	.st10{fill:none;stroke:#000000;stroke-width:3;stroke-linecap:round;stroke-linejoin:round;stroke-miterlimit:10;}
	.st11{fill:#F7C4B7;stroke:#000000;stroke-width:3;stroke-linecap:round;stroke-linejoin:round;stroke-miterlimit:10;}
	.st12{fill:#ADC2CC;}
	.st13{fill:#F7B3B3;}
	.st14{fill:#EC3124;}
	.st15{fill:none;stroke:#FFCE06;stroke-width:8;stroke-linecap:round;stroke-linejoin:round;stroke-miterlimit:10;}
	.st16{fill:#FFCE06;}
	.st17{fill:#E2E7EB;}
	.st18{fill:#05C252;}
	.st19{fill:#FF8001;}
	.st20{fill:none;stroke:#000000;stroke-width:3.685;stroke-linecap:round;stroke-linejoin:round;stroke-miterlimit:10;}
	.st21{opacity:0.45;fill:#FFFFFF;}
	.st22{fill:#1CD45E;}
	.st23{fill:#29DE66;}
	.st24{fill:#1FD761;}
	.st25{fill:#2BE169;}
	.st26{fill:none;stroke:#FFFFFF;stroke-width:4;stroke-linecap:round;stroke-miterlimit:10;}
	.st27{fill:#D13942;}
	.st28{fill:#DB5267;}
</style>
<g>
	<path class="st8" d="M331.2,319.8c-14.3-5-22.1-2.5-38.7,9.2c17.9-27.7,34.4-57.3,43.9-88.9c9.5-31.6,9.4-67.7-7.9-95.8
		c0,0-102.6-162.3-220.8-59.9"/>
	<path class="st9" d="M291.9,329.3c3.1-8.4,2.2-18.1-3.3-42.7"/>
	<path class="st8" d="M57.2,121.4c12,0.3,22.2-10.6,33.5-14.2c-12.2,38.5-43.5,85.9-24.8,148.2c0,0,55.3,150.9,197.9,89.6"/>
	<path class="st9" d="M91.2,108.3c2.8,20.3,3.7,24.7,10.9,35.2"/>
	<path class="st9" d="M172.5,260.5c1,14.8,3,15,4,28c16.9-0.5,30.7,0.5,47.5,0c0.4-11.9,1-14.1,1.5-26"/>
	<path class="st1" d="M145.2,139.1c35,0,70-0.1,105.1-0.1c-11.4,38.5-18.7,79.5-24,123.2c-18.4-0.1-35.9-0.7-54.2-0.8
		C169.9,221.5,159,180.9,145.2,139.1z"/>
</g>
<path class="st10" d="M230.9,155.8c-21.1-5.1-42-5.8-65.6-1.4"/>
</svg>
