<?xml version="1.0" encoding="utf-8"?>
<!-- Generator: Adobe Illustrator 27.1.1, SVG Export Plug-In . SVG Version: 6.00 Build 0)  -->
<svg version="1.1" id="Layer_1" xmlns="http://www.w3.org/2000/svg" xmlns:xlink="http://www.w3.org/1999/xlink" x="0px" y="0px"
	 viewBox="0 0 400 400" style="enable-background:new 0 0 400 400;" xml:space="preserve">
<style type="text/css">
	.st0{fill:#A22E3A;}
	.st1{fill:#F7C4B7;stroke:#000000;stroke-width:5;stroke-linecap:round;stroke-linejoin:round;stroke-miterlimit:10;}
	.st2{fill:#FFFFFF;}
	.st3{fill:#F7C4B7;}
	.st4{fill:#00B0C7;}
	.st5{fill:#00B0C7;stroke:#00B0C7;stroke-width:0.75;stroke-miterlimit:10;}
	.st6{fill:none;stroke:#F7C4B7;stroke-width:6;stroke-linecap:round;stroke-linejoin:round;stroke-miterlimit:10;}
	.st7{fill:none;stroke:#F7C4B7;stroke-width:6;stroke-miterlimit:10;}
	.st8{fill:none;stroke:#000000;stroke-width:5;stroke-linecap:round;stroke-linejoin:round;stroke-miterlimit:10;}
	.st9{fill:#FFFFFF;stroke:#000000;stroke-width:5;stroke-linecap:round;stroke-linejoin:round;stroke-miterlimit:10;}
	.st10{fill:none;stroke:#000000;stroke-width:3;stroke-linecap:round;stroke-linejoin:round;stroke-miterlimit:10;}
	.st11{fill:#F7C4B7;stroke:#000000;stroke-width:3;stroke-linecap:round;stroke-linejoin:round;stroke-miterlimit:10;}
	.st12{fill:#ADC2CC;}
	.st13{fill:#F7B3B3;}
	.st14{fill:#EC3124;}
	.st15{fill:none;stroke:#FFCE06;stroke-width:8;stroke-linecap:round;stroke-linejoin:round;stroke-miterlimit:10;}
	.st16{fill:#FFCE06;}
	.st17{fill:#E2E7EB;}
	.st18{fill:#05C252;}
	.st19{fill:#FF8001;}
	.st20{fill:none;stroke:#000000;stroke-width:3.685;stroke-linecap:round;stroke-linejoin:round;stroke-miterlimit:10;}
	.st21{opacity:0.45;fill:#FFFFFF;}
	.st22{fill:#1CD45E;}
	.st23{fill:#29DE66;}
	.st24{fill:#1FD761;}
	.st25{fill:#2BE169;}
	.st26{fill:none;stroke:#FFFFFF;stroke-width:4;stroke-linecap:round;stroke-miterlimit:10;}
	.st27{fill:#D13942;}
	.st28{fill:#DB5267;}
</style>
<g>
	<path class="st3" d="M253.7,163.1c-0.1-0.1-0.1-0.3-0.2-0.4c-0.5-1.6-12-39.3-55.6-42.2c-0.2,0-27.8-0.8-39.9,14.1
		c-0.9,1-20.9,24.8-42,21.9c-3,0.3-20.4,1.3-30.2-17.4c-0.3-0.6-0.4-1.4-0.1-2c1.3-3.7,2-8.1,1.4-9.2c-1.3,0.4-4.1,4.3-5.8,8.1
		c-3.8,7.6-10.6,20.2-15.1,22.2c-3,2-7.1,5.8-7.5,8.2c-0.1,0.5,0,0.8,0.2,1c0.3,0.4,0.4,0.6,0.5,1.1c0.3,1.1,2.1,2,5.9,1.1
		c7-1.7,14.9-5.1,16.4-5.8c0.6-0.4,2-1.3,3.7-1.6c3.2-0.7,6.2,0.4,8.4,3.1c1.3,1.3,17.1,16.6,31.7,22.2c2.4,0.3,11.8,2.1,11.9,16.2
		c1.1,5,4.3,13.2,8.1,14.8c0.4,0.1,0.8,0.3,1.4,0.3c-1.8-2.7-4.2-6.9-4.7-11.2c-0.4-2-2.8-17,4.3-21.7c0.1-0.1,0.3-0.2,0.4-0.2
		c2-0.8,18.1-7.2,27-3.5c0.3-0.8,0.6-1.7,1-2.5c3.3-7.3,9.1-13,16.1-15.6c1.3-0.5,2.7,0.2,3.2,1.5s-0.2,2.7-1.5,3.2
		c-5.7,2.1-10.5,6.8-13.3,12.9c-0.7,1.6-1.2,3.1-1.6,4.8c0,0.1,0,0.2-0.1,0.3c-1,4.6-0.8,9.3,0.8,13.4c2.7,7.2,8.7,12.8,14.8,17.8
		c12,9.9,25.2,18.3,39.2,25.2c0.9,0.4,1.5,1.4,1.4,2.4c-0.8,14,0.3,29.2,3.2,46.5c0.7-0.9,1.2-2,1.4-3c0.6-2.2,0.6-4.7,0.7-7.3l0-1
		c0.1-14.7,3.2-29.6,8.9-43.1c-2.3-2.7-4.2-5.6-6-8.3c-2.1-3.1-4.1-6.1-6.6-9c-7.2-8-17-19-18.4-32.2c-0.1-0.5,0.1-1.1,0.3-1.6
		c3.2-5.4,7.7-9.7,13-12.3c1.1-0.6,2.4-0.2,3.1,0.7c0.5,0.6,44.2,57.7,89.8,64.8C307.1,231.3,277.8,210.2,253.7,163.1z"/>
	<path d="M255.9,162c0,0-11.9-41-57.9-44c0,0-29-1-42,15c0,0-20,24-40,21c0,0-18,3-28-16c0,0,4-10.9,0-12.4s-9,9.4-9,9.4
		s-10,20-14,21c0,0-12,8-8,13c0,0,1,5,9,3s17-6,17-6s5-4,9,1c0,0,17,17,33,23c0,0,10,0,10,14c0,0,5,23,16,16c0,0-5.4-6.5-6.2-12.8
		c0,0-2.8-15.2,3.2-19.2c0,0,21-8.7,27.5-1.9c2-8.7,8.1-16.5,16.5-19.6c-8.4,3.1-14.4,11-16.5,19.6l0,0l0,0c-1.2,5-1,10.2,0.8,15
		c2.9,7.7,9.2,13.6,15.5,18.8c12.2,10,25.6,18.6,39.7,25.5c-0.9,16.9,0.9,34.4,3.9,51c2.9-1,4.8-3.7,5.6-6.6c0.8-2.9,0.7-6,0.8-9
		c0.1-15,3.3-29.9,9.3-43.6c-5.3-5.9-8.4-12.5-13.7-18.5c-8-9-16.5-18.8-17.7-30.8c2.9-4.8,6.9-8.8,12-11.4
		c0,0,53.2,70.4,105.2,66.4C337,243,290.8,229.9,255.9,162z M233.8,175.1c-0.7-1-2-1.3-3.1-0.7c-5.2,2.7-9.7,6.9-13,12.3
		c-0.3,0.5-0.4,1-0.3,1.6c1.4,13.3,11.2,24.2,18.4,32.2c2.5,2.8,4.5,5.8,6.6,9c1.8,2.7,3.7,5.6,6,8.3c-5.7,13.6-8.8,28.4-8.9,43.1
		l0,1c0,2.6,0,5-0.7,7.3c-0.3,1-0.8,2-1.4,3c-2.9-17.3-4-32.6-3.2-46.5c0.1-1-0.5-1.9-1.4-2.4c-14-6.8-27.2-15.3-39.2-25.2
		c-6.1-5-12.1-10.6-14.8-17.8c-1.6-4.1-1.8-8.8-0.8-13.4c0-0.1,0.1-0.2,0.1-0.3c0.4-1.6,0.9-3.2,1.6-4.8c2.8-6.1,7.6-10.8,13.3-12.9
		c1.3-0.5,1.9-1.9,1.5-3.2s-1.9-1.9-3.2-1.5c-6.9,2.6-12.8,8.3-16.1,15.6c-0.4,0.8-0.7,1.6-1,2.5c-8.9-3.8-25,2.6-27,3.5
		c-0.2,0.1-0.3,0.1-0.4,0.2c-7.1,4.7-4.7,19.7-4.3,21.7c0.6,4.3,2.9,8.5,4.7,11.2c-0.6,0-1-0.1-1.4-0.3c-3.9-1.6-7-9.8-8.1-14.8
		c-0.1-14-9.5-15.9-11.9-16.2c-14.6-5.6-30.4-20.9-31.7-22.2c-2.2-2.7-5.2-3.8-8.4-3.1c-1.8,0.4-3.1,1.2-3.7,1.6
		c-1.5,0.6-9.4,4-16.4,5.8c-3.9,1-5.6,0-5.9-1.1c-0.1-0.5-0.2-0.7-0.5-1.1c-0.2-0.3-0.3-0.5-0.2-1c0.4-2.4,4.5-6.2,7.5-8.2
		c4.5-2,11.3-14.6,15.1-22.2c1.7-3.8,4.5-7.7,5.8-8.1c0.6,1.1-0.1,5.5-1.4,9.2c-0.2,0.7-0.2,1.4,0.1,2c9.8,18.7,27.2,17.7,30.2,17.4
		c21,2.9,41.1-20.9,42-21.9c12.1-14.8,39.7-14.1,39.9-14.1c43.6,2.8,55.2,40.6,55.6,42.2c0,0.2,0.1,0.3,0.2,0.4
		c24.2,47.1,53.5,68.1,69.9,76.8C278,232.8,234.3,175.8,233.8,175.1z"/>
	<path d="M337.7,240.6c-0.5-0.1-45.5-13.5-79.5-79.6c-0.5-1.7-3.8-11.4-12.1-21.5c-8.3-10.1-23.3-22.4-48-24
		c-1.2,0-30.4-0.8-44,15.9c-0.2,0.2-19.4,22.9-37.7,20.1c-0.3,0-0.5,0-0.8,0c0,0-4.2,0.6-9.4-0.9c-6.5-1.9-11.8-6.2-15.5-12.9
		c1.3-3.9,3.4-12.5-1.8-14.5c-5.8-2.2-10.8,7.6-12.1,10.6c-4.4,8.7-10.4,18.7-12.4,19.7c-0.2,0.1-0.5,0.2-0.7,0.3
		c-0.9,0.6-9,6.1-9.8,11.7c-0.3,1.6,0.1,3.2,1,4.5c0.3,0.9,1.1,2.4,2.9,3.5c2.3,1.4,5.3,1.7,9,0.8c8.1-2,17-6,17.4-6.1
		c0.2-0.1,0.4-0.2,0.5-0.3c0.9-0.7,3.3-2.1,5.5,0.6c0.1,0.1,0.1,0.1,0.2,0.2c0.7,0.7,17.6,17.5,33.9,23.6c0.3,0.1,0.6,0.2,0.9,0.2
		c0.8,0,7.5,0.5,7.5,11.5c0,0.2,0,0.4,0.1,0.5c0.3,1.6,3.6,15.5,11.2,18.6c1.9,0.8,5,1.3,8.6-1.1c0.6-0.4,1-1,1.1-1.7
		c0.1-0.7-0.1-1.4-0.5-2c0-0.1-5-6-5.7-11.5c0,0,0-0.1,0-0.1c-0.8-4.4-1.3-14.1,2-16.6c7-2.9,18.9-5.9,23.5-3.1
		c-0.9,5.1-0.5,10.3,1.2,15c3.2,8.3,9.7,14.5,16.3,19.9c11.9,9.8,24.9,18.2,38.7,25.1c-0.7,14.9,0.7,31.3,4.1,49.9
		c0.1,0.7,0.6,1.3,1.2,1.7c0.4,0.2,0.8,0.3,1.3,0.3c0.3,0,0.5,0,0.8-0.1c3.4-1.1,6.1-4.2,7.2-8.3c0.8-2.9,0.8-5.8,0.8-8.6l0-1
		c0.1-14.5,3.3-29.3,9.1-42.6c0.4-0.9,0.2-1.9-0.4-2.7c-2.5-2.8-4.5-5.8-6.6-9c-2.1-3.2-4.3-6.4-7.1-9.5c-8.5-9.5-15.6-18.2-17-28.6
		c2.4-3.7,5.3-6.6,8.7-8.7c3.9,4.9,15.9,19.4,32.1,33.3c26.8,23.1,51.7,34,73.9,32.3c1.2-0.1,2.2-1,2.3-2.2
		C339.6,242,338.8,240.9,337.7,240.6z M64.4,153.6C64.4,153.6,64.4,153.6,64.4,153.6C64.4,153.6,64.4,153.6,64.4,153.6z
		 M231.8,176.6c-5,2.6-9,6.6-12,11.4c1.3,12,9.7,21.8,17.7,30.8c5.3,5.9,8.4,12.5,13.7,18.5c-6,13.7-9.2,28.6-9.3,43.6
		c0,3,0.1,6.1-0.8,9c-0.8,2.9-2.8,5.7-5.6,6.6c-3-16.6-4.9-34.1-3.9-51c-14.2-6.9-27.5-15.5-39.7-25.5c-6.4-5.2-12.6-11.1-15.5-18.8
		c-1.8-4.8-2-10.1-0.8-15C169,179.3,148,188,148,188c-6,4-3.2,19.2-3.2,19.2c0.8,6.2,6.2,12.8,6.2,12.8c-11,7-16-16-16-16
		c0-14-10-14-10-14c-16-6-33-23-33-23c-4-5-9-1-9-1s-9,4-17,6s-9-3-9-3c-4-5,8-13,8-13c4-1,14-21,14-21s5-11,9-9.4s0,12.4,0,12.4
		c10,19,28,16,28,16c20,3,40-21,40-21c13-16,42-15,42-15c46,3,57.9,44,57.9,44c34.9,68,81.1,81,81.1,81
		C285,247,231.8,176.6,231.8,176.6z"/>
</g>
</svg>
