<?xml version="1.0" encoding="utf-8"?>
<!-- Generator: Adobe Illustrator 27.2.0, SVG Export Plug-In . SVG Version: 6.00 Build 0)  -->
<svg version="1.1" id="Layer_1" xmlns="http://www.w3.org/2000/svg" xmlns:xlink="http://www.w3.org/1999/xlink" x="0px" y="0px"
	 viewBox="0 0 447.2 452" style="enable-background:new 0 0 447.2 452;" xml:space="preserve">
<style type="text/css">
	.st0{fill:#F9C6BA;}
	.st1{fill:#FFFFFF;}
</style>
<g>
	<path d="M377.5,221.5c-0.5-12.5-1.9-24.8-4.9-37c-5.3-21.2-15-40.1-29.7-56.3c-1.5-1.6-3-3.2-4.5-4.8c0.2-0.2,0.4-0.4,0.6-0.6
		c4.9-4.8,9.9-9.5,14.8-14.3c1.4-1.4,1.6-3.2,0.4-4.5c-1.2-1.3-3-1.3-4.5,0.1c-1.6,1.5-3.1,3-4.7,4.5c-3.7,3.5-7.3,7-10.9,10.5
		c-0.1,0-0.1,0-0.2-0.1c-1.7-1.5-3.5-3.1-5.2-4.6c-17.4-14.6-36.9-25.7-57.9-34.3c-11.4-4.6-23.1-7.8-35.4-9.1
		c-12.7-1.3-25.4-0.4-37.9,2c-15.6,3-30.3,8.3-44.4,15.5c-13.5,7-25.7,15.7-36.6,26.3c-15.9,15.5-28,33.5-36.7,53.9
		c-7.9,18.5-12.4,37.7-12.6,57.8c-0.1,10.6,1.5,20.9,4.3,31.1c3.3,11.7,8.1,22.8,13.8,33.5c6.5,12.3,13.5,24.2,22,35.2
		c0.4,0.5,0.7,0.9,1.1,1.4c-2.9,1.9-5.6,3.8-8.4,5.5c-5.3,3.4-10.6,6.8-16,10.2c-1.2,0.8-1.9,1.7-1.7,3.2c0.3,2.2,2.7,3.2,4.7,2
		c4-2.5,8.1-5,12.1-7.6c4.4-2.8,8.7-5.7,13-8.5c0.2,0.1,0.2,0.2,0.3,0.2c0.3,0.4,0.6,0.7,1,1.1c11.5,13.4,25,24.3,40.9,32.2
		c23.7,11.8,48.7,17.5,75.2,16.7c12.6-0.4,25-2.1,37.2-5.4c16-4.3,31.1-10.8,44.6-20.5c12.1-8.7,22.2-19.4,30.9-31.4
		c11.5-15.9,21.3-32.7,27.7-51.4C375.6,257,378.1,239.5,377.5,221.5z M113.3,324.6c-2.4-3.3-4.8-6.5-7-9.7
		c-10.2-15.3-19.2-31.3-25.7-48.6c-4.1-11-6.8-22.3-7.3-34c-0.8-21.2,3.7-41.3,11.9-60.7c7.4-17.3,17.3-33,30.2-46.8
		c16.2-17.4,35.7-30,57.9-38.5c11.7-4.4,23.7-7.4,36.1-8.9c18.5-2.2,36.5-0.1,54,6.5c24,9,45.9,21.4,65.1,38.5c0.4,0.3,0.7,0.7,1,1
		c0,0,0.1,0.1,0.1,0.2c-4.2,4.1-8.4,8.2-12.6,12.3c-5,4.9-10.1,9.8-15.1,14.7c-5.6,5.5-11.2,11-16.9,16.5c-0.5,0.4-1.2,0.8-1.9,0.8
		c-10.7,0-21.4,0-32.2,0c-0.7,0-1.4,0-2.2,0.1c-2,0.3-3,1.5-3,3.4c0,1.8,1.2,3,3.1,3.1c0.8,0.1,1.5,0.1,2.3,0.1h26.1
		c-1.8,1.8-3.6,3.3-5,5c-1.9,2.4-3.8,2.7-6.7,1.8c-5.1-1.7-10.3-2.9-15.5-4.3c-2.5-0.7-4.5,1-4.4,3.4c0.1,1.5,1.1,2.5,2.9,3.1
		c3.5,1,7,1.9,10.5,2.9c1.5,0.4,3,0.8,4.7,1.3c-1.5,1.5-3,3-4.4,4.4c-3.5,3.4-6.9,6.9-10.4,10.3c-0.5,0.5-0.9,0.7-1.6,0.3
		c-0.9-0.5-1.9-0.9-2.9-1.3c-0.7-0.3-0.9-0.7-0.9-1.4c0-5.4,0-10.8,0-16.2c0-0.4,0-0.7,0-1.1c-0.1-2.4-1.3-3.6-3.8-3.8
		c-1.1,0-2.2,0-3.5,0v-15.7c0-3.2-1.2-4.4-4.4-4.4c-6.9,0-13.8,0-20.6,0c-2.6,0-3.8,1.2-3.9,3.8c0,0.8,0,1.7,0,2.5v2.5H206
		c-11.3,0-22.5,0-33.8,0c-5.1,0-9.9,1.2-13.9,4.6c-3.3,2.9-5.3,6.6-6.5,10.7c-0.3,1.1-0.8,1.9-1.7,2.6c-3,2.3-4.3,5.6-5.2,9.1
		c-2,7.3-1.6,14.5,0.7,21.6c0.7,2.3,2,4.3,3.7,6c3.5,3.4,8.4,3,11.4-0.8c2.9-3.7,4.1-8,4.7-12.5c0.7-5.6,0.1-11-1.6-16.3
		c-0.9-2.7-2.3-5.1-4.5-6.9c-0.7-0.6-0.9-1.3-0.7-2.1c1.1-4.6,6.2-8.8,10.9-8.9c12.3-0.1,24.6-0.1,36.8-0.1c0.3,0,0.5,0,0.9,0.1v4.3
		c-1,0-1.9,0-2.9,0c-3,0.1-4.1,1.2-4.1,4.2c0,5.5,0,11.1,0,16.7v1.1c-3.1,1.5-6.2,2.6-9.1,4.3c-12.9,7.4-20.6,18.5-23.5,32.9
		c-2.6,12.5-0.7,24.5,5.2,35.8c0.7,1.3,1.3,2.7,2,4.2C155.3,294.9,134.7,310,113.3,324.6z M236.8,185.8V199c-5-0.4-10-1-14.9-1
		c-4.9,0-9.8,0.6-14.9,1v-13.1H236.8z M214.2,178.7v-13h15.4v13H214.2z M241.7,208c0.4,0.1,0.8,0.3,1.6,0.6c-1.5,1.4-2.8,2.5-4,3.8
		c-10,10.3-20,20.6-29.8,31c-5.9,6.2-11.5,12.8-17.5,19c-3.5,3.7-7.4,7-11.1,10.4c-0.2,0.2-0.4,0.3-0.8,0.6
		c-1.3-2.9-2.6-5.7-3.7-8.6c-5.8-15.8-3.5-30.4,6.6-43.8c5.9-7.7,14-12,23.2-14.2C218.2,203.8,230,203.9,241.7,208z M184,278.2
		c6.5-6.2,13.1-12.3,19.4-18.8c5.3-5.4,10-11.4,15.2-16.9c7.1-7.6,14.4-15,21.7-22.4c2.9-3,5.8-5.8,8.9-8.8
		c7.7,4.2,13.5,10.2,17.1,18.3c6.4,14.6,5.6,28.9-2,42.9c-2.2,4-4.2,8.1-6.2,12.2c-0.8,1.5-1.8,2.2-3.5,2.2c-15.2,0-30.5,0-45.7,0
		c-6.5,0-13,0-19.4,0c-1.7,0-2.7-0.6-3.4-2.1c-0.7-1.6-1.5-3.2-2.4-4.7C183.1,279.1,183.4,278.7,184,278.2z M158.7,204.3
		c-0.1,3.7-0.3,7.4-2.2,10.7c-0.5,0.8-1.4,1.5-2,2.2c-0.6-0.7-1.3-1.4-1.8-2.2c-2.3-4.4-2.7-9-1.9-13.8c0.5-2.9,1.5-5.7,2.4-8.5
		c0.2-0.6,0.8-1.1,1.3-1.6c0.5,0.5,1.2,0.9,1.6,1.5C158.2,196.3,158.6,200.2,158.7,204.3z M349.6,303.2c-7,11.8-14.9,23-24.2,33.1
		c-13.8,15-30.6,25.3-49.7,32c-14.5,5-29.4,7.8-44.7,8.4c-25.6,1.1-49.9-4.1-73-15.4c-15.8-7.7-29.2-18.4-40.6-31.8
		c-0.1-0.1-0.1-0.2-0.3-0.4c20.9-14.2,41.2-29.1,60.4-45.5c1.7,3.1,3.4,6.2,5.1,9.2h78.8c3.4-6.5,6.8-13.1,10.1-19.7
		c4.1-8.3,6.3-17.2,5.7-26.5c-1.1-16.9-7.7-30.7-22.4-40.1c-0.3-0.2-0.5-0.4-0.9-0.6c2.5-2.5,5-5,7.4-7.4c2.8-2.8,5.6-5.5,8.4-8.3
		c0.6-0.6,1.2-0.7,2-0.5c5.8,1.6,11.6,3.2,17.4,4.8c0.5,0.1,1,0.3,1.5,0.4c1.8,0.2,3.4-0.8,3.8-2.4c0.5-1.7-0.4-3.4-2.2-4
		c-2-0.7-4.1-1.2-6.1-1.7c-3.3-0.9-6.6-1.8-10.2-2.8c0.9-0.9,1.7-1.5,2.4-2.2c2.2-2.2,4.4-4.4,6.7-6.5c0.5-0.4,1.2-0.7,1.9-0.8
		c1.4-0.1,2.8,0,4.2-0.1c2-0.1,3.1-1,3.4-2.4c0.4-1.7-0.2-3-2-4.1c13.8-13.5,27.6-26.9,41.5-40.5c2.4,2.6,4.7,5.1,6.9,7.6
		c13.8,16,22.4,34.5,26.8,55.1c2.1,9.6,3.2,19.4,3.7,29.2C373.1,249.7,365,277.4,349.6,303.2z"/>
	<path class="st0" d="M158.7,204.3c-0.1,3.7-0.3,7.4-2.2,10.7c-0.5,0.8-1.4,1.5-2,2.2c-0.6-0.7-1.3-1.4-1.8-2.2
		c-2.3-4.4-2.7-9-1.9-13.8c0.5-2.9,1.5-5.7,2.4-8.5c0.2-0.6,0.8-1.1,1.3-1.6c0.5,0.5,1.2,0.9,1.6,1.5
		C158.2,196.3,158.6,200.2,158.7,204.3z"/>
	<path class="st0" d="M264.2,272.4c-2.2,4-4.2,8.1-6.2,12.2c-0.8,1.5-1.8,2.2-3.5,2.2c-15.2,0-30.5,0-45.7,0c-6.5,0-13,0-19.4,0
		c-1.7,0-2.7-0.6-3.4-2.1c-0.7-1.6-1.5-3.2-2.4-4.7c-0.5-0.8-0.2-1.2,0.4-1.8c6.5-6.2,13.1-12.3,19.4-18.8
		c5.3-5.4,10-11.4,15.2-16.9c7.1-7.6,14.4-15,21.7-22.4c2.9-3,5.8-5.8,8.9-8.8c7.7,4.2,13.5,10.2,17.1,18.3
		C272.5,244.1,271.7,258.4,264.2,272.4z"/>
	<path class="st0" d="M243.2,208.6c-1.5,1.4-2.8,2.5-4,3.8c-10,10.3-20,20.6-29.8,31c-5.9,6.2-11.5,12.8-17.5,19
		c-3.5,3.7-7.4,7-11.1,10.4c-0.2,0.2-0.4,0.3-0.8,0.6c-1.3-2.9-2.6-5.7-3.7-8.6c-5.8-15.8-3.5-30.4,6.6-43.8
		c5.9-7.7,14-12,23.2-14.2c11.9-2.9,23.7-2.8,35.4,1.3C242.1,208.2,242.5,208.3,243.2,208.6z"/>
	<path class="st1" d="M113.3,324.6c-2.4-3.3-4.8-6.5-7-9.7c-10.2-15.3-19.2-31.3-25.7-48.6c-4.1-11-6.8-22.3-7.3-34
		c-0.8-21.2,3.6-41.3,11.9-60.7c7.3-17.3,17.3-33,30.2-46.8c16.2-17.4,35.7-30,57.9-38.5c11.7-4.4,23.7-7.4,36.1-8.9
		c18.5-2.2,36.5-0.1,54,6.5c24,9,45.9,21.4,65.1,38.5c0.4,0.3,0.7,0.7,1,1c0.1,0.1,0.1,0.1,0.1,0.3c-4.2,4.1-8.4,8.2-12.6,12.3
		c-5,4.9-10.1,9.8-15.1,14.7c-5.6,5.5-11.3,11-16.9,16.5c-0.5,0.4-1.2,0.8-1.9,0.8c-10.7,0-21.4,0-32.2,0c-0.7,0-1.4,0-2.2,0.1
		c-2,0.3-3,1.5-3,3.4c0,1.8,1.2,3,3.1,3.2c0.8,0.1,1.5,0.1,2.3,0.1c8.1,0,16.2,0,24.4,0c0.5,0,0.9,0,1.7,0c-1.9,1.8-3.6,3.3-5,5
		c-1.9,2.4-3.8,2.7-6.7,1.8c-5.1-1.7-10.3-2.9-15.5-4.3c-2.5-0.7-4.5,1-4.4,3.4c0.1,1.4,1.1,2.5,2.9,3.1c3.5,1,7,1.9,10.5,2.9
		c1.5,0.4,3,0.8,4.7,1.3c-1.5,1.5-3,3-4.4,4.4c-3.5,3.4-6.9,6.9-10.4,10.3c-0.5,0.5-0.9,0.7-1.6,0.3c-0.9-0.5-1.9-0.9-2.9-1.3
		c-0.7-0.3-0.9-0.7-0.9-1.4c0-5.4,0-10.8,0-16.2c0-0.4,0-0.7,0-1.1c-0.1-2.5-1.3-3.6-3.8-3.7c-1.1-0.1-2.2,0-3.5,0c0-0.6,0-1,0-1.5
		c0-4.8,0-9.5,0-14.3c0-3.2-1.2-4.4-4.4-4.4c-6.9,0-13.8,0-20.6,0c-2.6,0-3.8,1.1-3.9,3.8c0,0.8,0,1.7,0,2.5c0,0.8,0,1.6,0,2.5
		c-0.5,0-1,0-1.5,0c-11.3,0-22.6,0-33.8,0c-5.1,0-9.9,1.2-13.9,4.6c-3.3,2.9-5.3,6.6-6.5,10.7c-0.3,1.1-0.8,1.9-1.7,2.6
		c-3,2.3-4.3,5.6-5.2,9.1c-2,7.3-1.6,14.5,0.7,21.6c0.7,2.3,2,4.3,3.7,5.9c3.5,3.4,8.4,3,11.4-0.8c2.9-3.7,4.1-8,4.7-12.5
		c0.7-5.6,0.1-11-1.7-16.3c-0.9-2.7-2.3-5.1-4.5-6.9c-0.7-0.6-0.9-1.3-0.6-2.1c1.1-4.6,6.2-8.8,10.9-8.9c12.3-0.1,24.6-0.1,36.8-0.1
		c0.3,0,0.5,0.1,0.9,0.1c0,1.4,0,2.7,0,4.3c-1,0-1.9,0-2.9,0c-3,0.1-4.1,1.2-4.1,4.2c0,5.6,0,11.1,0,16.7c0,0.4,0,0.9,0,1.1
		c-3.1,1.5-6.2,2.6-9.1,4.3c-12.9,7.4-20.6,18.5-23.5,32.9c-2.6,12.6-0.7,24.4,5.2,35.8c0.7,1.3,1.3,2.7,2,4.2
		C155.3,294.9,134.7,310,113.3,324.6z M294.6,150.4c0-1.9-1.5-3.3-3.5-3.2c-0.7,0.1-1.5,0.2-2.2,0.4c-10.9,3-21.8,6-32.7,9
		c-2.7,0.8-5.5,1.5-8.2,2.4c-1.6,0.5-2.3,1.7-2.3,3.1c0,1.5,0.9,2.7,2.3,3c0.9,0.2,1.8,0.1,2.7-0.1c9.6-2.6,19.2-5.2,28.8-7.9
		c4-1.1,8.1-2.2,12.1-3.4C293.6,153.3,294.6,152.1,294.6,150.4z"/>
	<path d="M294.6,150.4c0,1.6-1,2.9-2.9,3.5c-4,1.2-8.1,2.3-12.1,3.4c-9.6,2.6-19.2,5.3-28.8,7.9c-0.9,0.2-1.8,0.3-2.7,0.1
		c-1.4-0.3-2.2-1.5-2.3-3c0-1.5,0.7-2.7,2.3-3.1c2.7-0.9,5.4-1.6,8.2-2.4c10.9-3,21.8-6,32.7-9c0.7-0.2,1.5-0.4,2.2-0.4
		C293.1,147.1,294.6,148.6,294.6,150.4z"/>
</g>
</svg>
