<?xml version="1.0" encoding="utf-8"?>
<!-- Generator: Adobe Illustrator 27.1.1, SVG Export Plug-In . SVG Version: 6.00 Build 0)  -->
<svg version="1.1" id="Layer_1" xmlns="http://www.w3.org/2000/svg" xmlns:xlink="http://www.w3.org/1999/xlink" x="0px" y="0px"
	 viewBox="0 0 400 400" style="enable-background:new 0 0 400 400;" xml:space="preserve">
<style type="text/css">
	.st0{fill:#A22E3A;}
	.st1{fill:#F7C4B7;stroke:#000000;stroke-width:5;stroke-linecap:round;stroke-linejoin:round;stroke-miterlimit:10;}
	.st2{fill:#FFFFFF;}
	.st3{fill:#F7C4B7;}
	.st4{fill:#00B0C7;}
	.st5{fill:#00B0C7;stroke:#00B0C7;stroke-width:0.75;stroke-miterlimit:10;}
	.st6{fill:none;stroke:#F7C4B7;stroke-width:6;stroke-linecap:round;stroke-linejoin:round;stroke-miterlimit:10;}
	.st7{fill:none;stroke:#F7C4B7;stroke-width:6;stroke-miterlimit:10;}
	.st8{fill:none;stroke:#000000;stroke-width:5;stroke-linecap:round;stroke-linejoin:round;stroke-miterlimit:10;}
	.st9{fill:#FFFFFF;stroke:#000000;stroke-width:5;stroke-linecap:round;stroke-linejoin:round;stroke-miterlimit:10;}
	.st10{fill:none;stroke:#000000;stroke-width:3;stroke-linecap:round;stroke-linejoin:round;stroke-miterlimit:10;}
	.st11{fill:#F7C4B7;stroke:#000000;stroke-width:3;stroke-linecap:round;stroke-linejoin:round;stroke-miterlimit:10;}
	.st12{fill:#ADC2CC;}
	.st13{fill:#F7B3B3;}
	.st14{fill:#EC3124;}
	.st15{fill:none;stroke:#FFCE06;stroke-width:8;stroke-linecap:round;stroke-linejoin:round;stroke-miterlimit:10;}
	.st16{fill:#FFCE06;}
	.st17{fill:#E2E7EB;}
	.st18{fill:#05C252;}
	.st19{fill:#FF8001;}
	.st20{fill:none;stroke:#000000;stroke-width:3.685;stroke-linecap:round;stroke-linejoin:round;stroke-miterlimit:10;}
	.st21{opacity:0.45;fill:#FFFFFF;}
	.st22{fill:#1CD45E;}
	.st23{fill:#29DE66;}
	.st24{fill:#1FD761;}
	.st25{fill:#2BE169;}
	.st26{fill:none;stroke:#FFFFFF;stroke-width:4;stroke-linecap:round;stroke-miterlimit:10;}
	.st27{fill:#D13942;}
	.st28{fill:#DB5267;}
</style>
<g>
	<path class="st3" d="M88.5,119.7c8.3,4.2,18.1,1.7,23.2-0.1c6.5-2.4,10.6-5.6,12.3-9.7c0.5-1.1,0.7-2.3,0.8-3.5
		c-0.6-0.7-0.8-1.6-0.5-2.5c0.1-0.3,0.2-0.5,0.4-0.7c-0.3-2.6-1.1-4.9-1.8-6.5c-4.6-10.6-15.5-17.8-26-17.1
		c-5.5,0.4-11,3.2-14.9,7.7c-3.4,3.9-5.1,8.6-4.8,13.1c0.1,0.2,0.1,0.4,0.2,0.7C78.4,110.4,81.9,116.4,88.5,119.7z"/>
	<path class="st3" d="M329,147.3c-8.8-5.5-21.9-3.2-28.7,5c-6.7,8.1-5.1,22.6,0.6,31.1c1,0.1,2,0.5,2.9,0.9c1.1,0.4,2.2,0.9,3.4,1
		c0.7,0.1,1.5,0.1,2.3,0.2c3.5,0.3,8.3,0.8,10.8-0.1c4.7-1.6,13.1-5.2,17-11.9C342.7,164.2,337.4,152.5,329,147.3z"/>
	<path class="st3" d="M179.7,321.2c1.1-6.7,0.3-16-4.1-20.5c-12.7-13.3-25.7-12.4-33.5-7.2c-0.5,0.4-1.2,0.5-1.8,0.4
		c-3.7,7.6-7.1,15.6-7.8,23.6c-0.6,7.8,2.2,17.5,9.8,21.7c8.8,4.8,19.5,0.2,23.6-2C170.5,334.7,178.4,329.4,179.7,321.2z"/>
	<path d="M140.1,152.5c-0.1,0.1-0.2,0.1-0.3,0.2c-1.7,1.1-3.5,2.1-5.1,3.2c-2.5,21-3.4,43.5-2.9,67.6c1.7,1.1,3.4,2.1,5.1,3.2
		C136,200,137.1,175.4,140.1,152.5z"/>
	<path d="M137.1,148.4c1.3-0.8,2.5-1.5,3.8-2.2c1.6-10.8,3.6-21.1,6-31.1c-1.6-0.6-3.1-1.2-4.7-1.8c-2.8,11.6-5.1,23.7-6.8,36.3
		C136,149.1,136.6,148.8,137.1,148.4z"/>
	<path d="M131.9,229.5c0.5,15.1,1.6,30.8,3.2,47.3c1.6-0.3,3.3-0.7,4.9-1.1c-1.5-14.9-2.5-29.3-3-43.1
		C135.3,231.6,133.6,230.6,131.9,229.5z"/>
	<path d="M163.3,66.2c3-6.7,6.7-14.4,12.8-19.4c5.3-4.3,13.8-6.6,20-2.8c-0.5-0.8-0.5-1.9,0.1-2.8c0.8-1.1,2.3-1.4,3.4-0.7
		c-0.2-0.3-0.5-0.6-0.8-0.8c-8.5-5.3-19.3-2.1-25.8,3.2c-7,5.7-11,13.9-14.2,21.2c-6.2,14-11.2,28.6-15.3,44.1
		c1.6,0.6,3.1,1.2,4.7,1.8C152.2,94.7,157.2,80.1,163.3,66.2z"/>
	<path d="M168.4,337.9c1.1-0.8,2.7-0.6,3.5,0.5c0.2,0.2,0.3,0.4,0.5,0.6c5.1-3.5,11-9.1,12.3-17.1c1.2-7.5,0.5-18.6-5.4-24.8
		c-8.9-9.3-23.9-16.9-37.9-9.1c-0.3-2.5-0.5-4.9-0.8-7.4c-1.6,0.4-3.3,0.7-4.9,1.1c0.3,2.8,0.6,5.6,0.9,8.4
		c-4.2,8.4-8.2,17.4-8.9,26.9c-0.7,9.4,2.8,21.2,12.4,26.5c3.3,1.8,7.1,2.7,11.2,2.7c5.3,0,11.1-1.5,17-4.6
		c-0.1-0.1-0.1-0.2-0.2-0.2C167.1,340.3,167.3,338.8,168.4,337.9z M142.3,339.2c-7.6-4.2-10.4-13.9-9.8-21.7
		c0.6-8.1,4.1-16.1,7.8-23.6c0.6,0.1,1.2,0,1.8-0.4c7.9-5.2,20.8-6.1,33.5,7.2c4.4,4.6,5.2,13.8,4.1,20.5c-1.3,8.2-9.2,13.5-13.8,16
		C161.8,339.4,151.1,344,142.3,339.2z"/>
	<path d="M242.9,233c-1.5,14.8-3.7,29.6-7.2,44.2c1.6,0.6,3.2,1.1,4.7,1.7c3.9-16.3,6.3-33,7.9-49.5
		C246.5,230.6,244.7,231.8,242.9,233z"/>
	<path d="M241.1,116.5c3.3,14,4.8,28.2,5.2,43.2c1.7,1.1,3.4,2.2,5.1,3.2c-0.3-16.7-1.8-32.2-5.4-47.6c-0.3-1.2-0.6-2.4-0.9-3.5
		c-1.6,0.4-3.2,0.8-4.8,1.2C240.5,114.2,240.8,115.4,241.1,116.5z"/>
	<path d="M245.2,203.4c-0.5,7.6-1,15.4-1.7,23.1c1.8-1.2,3.6-2.4,5.3-3.7c0.5-6.4,1-12.8,1.4-19.1c0.7-12.2,1.2-23.7,1.2-34.7
		c-1.7-1.1-3.3-2.1-5-3.2C246.5,177.6,246,190.1,245.2,203.4z"/>
	<path d="M199.6,43.3c-0.7,1.2-2.3,1.5-3.4,0.8c0,0,0,0,0,0c0.2,0.3,0.4,0.5,0.7,0.7c19.4,13.8,34.2,36.2,42.1,63.5
		c1.6-0.4,3.2-0.8,4.8-1.2c-8.3-28.5-23.7-51.8-44-66.3c0,0-0.1,0-0.1-0.1C200.1,41.4,200.1,42.4,199.6,43.3z"/>
	<path d="M226.2,307.4l-1.2,3c-4.9,12.3-8.4,21.1-17.8,28.7c-6.3,5-14.9,7.6-22.4,6.6c-3.6-0.5-8.7-2-12.4-6.6
		c-1.5,1-2.9,1.8-4.1,2.5c-0.1,0-0.2,0.1-0.2,0.1c3.8,5,9.4,8.1,16.1,9c1.3,0.2,2.5,0.2,3.8,0.2c7.8,0,16-2.9,22.3-7.9
		c10.5-8.4,14.4-18.3,19.4-30.8l1.2-3c3.3-8.3,6-16.8,8.3-25.5c-1.6-0.5-3.2-1.1-4.7-1.7C232.2,290.7,229.5,299.1,226.2,307.4z"/>
	<path d="M172.4,339.1c-0.2-0.2-0.3-0.4-0.5-0.6c-0.8-1.1-2.4-1.3-3.5-0.5c-1.1,0.8-1.3,2.4-0.5,3.5c0.1,0.1,0.1,0.2,0.2,0.2
		c0.1,0,0.2-0.1,0.2-0.1C169.5,340.9,170.9,340.1,172.4,339.1z"/>
	<path d="M196.2,41.3c-0.6,0.9-0.6,2-0.1,2.8c0,0,0,0,0,0c1.2,0.7,2.7,0.4,3.4-0.8c0.5-0.8,0.5-1.9,0-2.6
		C198.5,39.9,197,40.2,196.2,41.3z"/>
	<path d="M323.2,235.6c6.6,14.2,6.6,28.3,0.2,37.7c-9.2,13.6-28.7,14.8-39.5,14.4c-14.9-0.6-29.5-4-43.6-8.8
		c-0.4,1.6-0.8,3.3-1.2,4.9c14.3,4.9,29.2,8.3,44.6,9c1.2,0.1,2.4,0.1,3.8,0.1c12.2,0,30.5-2.6,40-16.6c7.4-10.9,7.5-26.9,0.2-42.6
		c-7.4-16.1-19.8-28.8-33.4-40c-1.3,1.1-2.6,2.2-3.9,3.3C303.9,207.7,316.1,220.2,323.2,235.6z"/>
	<path d="M251.4,163c0,2,0.1,4,0.1,6c8.8,5.7,17.4,11.6,25.9,17.8c3.1,2.2,6.1,4.5,9.2,6.9c1.3-1.1,2.6-2.2,3.9-3.3
		c-3.3-2.6-6.7-5.2-10.1-7.6C270.8,175.9,261.2,169.3,251.4,163z"/>
	<path d="M64,158.6c-7.6-13-10.6-24.1-9.2-34c1.3-9.6,7.5-19.7,17.9-20.8c1.6,9.8,6,16.5,13.5,20.2c7.4,3.7,17,3.8,27.1,0.1
		c7.8-2.9,12.9-7.1,15.2-12.5c0.4-1.1,0.8-2.2,1-3.3c4.3,1.5,8.5,3.1,12.7,4.8c0.4-1.6,0.8-3.3,1.2-4.9c-4.6-1.8-9.1-3.5-13.7-5.1
		c-0.2-2.7-1-5.6-2.2-8.5c-5.4-12.5-18.4-21-30.9-20.2C89.7,75,83,78.4,78.2,84c-3.8,4.4-5.9,9.7-6.1,14.9
		C60.8,100.1,51.8,110,49.9,124c-1.5,11.1,1.7,23.2,9.8,37.2c6.8,11.7,15.3,22.2,24.7,31.7c1.1-1.3,2.2-2.5,3.3-3.8
		C78.6,179.9,70.5,169.9,64,158.6z M82,87.2c3.8-4.5,9.4-7.4,14.9-7.7c10.5-0.7,21.4,6.5,26,17.1c0.7,1.6,1.5,3.9,1.8,6.5
		c-0.2,0.2-0.3,0.5-0.4,0.7c-0.3,0.9-0.1,1.8,0.5,2.5c-0.1,1.2-0.4,2.3-0.8,3.5c-1.7,4.1-5.8,7.3-12.3,9.7
		c-5.1,1.9-14.9,4.3-23.2,0.1c-6.5-3.3-10.1-9.2-11.1-18.6c0-0.2-0.1-0.5-0.2-0.7C77,95.8,78.7,91.2,82,87.2z"/>
	<path d="M184,125.7c-11.8-5.6-23.7-10.7-35.8-15.5c-0.4,1.6-0.8,3.3-1.2,4.9c10.4,4.1,20.6,8.5,30.7,13.2
		C179.7,127.3,181.8,126.5,184,125.7z"/>
	<path d="M183.8,131.1c21.5,10.3,42.5,21.9,62.6,34.7c0-2-0.1-4-0.1-6c-18.1-11.4-36.9-21.8-56.1-31.1
		C188,129.4,185.9,130.3,183.8,131.1z"/>
	<path d="M191.5,262.6c13.6,7.1,28,14.1,42.9,19.5c0.4-1.6,0.8-3.3,1.2-4.9c-13.3-4.9-26.2-11.1-38.6-17.4
		C195.3,260.8,193.4,261.7,191.5,262.6z"/>
	<path d="M131.7,223.5c-14.2-9-28.1-19.2-40.4-30.9c-1.1,1.3-2.2,2.5-3.3,3.8c13.3,12.7,28.5,23.6,43.9,33.2
		C131.8,227.5,131.7,225.5,131.7,223.5z"/>
	<path d="M180.2,250.9c-13.8-7.3-28.7-15.2-43.4-24.2c0.1,2,0.1,4,0.2,6c13.9,8.4,27.9,15.8,40.8,22.7c2.7,1.4,5.4,2.9,8.2,4.3
		c1.9-0.9,3.8-1.8,5.6-2.7C187.7,255,183.9,252.9,180.2,250.9z"/>
	<path d="M146.9,115c0.4-1.6,0.8-3.3,1.2-4.9c-1.6-0.6-3.1-1.2-4.7-1.8c-0.4,1.6-0.8,3.2-1.2,4.9C143.8,113.8,145.4,114.4,146.9,115
		z"/>
	<path d="M131.7,223.5c0,2,0.1,4,0.2,6c1.7,1.1,3.4,2.1,5.1,3.1c-0.1-2-0.1-4-0.2-6C135.1,225.6,133.4,224.6,131.7,223.5z"/>
	<path d="M251.4,169c0-2,0-4-0.1-6c-1.7-1.1-3.4-2.2-5.1-3.2c0.1,2,0.1,4,0.1,6C248.1,166.8,249.8,167.9,251.4,169z"/>
	<path d="M235.7,277.2c-0.4,1.6-0.8,3.3-1.2,4.9c1.6,0.6,3.1,1.1,4.7,1.7c0.4-1.6,0.8-3.2,1.2-4.9
		C238.8,278.3,237.2,277.8,235.7,277.2z"/>
	<path d="M331.7,143c-1-0.6-2.1-1.2-3.2-1.7c2.6-5.9,2.5-12.8-0.2-19.5c-3.6-9-11.6-16.7-20.7-20c-15.1-5.5-31.7-2.4-47.5,1.3
		c-5.3,1.2-10.7,2.5-16.2,3.9c0.5,1.6,0.9,3.2,1.3,4.8c5.4-1.4,10.8-2.7,16.1-3.9c9.6-2.2,19-4.2,28-4.2c5.7,0,11.3,0.8,16.6,2.7
		c7.9,2.9,14.7,9.5,17.8,17.2c1.6,4,2.9,10,0,16.1c-9.7-2-20.6,1.4-27.1,9.3c-8,9.7-6.6,25.9-0.3,36.1c-2,1.7-3.9,3.5-5.9,5.2
		c1.3,1,2.7,2.1,4,3.2c2-1.7,4-3.5,6-5.3c0.4,0,1.1,0.3,1.7,0.6c1.3,0.5,2.9,1.2,4.9,1.3c0.7,0,1.4,0.1,2.2,0.2
		c4.1,0.4,9.3,0.9,12.8-0.3c6.5-2.2,15.2-6.4,19.7-14.1C348,165.2,343.5,150.4,331.7,143z M337.3,173.5c-3.9,6.7-12.3,10.3-17,11.9
		c-2.5,0.8-7.3,0.4-10.8,0.1c-0.8-0.1-1.6-0.1-2.3-0.2c-1.2-0.1-2.3-0.5-3.4-1c-0.8-0.3-1.8-0.7-2.9-0.9c-5.7-8.4-7.4-22.9-0.6-31.1
		c6.8-8.2,19.9-10.5,28.7-5C337.4,152.5,342.7,164.2,337.3,173.5z"/>
	<path d="M183.8,131.1c-2-1-4.1-2-6.1-2.9c-12.5,5.1-24.8,11.1-36.7,18c-0.3,2.1-0.6,4.2-0.9,6.3C154.1,144,168.8,137,183.8,131.1z"
		/>
	<path d="M196.4,254.6c-1.6,0.8-3.2,1.6-4.7,2.4c1.8,0.9,3.6,1.9,5.5,2.8c0.5-0.3,1-0.5,1.5-0.8c15.1-7.8,29.8-16.4,44.2-26
		c0.2-2.2,0.4-4.3,0.6-6.5C228.2,237,212.5,246.3,196.4,254.6z"/>
	<path d="M190.2,128.6c16.8-6.3,33.8-11.3,50-15.5c-0.4-1.6-0.9-3.2-1.3-4.8c-17.9,4.6-36.5,10.2-55,17.4
		C186,126.6,188.1,127.6,190.2,128.6z"/>
	<path d="M186,259.7c-15.5,7.2-30.9,12.5-46,16.1c0.2,1.7,0.3,3.3,0.5,5c16.8-3.9,33.9-9.9,51-18.2
		C189.7,261.6,187.8,260.6,186,259.7z"/>
	<path d="M248.3,229.3c14.3-9.8,28.3-20.6,42.2-32.5c-1.3-1.1-2.7-2.1-4-3.2c-12.4,10.6-24.9,20.3-37.6,29.2
		C248.7,225,248.5,227.2,248.3,229.3z"/>
	<path d="M78.8,279.6c-11-1.4-17.6-4.5-20.7-9.9c-3.6-6.2-1.7-14.2,0.3-20.6c5.9-18.7,16-36.5,29.6-52.7c-1.2-1.2-2.4-2.3-3.6-3.5
		c-14.2,16.8-24.7,35.3-30.8,54.7c-2.3,7.3-4.4,16.8,0.1,24.6c5.2,9,16.4,11.4,24.4,12.4c6.5,0.8,13.1,1.2,19.8,1.2
		c12.2,0,24.8-1.3,37.6-4c-0.2-1.7-0.3-3.3-0.5-5C115.6,280.8,96.7,281.8,78.8,279.6z"/>
	<path d="M134.6,155.9c0.3-2.2,0.5-4.3,0.8-6.4c-18.5,11.4-34.5,24.8-47.7,39.6c1.2,1.2,2.4,2.3,3.6,3.5
		C103.3,179,117.9,166.6,134.6,155.9z"/>
	<path d="M140,275.7c-1.6,0.4-3.3,0.7-4.9,1.1c0.2,1.7,0.3,3.3,0.5,5c1.6-0.3,3.3-0.7,4.9-1.1C140.3,279,140.2,277.4,140,275.7z"/>
	<path d="M140.1,152.5c0.3-2.1,0.6-4.2,0.9-6.3c-1.3,0.7-2.5,1.5-3.8,2.2c-0.6,0.4-1.2,0.7-1.7,1.1c-0.3,2.1-0.6,4.3-0.8,6.4
		c1.7-1.1,3.4-2.2,5.1-3.2C139.8,152.6,139.9,152.6,140.1,152.5z"/>
	<path d="M240.2,113.1c1.6-0.4,3.2-0.8,4.8-1.2c-0.4-1.6-0.9-3.2-1.3-4.8c-1.6,0.4-3.2,0.8-4.8,1.2
		C239.4,109.9,239.8,111.5,240.2,113.1z"/>
	<path d="M242.9,233c1.8-1.2,3.6-2.4,5.4-3.7c0.2-2.2,0.4-4.3,0.6-6.5c-1.8,1.2-3.6,2.5-5.3,3.7C243.3,228.7,243.1,230.8,242.9,233z
		"/>
	<path d="M190.2,128.6c-2.1-1-4.1-2-6.2-3c-2.1,0.8-4.2,1.7-6.3,2.5c2.1,1,4.1,1.9,6.1,2.9C185.9,130.3,188,129.4,190.2,128.6z"/>
	<path d="M186,259.7c1.8,1,3.7,1.9,5.6,2.9c1.9-0.9,3.7-1.8,5.6-2.8c-1.8-0.9-3.7-1.9-5.5-2.8C189.7,257.9,187.9,258.8,186,259.7z"
		/>
	<path d="M91.3,192.6c-1.2-1.2-2.4-2.3-3.6-3.5c-1.1,1.3-2.2,2.5-3.3,3.8c1.2,1.2,2.4,2.4,3.6,3.5C89.1,195.1,90.2,193.8,91.3,192.6
		z"/>
	<path d="M286.5,193.7c1.3,1,2.7,2.1,4,3.2c1.3-1.1,2.6-2.2,3.9-3.3c-1.3-1.1-2.6-2.1-4-3.2C289.1,191.5,287.8,192.6,286.5,193.7z"
		/>
</g>
</svg>
