<?xml version="1.0" encoding="utf-8"?>
<!-- Generator: Adobe Illustrator 27.1.1, SVG Export Plug-In . SVG Version: 6.00 Build 0)  -->
<svg version="1.1" id="Layer_1" xmlns="http://www.w3.org/2000/svg" xmlns:xlink="http://www.w3.org/1999/xlink" x="0px" y="0px"
	 viewBox="0 0 400 400" style="enable-background:new 0 0 400 400;" xml:space="preserve">
<style type="text/css">
	.st0{fill:#A22E3A;}
	.st1{fill:#F7C4B7;stroke:#000000;stroke-width:5;stroke-linecap:round;stroke-linejoin:round;stroke-miterlimit:10;}
	.st2{fill:#FFFFFF;}
	.st3{fill:#F7C4B7;}
	.st4{fill:#00B0C7;}
	.st5{fill:#00B0C7;stroke:#00B0C7;stroke-width:0.75;stroke-miterlimit:10;}
	.st6{fill:none;stroke:#F7C4B7;stroke-width:6;stroke-linecap:round;stroke-linejoin:round;stroke-miterlimit:10;}
	.st7{fill:none;stroke:#F7C4B7;stroke-width:6;stroke-miterlimit:10;}
	.st8{fill:none;stroke:#000000;stroke-width:5;stroke-linecap:round;stroke-linejoin:round;stroke-miterlimit:10;}
	.st9{fill:#FFFFFF;stroke:#000000;stroke-width:5;stroke-linecap:round;stroke-linejoin:round;stroke-miterlimit:10;}
	.st10{fill:none;stroke:#000000;stroke-width:3;stroke-linecap:round;stroke-linejoin:round;stroke-miterlimit:10;}
	.st11{fill:#F7C4B7;stroke:#000000;stroke-width:3;stroke-linecap:round;stroke-linejoin:round;stroke-miterlimit:10;}
	.st12{fill:#ADC2CC;}
	.st13{fill:#F7B3B3;}
	.st14{fill:#EC3124;}
	.st15{fill:none;stroke:#FFCE06;stroke-width:8;stroke-linecap:round;stroke-linejoin:round;stroke-miterlimit:10;}
	.st16{fill:#FFCE06;}
	.st17{fill:#E2E7EB;}
	.st18{fill:#05C252;}
	.st19{fill:#FF8001;}
	.st20{fill:none;stroke:#000000;stroke-width:3.685;stroke-linecap:round;stroke-linejoin:round;stroke-miterlimit:10;}
	.st21{opacity:0.45;fill:#FFFFFF;}
	.st22{fill:#1CD45E;}
	.st23{fill:#29DE66;}
	.st24{fill:#1FD761;}
	.st25{fill:#2BE169;}
	.st26{fill:none;stroke:#FFFFFF;stroke-width:4;stroke-linecap:round;stroke-miterlimit:10;}
	.st27{fill:#D13942;}
	.st28{fill:#DB5267;}
</style>
<path class="st1" d="M193.2,246.5c-15.1,22.3-46,30.7-71.8,23.1s-46.1-28.9-56.9-53.5c-14.8-33.8-13.2-72.1-11.4-109
	c30.1,0.3,59.1,5.8,86.9,17.4c15.1,6.4,29.7,14.4,41.9,25.5c12.1,11.1,21.7,25.4,25.3,41.4C211.6,211.3,204.6,229.6,193.2,246.5z"/>
<path class="st1" d="M191.9,246.5c-12.1-24.2-32.4-44.2-56.8-55.9"/>
<path class="st1" d="M230.5,258.5c11.8,16.4,34.1,23.1,53.7,18.1c19.6-5,35.6-19.8,45.5-37.4c9.9-17.6,14.3-37.8,16.3-57.9
	c-17,1.8-34.5-2.8-51.6-3.5c-17.1-0.7-35.8,2.6-47.1,15.3c-14.9,16.7-10.1,43.9-16.4,65.3"/>
<path class="st8" d="M191.5,246.3c6.6,10.3,10.7,19.8,13.1,29.9c2.4,10.2,5,18.4,4.9,28.8"/>
<path class="st8" d="M209.5,302.5c1.6-19.9,27-59.1,61-69"/>
<path class="st11" d="M151.1,258.4c0,0-59.1,4.1-72.1-51.2"/>
</svg>
