<?xml version="1.0" encoding="utf-8"?>
<!-- Generator: Adobe Illustrator 27.1.1, SVG Export Plug-In . SVG Version: 6.00 Build 0)  -->
<svg version="1.1" id="Layer_1" xmlns="http://www.w3.org/2000/svg" xmlns:xlink="http://www.w3.org/1999/xlink" x="0px" y="0px"
	 viewBox="0 0 400 400" style="enable-background:new 0 0 400 400;" xml:space="preserve">
<style type="text/css">
	.st0{fill:#A22E3A;}
	.st1{fill:#F7C4B7;stroke:#000000;stroke-width:5;stroke-linecap:round;stroke-linejoin:round;stroke-miterlimit:10;}
	.st2{fill:#FFFFFF;}
	.st3{fill:#F7C4B7;}
	.st4{fill:#00B0C7;}
	.st5{fill:#00B0C7;stroke:#00B0C7;stroke-width:0.75;stroke-miterlimit:10;}
	.st6{fill:none;stroke:#F7C4B7;stroke-width:6;stroke-linecap:round;stroke-linejoin:round;stroke-miterlimit:10;}
	.st7{fill:none;stroke:#F7C4B7;stroke-width:6;stroke-miterlimit:10;}
	.st8{fill:none;stroke:#000000;stroke-width:5;stroke-linecap:round;stroke-linejoin:round;stroke-miterlimit:10;}
	.st9{fill:#FFFFFF;stroke:#000000;stroke-width:5;stroke-linecap:round;stroke-linejoin:round;stroke-miterlimit:10;}
	.st10{fill:none;stroke:#000000;stroke-width:3;stroke-linecap:round;stroke-linejoin:round;stroke-miterlimit:10;}
	.st11{fill:#F7C4B7;stroke:#000000;stroke-width:3;stroke-linecap:round;stroke-linejoin:round;stroke-miterlimit:10;}
	.st12{fill:#ADC2CC;}
	.st13{fill:#F7B3B3;}
	.st14{fill:#EC3124;}
	.st15{fill:none;stroke:#FFCE06;stroke-width:8;stroke-linecap:round;stroke-linejoin:round;stroke-miterlimit:10;}
	.st16{fill:#FFCE06;}
	.st17{fill:#E2E7EB;}
	.st18{fill:#05C252;}
	.st19{fill:#FF8001;}
	.st20{fill:none;stroke:#000000;stroke-width:3.685;stroke-linecap:round;stroke-linejoin:round;stroke-miterlimit:10;}
	.st21{opacity:0.45;fill:#FFFFFF;}
	.st22{fill:#1CD45E;}
	.st23{fill:#29DE66;}
	.st24{fill:#1FD761;}
	.st25{fill:#2BE169;}
	.st26{fill:none;stroke:#FFFFFF;stroke-width:4;stroke-linecap:round;stroke-miterlimit:10;}
	.st27{fill:#D13942;}
	.st28{fill:#DB5267;}
</style>
<g>
	<path class="st1" d="M200.6,315.4c-34.2-34.3-68.2-66.5-95.7-104.7c-8.8-12.2-16.8-24.9-20.9-39.4c-8.2-28.9,7-59.5,34.7-71.3
		c26.8-11.3,56.3-3.5,74,19.7c5.7,7.5,8.7,7.4,14.5-0.1c15-19.8,41.1-29.2,63.7-23.1c26,7,43.9,27,47.1,52.7
		c1.5,12.1-1.5,23.4-6.7,34.2c-9.3,19.3-21.6,36.6-36,52.3C250.6,262.4,225.7,288.6,200.6,315.4z M103.7,155.3
		c-0.1,4.8,2,7.8,5.8,7.7c4.4-0.1,5.9-3,6.2-6.9c0.1-1.6,0.2-3.3,0.6-4.9c3-13.4,13.4-22.3,27.4-23.4c5.4-0.4,8.1-3.2,7.2-7.2
		c-0.9-3.8-3.6-4.7-7.1-4.7C123.2,115.7,104.2,134.5,103.7,155.3z"/>
</g>
</svg>
