<?xml version="1.0" encoding="UTF-8"?><svg id="Layer_1" xmlns="http://www.w3.org/2000/svg" viewBox="0 0 164 164"><defs><style>.cls-1{fill:#010101;}.cls-2{fill:#ed3726;}.cls-3{fill:#fff;}.cls-4{fill:#05bce7;}</style></defs><path class="cls-4" d="m109,70h.3c-24.9-46.7-4.6-62.1-4.6-62.1-18.9,9-34.4,21.8-45.9,36.1h0s0,0,0,0c-32.8,41-33.3,94.7,9.4,109.7,22,7.7,46.2-3.9,53.9-25.9,7.9-22.5-3.3-39.8-13.2-57.8Z"/><path class="cls-2" d="m70.8,113.2c-4.3-1-3.9,1.3-3.7,2.1s.4,1.6.6,2.5c1.3,4.7,3.8,7.5,11.4,8.4,2.1.2,5.2-.1,7.5-1.2,3.8-1.9,5.6-4.9,6.3-9.3,0-.5,0-1.7-1.8-1.7,0,0-3.3-.2-5.2.2-3.8.6-14.4-.6-15-1Z"/><g><path class="cls-3" d="m51.1,76.4c5.4-.7,7.9.4,11.6,1.7,1.8.6,3.1,1.6,3.9,2.4-6.3-3.1-12,0-12,0-18.3,11.7-6.7,27.2-6.7,27.2.1.1.3.2.4.3-5-2-7-5.9-9.1-11.7-2.2-6.1-.6-10.6,1-12.8,1.5-2.2,8.9-6.7,11-7Z"/><path class="cls-3" d="m101.4,76.4c3.6-.4,7,1.4,8.9,2.1,1.4.5,3.5,2.5,4.6,3.6-.3-.2-.6-.4-1-.6-6.2-3.5-14.9,2.1-14.9,2.1-5.1,4.2-8.2,7.6-7.4,14.6,1,9.1,3.2,9.3,3.2,9.3.3.2.8.4,1.2.6-4.2-1.5-5.3-4.6-6.5-5.9-1.4-1.5-3.1-5.6-3.6-8.6-.6-3.1,2.6-10,3.9-11.7s7.9-4.9,11.6-5.3Z"/><path class="cls-1" d="m54.6,80.4s5.7-3,12,0c0,0,0,0,.1,0,2.6,1.3,4.2,3.6,5.3,5.8.4.9,1.1,1.4,1.3,2.1.5,1.3.6,2.6.6,2.6,0,0,2.1,13.2-8.7,18.1,0,0-2.4.9-5.9,1-1.2,0-3.2,0-4.5-.3-4.1-.6-4.7-.4-6.7-2-.1,0-.2-.2-.4-.3,0,0-11.6-15.5,6.7-27.2Z"/><path class="cls-1" d="m91.7,98.1c-.8-6.9,2.3-10.4,7.4-14.6,0,0,8.7-5.5,14.9-2.1.3.2.7.4,1,.6,1.8,1.3,3.1,3,4.1,4.5,1.4,2.3,1.9,4.3,1.9,4.3,0,0,2.1,13.2-7.9,17.6,0,0-5.4,2.5-11.8,1.3-1.4-.3-3.6-1-5.2-1.8-.5-.2-.9-.4-1.2-.6,0,0-2.2-.2-3.2-9.3Z"/></g></svg>