<?xml version="1.0" encoding="UTF-8"?><svg id="Layer_1" xmlns="http://www.w3.org/2000/svg" viewBox="0 0 164 164"><defs><style>.cls-1{fill:#eb3526;}.cls-2{fill:#fecf0a;}</style></defs><path class="cls-2" d="m77.8,73.9s-19.4-62.4,1.3-66.7c20.8-4.3,11.3,62,10.4,66.8,0,0,37.2-60.1,52.6-36.7,8.5,13-34.8,41-44.4,42,0,0,55.4-15.6,59.3,1.3,3.9,16.9-42.4,15.6-60.2,9.8,0,0,53.3,17.6,39.8,36-13.5,18.3-46.5-29.7-46.5-29.7,0,0,23.7,61.8,2.9,61.3-20.8-.5-14.1-57.4-14.1-57.4,0,0-26.1,44.4-40.6,35.3-14.5-9.2,18.4-39.7,37.7-44.5,0,0-52.2,18.5-60.9-2.3-8.7-20.8,49.9-12.9,60-6.6,0,0-60.5-29.1-48.4-47.5,12.1-18.3,51.1,39,51.1,39Z"/><path class="cls-1" d="m85.6,72.8c18.2.4,15.6,24.9-4,24.9s-14.2-25.4,4-24.9Z"/></svg>