<?xml version="1.0" encoding="UTF-8"?><svg id="Layer_1" xmlns="http://www.w3.org/2000/svg" viewBox="0 0 164 164"><defs><style>.cls-1{fill:#f8b3b3;}.cls-2{fill:#010101;}.cls-3{fill:#eb3526;}.cls-4{fill:#fff;}.cls-5{fill:#adc2cc;}</style></defs><path class="cls-5" d="m137.7,98.1s34.1-22.8,13.3-48.2c0,0-33.4-35.3-55.3,13.7"/><path class="cls-1" d="m132.9,88.9s25.7-10.8,10.3-33.5c0,0-26.4-22.9-38.2,10.1l13.7,16.7,7.6,5.7,6.6,1.1Z"/><path class="cls-5" d="m64.7,58.3s-24.5-32.9-48.8-10.9c0,0-33.6,35.1,16.4,54.5"/><path class="cls-1" d="m55.7,63.5s-12.1-25.1-34-8.7c0,0-21.6,27.5,12,37.7l16-14.5,5.3-7.8.7-6.6Z"/><path class="cls-5" d="m104.3,54.9c-2.9-1.3-6.6-2.7-9.7-3.2-6.3-1.1-12.8-.6-19,1.1-10.3,2.8-19.5,8.9-27.5,16.2-4.4,4-8.5,8.4-11.1,13.8-2.1,4.3-3.2,9-4.2,13.7-1.4,6.1-2.8,12.4-1.4,18.5,1.4,6.1,5.6,11.4,10.7,15.1,5.1,3.7,11.2,5.9,17.3,7.5,20.5,5.4,43.2,4.1,61.6-6.4,5.2-2.9,10.1-6.7,13-11.8,2.4-4.2,3.4-9.1,3.7-14,.2-4.1,0-8.2-1-12.2-.9-3.6-2.8-6.9-4.2-10.3-7.4-18.2-24.6-25.8-28.3-27.8Z"/><path class="cls-4" d="m107.2,120c.2,9.1-9.7,14.1-22.2,14.4-12.4.3-22.6-4.2-22.8-13.3-.2-9.1,9.8-12.8,22.2-13.1,12.4-.3,22.6,2.9,22.8,12Z"/><path class="cls-2" d="m83,91.6c.8-.2,1.7-.2,2.5,0,5.2,1.2,9.7,7.7,10.9,12.7,1.1,4.6.9,11.9-11.5,12.2-12.4.3-13-7-12.1-11.7.9-5.1,5.1-11.8,10.2-13.2Z"/><path class="cls-4" d="m79.2,99.6c-2.6.7-3.4,5.4-2.7,7.8.7,2.4,1.7,3.8,3.2,3.4,2.1-.5,2.3-2.6,1.8-4.9-.4-1.6.9-7.1-2.3-6.3Z"/><path class="cls-3" d="m95.1,120c-.1,0-.3,0-.4,0-.4,0-.8.9-.9,1.3-1.2,3.3-4.3,4.9-7.8,5.1-.9,0-1.7.1-2.5-.1-1.1-.3-1.3-.4-1.7-.6-1.8-.8-3.3-1.9-4-3.7-.3-.7-.9-1-1.4-.7-.5.3-.7.9-.4,1.4.9,1.6,2.1,2.7,3.5,3.9,1.7,1.4,3.5,1.9,6.4,1.7,1,0,1.9,0,2.8-.3.2,0,.7-.2,1-.3,1.2-.5,2.3-1.2,3.2-2.3,1.2-1.3,2.2-1.9,2.8-4,.1-.6,0-1.3-.5-1.5Z"/><g><path class="cls-4" d="m78.8,91.6c5.7-11.1,2.6-17.4-4.6-23.2-2.1-1.7-4-3-8.2-2.9-7.4.2-14.4,3.2-16.8,11.2-2.7,8.8-1.2,14.4,6.5,19.5,7.7,5.1,19,3.6,23.2-4.6Zm-7.3-5c-1.7,4.7-4.4,6.4-8.9,7.8-2.2.7-5.2.1-6.7-.6-5.4-2.6-8.4-8.7-6.1-14.9,2.2-6.3,6.8-8.7,14.9-6.8,4.1.9,6,4.2,7.2,7.8.9,2.7.4,4.5-.4,6.8Z"/><path class="cls-2" d="m62.6,94.3c-2.2.7-5.2.1-6.7-.6-5.4-2.6-8.4-8.7-6.1-14.9,2.2-6.3,6.8-8.7,14.9-6.8,4.1.9,6,4.2,7.2,7.8.9,2.7.4,4.5-.4,6.8-1.7,4.7-4.4,6.4-8.9,7.8Z"/><path class="cls-4" d="m115.9,93.1c2.3-3.1,4.9-6.6,4.8-11.9s-1.7-6.1-3.3-8.6c-3-4.8-8.6-7.7-14.5-7.2-8.3.7-12.4,4-14.8,8.8-1.6,3.3-1.6,4.9-1.9,8.7-.6,9,10.8,18.9,21.7,15.4,3.6-1.2,6.7-3.5,7.9-5.2Zm-6.5-5.9c-2.6,6-8.8,8-14.8,5.4-6-2.6-8.5-9.5-5.9-15.5,2.6-6,8.4-7.3,14.6-5.3,1.9.6,3.5,1.9,4.6,3.6,2.5,3.6,3.4,7.4,1.4,11.9Z"/><path class="cls-2" d="m109.5,78.2c2.4,6.1-.7,12.8-6.8,15.1-6.1,2.4-11.1-.8-14.1-6.6-.9-1.8-1.1-3.8-.8-5.8.8-4.4,2.8-7.6,7.4-9.4,6.1-2.4,11.9.6,14.3,6.7Z"/></g></svg>