<?xml version="1.0" encoding="UTF-8"?><svg id="Layer_1" xmlns="http://www.w3.org/2000/svg" viewBox="0 0 164 164"><defs><style>.cls-1{fill:#fff;}.cls-2{fill:#3db654;}.cls-3{fill:#6cc06a;}.cls-4{fill:#3bb554;}.cls-5{fill:#61bd62;}.cls-6{fill:#5dbc61;}</style></defs><path class="cls-2" d="m55.5,133c0,0,0,.1,0,.2,0,0,0-.1,0-.2h0Zm2.3,3.1c-1.6-4.2-2.8-8.6-3.6-13-.4-2-.7-4-.9-5.9h0c3.6-3.2,7.3-6.4,10.5-10,11.6-12.9,17.5-30.4,18.1-47.7.6-17.4-1.9-34.8-8.7-50.8l-1.1-3.3c-11.1,9.2-22.2,18.6-30.5,30.3-8.3,11.8-13.5,26.3-11.3,40.5,1.6,10.7,7.3,20.3,12.9,29.5,1.7,2.8,3.5,5.6,5.8,8,.6,4.3,1.6,8.6,2.9,12.8,1.6,5.1,3.6,10,6.1,14.8,1.4,2.7,2.9,5.2,4.5,7.7.4.6,1.4,0,1-.7-2.2-3.9-4.1-8-5.7-12.2"/><path class="cls-3" d="m63.1,16.9c-.3,0-.7,0-.9.4-13.6,21.4-17.6,47.5-15.2,72.5.6.5,1.2,1,1.8,1.4-.2-2.2-.4-4.5-.5-6.7,0,0-.1,0-.2,0-.8-.1-1-1.3-.2-1.6,0,0,.2,0,.3,0-.1-2.2-.2-4.3-.2-6.5,0-11.7,1.5-23.6,5-34.8-.5-.2-.9-1-.3-1.5.4-.3.7-.6,1.1-.9.2-.5.3-.9.5-1.4,2.4-6.9,5.6-13.5,9.5-19.7.3-.5,0-1-.6-1.1m-15.9,75.2c0,.3,0,.6,0,.9.8,7.3,1.5,14.7,3,21.9,0,.4.4.6.7.7.5,0,1.1-.2.9-.8-.8-4.1-1.4-8.2-1.9-12.4,0,0,0,0-.1,0-.7-.1-.9-1.3-.1-1.6,0,0,0,0,0,0-.2-1.7-.4-3.3-.6-5-.1-1.1-.2-2.1-.3-3.2-.2.2-.5.3-.8.2-.1,0-.2,0-.4-.2-.2-.2-.4-.3-.6-.5"/><path class="cls-3" d="m36.3,77.1c-.6-.1-1.3.6-.9,1.3,2.9,5.3,6.9,10,11.8,13.7,0-.8-.2-1.5-.2-2.3-4.2-3.4-7.6-7.6-10.2-12.3-.1-.2-.3-.3-.5-.4m12.5,14.1c0,.4,0,.8.1,1.3.3-.3.4-.8,0-1.2,0,0,0,0-.1,0"/><path class="cls-6" d="m46.9,89.8c0,.8.1,1.5.2,2.3.2.2.4.3.6.5.1,0,.2.1.4.2.3,0,.6,0,.8-.2,0-.4,0-.8-.1-1.3-.6-.5-1.2-.9-1.8-1.4"/><path class="cls-3" d="m68.1,27c-.3,0-.5,0-.8.2-4.4,4.1-9,8-13.6,11.9-.3.8-.5,1.6-.8,2.4,0,0,0,0,0,0,.2,0,.4,0,.6-.2,5.1-4.2,10.1-8.6,15-13.1.6-.5,0-1.2-.5-1.3"/><path class="cls-6" d="m53.7,39.1c-.4.3-.7.6-1.1.9-.6.5-.3,1.4.3,1.5.2-.8.5-1.6.8-2.4"/><path class="cls-3" d="m73.9,70.9c-.3,0-.5,0-.8.2-6.9,6.3-16.2,9.1-25,11.7,0,.6,0,1.1,0,1.7,0,0,.1,0,.2,0,9.2-2.7,18.7-5.6,26-12.3.6-.5,0-1.2-.5-1.3"/><path class="cls-6" d="m48.1,82.8c0,0-.2,0-.3,0-.9.3-.6,1.5.2,1.6,0,0,.1,0,.2,0,0-.6,0-1.1,0-1.7"/><path class="cls-3" d="m61.8,92.9c-.3,0-.5,0-.8.2-3.3,3.2-7.1,5.7-11.3,7.5,0,.6.1,1.1.2,1.7,0,0,.2,0,.3,0,4.5-1.9,8.5-4.6,12-8,.5-.5,0-1.2-.5-1.3"/><path class="cls-6" d="m49.8,100.6s0,0,0,0c-.8.3-.6,1.5.1,1.6,0,0,0,0,.1,0,0-.6-.1-1.1-.2-1.7"/><path class="cls-1" d="m70,50.1s0,0,0,0c0,0,0,0,0,0h0Z"/><path class="cls-4" d="m95.5,138.7c-2.5,3.3-5.3,6.3-8.3,9.1-3,2.7-6.2,5.2-9.7,7.3-1.9,1.2-4,2.3-6,3.3.2.4.4.7.5,1.1,3.1-1.7,6-3.8,8.7-6,2.8-2.3,5.4-4.7,7.7-7.4,1.3-1.5,2.6-3,3.8-4.6.2-.3.2-.6,0-.8-.2-.2-.6-.2-.8,0-2.1,2.8-4.4,5.5-6.9,8-2.5,2.5-5.2,4.7-8.1,6.7-1.6,1.1-3.3,2.2-5,3.2-.6.3,0,1.3.5,1.1,3.7-1.8,7.3-4,10.6-6.4,3.4-2.5,6.5-5.2,9.3-8.3,1.6-1.7,3.1-3.5,4.5-5.3.5-.6-.4-1.4-.9-.8"/><path class="cls-2" d="m130.8,91.7c-.9-11.2-4.6-21.9-8.4-32.4l-2,1.8c-10.9,8-19.5,18.7-26,30.6-6.5,11.9-9.4,25.9-6.8,39.2.7,3.7,1.9,7.3,3.1,10.9.3,0,.6,0,1,0-.5.7-1,1.3-1.5,1.9-.9.9-1.8,1.7-2.7,2.6-.8.8-1.6,1.6-2.4,2.5-.4.4-.8.8-1.2,1.2-.4.4-.7.7-.9,1.2-.3.6.5,1.1,1,.6,1.7-1.7,3.4-3.4,5.1-5.1.7-.7,1.4-1.5,2-2.2.7-.7,1.4-1.3,2.1-2,.3,0,.6-.4.6-.8,0-.1,0-.2,0-.3,2.9-.6,5.7-2,8.4-3.4,7.5-3.9,15-8.1,20.4-14.6,7.1-8.7,9.4-20.5,8.5-31.6"/><path class="cls-3" d="m123.9,70.4c-.5,0-1.1.2-1.1.9.2,5.8-.4,11.6-1.6,17.2.2.6.4,1.1.6,1.7.3.7-.4,1.2-1,1.1,0,0-.2,0-.2,0-2.5,10.4-7.1,20.3-13,29.2,0,0,.1.1.2.2.6.6,0,1.6-.7,1.5-.1,0-.3,0-.4-.2,0,0,0,0,0,0-.9,1.4-1.9,2.7-2.9,4,0,0,0,0,0,0,.8,0,1.5-.2,2.3-.3,2.1-2.9,4.1-6,5.9-9.1,5.1-8.8,9-18.3,10.9-28.3,1.1-5.6,1.6-11.3,1.4-17,0-.4-.3-.7-.6-.7m-20.7,56.4s0,0,0,0c-1.2,1.6-2.4,3.1-3.7,4.6.1.1.2.3.3.4.5.7-.2,1.4-.9,1.3-.2,0-.4-.1-.5-.3,0,0,0,0,0,0-2,2.3-4,4.5-6,6.7-.5.6,0,1.2.5,1.4.2,0,.5,0,.7-.3,3.5-3.8,6.9-7.5,10.1-11.6.4-.5.8-1,1.2-1.5-.2,0-.5,0-.7,0,0,0-.2,0-.3,0-.4,0-.6-.4-.6-.7"/><path class="cls-3" d="m117.9,121.4c-.2,0-.4,0-.6.1-3.4,2-7.2,3.4-11.1,4-.5.6-.9,1.3-1.4,1.9,4.7-.6,9.3-2.1,13.4-4.6.7-.4.3-1.4-.4-1.5m-14,4.5c-.5,0-.8.5-.7,1,.2-.3.5-.6.7-1"/><path class="cls-5" d="m106.2,125.6c-.8.1-1.5.2-2.3.3,0,0,0,0,0,0-.2.3-.5.6-.7,1,0,.3.3.6.6.7,0,0,.2,0,.3,0,.2,0,.5,0,.7,0,.5-.6.9-1.3,1.4-1.9"/><path class="cls-3" d="m116.6,75.2c-.5-.1-1.2.4-1,1.1,1.5,4.9,3.1,9.7,4.8,14.5,0,.2.2.3.4.4.2-.9.4-1.8.6-2.7-1.5-4.2-2.9-8.5-4.2-12.8,0-.3-.3-.5-.6-.5"/><path class="cls-5" d="m121.3,88.5c-.2.9-.4,1.8-.6,2.7,0,0,.2,0,.2,0,.6.1,1.2-.4,1-1.1-.2-.6-.4-1.1-.6-1.7"/><path class="cls-3" d="m95.2,102.3c-.5-.1-1.2.4-1,1.1,2.2,7.3,7.5,13,12.6,18.5.3-.5.6-.9.9-1.4-4.9-5.2-9.8-10.7-11.9-17.6,0-.3-.3-.5-.6-.5"/><path class="cls-5" d="m107.7,120.4c-.3.5-.6,1-.9,1.4,0,0,0,0,0,0,.1.1.3.2.4.2.7.1,1.3-.9.7-1.5l-.2-.2"/><path class="cls-3" d="m94.6,121.8c-.5,0-1.2.4-1,1.1,1,3.6,2.6,6.9,4.8,9.9.4-.4.7-.9,1.1-1.3-2-2.8-3.4-5.9-4.3-9.2,0-.3-.3-.5-.5-.5"/><path class="cls-5" d="m99.4,131.5c-.4.4-.7.9-1.1,1.3,0,0,0,0,0,0,.1.2.3.3.5.3.6.1,1.4-.6.9-1.3-.1-.1-.2-.3-.3-.4"/></svg>