<?xml version="1.0" encoding="UTF-8"?><svg id="Layer_1" xmlns="http://www.w3.org/2000/svg" viewBox="0 0 164 164"><defs><style>.cls-1{fill:#f9b6b5;}.cls-2{fill:none;stroke:#c79291;stroke-linecap:round;stroke-linejoin:round;stroke-width:5px;}.cls-3{fill:#fff;opacity:.5;}</style></defs><path class="cls-1" d="m76.2,104.2c0,1.8-.3,3.6-.9,5.4-1.8,5.4-5.9,9.3-11.1,11.3-4.6,1.8-10,2-15.3.2-11.3-3.7-17.8-14.9-14.5-24.9.7-2.2,1.8-4.1,3.2-5.8,5.1-6.1,14.3-8.7,23.2-5.8,3.9,1.3,7.2,3.4,9.7,6.1,3.6,3.8,5.6,8.6,5.6,13.5Z"/><path class="cls-1" d="m132.7,13.2c-.6.5-1.2,1-1.8,1.6-1.1,1-2.2,1.9-3.3,2.9-6.4,5.8-12.2,12-17.5,18.5l-6.7,2c-1.9.6-1.7,3.2.2,3.5l1.9.3c-4.9,6.6-9.3,13.5-13.2,20.6l-6.5,2c-1.9.6-1.7,3.2.2,3.5l3.1.5c-2.2,4.4-4.2,8.9-6,13.5l-8,2.4c-1.8.6-1.7,3.2.3,3.5l5.2.8c-.3.8-.6,1.6-.8,2.4-1.4,4.2-2.6,8.3-3.4,12.5,0,.2,0,.3,0,.5,0,0,0,0-.1,0-.7-.2-4.1-1-8.6-2.2-11.9-3.1-31.8-8.2-31.9-8.2.6-1.2,1.3-2.3,2-3.4,5-8.2,11.1-16,17.6-23.5l1.5,3.9c.7,1.8,3.4,1.4,3.5-.5l.7-9.8c5.6-6,11.6-11.8,17.9-17.3l.7,1.9c.7,1.8,3.4,1.4,3.5-.5l.4-5.2c13.2-10.8,27.9-20.3,44.1-28,.8-.4,1.6-.7,2.4-1.1,2.3-1.1,4.6,1.5,2.7,3Z"/><path class="cls-2" d="m79.5,58.5s-32.8,39.8-42.7,94.7"/><path class="cls-3" d="m127.6,17.7c-6.4,5.8-12.2,12-17.5,18.5l-6.7,2c-1.9.6-1.7,3.2.2,3.5l1.9.3c-4.9,6.6-9.3,13.5-13.2,20.6l-6.5,2c-1.9.6-1.7,3.2.2,3.5l3.1.5c-2.2,4.4-4.2,8.9-6,13.5l-8,2.4c-1.8.6-1.7,3.2.3,3.5l5.2.8c-.3.8-.6,1.6-.8,2.4-1.4,4.2-2.6,8.3-3.4,12.5,0,.2,0,.3,0,.5,0,0,0,0-.1,0,0,1.8-.3,3.6-.9,5.4-1.8,5.4-5.9,9.3-11.1,11.3.9-6.7,2-12.9,3.4-18.8.9-3.9,1.9-7.7,3-11.3,13.8-45.1,41.3-65,57-73Z"/></svg>