<?xml version="1.0" encoding="UTF-8"?><svg id="Layer_1" xmlns="http://www.w3.org/2000/svg" viewBox="0 0 164 164"><defs><style>.cls-1{fill:#010101;}.cls-2{fill:#fff;}.cls-3{fill:#fecf0a;}</style></defs><path class="cls-3" d="m70.9,75c-5.8-4.9-9.8-10.9-10.9-18.4-.7-4.8-.5-9.8-.5-14.8,0-3.2.7-6.5-2.6-8.9-2.6-1.9-1.4-4.2-.4-6.6.8-1.9,2-3.8,2.1-5.8,0-3.5,2.1-4.3,4.5-3.2,6.7,3,13,1,19.2-1.4,11-4.3,21.9-5.2,32.9-.4,8.8,3.8,15.4,10.2,20.8,18,2,2.9,4.3,5.5,6.1,7.7,3.1-.8,5.5-1.8,8-1.8,6.1-.2,9.3,5,6.5,10.5-1.2,2.4-2.9,4.5-4.2,6.9-1,1.8-1.3,4-2.6,5.6-1.3,1.6-3.2,3-5.2,3.8-1.9.8-4.2.7-6.3,1-8.7,1.1-10.5,6.7-7.3,13.4,1.7,3.5,3.8,6.8,6,10,6,9,8.1,18.7,6.6,29.6-.9,6-1.7,11.8-4.8,17.3-2.8,4.9-6.9,7.8-11.8,9.2-13,3.7-26,7.5-39.2,9.9-15.8,2.7-31.6,1.4-46.1-6-15.6-7.9-26.4-20.3-31.3-37.3-3.4-11.6-.2-23.5-.8-35.2,0-.7.5-1.5.9-2.2,2.2-3.6,5.7-4,8.7-1,1.3,1.3,2.7,2.8,3.5,4.4,2.7,5.1,7.3,6.1,12.1,5,11.8-2.7,23.5-5.9,35.3-8.9.2,0,.4-.2.9-.5Zm42-18.2c2.3,3.9,5.9,4.2,9.9,4,5.3-.3,9.9-4.9,9.8-9.9,0-7.4-3.8-12.2-9.9-12.2-2.5,0-5.9-1.6-7.3,2.2-4-.4-6.6,1.6-7.3,5.3-.9,4.4.9,8.1,4.8,10.6Z"/><path class="cls-2" d="m112.9,56.8c8.1,1.9,13.6-3.3,11.4-11.4-1.2-4.3-5.2-4.5-8.9-4.5,1.5-3.8,4.8-2.2,7.3-2.2,6.1,0,9.9,4.9,9.9,12.2,0,5-4.6,9.6-9.8,9.9-4,.2-7.6,0-9.9-4Z"/><path class="cls-1" d="m112.5,57.4c-4.2-2.7-6.1-6.6-5.2-11.4.8-3.9,3.5-6.1,7.9-5.7,4,0,8.4.3,9.6,4.9,2.4,8.7-3.6,14.4-12.3,12.3Z"/></svg>