<?xml version="1.0" encoding="UTF-8"?><svg id="Layer_1" xmlns="http://www.w3.org/2000/svg" viewBox="0 0 164 164"><defs><style>.cls-1{fill:#fecf0a;}.cls-2{fill:#adc2cc;}.cls-3{fill:#fff;opacity:.6;}.cls-4{fill:#f3f3f3;opacity:.5;}</style></defs><g><path class="cls-4" d="m55.6,92.8c-5.8-1.6-11.1-4.9-15.2-9.4-12.1-13.3-11.2-34.1,2.1-46.3,8.4-7.8,19.9-10.6,30.9-7.5,5.8,1.6,11.1,4.9,15.2,9.4,12.1,13.3,11.2,34.1-2.1,46.3-8.4,7.8-19.9,10.6-30.9,7.5Z"/><path class="cls-3" d="m82.9,40.3c-5.8-4.4-13.3-6.5-20.6-6.4-6.3.1-13.3,2.4-17.2,7.5-.6.8,0,2.2,1.1,1.8,5.1-2.2,10.3-3.9,15.9-3.9,6.4,0,12.1,2.7,17.7,5.4,2.7,1.3,5.6-2.5,3.1-4.4Z"/></g><path class="cls-2" d="m135.4,126.3l-27.9-30.5c-3.1-3.4-3.8-8.4-1.6-12.5,5.4-10,7.2-22.1,3.9-34.7-4.1-15.5-16-27.9-31.5-32.4C45.1,6.7,14.9,33,17.7,65.4c2,22.8,20.5,41,43.2,42.7,6.4.5,12.6-.4,18.3-2.2s8.5-.1,11.3,3l29.2,31.8c3.9,4.3,10.7,4.6,15,.6h0c4.3-3.9,4.6-10.7.6-15ZM32.9,63.8c-1.6-19.5,14.6-35.7,34.1-34.1,15.3,1.2,27.8,13.6,29,29,1.6,19.5-14.7,35.7-34.1,34.1s-27.7-13.6-29-29Z"/><polygon class="cls-1" points="116.7 106 101.2 120.5 97.7 116.7 113.3 102.2 116.7 106"/><polygon class="cls-1" points="122.5 112.3 106.8 126.9 103.3 123.2 119 108.5 122.5 112.3"/></svg>