<svg width="470" height="59" viewBox="0 0 470 59" fill="none" xmlns="http://www.w3.org/2000/svg">
<g clip-path="url(#clip0_174_760)">
<path d="M45.041 57.9958C42.3399 56.7829 40.7312 56.386 39.317 56.386C36.4961 56.386 34.416 57.9958 25.8337 57.9958C12.3579 57.9958 0.288818 47.1021 0.288818 29.3354C0.288818 11.5686 12.3579 0.66748 25.8412 0.66748C33.7576 0.66748 43.5969 4.54577 43.5969 4.54577V22.1553H42.6616C40.5741 10.8274 34.4983 1.61085 25.8412 1.61085C18.6357 1.61085 9.2677 6.4325 9.2677 26.8272C9.2677 42.4751 19.339 56.6331 30.9367 56.6331C36.1071 56.6331 37.3641 53.496 37.3641 50.2392V35.6919C37.3641 31.4168 35.5983 29.1856 19.4587 29.1856V28.4369H50.81V29.1856C46.8892 29.1856 45.9913 29.7696 45.9913 34.0821V58.0032H45.056L45.041 57.9958Z" fill="black"/>
<path d="M65.2586 12.6318H67.1441V8.90322H70.8629V5.13724H93.123V8.90322H96.8493V12.6318H98.6899V46.0764H96.8493V49.8049H93.123V53.526H70.8629V49.8049H67.1441V46.0764H65.2586V12.6318ZM70.7132 1.29639V5.02493H66.987V8.74599H61.3827V12.4745H57.6639V16.1956H53.9452V42.4676H57.6639V46.2336H61.3827V49.9547H66.987V53.6757H70.7132V57.4043H93.2502V53.6757H96.969V49.9547H102.573V46.2336H106.292V42.4676H110.056V16.1956H106.292V12.4745H102.573V8.74599H96.969V5.02493H93.2502V1.29639H70.7132Z" fill="black"/>
<path d="M137.524 35.8042H117.501V41.6067H137.524V35.8042Z" fill="black"/>
<path d="M153.513 57.4114V56.6702C157.472 56.6702 158.37 56.1237 158.37 51.8111V2.15707C149.87 2.15707 144.108 4.90482 141.991 18.112H141.055V1.22119H184.281V18.1194H183.346C181.191 4.90482 175.467 2.16456 166.967 2.16456V51.8111C166.967 56.1237 167.865 56.6702 171.823 56.6702V57.4114H153.521H153.513Z" fill="black"/>
<path d="M228.599 29.2978C233.612 7.53294 225.621 1.57325 218.408 1.57325C211.195 1.57325 200.458 7.53294 195.445 29.2978C190.432 51.1 198.423 57.0223 205.591 57.0223C212.759 57.0223 223.541 51.1 228.599 29.2978ZM185.493 37.2191C185.493 29.5299 188.434 20.5903 193.604 13.9643C200.623 5.02478 210.065 0.629883 218.603 0.629883C229.811 0.629883 238.513 8.04206 238.513 21.369C238.513 29.0582 235.573 37.9977 230.403 44.5863C223.384 53.5708 213.986 57.9582 205.404 57.9582C194.195 57.9582 185.493 50.546 185.493 37.2191Z" fill="black"/>
<path d="M298.395 57.9958C295.694 56.7829 294.085 56.386 292.671 56.386C289.85 56.386 287.77 57.9958 279.188 57.9958C265.705 57.9958 253.635 47.0946 253.635 29.3354C253.635 11.5761 265.712 0.66748 279.188 0.66748C287.104 0.66748 296.936 4.54577 296.936 4.54577V22.1553H296.001C293.921 10.8199 287.845 1.60336 279.188 1.60336C271.975 1.60336 262.607 6.42502 262.607 26.8197C262.607 42.4676 272.678 56.6256 284.276 56.6256C289.446 56.6256 290.703 53.4886 290.703 50.2317V35.6844C290.703 31.4093 288.937 29.1781 272.798 29.1781V28.4294H304.149V29.1781C300.228 29.1781 299.331 29.7621 299.331 34.0747V57.9958H298.395Z" fill="black"/>
<path d="M314.931 38.7466H316.54V35.018H318.111V31.2895H319.72V27.5684H321.291V23.8024H322.9V20.0814H324.464V16.3603H327.479V20.0814H329.088V23.8024H330.659V27.5684H332.268V31.2895H333.839V34.8608H328.153V36.7475H324.434V38.6268H320.708V40.4686H316.989V42.3553H314.954V38.7466H314.931ZM326.724 1.29639V5.02493H325.354V8.74599H323.746V12.4745H322.182V16.1956H320.573V19.9616H319.009V23.6826H317.401V27.4037H315.829V31.1248H314.22V34.8533H312.649V38.6193H311.078V42.3404H309.477V46.0614H307.905V49.79H306.297V53.511H302.578V57.3893H313.906V53.511H310.18V49.9397H311.751V46.2186H317.079V44.3394H320.798V42.4527H324.516V40.6108H328.28V38.7316H336.982V42.4527H338.591V46.2186H340.162V49.9397H341.771V53.511H338.007V57.3893H354.932V53.511H351.213V49.79H349.65V46.0614H348.041V42.3404H346.477V38.6193H344.868V34.8533H343.297V31.1248H341.688V27.4037H340.117V23.6826H338.508V19.9616H336.937V16.1956H335.373V12.4745H333.765V8.74599H332.201V5.02493H330.787V1.29639H326.709H326.724Z" fill="black"/>
<path d="M395.382 57.9954L362.265 7.45041V48.0377C362.265 52.3502 363.163 56.6627 367.121 56.6627V57.4114H356.503V56.6627C360.462 56.6627 361.367 52.3502 361.367 48.0377V6.8215C361.367 2.5464 360.462 1.96241 356.503 1.96241V1.22119H368.498L396.048 43.2984V10.5875C396.048 6.27494 395.15 1.96241 391.192 1.96241V1.22119H401.809V1.96241C397.851 1.96241 396.991 6.27494 396.991 10.5875V57.9954H395.382Z" fill="black"/>
<path d="M448.522 57.9958C445.821 56.7829 444.212 56.386 442.798 56.386C439.977 56.386 437.897 57.9958 429.315 57.9958C415.839 57.9958 403.762 47.0946 403.762 29.3354C403.762 11.5761 415.839 0.66748 429.315 0.66748C437.231 0.66748 447.07 4.54577 447.07 4.54577V22.1553H446.135C444.055 10.8199 437.979 1.60336 429.322 1.60336C422.117 1.60336 412.749 6.42502 412.749 26.8197C412.749 42.4676 422.82 56.6256 434.425 56.6256C439.595 56.6256 440.852 53.4886 440.852 50.2317V35.6844C440.852 31.4093 439.087 29.1781 422.947 29.1781V28.4294H454.298V29.1781C450.378 29.1781 449.472 29.7621 449.472 34.0747V57.9958H448.537H448.522Z" fill="black"/>
<path d="M462.559 54.4243H458.922V58.063H462.559V54.4243Z" fill="#231F20"/>
<path d="M466.173 50.8081H462.536V54.4468H466.173V50.8081Z" fill="#231F20"/>
<path d="M462.559 47.1694H458.922V50.8081H462.559V47.1694Z" fill="#231F20"/>
<path d="M469.802 54.4243H466.166V58.063H469.802V54.4243Z" fill="#231F20"/>
<path d="M469.802 47.1694H466.166V50.8081H469.802V47.1694Z" fill="#231F20"/>
</g>
<defs>
<clipPath id="clip0_174_760">
<rect width="469.506" height="57.4331" fill="white" transform="translate(0.288818 0.629883)"/>
</clipPath>
</defs>
</svg>
