<?xml version="1.0" encoding="UTF-8"?>
<svg id="Layer_1" data-name="Layer 1" xmlns="http://www.w3.org/2000/svg" viewBox="0 0 299.37 34.13">
  <path d="M32.88,21.98c0,3.46,0,6.91.01,10.37,0,.33,0,.66,0,1.02h-6.07c-.42-.99-.84-2-1.28-3.03-.9.92-1.95,1.6-3.08,2.15-1.38.67-2.83,1.17-4.38,1.3-.76.07-1.53.18-2.29.15-2.02-.07-3.98-.47-5.85-1.28-1.43-.62-2.74-1.44-3.95-2.42-1.33-1.09-2.41-2.39-3.32-3.84-1.17-1.87-1.95-3.89-2.34-6.06-.26-1.41-.38-2.84-.3-4.26.11-2.02.5-3.98,1.28-5.85.8-1.91,1.89-3.62,3.33-5.13C6.69,2.92,9.14,1.48,12.01.64,14.02.06,16.06-.08,18.12.04c1.94.12,3.83.57,5.6,1.42,1.44.69,2.73,1.56,3.91,2.65,1.76,1.63,3.05,3.57,4.05,5.73.28.61.49,1.25.74,1.9-.09.04-.15.09-.22.09-.84.06-1.69.1-2.54.17-1.33.1-2.66.21-3.99.32-.76.07-1.52.16-2.27.24-.29.03-.47-.03-.65-.33-1.06-1.76-2.64-2.86-4.67-3.19-2.18-.36-4.21.1-5.94,1.51-1.42,1.16-2.34,2.68-2.71,4.49-.12.59-.25,1.19-.23,1.79.05,2.09.6,4,2.02,5.62,1.21,1.37,2.71,2.25,4.49,2.47,2.64.32,5-.35,6.82-2.43.13-.14.2-.33.28-.53-.02-.03-.02-.06,0-.06.08,0,.14,0,.22.02.19.03.35.05.51.05,3.11,0,6.23,0,9.34,0Z" style="fill: #ffc7b1; stroke-width: 0px;"/>
  <path d="M292.03,30.33c-.89.85-1.89,1.54-2.97,2.09-1.24.63-2.55,1.11-3.94,1.28-.94.11-1.89.26-2.84.23-1.94-.05-3.83-.42-5.64-1.18-1.65-.7-3.14-1.62-4.49-2.81-1.44-1.27-2.59-2.74-3.52-4.41-.94-1.67-1.54-3.46-1.89-5.33-.28-1.48-.36-2.99-.24-4.48.19-2.42.77-4.75,1.91-6.91.66-1.25,1.47-2.4,2.42-3.46,1.43-1.59,3.13-2.82,5.05-3.74,1.35-.65,2.78-1.07,4.25-1.35,1.48-.28,2.96-.29,4.44-.21,1.32.07,2.63.34,3.9.76,1.75.56,3.34,1.4,4.75,2.55,1.51,1.23,2.79,2.7,3.8,4.37.71,1.17,1.3,2.4,1.72,3.7.04.12.05.25.07.39-.86.07-1.69.12-2.52.2-1.13.1-2.26.21-3.38.32-.37.03-.74.05-1.11.08-.64.05-1.29.1-1.93.16-.3.03-.52-.02-.68-.32-.94-1.69-2.42-2.71-4.27-3.11-2.41-.53-4.63-.04-6.53,1.61-1.46,1.27-2.27,2.87-2.6,4.77-.33,1.92-.03,3.74.84,5.44.99,1.94,2.59,3.27,4.7,3.8,2.24.56,4.41.24,6.36-1.09.65-.44,1.18-.99,1.64-1.69h-6.43v-6.35c2.99,0,5.98,0,9.02.04.04,4.7.04,9.35.04,14.01,0,.17.04.34.06.53,0,.02.02.05.01.07,0,.03-.01.05-.01.06Z" style="fill: #ffc7b1; stroke-width: 0px;"/>
  <path d="M162.55,15.61s0-.07.05-.13c3.09-.02,6.14-.02,9.19-.02-.04.39-.12.78-.13,1.17,0,.54,0,1.09.07,1.62.15,1.1.49,2.16,1.05,3.12.88,1.49,2.12,2.59,3.74,3.27,1.17.49,2.39.56,3.61.45,1.72-.15,3.26-.81,4.49-2.07.23-.24.42-.53.7-.89-2.16,0-4.22,0-6.33-.02-.06-.03-.08-.05-.1-.06v-6.33c.1,0,.19-.02.28-.02,5.29,0,10.58,0,15.88,0,.07,0,.13,0,.22.06.04.07.05.09.07.1,0,1.81,0,3.62.01,5.42,0,3.95,0,7.9,0,11.85,0,.38-.09.5-.49.5-1.74-.02-3.48-.02-5.22,0-.34,0-.46-.15-.56-.41-.35-.89-.71-1.77-1.07-2.65-.71.5-1.38,1.02-2.09,1.48-1.4.92-2.94,1.47-4.57,1.8-1.21.24-2.45.32-3.68.23-1.67-.11-3.3-.45-4.86-1.08-1.58-.64-3.03-1.5-4.34-2.59-1.58-1.32-2.85-2.9-3.86-4.71-.94-1.68-1.52-3.48-1.89-5.35-.11-.55-.12-1.13-.18-1.76-.02-.53-.05-1-.07-1.46,0-.09,0-.17.01-.32.03-.45.04-.83.05-1.22Z" style="fill: #ffc7b1; stroke-width: 0px;"/>
  <path d="M41.56,29.05c-.96-.9-1.72-1.97-2.41-3.09-.88-1.43-1.5-2.97-1.89-4.59-.23-.94-.33-1.91-.43-2.87-.08-.79-.11-1.6-.08-2.39.08-1.94.47-3.83,1.17-5.64.58-1.53,1.39-2.95,2.4-4.23,1.2-1.52,2.63-2.79,4.29-3.8,1.48-.9,3.05-1.56,4.73-1.94.75-.17,1.51-.3,2.28-.37.85-.08,1.7-.1,2.55-.08,1.96.04,3.86.44,5.68,1.18,1.53.62,2.95,1.44,4.23,2.48.5.41.95.89,1.43,1.38-.63.7-1.24,1.37-1.88,2.02-1.38,1.42-2.76,2.83-4.15,4.23-.16.16-.23.31-.17.51-.45-.44-.84-.92-1.32-1.29-1.62-1.29-3.46-1.82-5.53-1.53-1.81.25-3.29,1.06-4.5,2.42-1.37,1.53-1.96,3.36-2.03,5.36-.04,1.1.16,2.19.55,3.23.36.97.87,1.86,1.6,2.63-.34.36-.68.69-1.02,1.03-1.18,1.16-2.36,2.31-3.55,3.46-.46.45-.92.89-1.41,1.34-.23.06-.46.09-.37.43,0,.06,0,.1-.03.13-.07,0-.1,0-.14,0Z" style="fill: #ffc7b1; stroke-width: 0px;"/>
  <path d="M148.41,4.84c.95.9,1.72,1.94,2.4,3.05.69,1.15,1.24,2.36,1.63,3.65.37,1.22.66,2.44.71,3.71.04,1,.13,2,.07,2.99-.12,1.88-.53,3.7-1.26,5.45-.63,1.52-1.43,2.95-2.48,4.22-1.28,1.54-2.78,2.84-4.53,3.83-1.32.75-2.7,1.34-4.18,1.66-1.01.22-2.04.32-3.06.45-.52.06-1.06.1-1.59.08-2.18-.1-4.3-.49-6.31-1.36-1.99-.87-3.76-2.06-5.25-3.68.57-.58,1.12-1.13,1.67-1.68.07-.07.1-.18.16-.3.46-.49.91-.95,1.39-1.42.06-.06.1-.11.15-.18.17-.17.32-.31.5-.46.14-.14.26-.27.39-.42.08-.09.16-.15.26-.22.12-.11.2-.21.32-.33.52-.52,1.01-1.02,1.53-1.51.47.43.87.91,1.37,1.25,1.74,1.21,3.69,1.65,5.76,1.22,1.72-.36,3.16-1.26,4.26-2.67,1.15-1.47,1.69-3.15,1.76-5,.05-1.31-.22-2.58-.75-3.77-.36-.82-.84-1.58-1.47-2.2.23-.14.42-.27.64-.41.09-.08.15-.16.22-.25.03-.04.05-.05.1-.07.06-.05.1-.1.15-.17.09-.09.16-.15.25-.23.06-.06.1-.11.15-.18.25-.25.48-.48.73-.71.06-.05.1-.1.15-.18.3-.28.58-.53.9-.79.15-.16.26-.32.39-.49.06-.03.1-.05.17-.07.09-.08.15-.16.22-.25.03-.04.05-.05.1-.07.22-.21.42-.43.64-.64.14-.14.26-.27.4-.4.09-.08.15-.16.23-.25.04-.03.05-.05.09-.07.2-.19.37-.37.55-.58.08-.06.15-.1.25-.15.09-.14.16-.27.22-.4Z" style="fill: #ffc7b1; stroke-width: 0px;"/>
  <path d="M41.73,29.04s0-.07.03-.14c.14-.16.26-.29.38-.42.46-.45.92-.89,1.38-1.34,1.18-1.15,2.36-2.31,3.55-3.46.34-.33.68-.67,1.05-1.03.11.02.19.06.25.13.63.7,1.39,1.21,2.24,1.58,1.43.63,2.91.85,4.43.43.75-.21,1.47-.54,2.23-.82.04-.03.05-.06.07-.07,0,0,0,0,.02,0,.07-.03.11-.06.14-.08,0,0,0,0,.02,0,.09-.05.16-.11.22-.16,0,0,0,0,.02,0,.12-.08.21-.16.3-.24,0,0,0,0,.01,0,.04-.03.05-.06.07-.08,0,0,0,0,.02,0,.39-.32.77-.61,1.09-.96.18-.2.28-.48.41-.73,0,0,0,0,.02,0,.09-.14.15-.27.22-.4,0,0,0,0,.02,0,.11-.1.23-.19.28-.3.23-.55.51-1.1.65-1.68.42-1.75.37-3.5-.23-5.21-.1-.3-.31-.57-.47-.87,0-.01,0-.05,0-.07-.03-.07-.06-.11-.08-.15,0,0,0,0,0-.02-.06-.09-.11-.15-.16-.22,0,0,0,0,0-.03-.06-.12-.11-.21-.2-.31-.14-.19-.25-.36-.36-.54-.09-.21-.02-.36.14-.53,1.39-1.4,2.77-2.82,4.15-4.23.63-.65,1.25-1.31,1.89-1.99.27.23.58.45.79.74.74,1.08,1.53,2.13,2.13,3.28.83,1.58,1.41,3.28,1.58,5.08.12,1.17.27,2.35.22,3.52-.08,2.19-.53,4.32-1.42,6.35-.71,1.61-1.64,3.06-2.81,4.38-1.28,1.45-2.77,2.6-4.47,3.51-1.59.85-3.27,1.4-5.03,1.73-.62.12-1.26.13-1.89.17-.56.04-1.12.11-1.67.08-1.55-.1-3.1-.24-4.62-.82-.2-.07-.35-.1-.5-.14,0,0,0,0,0-.02-.06-.03-.11-.05-.16-.06,0,0-.03,0-.07-.02-.08-.03-.13-.05-.17-.06-.03,0-.07,0-.13-.02-.06-.04-.08-.05-.1-.06,0,0,.01,0,0-.02-.06-.03-.11-.05-.16-.07,0,0-.03,0-.07-.02-.08-.03-.13-.04-.18-.06,0,0-.03,0-.06-.02-.05-.04-.07-.05-.1-.06,0,0,0,0,0-.02-.43-.22-.86-.42-1.29-.62,0,0,0,0,0-.03-.11-.06-.22-.1-.32-.13,0,0,0,0,0-.03-.09-.06-.17-.1-.25-.14,0,0-.03,0-.06-.02-.05-.04-.07-.05-.1-.06,0,0,0,0,0-.02-.08-.06-.16-.1-.24-.13,0,0,0,0,0-.03-.16-.12-.32-.21-.49-.29,0,0,0,0,0-.03-.32-.25-.65-.47-.97-.7,0,0,0,0,0-.03-.4-.41-.8-.8-1.2-1.19Z" style="fill: #f492bd; stroke-width: 0px;"/>
  <path d="M128.39,24.86c-.15.15-.3.29-.49.46-.08.08-.11.13-.15.18-.45.46-.91.93-1.39,1.42-.54.52-1.04,1.01-1.56,1.48-.13.12-.34.16-.51.24-.64-.82-1.34-1.61-1.9-2.48-.8-1.23-1.41-2.56-1.79-3.99-.14-.52-.26-1.05-.4-1.65.02-.26.06-.46.06-.66,0-.35.12-.74-.31-.96-.02-.04-.07-.08-.07-.13-.03-.77-.08-1.54-.08-2.31,0-.51.09-1.02.18-1.56.13-.19.28-.33.28-.49.01-.36-.04-.71-.07-1.07.22-.81.39-1.64.66-2.44.64-1.89,1.64-3.59,2.93-5.12,1.62-1.93,3.59-3.37,5.88-4.39,1.25-.56,2.56-.91,3.91-1.15,1.44-.26,2.88-.28,4.32-.21,1.29.06,2.56.31,3.79.71.19.06.38.15.62.25.09.04.14.05.18.06,0,0,.03,0,.06.04.16.06.29.09.42.12,0,0,0,0,0,.03.11.06.22.1.32.13,0,0,.03,0,.07.02.08.03.13.04.17.06,0,0,.03,0,.06.02.05.04.07.05.1.06,0,0,.03,0,.06.02.05.04.07.05.1.06,0,0,0,0,0,.03.11.06.22.1.32.14,0,0,.03,0,.06.02.05.04.07.05.1.06,0,0,.03,0,.06.02.05.04.07.05.1.06,0,0,0,0,0,.03.11.06.22.1.32.14,0,0,.03,0,.06.02.05.04.07.05.1.06,0,0,0,0,0,.02.03.03.06.05.08.07,0,0,0,0,0,.02.11.06.21.1.32.13,0,0,0,0,0,.02.03.03.05.05.08.06,0,0,0,0,0,.02.09.06.17.1.24.14,0,0,.03,0,.06.02.05.04.07.05.1.06,0,0,0,0,0,.02.03.03.06.05.08.06,0,0,.03,0,.06.02.05.04.07.05.1.06,0,0,0,0,0,.02.03.03.06.05.08.07,0,0,0,0,0,.02.06.03.11.05.15.06,0,0,0,0,0,.02.03.03.05.05.08.07,0,0,0,0,0,.03.11.09.22.15.32.21,0,0,0,0,0,.03.11.09.22.15.32.21,0,0,0,0,0,.02.03.03.05.05.08.07,0,0,0,0,0,.03.11.09.22.15.32.21,0,0,0,0,0,.02.03.03.05.05.08.07,0,0,0,0,0,.02.03.03.05.05.08.06,0,0,0,0,0,.02.03.03.06.05.08.07,0,0,0,0,0,.01.03.03.05.05.08.07,0,0,0,0,0,.03.11.09.22.15.32.21,0,0,0,0,0,.02.03.03.06.05.08.06.03,0,.05.01.07.09-.02.22-.05.39-.08.55-.07.04-.14.08-.25.15-.21.21-.38.4-.55.58-.01.02-.03.04-.09.07-.11.09-.17.17-.23.25-.12.13-.23.26-.4.4-.25.22-.45.43-.64.64-.02.01-.04.03-.1.07-.1.1-.16.17-.23.25-.04.02-.08.03-.17.08-.16.18-.28.33-.4.48-.28.25-.57.51-.89.79-.08.08-.11.13-.15.18-.23.23-.46.45-.73.71-.08.08-.11.13-.15.18-.07.07-.14.14-.25.23-.08.07-.11.12-.15.17-.02.01-.04.03-.1.07-.1.1-.16.18-.22.25-.2.14-.39.27-.64.4-.64-.62-1.29-1.14-2.07-1.46-.64-.26-1.3-.48-1.98-.73-.17-.03-.32-.04-.48-.05-.02,0-.05-.01-.06-.04-.09-.08-.16-.16-.25-.19-.47-.18-.89-.07-1.29.27-.18.04-.34.02-.5.06-1.72.41-3.21,1.21-4.34,2.62-1.14,1.43-1.72,3.06-1.81,4.86-.03.72.04,1.46.16,2.17.14.83.39,1.64.86,2.36.28.44.55.88.82,1.32-.5.5-.99,1.01-1.54,1.53-.14.12-.23.23-.32.33-.07.07-.14.13-.26.22-.16.16-.27.29-.39.42Z" style="fill: #fae07a; stroke-width: 0px;"/>
  <path d="M253.62,33.22c-.53-.74-1.07-1.48-1.6-2.22-1.33-1.86-2.66-3.72-3.98-5.58-.82-1.16-1.63-2.33-2.45-3.49-1.18-1.66-2.36-3.32-3.54-4.98-.06-.08-.12-.17-.21-.3-.72-1.26-1.4-2.47-2.09-3.68-.41-.71-.84-1.42-1.25-2.13-.61-1.06-1.2-2.13-1.8-3.2-.73-1.3-1.47-2.6-2.21-3.93-.05-.07-.1-.11-.16-.17-.14-.26-.27-.49-.4-.72-.38-.68-.76-1.37-1.13-2.08.17-.07.33-.14.49-.14,2.59,0,5.18,0,7.77,0,.86,1.22,1.72,2.43,2.58,3.65,1.31,1.85,2.63,3.7,3.95,5.56,1.71,2.41,3.42,4.81,5.12,7.22.04.06.08.13.15.24.3.54.57,1.05.85,1.55,1.25,2.2,2.5,4.39,3.76,6.59,1.23,2.15,2.47,4.29,3.7,6.44.26.46.5.93.71,1.4-.42-.15-.81-.28-1.19.05-.06.06-.21.03-.31.03-1.91,0-3.82,0-5.73,0-.35,0-.7-.05-1.05-.07Z" style="fill: #fe9c57; stroke-width: 0px;"/>
  <path d="M201.77,20.04c.3-.92.59-1.85.91-2.77.71-2.11,1.44-4.22,2.16-6.33.75-2.22,1.5-4.44,2.26-6.66.4-1.16.81-2.32,1.2-3.49.07-.2.15-.29.38-.29,3.32,0,6.64,0,9.96,0,.21,0,.3.08.36.26.58,1.73,1.18,3.46,1.76,5.19.78,2.31,1.56,4.61,2.34,6.92.75,2.19,1.5,4.39,2.25,6.58.06.18.15.36.2.57-.02.03-.05.04-.09.03-2.8,0-5.56,0-8.35,0-.09,0-.15,0-.25,0-.17,0-.31,0-.45-.04-.91-3.05-1.83-6.07-2.76-9.12-.55,1.8-1.1,3.56-1.63,5.33-.39,1.27-.76,2.55-1.18,3.83-.34,0-.63,0-.97,0-2.21,0-4.39,0-6.6,0-.25,0-.47,0-.71-.02-.17,0-.31,0-.49.02-.09,0-.15,0-.23,0-.04,0-.05,0-.07,0Z" style="fill: #ffc7b1; stroke-width: 0px;"/>
  <path d="M171.79,15.43c-3.05.03-6.1.03-9.19.03.15-1.08.27-2.17.52-3.24.51-2.12,1.53-4.01,2.84-5.74.95-1.25,2.07-2.32,3.36-3.23,1.4-.98,2.89-1.76,4.52-2.27,1.15-.36,2.31-.66,3.52-.71,1.04-.04,2.08-.11,3.11-.07,1.22.05,2.41.29,3.58.63,1.88.55,3.59,1.42,5.1,2.64,1.2.97,2.25,2.09,3.14,3.36,1.02,1.46,1.85,3.02,2.4,4.72.13.41.1.42-.3.45-1.22.1-2.44.21-3.67.31-.76.06-1.53.1-2.29.17-.87.07-1.73.16-2.6.24-.27.02-.49,0-.66-.29-.8-1.45-2.03-2.39-3.56-2.93-1.13-.4-2.3-.48-3.5-.32-1.19.16-2.26.61-3.23,1.29-1.43,1-2.33,2.39-2.86,4.03-.1.3-.16.6-.25.93Z" style="fill: #f492bd; stroke-width: 0px;"/>
  <path d="M261.93,33.22c-.25-.47-.48-.94-.75-1.4-1.23-2.15-2.47-4.29-3.7-6.44-1.26-2.19-2.51-4.39-3.76-6.59-.28-.5-.55-1.01-.82-1.54,0-1.92,0-3.81,0-5.69,0-3.52,0-7.05,0-10.57v-.46h9.24c0,.12,0,.23,0,.35,0,10.7,0,21.41,0,32.11,0,.12-.01.24-.05.35-.08-.05-.12-.08-.17-.12Z" style="fill: #ffc7b1; stroke-width: 0px;"/>
  <path d="M234.49,3.72c.74,1.3,1.47,2.6,2.21,3.9.6,1.07,1.2,2.14,1.8,3.2.41.72.84,1.42,1.25,2.13.69,1.21,1.38,2.43,2.07,3.67,0,.19,0,.35,0,.51,0,5.26,0,10.53,0,15.79,0,.13,0,.26,0,.42h-9.16c0-10.87,0-21.74.02-32.64.06,0,.09.02.12.04.38.68.76,1.37,1.14,2.05.13.23.25.46.4.75.06.09.11.13.16.17Z" style="fill: #fec7b1; stroke-width: 0px;"/>
  <path d="M109.72,9.51c0,.11.01.21.01.32,0,7.73,0,15.46,0,23.19,0,.11,0,.21,0,.34h-9.16c0-7.92,0-15.85.04-23.81,3.06-.04,6.08-.04,9.1-.04Z" style="fill: #ffc7b1; stroke-width: 0px;"/>
  <path d="M216.4,20.04c.14,0,.28,0,.46.03.12,0,.2,0,.28-.02,2.76,0,5.52,0,8.32.02.06.04.08.05.1.06.31.9.62,1.81.93,2.71.44,1.29.89,2.59,1.35,3.93.02.07.04.09.06.11,0,.03,0,.07,0,.14-.12.16-.21.29-.34.41-3.02,0-5.99,0-8.97,0,0,0-.04,0-.08-.03-.11-.03-.18-.05-.24-.05-3.06,0-6.11,0-9.17,0-.1,0-.2.04-.31.06,0,0-.03.01-.09.01-2.93,0-5.8,0-8.7-.02-.35-.04-.62-.12-.54-.55.27-.86.53-1.72.81-2.58.36-1.08.74-2.14,1.12-3.21.07-.19.15-.38.27-.6.1-.16.16-.29.22-.42.06,0,.12,0,.23.02.2,0,.34,0,.49-.02.22,0,.43,0,.7.03.16.06.27.12.37.12,1.96,0,3.92,0,5.88,0,.12,0,.24-.1.37-.15.3,0,.6,0,.95,0,.06,0,.09.01.12.03.08.03.13.05.18.05,1.64,0,3.28,0,4.91,0,.09,0,.18-.04.28-.07.02,0,.05,0,.05,0Z" style="fill: #fae079; stroke-width: 0px;"/>
  <path d="M292.04,30.34s0-.05.03-.1c.04-.2.06-.36.06-.52,0-4.67,0-9.34.04-14.02,2.22,0,4.4,0,6.58,0,.48,0,.52.05.52.53,0,5.5,0,11-.02,16.53-.07.32-.21.42-.52.36-.17-.04-.37.02-.55.04-.26.04-.51.14-.77.13-.95-.03-1.9-.1-2.86-.15-.46-.03-.92-.06-1.38-.08-.35-.83-.71-1.66-1.07-2.54-.03-.07-.04-.09-.06-.11,0-.01,0-.03-.02-.06Z" style="fill: #81a5df; stroke-width: 0px;"/>
  <path d="M91.74,9.19V.53c.09,0,.18-.03.26-.03,8.67,0,17.35,0,26.02,0,.07,0,.13,0,.19.06-.23.15-.46.25-.71.36-.58.19-1.12.37-1.69.54-.4.09-.79.16-1.16.29-.34.12-.66.29-1.02.44-.09.03-.15.05-.25.07-.46.14-.9.28-1.36.43-.06,0-.1,0-.15,0-.04.01-.06.03-.09.06-.91.28-1.8.54-2.7.81-.04.02-.06.04-.1.06-.02,0-.05,0-.08,0-.44.16-.86.32-1.29.48-.02,0-.05,0-.07-.01-.09.02-.16.06-.23.09,0,0,0,0-.02,0-.06.02-.1.05-.16.07-.02,0-.05,0-.08,0-.23.08-.43.15-.64.23-.02,0-.05,0-.09,0-.15.05-.27.1-.4.16-.03.03-.04.04-.08.07-.14.05-.26.1-.39.14-.03-.02-.05-.02-.1,0-.06,0-.1.01-.16,0-.31.06-.6.12-.87.22-.15.05-.27.18-.43.28-.09,0-.15,0-.23,0-.09.05-.16.09-.25.14-.06,0-.1.01-.15,0-.46.11-.9.22-1.33.37-.16.05-.28.19-.45.29-.3.09-.58.18-.88.26-.53.14-1.03.26-1.52.42-.33.11-.64.29-.99.44-.08,0-.14.01-.21,0-.31.05-.6.1-.89.18-.14.04-.26.15-.42.22-.17.06-.3.12-.46.19-.04.02-.06.05-.09.07-.06.01-.09.02-.15.03-.04,0-.06.02-.1.04-.06,0-.09,0-.16,0-.31.1-.59.2-.88.31-.02,0-.05,0-.08,0-.17.05-.31.11-.46.18,0,.02,0,.05-.03.05-.06.01-.09.02-.15.03-.11.02-.2.05-.32.07-.34.1-.64.21-.94.31,0,0,0,0-.03,0-.17.06-.31.11-.47.17-.02,0-.05,0-.09,0-.17,0-.31,0-.45,0Z" style="fill: #ffc7b1; stroke-width: 0px;"/>
  <path d="M109.11,3.58c.88-.27,1.77-.53,2.7-.81.06-.03.08-.04.1-.06.04,0,.07,0,.16,0,.49-.14.93-.29,1.36-.44.06-.02.13-.05.25-.07.8-.12,1.51-.33,2.16-.72.54-.18,1.09-.37,1.69-.54.31-.03.57-.07.84-.12.02.28.05.49.05.7,0,2.43,0,4.87,0,7.3,0,.47-.08.53-.54.53-2.69,0-5.37,0-8.1,0-2.92,0-5.81,0-8.7,0-.14,0-.28.04-.45.07-.04,0-.05,0-.06.01,0,0-.04,0-.07-.02-.05-.03-.08-.02-.09,0-.11,0-.22,0-.4-.01-.22-.03-.38-.05-.54-.05-2.17,0-4.34,0-6.51,0-.15,0-.29-.1-.44-.16,0,0,0,0,.02,0,.04-.02.05-.03.09-.06.06,0,.1-.01.15,0,.48-.03.93-.11,1.28-.47.03,0,.07-.02.14-.01.09-.01.13-.04.2-.08.02,0,.06-.01.09-.01.33-.11.63-.21.93-.32,0,0,0,0,.03,0,.17-.05.31-.1.45-.17,0-.01,0-.04,0-.04.03,0,.07-.02.14-.01.11-.02.18-.06.27-.09.02,0,.06-.01.09-.01.25-.08.47-.16.71-.24.02,0,.05,0,.07,0,.07-.02.11-.05.17-.08.2-.08.37-.15.54-.22.05,0,.11-.01.23-.02.64-.17,1.22-.33,1.78-.52.25-.08.48-.23.72-.34.27-.09.54-.17.88-.26.63-.21,1.2-.43,1.77-.64.03,0,.07,0,.16,0,.12-.05.18-.1.25-.15.06,0,.12,0,.24,0,.47-.16.88-.32,1.29-.48.04,0,.07,0,.15-.01.06,0,.07,0,.09,0,.12-.05.23-.1.38-.15.02,0,.02.01.04.03.08-.03.15-.08.23-.14.06-.02.11-.03.18-.02.28-.08.53-.18.78-.27,0,0,0,0,.03,0,.17-.05.31-.11.45-.18,0-.02,0-.05,0-.05,0,0,.04,0,.08,0,.11,0,.16,0,.25-.01.07-.02.11-.05.18-.08.31-.14.59-.26.87-.39,0,0,.03,0,.07-.01.06-.03.08-.04.09-.06Z" style="fill: #9581f3; stroke-width: 0px;"/>
  <path d="M23,21.91c-.05,0-.11,0-.23,0-1.95,0-3.84,0-5.73-.01-.55,0-.55,0-.55-.57,0-1.77,0-3.53.03-5.31.17-.21.33-.32.61-.32,5.06.01,10.12.01,15.18,0,.39,0,.51.13.5.51-.02,1.71,0,3.43,0,5.14,0,.16.04.31.06.47,0,0,.01.03-.03.05-.36.02-.68.02-1.03,0-.09-.03-.16-.05-.22-.05-2.44,0-4.88,0-7.32,0-.1,0-.2.04-.34.07-.34.01-.63.02-.93.03Z" style="fill: #81a5df; stroke-width: 0px;"/>
  <path d="M89.95,16.26v7.78c-.08,0-.16.02-.23.02-5.24,0-10.48,0-15.72,0-.08,0-.16,0-.22-.05.1-.08.19-.13.3-.19,1.05-.49,2.08-.96,3.1-1.45,1.29-.63,2.57-1.28,3.86-1.91,1.55-.75,3.11-1.49,4.66-2.22.9-.43,1.81-.85,2.75-1.27.18-.09.32-.19.48-.31.06-.03.1-.05.16-.05.11-.05.21-.11.33-.19.12-.06.21-.1.33-.15.08,0,.14,0,.2,0Z" style="fill: #fec7b1; stroke-width: 0px;"/>
  <path d="M218.58,27.47c2.97-.03,5.95-.04,9-.04.21,0,.34,0,.48,0,.46,1.32.92,2.64,1.38,3.96.22.65.43,1.3.66,1.99-.17,0-.32,0-.46,0-2.95,0-5.89,0-8.84,0-.33,0-.45-.08-.54-.43-.3-1.14-.68-2.26-1.02-3.38-.21-.69-.43-1.38-.64-2.11Z" style="fill: #fec7b1; stroke-width: 0px;"/>
  <path d="M200.01,27.43c2.87,0,5.74,0,8.65,0-.26.99-.56,1.99-.85,2.98-.27.89-.54,1.79-.8,2.68-.06.21-.14.29-.37.29-3.09,0-6.19,0-9.28,0-.04,0-.08,0-.17-.02.32-.91.63-1.81.94-2.71.37-1.09.74-2.18,1.16-3.27.28.02.51.03.73.05Z" style="fill: #fec7b1; stroke-width: 0px;"/>
  <path d="M109.82,9.35c2.69,0,5.37,0,8.06,0,.46,0,.54-.06.54-.53,0-2.43,0-4.87,0-7.3,0-.21-.03-.42-.05-.7-.27.05-.52.09-.81.12.2-.12.42-.22.67-.34.12-.04.21-.08.33-.12v8.95c-2.9,0-5.79,0-8.71-.02-.04-.02-.04-.05-.04-.05Z" style="fill: #9886dc; stroke-width: 0px;"/>
  <path d="M299.29,32.74c0-5.5,0-11,0-16.51,0-.48-.04-.53-.52-.53-2.18,0-4.36,0-6.6,0-.06,0-.1,0-.1-.02,0-.02,0-.05,0-.05h7.29c0,.1.02.19.02.28,0,5.73,0,11.47,0,17.2,0,.08,0,.16-.05.22-.03-.21-.03-.4-.03-.59Z" style="fill: #a3b1d5; stroke-width: 0px;"/>
  <path d="M32.88,21.77c-.03-.12-.07-.27-.07-.43,0-1.71-.01-3.43,0-5.14,0-.38-.12-.51-.5-.51-5.06.01-10.12,0-15.18,0-.28,0-.44.11-.61.29-.03-.13-.03-.24-.03-.35.5,0,.99-.02,1.49-.02,4.81,0,9.62,0,14.43,0,.15,0,.29,0,.48,0,0,2.05,0,4.09,0,6.15Z" style="fill: #97adda; stroke-width: 0px;"/>
  <path d="M89.96,16.22c-.06.04-.12.04-.23.02-.23-.03-.4-.06-.57-.06-4.83,0-9.65,0-14.48,0-.99,0-.86-.1-.89.88-.02,0-.05,0-.05,0v-.96c.15,0,.3,0,.44,0,5.13,0,10.26,0,15.39,0,.13,0,.26.06.39.12Z" style="fill: #f5ad81; stroke-width: 0px;"/>
  <path d="M299.27,32.76c.02.17.02.35.02.57-1.93.04-3.86.05-5.79.04-.11,0-.21-.16-.31-.28.47,0,.93.02,1.39.05.95.05,1.9.12,2.86.15.25,0,.51-.09.77-.13.18-.03.37-.08.55-.04.31.07.46-.04.52-.36Z" style="fill: #94a0c9; stroke-width: 0px;"/>
  <path d="M292.03,15.63s.02.04.02.09c0,4.68,0,9.31,0,13.94,0,.17-.01.35-.02.52-.02-.17-.06-.34-.06-.51,0-4.66,0-9.31,0-14,.01-.04.03-.04.07-.04Z" style="fill: #cec0d0; stroke-width: 0px;"/>
  <path d="M16.46,15.64c.03.1.03.21.03.35,0,1.8,0,3.56,0,5.33,0,.56,0,.57.55.57,1.89,0,3.77,0,5.7.01.04,0,.04.03.04.04-2.11.01-4.22.01-6.36.01,0-2.11,0-4.2.03-6.31Z" style="fill: #a3b1d5; stroke-width: 0px;"/>
  <path d="M261.9,33.22c.08.03.12.07.17.13-2.72.03-5.44.03-8.16.04-.09,0-.18-.06-.28-.12.34,0,.69.04,1.04.04,1.91,0,3.82,0,5.73,0,.11,0,.25.03.31-.03.38-.33.76-.2,1.19-.05Z" style="fill: #eda673; stroke-width: 0px;"/>
  <path d="M23.03,21.92c.27-.03.57-.04.94-.04,2.67,0,5.27,0,7.87,0,.32,0,.64,0,1,0,.04.01.04.03.04.07-3.12.02-6.23.02-9.35.02-.16,0-.32-.02-.51-.05Z" style="fill: #cec0d0; stroke-width: 0px;"/>
  <path d="M208.81,27.43c.06-.03.17-.07.27-.07,3.06,0,6.11,0,9.17,0,.07,0,.13.02.22.05-3.19.02-6.41.03-9.66.02Z" style="fill: #f9d793; stroke-width: 0px;"/>
  <path d="M100.57,9.45s.03-.03.1-.03c3.06,0,6.07,0,9.07.01,0,0,0,.04,0,.06-3.03.02-6.05.02-9.1.02-.04-.01-.05-.03-.05-.06Z" style="fill: #f3c3d0; stroke-width: 0px;"/>
  <path d="M109.76,9.43c-3.02,0-6.03,0-9.07-.01.1-.03.25-.07.39-.07,2.89,0,5.77,0,8.7,0,.04,0,.04.03.04.05-.01.02-.03.02-.06.03Z" style="fill: #a382d3; stroke-width: 0px;"/>
  <path d="M92.53,9.18c.15.06.29.16.44.16,2.17.01,4.34,0,6.51,0,.16,0,.32.02.51.05-2.6.02-5.24.02-7.89,0,.03-.08.08-.14.14-.19,0,0,.03,0,.08,0,.1,0,.16-.01.22-.02Z" style="fill: #9886dc; stroke-width: 0px;"/>
  <path d="M232.81.73s-.08-.01-.13-.05c.08-.07.18-.17.29-.17,1.35-.01,2.7,0,4.04,0,1.35,0,2.7,0,4.05.05-2.58.03-5.17.03-7.76.04-.16,0-.32.07-.49.14Z" style="fill: #fda971; stroke-width: 0px;"/>
  <path d="M73.73,17.1s.04-.04.06,0c.02.5.02.97.02,1.44,0,1.63,0,3.25,0,4.88,0,.18-.04.4.25.4-.09.05-.17.1-.29.15-.03-2.28-.04-4.56-.04-6.87Z" style="fill: #fda971; stroke-width: 0px;"/>
  <path d="M124.29,28.67c.16-.1.37-.14.51-.26.52-.47,1.02-.96,1.56-1.45-.02.09-.05.2-.12.27-.55.55-1.1,1.09-1.68,1.65-.1-.05-.17-.12-.26-.21Z" style="fill: #f9d793; stroke-width: 0px;"/>
  <path d="M119.94,18.95c.42.18.31.57.31.92,0,.2-.04.39-.06.62-.08-.48-.16-.99-.24-1.54Z" style="fill: #f9d793; stroke-width: 0px;"/>
  <path d="M120.15,13.38c.06.34.11.7.1,1.06,0,.15-.15.3-.27.46.03-.49.08-.99.17-1.51Z" style="fill: #f9d793; stroke-width: 0px;"/>
  <path d="M41.7,29.04c.43.39.83.77,1.23,1.19-.45-.36-.9-.75-1.36-1.16.03-.03.06-.03.13-.03Z" style="fill: #f8babb; stroke-width: 0px;"/>
  <path d="M45.35,31.89c.42.17.84.37,1.28.59-.42-.17-.84-.37-1.28-.59Z" style="fill: #f8babb; stroke-width: 0px;"/>
  <path d="M42.94,30.28c.31.2.63.42.96.68-.31-.2-.63-.42-.96-.68Z" style="fill: #f8babb; stroke-width: 0px;"/>
  <path d="M199.99,27.41c-.21,0-.43,0-.68-.04.01-.17.05-.33.11-.49-.06.41.22.49.57.54Z" style="fill: #f9d793; stroke-width: 0px;"/>
  <path d="M228.06,27.4c-.14.03-.28.03-.44.03.06-.13.16-.25.27-.39.07.1.13.22.17.36Z" style="fill: #f9d793; stroke-width: 0px;"/>
  <path d="M162.48,17.18c.03.42.05.88.07,1.38-.03-.42-.05-.88-.07-1.38Z" style="fill: #dba5a5; stroke-width: 0px;"/>
  <path d="M162.52,15.63c.02.37.01.75-.02,1.17-.02-.36-.02-.76.02-1.17Z" style="fill: #dba5a5; stroke-width: 0px;"/>
  <path d="M92.19,9.2c-.02.06-.07.11-.14.19-.12-.03-.22-.08-.32-.17.14-.03.28-.03.46-.02Z" style="fill: #e6bdcf; stroke-width: 0px;"/>
  <path d="M148.19,5.24c0-.16.03-.33.05-.53.05,0,.1.05.16.11-.06.16-.12.29-.21.42Z" style="fill: #f9d793; stroke-width: 0px;"/>
  <path d="M43.9,31c.15.06.31.15.47.27-.15-.06-.31-.15-.47-.27Z" style="fill: #f8babb; stroke-width: 0px;"/>
  <path d="M201.84,20.04c-.04.13-.1.26-.18.4,0-.12.03-.25.09-.39.04-.01.06-.01.1,0Z" style="fill: #f9d793; stroke-width: 0px;"/>
  <path d="M148.08,4.49c-.1-.04-.2-.1-.31-.19.1.04.2.1.31.19Z" style="fill: #f9d793; stroke-width: 0px;"/>
  <path d="M146.71,3.37c-.1-.04-.2-.1-.31-.19.1.04.2.1.31.19Z" style="fill: #f9d793; stroke-width: 0px;"/>
  <path d="M147.03,3.61c-.1-.04-.2-.1-.31-.19.1.04.2.1.31.19Z" style="fill: #f9d793; stroke-width: 0px;"/>
  <path d="M147.44,3.93c-.1-.04-.2-.1-.31-.19.1.04.2.1.31.19Z" style="fill: #f9d793; stroke-width: 0px;"/>
  <path d="M47.85,33.01c.14,0,.29.04.46.09-.14,0-.29-.04-.46-.09Z" style="fill: #f8babb; stroke-width: 0px;"/>
  <path d="M142.93,1.2c-.12,0-.25-.03-.39-.09.12,0,.25.03.39.09Z" style="fill: #f9d793; stroke-width: 0px;"/>
  <path d="M45.03,31.72c.09.01.2.05.31.11-.09,0-.2-.05-.31-.11Z" style="fill: #f8babb; stroke-width: 0px;"/>
  <path d="M145.34,2.41c-.09-.01-.2-.05-.31-.11.09,0,.19.05.31.11Z" style="fill: #f9d793; stroke-width: 0px;"/>
  <path d="M144.79,2.09c-.09-.01-.2-.05-.31-.11.1,0,.2.05.31.11Z" style="fill: #f9d793; stroke-width: 0px;"/>
  <path d="M143.26,1.36c-.09-.01-.2-.05-.31-.11.1,0,.2.05.31.11Z" style="fill: #f9d793; stroke-width: 0px;"/>
  <path d="M144.14,1.76c-.09-.01-.2-.05-.31-.11.1,0,.2.05.31.11Z" style="fill: #f9d793; stroke-width: 0px;"/>
  <path d="M44.39,31.32c.07.01.15.05.23.11-.07-.01-.15-.05-.23-.11Z" style="fill: #f8babb; stroke-width: 0px;"/>
  <path d="M145.67,2.65c-.07-.01-.15-.05-.23-.11.07.01.15.05.23.11Z" style="fill: #f9d793; stroke-width: 0px;"/>
  <path d="M44.78,31.56c.07.01.15.05.23.12-.07-.01-.15-.05-.23-.12Z" style="fill: #f8babb; stroke-width: 0px;"/>
  <path d="M47.04,32.68s.08,0,.15.05c-.03,0-.09,0-.15-.05Z" style="fill: #f8babb; stroke-width: 0px;"/>
  <path d="M46.79,32.6s.08,0,.15.03c-.03.01-.08,0-.15-.03Z" style="fill: #f8babb; stroke-width: 0px;"/>
  <path d="M47.68,32.93s.08,0,.15.04c-.03,0-.08,0-.15-.04Z" style="fill: #f8babb; stroke-width: 0px;"/>
  <path d="M143.5,1.44s-.08,0-.15-.03c.03-.01.08,0,.15.03Z" style="fill: #f9d793; stroke-width: 0px;"/>
  <path d="M142.46,1.04s-.08,0-.15-.03c.03-.01.08,0,.15.03Z" style="fill: #f9d793; stroke-width: 0px;"/>
  <path d="M47.44,32.85s.08,0,.15.03c-.03.01-.08,0-.15-.03Z" style="fill: #f8babb; stroke-width: 0px;"/>
  <path d="M146.31,3.05s-.08,0-.14-.04c.03,0,.08,0,.14.04Z" style="fill: #f9d793; stroke-width: 0px;"/>
  <path d="M143.82,1.61s-.04,0-.07-.03c.01,0,.04,0,.07.03Z" style="fill: #f9d793; stroke-width: 0px;"/>
  <path d="M227.9,26.85s-.04-.01-.06-.05c.02,0,.04.01.06.05Z" style="fill: #f9d793; stroke-width: 0px;"/>
  <path d="M144.47,1.93s-.04,0-.07-.03c.01,0,.04,0,.07.03Z" style="fill: #f9d793; stroke-width: 0px;"/>
  <path d="M144.31,1.85s-.04,0-.07-.03c.01,0,.04,0,.07.03Z" style="fill: #f9d793; stroke-width: 0px;"/>
  <path d="M47.2,32.76s.04,0,.07.03c-.01,0-.04,0-.07-.03Z" style="fill: #f8babb; stroke-width: 0px;"/>
  <path d="M292.06,30.43s.04.02.06.06c-.02,0-.04-.02-.06-.06Z" style="fill: #94a0c9; stroke-width: 0px;"/>
  <path d="M44.62,31.48s.04,0,.07.03c-.01,0-.04,0-.07-.03Z" style="fill: #f8babb; stroke-width: 0px;"/>
  <path d="M46.63,32.52s.04,0,.07.03c-.01,0-.04,0-.07-.03Z" style="fill: #f8babb; stroke-width: 0px;"/>
  <path d="M146.4,3.13s-.04-.01-.07-.05c.01,0,.04.01.07.05Z" style="fill: #f9d793; stroke-width: 0px;"/>
  <path d="M147.52,4.02s-.04-.01-.07-.05c.01,0,.04.01.07.05Z" style="fill: #f9d793; stroke-width: 0px;"/>
  <path d="M147.6,4.1s-.04-.01-.07-.05c.01,0,.04.01.07.05Z" style="fill: #f9d793; stroke-width: 0px;"/>
  <path d="M147.68,4.18s-.04-.01-.07-.05c.01,0,.04.01.07.05Z" style="fill: #f9d793; stroke-width: 0px;"/>
  <path d="M147.76,4.26s-.04-.01-.07-.05c.01,0,.04.01.07.05Z" style="fill: #f9d793; stroke-width: 0px;"/>
  <path d="M148.17,4.58s-.04-.01-.07-.05c.01,0,.04.01.07.05Z" style="fill: #f9d793; stroke-width: 0px;"/>
  <path d="M147.12,3.7s-.04-.01-.07-.05c.01,0,.04.01.07.05Z" style="fill: #f9d793; stroke-width: 0px;"/>
  <path d="M100.43,9.42s.02-.04.05-.02c0,.01-.02.02-.05.02Z" style="fill: #a382d3; stroke-width: 0px;"/>
  <path d="M143.66,1.53s-.04,0-.07-.03c.01,0,.04,0,.07.03Z" style="fill: #f9d793; stroke-width: 0px;"/>
  <path d="M146.16,2.97s-.04-.01-.07-.05c.01,0,.04.01.07.05Z" style="fill: #f9d793; stroke-width: 0px;"/>
  <path d="M146.07,2.89s-.04,0-.07-.03c.01,0,.04,0,.07.03Z" style="fill: #f9d793; stroke-width: 0px;"/>
  <path d="M145.92,2.81s-.04-.01-.07-.05c.01,0,.04.01.07.05Z" style="fill: #f9d793; stroke-width: 0px;"/>
  <path d="M145.83,2.73s-.04,0-.07-.03c.01,0,.04,0,.07.03Z" style="fill: #f9d793; stroke-width: 0px;"/>
  <path d="M195.34,15.84s-.04-.01-.06-.05c.02,0,.04.01.06.05Z" style="fill: #dba5a5; stroke-width: 0px;"/>
  <path d="M145.43,2.49s-.04-.01-.07-.05c.01,0,.04.01.07.05Z" style="fill: #f9d793; stroke-width: 0px;"/>
  <path d="M225.57,20.1s-.04,0-.07-.04c0-.01.03-.02.04-.02.02.01.03.03.02.06Z" style="fill: #f9d793; stroke-width: 0px;"/>
  <path d="M145.03,2.25s-.04-.01-.07-.05c.01,0,.04.01.07.05Z" style="fill: #f9d793; stroke-width: 0px;"/>
  <path d="M144.95,2.17s-.04,0-.07-.03c.01,0,.04,0,.07.03Z" style="fill: #f9d793; stroke-width: 0px;"/>
  <path d="M178.88,22.07s.04,0,.06.03c-.02,0-.04,0-.06-.03Z" style="fill: #dba5a5; stroke-width: 0px;"/>
  <path d="M292.04,30.2c0-.19.02-.36.02-.54,0-4.63,0-9.26,0-13.92,0-.04.04-.04.06-.04.02,4.67.02,9.35.01,14.02,0,.16-.02.32-.06.5-.02.03-.03,0-.04-.02Z" style="fill: #94a0c9; stroke-width: 0px;"/>
  <path d="M42.11,28.48c-.09.13-.21.26-.35.4-.11-.3.12-.34.35-.4Z" style="fill: #f8babb; stroke-width: 0px;"/>
  <path d="M146.02,7.33c.17-.21.37-.42.59-.63-.17.21-.37.42-.59.63Z" style="fill: #f9d793; stroke-width: 0px;"/>
  <path d="M147.39,5.97c.14-.18.31-.37.51-.56-.14.18-.31.37-.51.56Z" style="fill: #f9d793; stroke-width: 0px;"/>
  <path d="M145.13,8.21c.09-.15.21-.3.36-.46-.09.14-.21.3-.36.46Z" style="fill: #f9d793; stroke-width: 0px;"/>
  <path d="M128.41,24.86c.09-.13.2-.26.35-.39-.09.13-.2.26-.35.39Z" style="fill: #f9d793; stroke-width: 0px;"/>
  <path d="M129.06,24.21c.06-.1.15-.2.27-.31-.06.1-.15.21-.27.31Z" style="fill: #f9d793; stroke-width: 0px;"/>
  <path d="M147.06,6.29c.04-.07.1-.15.19-.23-.04.07-.1.15-.19.23Z" style="fill: #f9d793; stroke-width: 0px;"/>
  <path d="M142.48,10.79c.04-.07.1-.15.19-.23-.04.07-.1.15-.19.23Z" style="fill: #f9d793; stroke-width: 0px;"/>
  <path d="M145.7,7.65c.04-.07.1-.15.19-.23-.04.07-.1.15-.19.23Z" style="fill: #f9d793; stroke-width: 0px;"/>
  <path d="M127.77,25.5s.05-.1.11-.15c-.01.05-.05.1-.11.15Z" style="fill: #f9d793; stroke-width: 0px;"/>
  <path d="M144.09,9.18s.05-.1.11-.15c-.01.05-.05.1-.11.15Z" style="fill: #f9d793; stroke-width: 0px;"/>
  <path d="M143.2,10.07s.05-.1.11-.15c-.01.05-.05.1-.11.15Z" style="fill: #f9d793; stroke-width: 0px;"/>
  <path d="M142.8,10.47s.05-.1.11-.15c-.01.05-.05.1-.11.15Z" style="fill: #f9d793; stroke-width: 0px;"/>
  <path d="M59.92,21.24c.26-.78.62-1.55.83-2.35.32-1.26.31-2.56,0-3.83-.15-.61-.39-1.2-.59-1.82.16.25.37.52.47.82.59,1.71.65,3.46.23,5.21-.14.58-.42,1.12-.65,1.68-.05.11-.17.2-.28.3Z" style="fill: #f8babb; stroke-width: 0px;"/>
  <path d="M58.15,23.33c.46-.56.96-1.11,1.48-1.68-.11.24-.2.52-.39.72-.32.35-.7.65-1.09.96Z" style="fill: #f8babb; stroke-width: 0px;"/>
  <path d="M59.68,21.64c.03-.13.1-.25.19-.39-.04.12-.1.26-.19.39Z" style="fill: #f8babb; stroke-width: 0px;"/>
  <path d="M57.75,23.65c.06-.08.15-.16.27-.24-.06.08-.15.16-.27.24Z" style="fill: #f8babb; stroke-width: 0px;"/>
  <path d="M59.9,12.7c-.05-.06-.11-.15-.17-.27.05.06.11.15.17.27Z" style="fill: #f8babb; stroke-width: 0px;"/>
  <path d="M57.51,23.81c.04-.05.1-.11.19-.16-.04.05-.1.11-.19.16Z" style="fill: #f8babb; stroke-width: 0px;"/>
  <path d="M60.06,12.94c-.05-.04-.11-.1-.16-.19.05.04.11.1.16.19Z" style="fill: #f8babb; stroke-width: 0px;"/>
  <path d="M60.14,13.11s-.05-.06-.08-.12c.02.01.05.06.08.12Z" style="fill: #f8babb; stroke-width: 0px;"/>
  <path d="M57.34,23.89s.05-.05.12-.08c-.01.02-.05.05-.12.08Z" style="fill: #f8babb; stroke-width: 0px;"/>
  <path d="M57.25,23.96s.01-.04.05-.07c0,.01-.01.04-.05.07Z" style="fill: #f8babb; stroke-width: 0px;"/>
  <path d="M58.06,23.4s.01-.04.05-.07c0,.01-.01.04-.05.07Z" style="fill: #f8babb; stroke-width: 0px;"/>
  <path d="M137.23,8.9c-.48.03-.96.04-1.48.05.34-.31.76-.42,1.23-.24.09.03.16.11.25.19Z" style="fill: #f9d793; stroke-width: 0px;"/>
  <path d="M137.77,8.99c-.13.01-.28.01-.45-.02.13-.02.28,0,.45.02Z" style="fill: #f9d793; stroke-width: 0px;"/>
  <path d="M234.49,3.7s-.09-.06-.14-.12c.05.02.09.06.14.12Z" style="fill: #f5ad81; stroke-width: 0px;"/>
  <path d="M209.86,20.04c-.08.05-.21.15-.33.15-1.96,0-3.92,0-5.88,0-.11,0-.22-.06-.34-.12,2.16-.03,4.34-.03,6.55-.03Z" style="fill: #f9d793; stroke-width: 0px;"/>
  <path d="M202.56,20.02c-.12.03-.27.05-.44.04.12-.03.27-.05.44-.04Z" style="fill: #f9d793; stroke-width: 0px;"/>
  <path d="M217.11,20.04s-.13.03-.21.02c.06-.03.12-.03.21-.02Z" style="fill: #f9d793; stroke-width: 0px;"/>
  <path d="M210.97,20.07c1.74-.02,3.52-.03,5.32-.02-.05.03-.14.07-.23.07-1.64,0-3.28,0-4.91,0-.05,0-.1-.02-.18-.05Z" style="fill: #f9d793; stroke-width: 0px;"/>
  <path d="M100.63,6.46c-.21.12-.44.26-.69.34-.57.19-1.15.35-1.76.52.28-.15.59-.33.93-.44.49-.17.99-.29,1.52-.42Z" style="fill: #ae90d3; stroke-width: 0px;"/>
  <path d="M115.82,1.46c-.63.4-1.34.61-2.12.73.3-.15.62-.32.96-.44.37-.13.76-.2,1.16-.29Z" style="fill: #ae90d3; stroke-width: 0px;"/>
  <path d="M103.29,5.55c-.55.23-1.12.44-1.72.65.11-.1.24-.23.39-.29.43-.15.87-.26,1.33-.37Z" style="fill: #e6bdcf; stroke-width: 0px;"/>
  <path d="M105.22,4.91c-.39.18-.8.34-1.24.49.1-.09.22-.22.37-.28.27-.1.56-.16.87-.22Z" style="fill: #e6bdcf; stroke-width: 0px;"/>
  <path d="M113.4,2.27c-.4.15-.84.3-1.3.44.41-.16.84-.3,1.3-.44Z" style="fill: #ae90d3; stroke-width: 0px;"/>
  <path d="M94.04,8.64c-.31.36-.76.45-1.25.46-.02-.04-.02-.08-.02-.08,0,0,0,0,.03,0,.33-.1.64-.21.94-.31.09-.03.17-.05.29-.07Z" style="fill: #a382d3; stroke-width: 0px;"/>
  <path d="M108.92,3.65c-.25.13-.53.26-.86.39-.09.03-.14.06-.18.08-.06,0-.12,0-.2,0,.38-.16.8-.32,1.24-.48Z" style="fill: #e6bdcf; stroke-width: 0px;"/>
  <path d="M97.19,7.65s-.03,0-.08,0c-.19.03-.33.06-.47.09,0,0,0-.01,0-.01.13-.08.25-.18.39-.22.28-.09.58-.14.89-.18-.15.09-.32.16-.54.24-.09.04-.13.06-.18.08Z" style="fill: #e6bdcf; stroke-width: 0px;"/>
  <path d="M95.43,8.22c-.3.11-.6.21-.91.3.05-.06.12-.1.19-.14,0,0,.04,0,.08,0,.24-.05.44-.1.64-.15Z" style="fill: #a382d3; stroke-width: 0px;"/>
  <path d="M93.72,8.71c-.27.11-.57.21-.91.31.27-.11.57-.21.91-.31Z" style="fill: #e6bdcf; stroke-width: 0px;"/>
  <path d="M107.08,4.36c-.25.1-.51.19-.77.26.01-.05.03-.07.05-.09,0,0,.04,0,.08,0,.24-.06.44-.1.63-.15Z" style="fill: #ae90d3; stroke-width: 0px;"/>
  <path d="M95.43,8.22c-.2.05-.39.1-.62.15.25-.1.52-.2.82-.29-.06.06-.13.1-.2.14,0,0,0,0,0,0Z" style="fill: #e6bdcf; stroke-width: 0px;"/>
  <path d="M107.08,4.36c-.19.05-.39.1-.61.15.17-.08.36-.15.59-.21.03.02.03.06.03.06,0,0,0,0,0,0Z" style="fill: #f3c3d0; stroke-width: 0px;"/>
  <path d="M95.46,8.22s.11-.08.2-.14c.05-.02.08-.02.16-.02.06,0,.07,0,.09,0-.14.05-.28.1-.45.15Z" style="fill: #a382d3; stroke-width: 0px;"/>
  <path d="M107.12,4.36s-.03-.04-.03-.06.04-.02.08-.02c.08-.03.12-.05.16-.07,0,0,0,0,.03,0,.09,0,.15,0,.21,0-.14.06-.28.11-.45.17Z" style="fill: #ae90d3; stroke-width: 0px;"/>
  <path d="M94.68,8.38s-.11.08-.2.14c-.02.02-.06.03-.1.03-.08,0-.12,0-.15,0,.14-.06.28-.11.45-.17Z" style="fill: #e6bdcf; stroke-width: 0px;"/>
  <path d="M92.74,9.02s.03.04.03.06c-.04.02-.07.03-.15.04-.07.02-.08.04-.09.06,0,0,0,0,0,0-.06,0-.12,0-.21,0,.11-.06.25-.11.42-.17Z" style="fill: #e6bdcf; stroke-width: 0px;"/>
  <path d="M96.39,7.9s-.04,0-.08,0c-.08,0-.12,0-.15,0,.14-.06.27-.12.44-.18.03,0,.04,0,.02.03-.09.06-.16.1-.23.14Z" style="fill: #e6bdcf; stroke-width: 0px;"/>
  <path d="M106.34,4.52s0,.04-.04.08c-.06.02-.11.03-.2.05-.07.02-.11.03-.14.03,0,0,0,0,0,0,.12-.05.24-.1.39-.15Z" style="fill: #f3c3d0; stroke-width: 0px;"/>
  <path d="M107.57,4.18c-.06.02-.12.02-.21.03.04-.04.11-.07.2-.09.02.02.01.05.01.07Z" style="fill: #f3c3d0; stroke-width: 0px;"/>
  <path d="M96.14,7.92c.05,0,.09,0,.15,0-.04.04-.12.07-.2.09,0-.04.01-.06.05-.09Z" style="fill: #ae90d3; stroke-width: 0px;"/>
  <path d="M103.69,5.41c-.04.05-.1.1-.2.14.04-.05.1-.1.2-.14Z" style="fill: #e6bdcf; stroke-width: 0px;"/>
  <path d="M94.22,8.56s.08-.01.14,0c-.02.03-.07.06-.13.07-.01-.02-.01-.05,0-.07Z" style="fill: #a382d3; stroke-width: 0px;"/>
  <path d="M107.31,4.21s-.06.05-.12.07c.02-.02.06-.05.12-.07Z" style="fill: #f3c3d0; stroke-width: 0px;"/>
  <path d="M105.88,4.76s.03-.04.06-.07c.01-.01.02,0,.01.01-.03.04-.05.05-.07.07,0,0,0-.01,0-.02Z" style="fill: #f3c3d0; stroke-width: 0px;"/>
  <path d="M105.47,4.9s-.02.01-.05,0c0-.03.02-.03.05,0Z" style="fill: #e6bdcf; stroke-width: 0px;"/>
  <path d="M95.92,8.06s-.03,0-.07,0c0-.02,0-.04.05-.04.02,0,.02.03.01.04Z" style="fill: #ae90d3; stroke-width: 0px;"/>
  <path d="M109.1,3.58s-.02.03-.06.05c0-.01.02-.03.06-.05Z" style="fill: #e6bdcf; stroke-width: 0px;"/>
  <path d="M111.89,2.7s-.01.03-.05.05c0-.02.01-.04.05-.05Z" style="fill: #ae90d3; stroke-width: 0px;"/>
  <path d="M96.43,7.9s.11-.08.2-.14c.16-.05.3-.07.47-.1-.19.08-.41.16-.66.24Z" style="fill: #ae90d3; stroke-width: 0px;"/>
  <path d="M105.9,4.79s.02-.05.05-.09c.04-.02.08-.03.13-.03-.04.04-.1.09-.19.12Z" style="fill: #ae90d3; stroke-width: 0px;"/>
  <path d="M107.91,4.12s.06-.05.12-.07c-.02.02-.06.05-.12.07Z" style="fill: #ae90d3; stroke-width: 0px;"/>
  <path d="M97.21,7.65s.06-.05.12-.07c-.02.02-.06.05-.12.07Z" style="fill: #ae90d3; stroke-width: 0px;"/>
  <path d="M92.55,9.18s0-.03.05-.05c0,.02-.01.03-.05.05Z" style="fill: #a382d3; stroke-width: 0px;"/>
  <path d="M31.82,21.86c-2.57.02-5.17.02-7.81.02.06-.03.17-.07.27-.07,2.44,0,4.88,0,7.32,0,.07,0,.13.02.22.05Z" style="fill: #94a0c9; stroke-width: 0px;"/>
  <path d="M74.08,23.82c-.32,0-.28-.21-.28-.39,0-1.63,0-3.25,0-4.88,0-.47,0-.93,0-1.44.01-1.02-.12-.92.88-.92,4.83,0,9.65,0,14.48,0,.17,0,.34.03.54.06-.07.07-.16.11-.3.17-.14.06-.23.12-.32.17-.04.02-.09.03-.17.07-.19.11-.34.21-.48.3-.91.43-1.81.85-2.72,1.28-1.56.74-3.11,1.47-4.66,2.22-1.29.63-2.57,1.28-3.86,1.91-1.02.49-2.05.97-3.1,1.45Z" style="fill: #fd9c57; stroke-width: 0px;"/>
  <path d="M88.45,16.96c.12-.1.26-.19.44-.29-.12.1-.26.2-.44.29Z" style="fill: #f5ad81; stroke-width: 0px;"/>
  <path d="M89.1,16.6c.07-.07.16-.12.28-.17-.07.06-.17.12-.28.17Z" style="fill: #f5ad81; stroke-width: 0px;"/>
</svg>