<svg viewBox="0 0 853.57 79.36" xmlns="http://www.w3.org/2000/svg"><g fill="#f9c6b9"><path d="m19.96 31.48h-16.24v-18.7h52.15v18.7h-16.24v43.3h-19.68v-43.3z"/><path d="m62.96 12.78h19.68v21.16h18.7v-21.16h19.68v61.99h-19.68v-22.14h-18.7v22.14h-19.68z"/><path d="m134 12.78h48.22v16.73h-28.54v5.9h26.08v15.74h-26.08v6.89h29.52v16.73h-49.2z"/><path d="m217.64 43.78c0-17.71 14.27-31.98 32.47-31.98 26.08 0 30.51 21.65 30.51 21.65l-19.68 1.97s-3.44-4.92-10.82-4.92c-6.89 0-12.79 5.9-12.79 13.28s5.9 13.28 12.79 13.28c6.4 0 9.84-3.94 9.84-3.94h-10.82v-11.81h31.98v33.46h-12.3l-2.46-5.9s-5.41 6.89-18.2 6.89c-16.24 0-30.51-14.27-30.51-31.98z"/><path d="m322.35 75.76c18.2 0 32.47-14.27 32.47-31.98s-14.27-31.98-32.47-31.98-32.47 14.27-32.47 31.98 14.27 31.98 32.47 31.98zm0-18.69c-6.89 0-12.79-5.9-12.79-13.28s5.9-13.28 12.79-13.28 12.79 5.9 12.79 13.28-5.9 13.28-12.79 13.28zm43.98-6.4h31.49v-16.73h-31.49z"/><path d="m416.21 31.48h-16.24v-18.7h52.15v18.7h-16.24v43.3h-19.68v-43.3z"/><path d="m457.27 43.78c0-17.71 14.27-31.98 32.47-31.98s32.47 14.27 32.47 31.98-14.27 31.98-32.47 31.98-32.47-14.27-32.47-31.98zm45.27 0c0-7.38-5.9-13.28-12.79-13.28s-12.79 5.9-12.79 13.28 5.9 13.28 12.79 13.28 12.79-5.9 12.79-13.28z"/><path d="m556.85 43.78c0-17.71 14.27-31.98 32.47-31.98 26.08 0 30.5 21.65 30.5 21.65l-19.68 1.97s-3.44-4.92-10.82-4.92c-6.89 0-12.79 5.9-12.79 13.28s5.9 13.28 12.79 13.28c6.4 0 9.84-3.94 9.84-3.94h-10.82v-11.81h31.98v33.46h-12.3l-2.46-5.9s-5.41 6.89-18.21 6.89c-16.24 0-30.5-14.27-30.5-31.98z"/><path d="m631.24 48.21v-35.43h19.68v35.43c0 5.41 3.44 8.86 8.86 8.86s8.86-3.44 8.86-8.86v-35.43h19.68v35.43c0 16.73-10.83 27.55-28.54 27.55s-28.54-10.83-28.54-27.55z"/><path d="m700.22 12.78h19.68v61.99h-19.68z"/><path d="m732.3 12.78h23.62c19.19 0 32.47 13.28 32.47 31s-13.29 31-32.47 31h-23.62zm23.62 44.29c6.89 0 12.79-5.9 12.79-13.28s-5.9-13.28-12.79-13.28h-3.94v26.57h3.94z"/><path d="m798.82 12.78h48.22v16.73h-28.54v5.9h26.08v15.74h-26.08v6.89h29.52v16.73h-49.2z"/></g><path d="m18.61 72.08h19.68v-43.3h16.24v-18.69h-52.16v18.7h16.24v43.3zm43.03 0h19.68v-22.14h18.7v22.14h19.68v-61.99h-19.68v21.16h-18.7v-21.16h-19.68zm71.01 0h49.2v-16.73h-29.52v-6.89h26.08v-15.74h-26.08v-5.9h28.54v-16.73h-48.22zm114.15.99c12.79 0 18.2-6.89 18.2-6.89l2.46 5.9h12.3v-33.46h-31.98v11.81h10.82s-3.44 3.94-9.84 3.94c-6.89 0-12.79-5.9-12.79-13.28s5.9-13.28 12.79-13.28c7.38 0 10.82 4.92 10.82 4.92l19.68-1.97s-4.43-21.65-30.5-21.65c-18.2 0-32.47 14.27-32.47 31.98s14.27 31.98 30.5 31.98zm74.2 0c18.2 0 32.47-14.27 32.47-31.98s-14.27-31.98-32.47-31.98-32.47 14.27-32.47 31.98 14.27 31.98 32.47 31.98zm0-18.7c-6.89 0-12.79-5.9-12.79-13.28s5.9-13.28 12.79-13.28 12.79 5.9 12.79 13.28-5.9 13.28-12.79 13.28zm43.99-6.4h31.49v-16.73h-31.49zm49.87 24.11h19.68v-43.3h16.24v-18.69h-52.15v18.7h16.24v43.3zm73.54.99c18.2 0 32.47-14.27 32.47-31.98s-14.27-31.98-32.47-31.98-32.47 14.27-32.47 31.98 14.27 31.98 32.47 31.98zm0-18.7c-6.89 0-12.79-5.9-12.79-13.28s5.9-13.28 12.79-13.28 12.79 5.9 12.79 13.28-5.9 13.28-12.79 13.28zm97.41 18.7c12.79 0 18.2-6.89 18.2-6.89l2.46 5.9h12.3v-33.46h-31.98v11.81h10.82s-3.44 3.94-9.84 3.94c-6.89 0-12.79-5.9-12.79-13.28s5.9-13.28 12.79-13.28c7.38 0 10.82 4.92 10.82 4.92l19.68-1.97s-4.43-21.65-30.5-21.65c-18.2 0-32.47 14.27-32.47 31.98s14.27 31.98 30.5 31.98zm72.41 0c17.71 0 28.54-10.82 28.54-27.55v-35.43h-19.68v35.42c0 5.41-3.44 8.86-8.86 8.86s-8.86-3.44-8.86-8.86v-35.42h-19.68v35.42c0 16.73 10.82 27.55 28.54 27.55zm41.08-.99h19.68v-61.99h-19.68zm32.44 0h23.62c19.19 0 32.47-13.28 32.47-31s-13.28-31-32.47-31h-23.62v61.99zm19.68-17.71v-26.57h3.94c6.89 0 12.79 5.9 12.79 13.28s-5.9 13.28-12.79 13.28h-3.94zm46.32 17.71h49.2v-16.73h-29.52v-6.89h26.08v-15.74h-26.08v-5.9h28.54v-16.73h-48.22z" fill="none" stroke="#f00" stroke-width="1.17"/></svg>