<?xml version="1.0" encoding="UTF-8"?>
<svg id="Layer_1" data-name="Layer 1" xmlns="http://www.w3.org/2000/svg" viewBox="0 0 223 52.66">
  <path d="M31.17,22.08c2.6.14,5.1-.41,7.68-.6,3.04-.22,6.02.56,7.38,3.54.81,1.8.88,3.85.7,5.81-.9,9.34-7.65,17.91-16.58,20.78-8.93,2.87-19.51-.29-25.29-7.69C.78,38.44-.77,31.07.35,24.22c.84-5.28,3.2-10.21,6.79-14.18,3.61-3.95,8.36-6.66,13.6-7.75,3.96-.81,8.21-.57,11.86,1.18,1.52.73,3.01,1.85,3.44,3.48.37,1.41-.16,2.97-1.13,4.05s-2.34,1.76-3.74,2.18c-4.41,1.32-9.46.34-13.45,2.64-2.06,1.18-3.6,3.14-4.62,5.28-1.99,4.19-2.06,9.32.11,13.42,2.17,4.1,6.61,6.99,11.24,7,4.64.01,9.21-3.01,10.76-7.39.13-.26.15-.56.06-.84-.17-.4-.67-.5-1.11-.54-2.12-.12-4.24.35-6.37.21-2.12-.13-4.42-1.08-5.19-3.07-.59-1.5-.13-3.26.83-4.56,1.16-1.56,3.08-2.88,5-3.22.91-.16,1.81.04,2.73-.03Z" style="fill: #f9c6b9; stroke-width: 0px;"/>
  <path d="M143.27,26.42c-.04,3.18.02,6.37.13,9.55.05,1.28.12,2.56.23,3.83.23,2.57.43,5.78,1.6,8.12.81,1.62,2.45,2.97,4.27,2.9,2.45-.11,4.08-2.63,4.77-4.99,1.4-4.8.76-9.92.68-14.91-.07-4.2.27-8.4,1.02-12.53.14-.77.33-1.59.93-2.1.46-.39,1.08-.52,1.7-.6,3.08-.44,6.2-.27,9.31-.47,3.11-.2,6.3-.83,8.82-2.64,1.43-1.03,2.58-2.4,3.61-3.83.35-.48.7-1.02.68-1.62-.04-1.22-1.48-1.81-2.67-2.07-4.12-.89-8.33-1.34-12.55-1.35-3.63,0-7.44.3-10.7-1.32-2.06-1.01-4.08-2.81-6.32-2.3-1.33.31-2.33,1.38-3.37,2.26-1.6,1.36-3.46,2.38-5.47,2.98-2.41.73-4.97.84-7.36,1.62-2.39.77-4.75,2.45-5.26,4.92-.46,2.22.79,4.59,2.71,5.8s4.37,1.38,6.57.84c1.69-.41,3.61-1.33,5.39-.87,1.44.38,1.48,2.57,1.42,3.74-.08,1.67-.13,3.35-.15,5.03Z" style="fill: #f9c6b9; stroke-width: 0px;"/>
  <path d="M110.39,38.44c-6.99.29-8.61-11.83-1.12-11.87,3.78-.02,7.55-1.1,11.33-1.41,2.07-.19,4.15-.13,6.2.19,1.45.24,3.19.43,4.49,1.17.3.16.56.38.76.64.2.27.35.58.42.91.63,4.2-6.87,5.36-9.57,5.9-4.47.49-8.06,4.06-12.49,4.46" style="fill: #f9c6b9; stroke-width: 0px;"/>
  <path d="M177.49,27.32c-.07-1.79.27-3.46.54-5.22.21-1.42.96-2.84,1.59-4.13,2.63-5.36,6.74-10.02,12.13-12.68,2.62-1.31,5.49-2.03,8.42-2.11,4.31-.08,8.58,1.37,12.31,3.56,3.37,1.99,6.43,4.68,8.29,8.13,2.03,3.8,2.48,8.27,2.1,12.56-.45,5.02-2.04,10.03-5.12,14.01-3.08,3.99-7.58,6.81-12.43,8.24-4.29,1.27-8.95,1.48-13.26.27-2.86-.81-5.5-2.26-7.72-4.25-2.21-1.99-3.94-4.46-5.06-7.22-.2-.5-.38-1-.54-1.51l-.06-.2c-.9-3.06-1.3-6.25-1.18-9.44h-.01ZM212.1,19.63c-.63-1.78-1.62-3.4-3.38-4.32-.3-.17-.64-.28-.99-.3-.47.03-.93.14-1.35.34-4,1.49-8.85.23-12.43,2.56-2.35,1.53-3.61,4.32-4.2,7.05-.64,2.99-.62,6.23.74,8.96,1.77,3.55,5.74,5.78,9.71,5.79,2.95,0,5.82-1.14,8.1-2.98,2.24-1.81,3.66-4.32,4.38-7.09.7-2.7.54-5.6-.1-8.31-.14-.58-.3-1.14-.49-1.7h.01Z" style="fill: #f9c6b9; stroke-width: 0px;"/>
  <path d="M75.6,51.44c-15.57.62-28.33-17.25-21.94-31.6,4.26-10.54,17.31-21.97,28.65-15.21,1.3.78,2.41.81,3.84,1.25,1.82.55,3.86,2,5.19,3.35,3.25,3.3,5.8,7.23,7.49,11.55,1.08,2.73,1.22,5.48.96,8.39-.48,4.96-2.42,9.67-5.58,13.53-4.52,5.56-11.37,9.08-18.6,8.74h0ZM88.04,33.77c1.86-2.68,2.75-5.79,2.26-9.05-.37-2.53-1.44-4.91-2.81-7.06-.73-1.15-1.62-2.29-2.84-2.86-1-.46-2.14-.49-3.24-.43-3.83.26-7.52,1.54-10.68,3.73-3.01,2.06-5.6,4.96-6.54,8.49-2.18,8.17,4.68,13.47,11.68,14.27,5.47.63,9.62-3.4,12.17-7.09h0Z" style="fill: #f9c6b9; stroke-width: 0px;"/>
</svg>