<?xml version="1.0" encoding="utf-8"?>
<!-- Generator: Adobe Illustrator 28.2.0, SVG Export Plug-In . SVG Version: 6.00 Build 0)  -->
<svg version="1.1" id="Layer_1" xmlns="http://www.w3.org/2000/svg" xmlns:xlink="http://www.w3.org/1999/xlink" x="0px" y="0px"
	 viewBox="0 0 160 60" enable-background="new 0 0 160 60" xml:space="preserve">
<path fill="#FF0001" d="M16.7,48.4c-2.2,0-4.4-0.4-6.4-1.2c-2-0.8-3.9-2.1-5.4-3.6c-1.6-1.6-2.8-3.4-3.6-5.4c-0.8-2-1.3-4.2-1.3-6.4
	c0-9.3,7.3-16.8,16.7-16.8c4,0,7.4,1.2,10.2,3.4c1.2,0.9,1,3.7-0.3,4.8c-0.6,0.5-1.3,0.8-2,0.8s-1.5-0.2-2.1-0.6
	c-1.5-1.1-3.6-1.7-5.7-1.7c-5.5,0-9.8,4.5-9.8,10.1c0,5.5,4.3,10,9.8,10c3.7,0,6.6-1.7,8.1-5.2h-6.4c-0.7,0-1.4-0.3-1.9-0.8
	c-0.5-0.5-0.8-1.2-0.8-2c0-0.4,0.1-0.7,0.2-1.1c0.1-0.3,0.3-0.7,0.6-0.9c0.3-0.3,0.6-0.5,0.9-0.6c0.3-0.1,0.7-0.2,1.1-0.2h12.2
	c1.6,0,2.2,0.9,2,2.6C31.4,43.8,25.4,48.4,16.7,48.4z"/>
<path fill="#FF7800" d="M53.1,21.3l5.3,7.6c0.9,1.4,0.3,3.6-1.3,4.5c-1.5,0.9-3.6,0.5-4.5-0.9l-6.3-10.3h-3.2v8.5
	c0,1.7-1.6,3.2-3.5,3.2c-1.8,0-3.5-1.5-3.5-3.2V4.5c0-1.9,1.2-3.6,3.3-3.6h10c7.3,0,10.8,5.2,10.9,10.5
	C60.3,15.8,57.9,19.8,53.1,21.3z M43.2,7.1v9.2h6.2c2.7,0,4.1-2.5,4.1-4.6c0-2-1.3-4.6-3.9-4.6L43.2,7.1z"/>
<path fill="#00BFEC" d="M121.5,10.1v23.6c0,1.7-1.6,3.2-3.5,3.2c-1.8,0-3.5-1.5-3.5-3.2V10.1h-6.3c-1.5,0-2.8-1.5-2.8-3
	c0-1.7,1.3-3.1,2.8-3.1h19.4c1.6,0,2.8,1.4,2.8,3.1c0,1.6-1.4,3-2.8,3H121.5z"/>
<path fill="#C090C6" d="M157.7,27.9c-3.6-10.7-17.2-12.5-24.5-7.3c-7.3,5.2-9.6,12-3.8,22.5c4.3,7.8,15.3,8.9,22.5,3.8
	C159.3,41.7,160.6,36.3,157.7,27.9z M147.2,43.8c-5.7,2.2-12-0.4-14.2-6.1c-2.2-5.7-0.1-11.4,5.6-13.6c5.7-2.2,11.6,0.2,13.8,5.8
	C154.6,35.6,152.8,41.5,147.2,43.8z"/>
<path fill="#FFCE00" d="M79.3,9.7c-8.9-1-16.2,7.2-16.2,16.2c0,8.9,3.6,13.1,12.2,15.7c10.8,3.3,20.1-6.8,20.1-15.7
	C95.5,17,91.2,11.1,79.3,9.7z M83.5,35c-5.3,2.4-10.8,0.7-13.3-4.5c-2.4-5.3-0.5-11.1,4.8-13.5c5.3-2.4,11-1.1,13.5,4.2
	C90.9,26.3,88.7,32.5,83.5,35L83.5,35z"/>
<path fill="#00C83F" d="M119.3,49c-0.2-0.4-0.6-0.7-1-1c-0.4-0.2-0.9-0.4-1.3-0.4c-0.4,0-0.8,0.1-1.2,0.3c-0.4,0.2-0.7,0.5-0.9,0.9
	c-2.1,3.6-5.8,5.6-9.7,5.4c-4-0.3-7.5-2.8-9.2-6.7c-0.6-1.4-1.9-1.6-2.9-1.1c-1.3,0.5-2.2,2-1.5,3.6c2.3,5.4,7.2,8.9,13,9.2
	c0.3,0,0.7,0,1,0c2.7,0,5.4-0.7,7.8-2.1c2.4-1.4,4.4-3.3,5.7-5.7c0.2-0.4,0.4-0.8,0.4-1.2C119.6,49.7,119.5,49.3,119.3,49z"/>
<path fill="#00C83F" d="M102.3,41.6c1.9-0.1,3.9,0,5.8,0.2c0.2,0,0.4,0,0.5,0c1.2,0,2.2-0.7,2.5-1.8c0.1-0.4,0.1-0.7,0-1.1
	c-0.1-0.4-0.2-0.7-0.4-1c-0.2-0.3-0.4-0.5-0.6-0.6c-0.2-0.2-0.5-0.3-0.8-0.3c-2.3-0.4-4.7-0.5-7-0.4c-1.6,0.1-2.5,1.5-2.4,2.8
	C99.9,40.5,100.7,41.7,102.3,41.6z"/>
<path d="M81.1,31.6c6.3,0,6.3-9.7,0-9.7C74.9,21.8,74.9,31.6,81.1,31.6z"/>
<path d="M144.3,40.4c6.3,0,6.3-9.7,0-9.7C138,30.7,138,40.4,144.3,40.4z"/>
</svg>
